M48
;DRILL file {KiCad 4.0.7-e2-6376~61~ubuntu18.04.1} date Wed Oct 17 18:07:26 2018
;FORMAT={-:-/ absolute / metric / decimal}
FMAT,2
METRIC,TZ
T1C0.800
T2C1.000
T3C1.150
%
G90
G05
M71
T1
X146.5Y-77.34
X146.5Y-87.5
X150.5Y-83.
X150.5Y-85.54
X151.92Y-111.5
X153.46Y-93.5
X154.Y-89.5
X154.Y-97.5
X154.46Y-111.5
X156.Y-93.5
X156.54Y-89.5
X156.54Y-97.5
X157.Y-111.5
T2
X107.5Y-83.72
X107.5Y-86.26
X107.5Y-88.8
X107.5Y-91.34
X107.5Y-93.88
X107.5Y-96.42
X107.5Y-98.96
X107.5Y-101.5
X111.Y-73.5
X111.Y-77.5
X113.54Y-73.5
X113.54Y-77.5
X114.5Y-88.8
X114.5Y-91.34
X114.5Y-93.88
X114.5Y-96.42
X114.5Y-98.96
X114.5Y-101.5
X116.08Y-73.5
X116.08Y-77.5
X118.Y-123.5
X120.54Y-123.5
X123.08Y-123.5
X125.62Y-123.5
X128.16Y-123.5
X130.7Y-123.5
X133.24Y-123.5
X135.78Y-123.5
X147.5Y-133.5
X150.04Y-133.5
X152.58Y-133.5
X155.Y-118.46
X155.Y-121.
X156.Y-77.5
X156.Y-80.
X156.Y-82.5
X156.Y-85.
X156.92Y-133.5
X159.46Y-133.5
X162.Y-133.5
T3
X121.Y-75.
X121.Y-77.54
X121.Y-80.08
X121.Y-82.62
X121.Y-85.16
X121.Y-87.7
X121.Y-90.24
X121.Y-92.78
X121.Y-95.32
X121.Y-97.86
X121.Y-100.4
X121.Y-102.94
X121.Y-105.48
X121.Y-108.02
X121.Y-110.56
X136.24Y-75.
X136.24Y-77.54
X136.24Y-80.08
X136.24Y-82.62
X136.24Y-85.16
X136.24Y-87.7
X136.24Y-90.24
X136.24Y-92.78
X136.24Y-95.32
X136.24Y-97.86
X136.24Y-100.4
X136.24Y-102.94
X136.24Y-105.48
X136.24Y-108.02
X136.24Y-110.56
T0
M30
