G04 #@! TF.FileFunction,Copper,L1,Top,Signal*
%FSLAX46Y46*%
G04 Gerber Fmt 4.6, Leading zero omitted, Abs format (unit mm)*
G04 Created by KiCad (PCBNEW 4.0.7-e2-6376~61~ubuntu18.04.1) date Fri Oct 19 17:59:18 2018*
%MOMM*%
%LPD*%
G01*
G04 APERTURE LIST*
%ADD10C,0.100000*%
%ADD11R,1.725000X1.725000*%
%ADD12C,1.725000*%
%ADD13C,1.520000*%
%ADD14R,1.520000X1.520000*%
%ADD15R,1.700000X1.700000*%
%ADD16O,1.700000X1.700000*%
%ADD17R,1.750000X1.750000*%
%ADD18C,1.750000*%
G04 APERTURE END LIST*
D10*
D11*
X121000000Y-75000000D03*
D12*
X121000000Y-77540000D03*
X121000000Y-80080000D03*
X121000000Y-82620000D03*
X121000000Y-85160000D03*
X121000000Y-87700000D03*
X121000000Y-90240000D03*
X121000000Y-92780000D03*
X121000000Y-95320000D03*
X121000000Y-97860000D03*
X121000000Y-100400000D03*
X121000000Y-102940000D03*
X121000000Y-105480000D03*
X121000000Y-108020000D03*
X121000000Y-110560000D03*
X136240000Y-110560000D03*
X136240000Y-108020000D03*
X136240000Y-105480000D03*
X136240000Y-102940000D03*
X136240000Y-100400000D03*
X136240000Y-97860000D03*
X136240000Y-95320000D03*
X136240000Y-92780000D03*
X136240000Y-90240000D03*
X136240000Y-87700000D03*
X136240000Y-85160000D03*
X136240000Y-82620000D03*
X136240000Y-80080000D03*
X136240000Y-77540000D03*
X136240000Y-75000000D03*
D13*
X154460000Y-111500000D03*
X151920000Y-111500000D03*
D14*
X157000000Y-111500000D03*
D15*
X111000000Y-73500000D03*
D16*
X113540000Y-73500000D03*
X116080000Y-73500000D03*
D15*
X111000000Y-77500000D03*
D16*
X113540000Y-77500000D03*
X116080000Y-77500000D03*
D15*
X162000000Y-133500000D03*
D16*
X159460000Y-133500000D03*
X156920000Y-133500000D03*
D15*
X147500000Y-133500000D03*
D16*
X150040000Y-133500000D03*
X152580000Y-133500000D03*
D15*
X107500000Y-101500000D03*
D16*
X107500000Y-98960000D03*
X107500000Y-96420000D03*
X107500000Y-93880000D03*
X107500000Y-91340000D03*
X107500000Y-88800000D03*
X107500000Y-86260000D03*
X107500000Y-83720000D03*
D15*
X114500000Y-101500000D03*
D16*
X114500000Y-98960000D03*
X114500000Y-96420000D03*
X114500000Y-93880000D03*
X114500000Y-91340000D03*
X114500000Y-88800000D03*
D15*
X155000000Y-121000000D03*
D16*
X155000000Y-118460000D03*
D17*
X156000000Y-85000000D03*
D18*
X156000000Y-82500000D03*
X156000000Y-80000000D03*
X156000000Y-77500000D03*
D15*
X118000000Y-123500000D03*
D16*
X120540000Y-123500000D03*
X123080000Y-123500000D03*
X125620000Y-123500000D03*
X128160000Y-123500000D03*
X130700000Y-123500000D03*
X133240000Y-123500000D03*
X135780000Y-123500000D03*
M02*
