G04 #@! TF.FileFunction,Copper,L2,Bot,Signal*
%FSLAX46Y46*%
G04 Gerber Fmt 4.6, Leading zero omitted, Abs format (unit mm)*
G04 Created by KiCad (PCBNEW 4.0.7-e2-6376~61~ubuntu18.04.1) date Fri Oct 19 17:59:18 2018*
%MOMM*%
%LPD*%
G01*
G04 APERTURE LIST*
%ADD10C,0.100000*%
%ADD11R,1.725000X1.725000*%
%ADD12C,1.725000*%
%ADD13C,1.520000*%
%ADD14R,1.520000X1.520000*%
%ADD15R,1.700000X1.700000*%
%ADD16O,1.700000X1.700000*%
%ADD17R,1.750000X1.750000*%
%ADD18C,1.750000*%
%ADD19C,1.000000*%
%ADD20C,1.500000*%
%ADD21C,0.254000*%
G04 APERTURE END LIST*
D10*
D11*
X121000000Y-75000000D03*
D12*
X121000000Y-77540000D03*
X121000000Y-80080000D03*
X121000000Y-82620000D03*
X121000000Y-85160000D03*
X121000000Y-87700000D03*
X121000000Y-90240000D03*
X121000000Y-92780000D03*
X121000000Y-95320000D03*
X121000000Y-97860000D03*
X121000000Y-100400000D03*
X121000000Y-102940000D03*
X121000000Y-105480000D03*
X121000000Y-108020000D03*
X121000000Y-110560000D03*
X136240000Y-110560000D03*
X136240000Y-108020000D03*
X136240000Y-105480000D03*
X136240000Y-102940000D03*
X136240000Y-100400000D03*
X136240000Y-97860000D03*
X136240000Y-95320000D03*
X136240000Y-92780000D03*
X136240000Y-90240000D03*
X136240000Y-87700000D03*
X136240000Y-85160000D03*
X136240000Y-82620000D03*
X136240000Y-80080000D03*
X136240000Y-77540000D03*
X136240000Y-75000000D03*
D13*
X154460000Y-111500000D03*
X151920000Y-111500000D03*
D14*
X157000000Y-111500000D03*
D15*
X111000000Y-73500000D03*
D16*
X113540000Y-73500000D03*
X116080000Y-73500000D03*
D15*
X111000000Y-77500000D03*
D16*
X113540000Y-77500000D03*
X116080000Y-77500000D03*
D15*
X162000000Y-133500000D03*
D16*
X159460000Y-133500000D03*
X156920000Y-133500000D03*
D15*
X147500000Y-133500000D03*
D16*
X150040000Y-133500000D03*
X152580000Y-133500000D03*
D15*
X107500000Y-101500000D03*
D16*
X107500000Y-98960000D03*
X107500000Y-96420000D03*
X107500000Y-93880000D03*
X107500000Y-91340000D03*
X107500000Y-88800000D03*
X107500000Y-86260000D03*
X107500000Y-83720000D03*
D15*
X114500000Y-101500000D03*
D16*
X114500000Y-98960000D03*
X114500000Y-96420000D03*
X114500000Y-93880000D03*
X114500000Y-91340000D03*
X114500000Y-88800000D03*
D15*
X155000000Y-121000000D03*
D16*
X155000000Y-118460000D03*
D17*
X156000000Y-85000000D03*
D18*
X156000000Y-82500000D03*
X156000000Y-80000000D03*
X156000000Y-77500000D03*
D15*
X118000000Y-123500000D03*
D16*
X120540000Y-123500000D03*
X123080000Y-123500000D03*
X125620000Y-123500000D03*
X128160000Y-123500000D03*
X130700000Y-123500000D03*
X133240000Y-123500000D03*
X135780000Y-123500000D03*
D19*
X107500000Y-101500000D02*
X104000000Y-101500000D01*
X120760000Y-69000000D02*
X134380000Y-82620000D01*
X108000000Y-69000000D02*
X120760000Y-69000000D01*
X103000000Y-74000000D02*
X108000000Y-69000000D01*
X103000000Y-100500000D02*
X103000000Y-74000000D01*
X104000000Y-101500000D02*
X103000000Y-100500000D01*
D20*
X133240000Y-123500000D02*
X133240000Y-83760000D01*
X134380000Y-82620000D02*
X136240000Y-82620000D01*
X133240000Y-83760000D02*
X134380000Y-82620000D01*
D19*
X116080000Y-73500000D02*
X119500000Y-73500000D01*
X119500000Y-73500000D02*
X121000000Y-75000000D01*
X116080000Y-77500000D02*
X120960000Y-77500000D01*
X120960000Y-77500000D02*
X121000000Y-77540000D01*
X114500000Y-93880000D02*
X107500000Y-93880000D01*
X114500000Y-93880000D02*
X115620000Y-93880000D01*
X119260000Y-90240000D02*
X121000000Y-90240000D01*
X115620000Y-93880000D02*
X119260000Y-90240000D01*
X114500000Y-96420000D02*
X107500000Y-96420000D01*
X114500000Y-96420000D02*
X116080000Y-96420000D01*
X119720000Y-92780000D02*
X121000000Y-92780000D01*
X116080000Y-96420000D02*
X119720000Y-92780000D01*
X130700000Y-123500000D02*
X130700000Y-102200000D01*
X123820000Y-95320000D02*
X121000000Y-95320000D01*
X130700000Y-102200000D02*
X123820000Y-95320000D01*
X128160000Y-123500000D02*
X128160000Y-104160000D01*
X124400000Y-100400000D02*
X121000000Y-100400000D01*
X128160000Y-104160000D02*
X124400000Y-100400000D01*
X125620000Y-123500000D02*
X125620000Y-107120000D01*
X123980000Y-105480000D02*
X121000000Y-105480000D01*
X125620000Y-107120000D02*
X123980000Y-105480000D01*
X121000000Y-108020000D02*
X123020000Y-108020000D01*
X123080000Y-108080000D02*
X123080000Y-123500000D01*
X123020000Y-108020000D02*
X123080000Y-108080000D01*
X120540000Y-123500000D02*
X120540000Y-111020000D01*
X120540000Y-111020000D02*
X121000000Y-110560000D01*
X136240000Y-110560000D02*
X136240000Y-123040000D01*
X136240000Y-123040000D02*
X135780000Y-123500000D01*
X136240000Y-108020000D02*
X139020000Y-108020000D01*
X114500000Y-127500000D02*
X114500000Y-101500000D01*
X117000000Y-130000000D02*
X114500000Y-127500000D01*
X135500000Y-130000000D02*
X117000000Y-130000000D01*
X140000000Y-125500000D02*
X135500000Y-130000000D01*
X140000000Y-109000000D02*
X140000000Y-125500000D01*
X139020000Y-108020000D02*
X140000000Y-109000000D01*
X136240000Y-100400000D02*
X139400000Y-100400000D01*
X152580000Y-130080000D02*
X152580000Y-133500000D01*
X144500000Y-122000000D02*
X152580000Y-130080000D01*
X144500000Y-105500000D02*
X144500000Y-122000000D01*
X139400000Y-100400000D02*
X144500000Y-105500000D01*
X156920000Y-133500000D02*
X156920000Y-131920000D01*
X139360000Y-97860000D02*
X136240000Y-97860000D01*
X146500000Y-105000000D02*
X139360000Y-97860000D01*
X146500000Y-121500000D02*
X146500000Y-105000000D01*
X156920000Y-131920000D02*
X146500000Y-121500000D01*
X154460000Y-111500000D02*
X154460000Y-110460000D01*
X143320000Y-95320000D02*
X136240000Y-95320000D01*
X150000000Y-102000000D02*
X143320000Y-95320000D01*
X150000000Y-106000000D02*
X150000000Y-102000000D01*
X154460000Y-110460000D02*
X150000000Y-106000000D01*
X156000000Y-80000000D02*
X143500000Y-80000000D01*
X139300000Y-87700000D02*
X136240000Y-87700000D01*
X140500000Y-86500000D02*
X139300000Y-87700000D01*
X140500000Y-83000000D02*
X140500000Y-86500000D01*
X143500000Y-80000000D02*
X140500000Y-83000000D01*
D20*
X156000000Y-85000000D02*
X158500000Y-85000000D01*
X159000000Y-75000000D02*
X136240000Y-75000000D01*
X160000000Y-76000000D02*
X159000000Y-75000000D01*
X160000000Y-83500000D02*
X160000000Y-76000000D01*
X158500000Y-85000000D02*
X160000000Y-83500000D01*
D19*
X155500000Y-85000000D02*
X156000000Y-85000000D01*
D20*
X155000000Y-118460000D02*
X154960000Y-118460000D01*
X154960000Y-118460000D02*
X151920000Y-115420000D01*
X151920000Y-115420000D02*
X151920000Y-111500000D01*
X155000000Y-121000000D02*
X155000000Y-118460000D01*
D21*
G36*
X165098000Y-138598000D02*
X91902000Y-138598000D01*
X91902000Y-134054750D01*
X145923000Y-134054750D01*
X145923000Y-134494609D01*
X146033679Y-134761812D01*
X146238187Y-134966321D01*
X146505390Y-135077000D01*
X146945250Y-135077000D01*
X147127000Y-134895250D01*
X147127000Y-133873000D01*
X146104750Y-133873000D01*
X145923000Y-134054750D01*
X91902000Y-134054750D01*
X91902000Y-132505391D01*
X145923000Y-132505391D01*
X145923000Y-132945250D01*
X146104750Y-133127000D01*
X147127000Y-133127000D01*
X147127000Y-132104750D01*
X146945250Y-131923000D01*
X146505390Y-131923000D01*
X146238187Y-132033679D01*
X146033679Y-132238188D01*
X145923000Y-132505391D01*
X91902000Y-132505391D01*
X91902000Y-74000000D01*
X101673000Y-74000000D01*
X101673000Y-100500000D01*
X101774012Y-101007821D01*
X102061669Y-101438331D01*
X103061667Y-102438328D01*
X103061669Y-102438331D01*
X103492179Y-102725988D01*
X103576433Y-102742747D01*
X104000000Y-102827001D01*
X104000005Y-102827000D01*
X105974200Y-102827000D01*
X106045587Y-102937939D01*
X106321948Y-103126769D01*
X106650000Y-103193201D01*
X108350000Y-103193201D01*
X108656468Y-103135535D01*
X108937939Y-102954413D01*
X109126769Y-102678052D01*
X109193201Y-102350000D01*
X109193201Y-100650000D01*
X109135535Y-100343532D01*
X108954413Y-100062061D01*
X108728258Y-99907536D01*
X108955038Y-99568105D01*
X108844468Y-99333000D01*
X107873000Y-99333000D01*
X107873000Y-99353000D01*
X107127000Y-99353000D01*
X107127000Y-99333000D01*
X106155532Y-99333000D01*
X106044962Y-99568105D01*
X106273202Y-99909721D01*
X106062061Y-100045587D01*
X105975003Y-100173000D01*
X104549661Y-100173000D01*
X104327000Y-99950338D01*
X104327000Y-78054750D01*
X109423000Y-78054750D01*
X109423000Y-78494609D01*
X109533679Y-78761812D01*
X109738187Y-78966321D01*
X110005390Y-79077000D01*
X110445250Y-79077000D01*
X110627000Y-78895250D01*
X110627000Y-77873000D01*
X109604750Y-77873000D01*
X109423000Y-78054750D01*
X104327000Y-78054750D01*
X104327000Y-76505391D01*
X109423000Y-76505391D01*
X109423000Y-76945250D01*
X109604750Y-77127000D01*
X110627000Y-77127000D01*
X110627000Y-76104750D01*
X110445250Y-75923000D01*
X110005390Y-75923000D01*
X109738187Y-76033679D01*
X109533679Y-76238188D01*
X109423000Y-76505391D01*
X104327000Y-76505391D01*
X104327000Y-74549662D01*
X104821912Y-74054750D01*
X109423000Y-74054750D01*
X109423000Y-74494609D01*
X109533679Y-74761812D01*
X109738187Y-74966321D01*
X110005390Y-75077000D01*
X110445250Y-75077000D01*
X110627000Y-74895250D01*
X110627000Y-73873000D01*
X109604750Y-73873000D01*
X109423000Y-74054750D01*
X104821912Y-74054750D01*
X106371271Y-72505391D01*
X109423000Y-72505391D01*
X109423000Y-72945250D01*
X109604750Y-73127000D01*
X110627000Y-73127000D01*
X110627000Y-72104750D01*
X111373000Y-72104750D01*
X111373000Y-73127000D01*
X111393000Y-73127000D01*
X111393000Y-73873000D01*
X111373000Y-73873000D01*
X111373000Y-74895250D01*
X111554750Y-75077000D01*
X111994610Y-75077000D01*
X112261813Y-74966321D01*
X112447265Y-74780868D01*
X112898240Y-75082200D01*
X113540000Y-75209854D01*
X114181760Y-75082200D01*
X114725818Y-74718672D01*
X114810000Y-74592685D01*
X114894182Y-74718672D01*
X115438240Y-75082200D01*
X116080000Y-75209854D01*
X116721760Y-75082200D01*
X117103694Y-74827000D01*
X118950338Y-74827000D01*
X119294299Y-75170961D01*
X119294299Y-75862500D01*
X119351965Y-76168968D01*
X119354560Y-76173000D01*
X117103694Y-76173000D01*
X116721760Y-75917800D01*
X116080000Y-75790146D01*
X115438240Y-75917800D01*
X114894182Y-76281328D01*
X114810000Y-76407315D01*
X114725818Y-76281328D01*
X114181760Y-75917800D01*
X113540000Y-75790146D01*
X112898240Y-75917800D01*
X112447265Y-76219132D01*
X112261813Y-76033679D01*
X111994610Y-75923000D01*
X111554750Y-75923000D01*
X111373000Y-76104750D01*
X111373000Y-77127000D01*
X111393000Y-77127000D01*
X111393000Y-77873000D01*
X111373000Y-77873000D01*
X111373000Y-78895250D01*
X111554750Y-79077000D01*
X111994610Y-79077000D01*
X112261813Y-78966321D01*
X112447265Y-78780868D01*
X112898240Y-79082200D01*
X113540000Y-79209854D01*
X114181760Y-79082200D01*
X114725818Y-78718672D01*
X114810000Y-78592685D01*
X114894182Y-78718672D01*
X115438240Y-79082200D01*
X116080000Y-79209854D01*
X116721760Y-79082200D01*
X117103694Y-78827000D01*
X119863788Y-78827000D01*
X119568547Y-79121726D01*
X119310794Y-79742463D01*
X119310208Y-80414588D01*
X119566877Y-81035774D01*
X120041726Y-81511453D01*
X120662463Y-81769206D01*
X120676720Y-81769218D01*
X121000000Y-82092498D01*
X121322717Y-81769782D01*
X121334588Y-81769792D01*
X121955774Y-81513123D01*
X122431453Y-81038274D01*
X122689206Y-80417537D01*
X122689792Y-79745412D01*
X122433123Y-79124226D01*
X122119314Y-78809868D01*
X122431453Y-78498274D01*
X122689206Y-77877537D01*
X122689792Y-77205412D01*
X122433123Y-76584226D01*
X122368591Y-76519581D01*
X122450439Y-76466913D01*
X122639269Y-76190552D01*
X122705701Y-75862500D01*
X122705701Y-74137500D01*
X122648035Y-73831032D01*
X122466913Y-73549561D01*
X122190552Y-73360731D01*
X121862500Y-73294299D01*
X121170961Y-73294299D01*
X120438331Y-72561669D01*
X120007821Y-72274012D01*
X119500000Y-72173000D01*
X117103694Y-72173000D01*
X116721760Y-71917800D01*
X116080000Y-71790146D01*
X115438240Y-71917800D01*
X114894182Y-72281328D01*
X114810000Y-72407315D01*
X114725818Y-72281328D01*
X114181760Y-71917800D01*
X113540000Y-71790146D01*
X112898240Y-71917800D01*
X112447265Y-72219132D01*
X112261813Y-72033679D01*
X111994610Y-71923000D01*
X111554750Y-71923000D01*
X111373000Y-72104750D01*
X110627000Y-72104750D01*
X110445250Y-71923000D01*
X110005390Y-71923000D01*
X109738187Y-72033679D01*
X109533679Y-72238188D01*
X109423000Y-72505391D01*
X106371271Y-72505391D01*
X108549662Y-70327000D01*
X120210338Y-70327000D01*
X132326562Y-82443224D01*
X132124893Y-82644893D01*
X131783042Y-83156508D01*
X131663000Y-83760000D01*
X131663000Y-101298589D01*
X131638331Y-101261669D01*
X131638328Y-101261667D01*
X124758331Y-94381669D01*
X124327821Y-94094012D01*
X123820000Y-93993000D01*
X122176282Y-93993000D01*
X122431453Y-93738274D01*
X122689206Y-93117537D01*
X122689792Y-92445412D01*
X122433123Y-91824226D01*
X122119314Y-91509868D01*
X122431453Y-91198274D01*
X122689206Y-90577537D01*
X122689792Y-89905412D01*
X122433123Y-89284226D01*
X122119314Y-88969868D01*
X122431453Y-88658274D01*
X122689206Y-88037537D01*
X122689792Y-87365412D01*
X122433123Y-86744226D01*
X122119314Y-86429868D01*
X122431453Y-86118274D01*
X122689206Y-85497537D01*
X122689792Y-84825412D01*
X122433123Y-84204226D01*
X121958274Y-83728547D01*
X121337537Y-83470794D01*
X121323280Y-83470782D01*
X121000000Y-83147502D01*
X120677283Y-83470218D01*
X120665412Y-83470208D01*
X120044226Y-83726877D01*
X119568547Y-84201726D01*
X119310794Y-84822463D01*
X119310208Y-85494588D01*
X119566877Y-86115774D01*
X119880686Y-86430132D01*
X119568547Y-86741726D01*
X119310794Y-87362463D01*
X119310208Y-88034588D01*
X119566877Y-88655774D01*
X119823654Y-88913000D01*
X119260000Y-88913000D01*
X118752179Y-89014012D01*
X118321669Y-89301669D01*
X118321667Y-89301672D01*
X116191608Y-91431731D01*
X116209854Y-91340000D01*
X116082200Y-90698240D01*
X115718672Y-90154182D01*
X115592685Y-90070000D01*
X115718672Y-89985818D01*
X116082200Y-89441760D01*
X116209854Y-88800000D01*
X116082200Y-88158240D01*
X115718672Y-87614182D01*
X115174614Y-87250654D01*
X114532854Y-87123000D01*
X114467146Y-87123000D01*
X113825386Y-87250654D01*
X113281328Y-87614182D01*
X112917800Y-88158240D01*
X112790146Y-88800000D01*
X112917800Y-89441760D01*
X113281328Y-89985818D01*
X113407315Y-90070000D01*
X113281328Y-90154182D01*
X112917800Y-90698240D01*
X112790146Y-91340000D01*
X112917800Y-91981760D01*
X113281328Y-92525818D01*
X113322009Y-92553000D01*
X108677991Y-92553000D01*
X108718672Y-92525818D01*
X109082200Y-91981760D01*
X109209854Y-91340000D01*
X109082200Y-90698240D01*
X108718672Y-90154182D01*
X108592685Y-90070000D01*
X108718672Y-89985818D01*
X109082200Y-89441760D01*
X109209854Y-88800000D01*
X109082200Y-88158240D01*
X108718672Y-87614182D01*
X108592685Y-87530000D01*
X108718672Y-87445818D01*
X109082200Y-86901760D01*
X109209854Y-86260000D01*
X109082200Y-85618240D01*
X108718672Y-85074182D01*
X108592685Y-84990000D01*
X108718672Y-84905818D01*
X109082200Y-84361760D01*
X109209854Y-83720000D01*
X109082200Y-83078240D01*
X108772353Y-82614520D01*
X119379369Y-82614520D01*
X119500636Y-83235126D01*
X119504829Y-83245251D01*
X119753581Y-83338918D01*
X120472498Y-82620000D01*
X121527502Y-82620000D01*
X122246419Y-83338918D01*
X122495171Y-83245251D01*
X122620631Y-82625480D01*
X122499364Y-82004874D01*
X122495171Y-81994749D01*
X122246419Y-81901082D01*
X121527502Y-82620000D01*
X120472498Y-82620000D01*
X119753581Y-81901082D01*
X119504829Y-81994749D01*
X119379369Y-82614520D01*
X108772353Y-82614520D01*
X108718672Y-82534182D01*
X108174614Y-82170654D01*
X107532854Y-82043000D01*
X107467146Y-82043000D01*
X106825386Y-82170654D01*
X106281328Y-82534182D01*
X105917800Y-83078240D01*
X105790146Y-83720000D01*
X105917800Y-84361760D01*
X106281328Y-84905818D01*
X106407315Y-84990000D01*
X106281328Y-85074182D01*
X105917800Y-85618240D01*
X105790146Y-86260000D01*
X105917800Y-86901760D01*
X106281328Y-87445818D01*
X106407315Y-87530000D01*
X106281328Y-87614182D01*
X105917800Y-88158240D01*
X105790146Y-88800000D01*
X105917800Y-89441760D01*
X106281328Y-89985818D01*
X106407315Y-90070000D01*
X106281328Y-90154182D01*
X105917800Y-90698240D01*
X105790146Y-91340000D01*
X105917800Y-91981760D01*
X106281328Y-92525818D01*
X106407315Y-92610000D01*
X106281328Y-92694182D01*
X105917800Y-93238240D01*
X105790146Y-93880000D01*
X105917800Y-94521760D01*
X106281328Y-95065818D01*
X106407315Y-95150000D01*
X106281328Y-95234182D01*
X105917800Y-95778240D01*
X105790146Y-96420000D01*
X105917800Y-97061760D01*
X106281328Y-97605818D01*
X106512420Y-97760229D01*
X106381351Y-97848408D01*
X106044962Y-98351895D01*
X106155532Y-98587000D01*
X107127000Y-98587000D01*
X107127000Y-98567000D01*
X107873000Y-98567000D01*
X107873000Y-98587000D01*
X108844468Y-98587000D01*
X108955038Y-98351895D01*
X108618649Y-97848408D01*
X108487580Y-97760229D01*
X108507378Y-97747000D01*
X113492622Y-97747000D01*
X113512420Y-97760229D01*
X113381351Y-97848408D01*
X113044962Y-98351895D01*
X113155532Y-98587000D01*
X114127000Y-98587000D01*
X114127000Y-98567000D01*
X114873000Y-98567000D01*
X114873000Y-98587000D01*
X115844468Y-98587000D01*
X115955038Y-98351895D01*
X115618649Y-97848408D01*
X115487580Y-97760229D01*
X115507378Y-97747000D01*
X116080000Y-97747000D01*
X116587821Y-97645988D01*
X117018331Y-97358331D01*
X119310721Y-95065940D01*
X119310208Y-95654588D01*
X119566877Y-96275774D01*
X119880686Y-96590132D01*
X119568547Y-96901726D01*
X119310794Y-97522463D01*
X119310208Y-98194588D01*
X119566877Y-98815774D01*
X119880686Y-99130132D01*
X119568547Y-99441726D01*
X119310794Y-100062463D01*
X119310208Y-100734588D01*
X119566877Y-101355774D01*
X119880686Y-101670132D01*
X119568547Y-101981726D01*
X119310794Y-102602463D01*
X119310208Y-103274588D01*
X119566877Y-103895774D01*
X119880686Y-104210132D01*
X119568547Y-104521726D01*
X119310794Y-105142463D01*
X119310208Y-105814588D01*
X119566877Y-106435774D01*
X119880686Y-106750132D01*
X119568547Y-107061726D01*
X119310794Y-107682463D01*
X119310208Y-108354588D01*
X119566877Y-108975774D01*
X119880686Y-109290132D01*
X119568547Y-109601726D01*
X119310794Y-110222463D01*
X119310526Y-110529704D01*
X119213000Y-111020000D01*
X119213000Y-122013460D01*
X118994610Y-121923000D01*
X118554750Y-121923000D01*
X118373000Y-122104750D01*
X118373000Y-123127000D01*
X118393000Y-123127000D01*
X118393000Y-123873000D01*
X118373000Y-123873000D01*
X118373000Y-124895250D01*
X118554750Y-125077000D01*
X118994610Y-125077000D01*
X119261813Y-124966321D01*
X119447265Y-124780868D01*
X119898240Y-125082200D01*
X120540000Y-125209854D01*
X121181760Y-125082200D01*
X121725818Y-124718672D01*
X121810000Y-124592685D01*
X121894182Y-124718672D01*
X122438240Y-125082200D01*
X123080000Y-125209854D01*
X123721760Y-125082200D01*
X124265818Y-124718672D01*
X124350000Y-124592685D01*
X124434182Y-124718672D01*
X124978240Y-125082200D01*
X125620000Y-125209854D01*
X126261760Y-125082200D01*
X126805818Y-124718672D01*
X126890000Y-124592685D01*
X126974182Y-124718672D01*
X127518240Y-125082200D01*
X128160000Y-125209854D01*
X128801760Y-125082200D01*
X129345818Y-124718672D01*
X129430000Y-124592685D01*
X129514182Y-124718672D01*
X130058240Y-125082200D01*
X130700000Y-125209854D01*
X131341760Y-125082200D01*
X131885818Y-124718672D01*
X131970000Y-124592685D01*
X132054182Y-124718672D01*
X132598240Y-125082200D01*
X133240000Y-125209854D01*
X133881760Y-125082200D01*
X134425818Y-124718672D01*
X134510000Y-124592685D01*
X134594182Y-124718672D01*
X135138240Y-125082200D01*
X135780000Y-125209854D01*
X136421760Y-125082200D01*
X136965818Y-124718672D01*
X137329346Y-124174614D01*
X137448951Y-123573319D01*
X137465988Y-123547821D01*
X137567000Y-123040000D01*
X137567000Y-111622545D01*
X137671453Y-111518274D01*
X137929206Y-110897537D01*
X137929792Y-110225412D01*
X137673123Y-109604226D01*
X137416346Y-109347000D01*
X138470338Y-109347000D01*
X138673000Y-109549661D01*
X138673000Y-124950338D01*
X134950338Y-128673000D01*
X117549662Y-128673000D01*
X115827000Y-126950338D01*
X115827000Y-124054750D01*
X116423000Y-124054750D01*
X116423000Y-124494609D01*
X116533679Y-124761812D01*
X116738187Y-124966321D01*
X117005390Y-125077000D01*
X117445250Y-125077000D01*
X117627000Y-124895250D01*
X117627000Y-123873000D01*
X116604750Y-123873000D01*
X116423000Y-124054750D01*
X115827000Y-124054750D01*
X115827000Y-122505391D01*
X116423000Y-122505391D01*
X116423000Y-122945250D01*
X116604750Y-123127000D01*
X117627000Y-123127000D01*
X117627000Y-122104750D01*
X117445250Y-121923000D01*
X117005390Y-121923000D01*
X116738187Y-122033679D01*
X116533679Y-122238188D01*
X116423000Y-122505391D01*
X115827000Y-122505391D01*
X115827000Y-103025800D01*
X115937939Y-102954413D01*
X116126769Y-102678052D01*
X116193201Y-102350000D01*
X116193201Y-100650000D01*
X116135535Y-100343532D01*
X115954413Y-100062061D01*
X115728258Y-99907536D01*
X115955038Y-99568105D01*
X115844468Y-99333000D01*
X114873000Y-99333000D01*
X114873000Y-99353000D01*
X114127000Y-99353000D01*
X114127000Y-99333000D01*
X113155532Y-99333000D01*
X113044962Y-99568105D01*
X113273202Y-99909721D01*
X113062061Y-100045587D01*
X112873231Y-100321948D01*
X112806799Y-100650000D01*
X112806799Y-102350000D01*
X112864465Y-102656468D01*
X113045587Y-102937939D01*
X113173000Y-103024997D01*
X113173000Y-127500000D01*
X113274012Y-128007821D01*
X113561669Y-128438331D01*
X116061669Y-130938331D01*
X116492179Y-131225988D01*
X117000000Y-131327000D01*
X135500000Y-131327000D01*
X136007821Y-131225988D01*
X136438331Y-130938331D01*
X140938331Y-126438331D01*
X141225988Y-126007821D01*
X141327000Y-125500000D01*
X141327000Y-109000000D01*
X141225988Y-108492179D01*
X140938331Y-108061669D01*
X140938328Y-108061667D01*
X139958331Y-107081669D01*
X139527821Y-106794012D01*
X139020000Y-106693000D01*
X137416282Y-106693000D01*
X137671453Y-106438274D01*
X137929206Y-105817537D01*
X137929792Y-105145412D01*
X137673123Y-104524226D01*
X137359314Y-104209868D01*
X137671453Y-103898274D01*
X137929206Y-103277537D01*
X137929792Y-102605412D01*
X137673123Y-101984226D01*
X137416346Y-101727000D01*
X138850338Y-101727000D01*
X143173000Y-106049662D01*
X143173000Y-122000000D01*
X143274012Y-122507821D01*
X143561669Y-122938331D01*
X151253000Y-130629661D01*
X151253000Y-132322009D01*
X151225818Y-132281328D01*
X150681760Y-131917800D01*
X150040000Y-131790146D01*
X149398240Y-131917800D01*
X148947265Y-132219132D01*
X148761813Y-132033679D01*
X148494610Y-131923000D01*
X148054750Y-131923000D01*
X147873000Y-132104750D01*
X147873000Y-133127000D01*
X147893000Y-133127000D01*
X147893000Y-133873000D01*
X147873000Y-133873000D01*
X147873000Y-134895250D01*
X148054750Y-135077000D01*
X148494610Y-135077000D01*
X148761813Y-134966321D01*
X148947265Y-134780868D01*
X149398240Y-135082200D01*
X150040000Y-135209854D01*
X150681760Y-135082200D01*
X151225818Y-134718672D01*
X151310000Y-134592685D01*
X151394182Y-134718672D01*
X151938240Y-135082200D01*
X152580000Y-135209854D01*
X153221760Y-135082200D01*
X153765818Y-134718672D01*
X154129346Y-134174614D01*
X154257000Y-133532854D01*
X154257000Y-133467146D01*
X154129346Y-132825386D01*
X153907000Y-132492622D01*
X153907000Y-130783661D01*
X155593000Y-132469661D01*
X155593000Y-132492622D01*
X155370654Y-132825386D01*
X155243000Y-133467146D01*
X155243000Y-133532854D01*
X155370654Y-134174614D01*
X155734182Y-134718672D01*
X156278240Y-135082200D01*
X156920000Y-135209854D01*
X157561760Y-135082200D01*
X158105818Y-134718672D01*
X158190000Y-134592685D01*
X158274182Y-134718672D01*
X158818240Y-135082200D01*
X159460000Y-135209854D01*
X160101760Y-135082200D01*
X160552735Y-134780868D01*
X160738187Y-134966321D01*
X161005390Y-135077000D01*
X161445250Y-135077000D01*
X161627000Y-134895250D01*
X161627000Y-133873000D01*
X162373000Y-133873000D01*
X162373000Y-134895250D01*
X162554750Y-135077000D01*
X162994610Y-135077000D01*
X163261813Y-134966321D01*
X163466321Y-134761812D01*
X163577000Y-134494609D01*
X163577000Y-134054750D01*
X163395250Y-133873000D01*
X162373000Y-133873000D01*
X161627000Y-133873000D01*
X161607000Y-133873000D01*
X161607000Y-133127000D01*
X161627000Y-133127000D01*
X161627000Y-132104750D01*
X162373000Y-132104750D01*
X162373000Y-133127000D01*
X163395250Y-133127000D01*
X163577000Y-132945250D01*
X163577000Y-132505391D01*
X163466321Y-132238188D01*
X163261813Y-132033679D01*
X162994610Y-131923000D01*
X162554750Y-131923000D01*
X162373000Y-132104750D01*
X161627000Y-132104750D01*
X161445250Y-131923000D01*
X161005390Y-131923000D01*
X160738187Y-132033679D01*
X160552735Y-132219132D01*
X160101760Y-131917800D01*
X159460000Y-131790146D01*
X158818240Y-131917800D01*
X158274182Y-132281328D01*
X158247000Y-132322009D01*
X158247000Y-131920000D01*
X158145988Y-131412179D01*
X157858331Y-130981669D01*
X157858328Y-130981667D01*
X147827000Y-120950338D01*
X147827000Y-105000005D01*
X147827001Y-105000000D01*
X147725988Y-104492179D01*
X147438331Y-104061669D01*
X140298331Y-96921669D01*
X139887259Y-96647000D01*
X142770338Y-96647000D01*
X148673000Y-102549661D01*
X148673000Y-106000000D01*
X148774012Y-106507821D01*
X149061669Y-106938331D01*
X152036440Y-109913101D01*
X151605711Y-109912725D01*
X151022211Y-110153823D01*
X150575392Y-110599863D01*
X150333276Y-111182941D01*
X150332725Y-111814289D01*
X150343000Y-111839156D01*
X150343000Y-115420000D01*
X150463042Y-116023492D01*
X150804893Y-116535107D01*
X153423000Y-119153215D01*
X153423000Y-119749109D01*
X153373231Y-119821948D01*
X153306799Y-120150000D01*
X153306799Y-121850000D01*
X153364465Y-122156468D01*
X153545587Y-122437939D01*
X153821948Y-122626769D01*
X154150000Y-122693201D01*
X155850000Y-122693201D01*
X156156468Y-122635535D01*
X156437939Y-122454413D01*
X156626769Y-122178052D01*
X156693201Y-121850000D01*
X156693201Y-120150000D01*
X156635535Y-119843532D01*
X156577000Y-119752566D01*
X156577000Y-119109542D01*
X156582200Y-119101760D01*
X156709854Y-118460000D01*
X156582200Y-117818240D01*
X156218672Y-117274182D01*
X155674614Y-116910654D01*
X155632490Y-116902275D01*
X153497000Y-114766786D01*
X153497000Y-112781635D01*
X153559863Y-112844608D01*
X154142941Y-113086724D01*
X154774289Y-113087275D01*
X155357789Y-112846177D01*
X155596994Y-112607389D01*
X155623679Y-112671812D01*
X155828187Y-112876321D01*
X156095390Y-112987000D01*
X156445250Y-112987000D01*
X156627000Y-112805250D01*
X156627000Y-111873000D01*
X157373000Y-111873000D01*
X157373000Y-112805250D01*
X157554750Y-112987000D01*
X157904610Y-112987000D01*
X158171813Y-112876321D01*
X158376321Y-112671812D01*
X158487000Y-112404609D01*
X158487000Y-112054750D01*
X158305250Y-111873000D01*
X157373000Y-111873000D01*
X156627000Y-111873000D01*
X156607000Y-111873000D01*
X156607000Y-111127000D01*
X156627000Y-111127000D01*
X156627000Y-110194750D01*
X157373000Y-110194750D01*
X157373000Y-111127000D01*
X158305250Y-111127000D01*
X158487000Y-110945250D01*
X158487000Y-110595391D01*
X158376321Y-110328188D01*
X158171813Y-110123679D01*
X157904610Y-110013000D01*
X157554750Y-110013000D01*
X157373000Y-110194750D01*
X156627000Y-110194750D01*
X156445250Y-110013000D01*
X156095390Y-110013000D01*
X155828187Y-110123679D01*
X155738034Y-110213832D01*
X155685988Y-109952179D01*
X155398331Y-109521669D01*
X155398328Y-109521667D01*
X151327000Y-105450338D01*
X151327000Y-102000005D01*
X151327001Y-102000000D01*
X151229244Y-101508547D01*
X151225988Y-101492179D01*
X150938331Y-101061669D01*
X150938328Y-101061667D01*
X144258331Y-94381669D01*
X143827821Y-94094012D01*
X143320000Y-93993000D01*
X137416282Y-93993000D01*
X137671453Y-93738274D01*
X137929206Y-93117537D01*
X137929792Y-92445412D01*
X137673123Y-91824226D01*
X137359314Y-91509868D01*
X137671453Y-91198274D01*
X137929206Y-90577537D01*
X137929792Y-89905412D01*
X137673123Y-89284226D01*
X137416346Y-89027000D01*
X139300000Y-89027000D01*
X139807821Y-88925988D01*
X140238331Y-88638331D01*
X141438331Y-87438331D01*
X141725988Y-87007821D01*
X141827000Y-86500000D01*
X141827000Y-83549662D01*
X144049661Y-81327000D01*
X154765954Y-81327000D01*
X154557956Y-81534636D01*
X154298296Y-82159966D01*
X154297705Y-82837063D01*
X154556273Y-83462846D01*
X154583855Y-83490476D01*
X154537061Y-83520587D01*
X154348231Y-83796948D01*
X154281799Y-84125000D01*
X154281799Y-84480525D01*
X154274012Y-84492179D01*
X154173000Y-85000000D01*
X154274012Y-85507821D01*
X154281799Y-85519475D01*
X154281799Y-85875000D01*
X154339465Y-86181468D01*
X154520587Y-86462939D01*
X154796948Y-86651769D01*
X155125000Y-86718201D01*
X156875000Y-86718201D01*
X157181468Y-86660535D01*
X157311285Y-86577000D01*
X158500000Y-86577000D01*
X159103492Y-86456958D01*
X159615107Y-86115107D01*
X161115107Y-84615108D01*
X161456958Y-84103492D01*
X161489072Y-83942044D01*
X161577000Y-83500000D01*
X161577000Y-76000000D01*
X161456958Y-75396508D01*
X161243469Y-75077000D01*
X161115108Y-74884893D01*
X160115107Y-73884893D01*
X159603492Y-73543042D01*
X159000000Y-73423000D01*
X136847759Y-73423000D01*
X136577537Y-73310794D01*
X135905412Y-73310208D01*
X135284226Y-73566877D01*
X134808547Y-74041726D01*
X134550794Y-74662463D01*
X134550208Y-75334588D01*
X134806877Y-75955774D01*
X135281726Y-76431453D01*
X135902463Y-76689206D01*
X135916720Y-76689218D01*
X136240000Y-77012498D01*
X136254142Y-76998356D01*
X136781644Y-77525858D01*
X136767502Y-77540000D01*
X137486419Y-78258918D01*
X137735171Y-78165251D01*
X137860631Y-77545480D01*
X137739364Y-76924874D01*
X137735171Y-76914749D01*
X137486421Y-76821083D01*
X137647958Y-76659546D01*
X137565412Y-76577000D01*
X154616563Y-76577000D01*
X154583029Y-76610534D01*
X154744250Y-76771755D01*
X154494236Y-76867052D01*
X154366636Y-77491463D01*
X154487702Y-78117174D01*
X154494236Y-78132948D01*
X154744253Y-78228246D01*
X155472498Y-77500000D01*
X155458356Y-77485858D01*
X155985858Y-76958356D01*
X156000000Y-76972498D01*
X156014142Y-76958356D01*
X156541644Y-77485858D01*
X156527502Y-77500000D01*
X157255747Y-78228246D01*
X157505764Y-78132948D01*
X157633364Y-77508537D01*
X157512298Y-76882826D01*
X157505764Y-76867052D01*
X157255750Y-76771755D01*
X157416971Y-76610534D01*
X157383437Y-76577000D01*
X158346786Y-76577000D01*
X158423000Y-76653215D01*
X158423000Y-82846785D01*
X157846786Y-83423000D01*
X157459635Y-83423000D01*
X157701704Y-82840034D01*
X157702295Y-82162937D01*
X157443727Y-81537154D01*
X157156992Y-81249919D01*
X157442044Y-80965364D01*
X157701704Y-80340034D01*
X157702295Y-79662937D01*
X157443727Y-79037154D01*
X156965364Y-78557956D01*
X156340034Y-78298296D01*
X156270734Y-78298236D01*
X156000000Y-78027502D01*
X155729738Y-78297763D01*
X155662937Y-78297705D01*
X155037154Y-78556273D01*
X154920223Y-78673000D01*
X143500005Y-78673000D01*
X143500000Y-78672999D01*
X143053512Y-78761812D01*
X142992179Y-78774012D01*
X142561669Y-79061669D01*
X142561667Y-79061672D01*
X139561669Y-82061669D01*
X139274012Y-82492179D01*
X139173000Y-83000000D01*
X139173000Y-85950338D01*
X138750338Y-86373000D01*
X137416282Y-86373000D01*
X137671453Y-86118274D01*
X137929206Y-85497537D01*
X137929792Y-84825412D01*
X137673123Y-84204226D01*
X137359314Y-83889868D01*
X137671453Y-83578274D01*
X137929206Y-82957537D01*
X137929792Y-82285412D01*
X137673123Y-81664226D01*
X137359314Y-81349868D01*
X137671453Y-81038274D01*
X137929206Y-80417537D01*
X137929792Y-79745412D01*
X137673123Y-79124226D01*
X137198274Y-78648547D01*
X136577537Y-78390794D01*
X136563280Y-78390782D01*
X136240000Y-78067502D01*
X135917283Y-78390218D01*
X135905412Y-78390208D01*
X135284226Y-78646877D01*
X134808547Y-79121726D01*
X134550794Y-79742463D01*
X134550208Y-80414588D01*
X134806877Y-81035774D01*
X134814090Y-81043000D01*
X134679662Y-81043000D01*
X131171182Y-77534520D01*
X134619369Y-77534520D01*
X134740636Y-78155126D01*
X134744829Y-78165251D01*
X134993581Y-78258918D01*
X135712498Y-77540000D01*
X134993581Y-76821082D01*
X134744829Y-76914749D01*
X134619369Y-77534520D01*
X131171182Y-77534520D01*
X121698331Y-68061669D01*
X121267821Y-67774012D01*
X120760000Y-67673000D01*
X108000005Y-67673000D01*
X108000000Y-67672999D01*
X107492179Y-67774012D01*
X107061669Y-68061669D01*
X102061669Y-73061669D01*
X101774012Y-73492179D01*
X101673000Y-74000000D01*
X91902000Y-74000000D01*
X91902000Y-65402000D01*
X165098000Y-65402000D01*
X165098000Y-138598000D01*
X165098000Y-138598000D01*
G37*
X165098000Y-138598000D02*
X91902000Y-138598000D01*
X91902000Y-134054750D01*
X145923000Y-134054750D01*
X145923000Y-134494609D01*
X146033679Y-134761812D01*
X146238187Y-134966321D01*
X146505390Y-135077000D01*
X146945250Y-135077000D01*
X147127000Y-134895250D01*
X147127000Y-133873000D01*
X146104750Y-133873000D01*
X145923000Y-134054750D01*
X91902000Y-134054750D01*
X91902000Y-132505391D01*
X145923000Y-132505391D01*
X145923000Y-132945250D01*
X146104750Y-133127000D01*
X147127000Y-133127000D01*
X147127000Y-132104750D01*
X146945250Y-131923000D01*
X146505390Y-131923000D01*
X146238187Y-132033679D01*
X146033679Y-132238188D01*
X145923000Y-132505391D01*
X91902000Y-132505391D01*
X91902000Y-74000000D01*
X101673000Y-74000000D01*
X101673000Y-100500000D01*
X101774012Y-101007821D01*
X102061669Y-101438331D01*
X103061667Y-102438328D01*
X103061669Y-102438331D01*
X103492179Y-102725988D01*
X103576433Y-102742747D01*
X104000000Y-102827001D01*
X104000005Y-102827000D01*
X105974200Y-102827000D01*
X106045587Y-102937939D01*
X106321948Y-103126769D01*
X106650000Y-103193201D01*
X108350000Y-103193201D01*
X108656468Y-103135535D01*
X108937939Y-102954413D01*
X109126769Y-102678052D01*
X109193201Y-102350000D01*
X109193201Y-100650000D01*
X109135535Y-100343532D01*
X108954413Y-100062061D01*
X108728258Y-99907536D01*
X108955038Y-99568105D01*
X108844468Y-99333000D01*
X107873000Y-99333000D01*
X107873000Y-99353000D01*
X107127000Y-99353000D01*
X107127000Y-99333000D01*
X106155532Y-99333000D01*
X106044962Y-99568105D01*
X106273202Y-99909721D01*
X106062061Y-100045587D01*
X105975003Y-100173000D01*
X104549661Y-100173000D01*
X104327000Y-99950338D01*
X104327000Y-78054750D01*
X109423000Y-78054750D01*
X109423000Y-78494609D01*
X109533679Y-78761812D01*
X109738187Y-78966321D01*
X110005390Y-79077000D01*
X110445250Y-79077000D01*
X110627000Y-78895250D01*
X110627000Y-77873000D01*
X109604750Y-77873000D01*
X109423000Y-78054750D01*
X104327000Y-78054750D01*
X104327000Y-76505391D01*
X109423000Y-76505391D01*
X109423000Y-76945250D01*
X109604750Y-77127000D01*
X110627000Y-77127000D01*
X110627000Y-76104750D01*
X110445250Y-75923000D01*
X110005390Y-75923000D01*
X109738187Y-76033679D01*
X109533679Y-76238188D01*
X109423000Y-76505391D01*
X104327000Y-76505391D01*
X104327000Y-74549662D01*
X104821912Y-74054750D01*
X109423000Y-74054750D01*
X109423000Y-74494609D01*
X109533679Y-74761812D01*
X109738187Y-74966321D01*
X110005390Y-75077000D01*
X110445250Y-75077000D01*
X110627000Y-74895250D01*
X110627000Y-73873000D01*
X109604750Y-73873000D01*
X109423000Y-74054750D01*
X104821912Y-74054750D01*
X106371271Y-72505391D01*
X109423000Y-72505391D01*
X109423000Y-72945250D01*
X109604750Y-73127000D01*
X110627000Y-73127000D01*
X110627000Y-72104750D01*
X111373000Y-72104750D01*
X111373000Y-73127000D01*
X111393000Y-73127000D01*
X111393000Y-73873000D01*
X111373000Y-73873000D01*
X111373000Y-74895250D01*
X111554750Y-75077000D01*
X111994610Y-75077000D01*
X112261813Y-74966321D01*
X112447265Y-74780868D01*
X112898240Y-75082200D01*
X113540000Y-75209854D01*
X114181760Y-75082200D01*
X114725818Y-74718672D01*
X114810000Y-74592685D01*
X114894182Y-74718672D01*
X115438240Y-75082200D01*
X116080000Y-75209854D01*
X116721760Y-75082200D01*
X117103694Y-74827000D01*
X118950338Y-74827000D01*
X119294299Y-75170961D01*
X119294299Y-75862500D01*
X119351965Y-76168968D01*
X119354560Y-76173000D01*
X117103694Y-76173000D01*
X116721760Y-75917800D01*
X116080000Y-75790146D01*
X115438240Y-75917800D01*
X114894182Y-76281328D01*
X114810000Y-76407315D01*
X114725818Y-76281328D01*
X114181760Y-75917800D01*
X113540000Y-75790146D01*
X112898240Y-75917800D01*
X112447265Y-76219132D01*
X112261813Y-76033679D01*
X111994610Y-75923000D01*
X111554750Y-75923000D01*
X111373000Y-76104750D01*
X111373000Y-77127000D01*
X111393000Y-77127000D01*
X111393000Y-77873000D01*
X111373000Y-77873000D01*
X111373000Y-78895250D01*
X111554750Y-79077000D01*
X111994610Y-79077000D01*
X112261813Y-78966321D01*
X112447265Y-78780868D01*
X112898240Y-79082200D01*
X113540000Y-79209854D01*
X114181760Y-79082200D01*
X114725818Y-78718672D01*
X114810000Y-78592685D01*
X114894182Y-78718672D01*
X115438240Y-79082200D01*
X116080000Y-79209854D01*
X116721760Y-79082200D01*
X117103694Y-78827000D01*
X119863788Y-78827000D01*
X119568547Y-79121726D01*
X119310794Y-79742463D01*
X119310208Y-80414588D01*
X119566877Y-81035774D01*
X120041726Y-81511453D01*
X120662463Y-81769206D01*
X120676720Y-81769218D01*
X121000000Y-82092498D01*
X121322717Y-81769782D01*
X121334588Y-81769792D01*
X121955774Y-81513123D01*
X122431453Y-81038274D01*
X122689206Y-80417537D01*
X122689792Y-79745412D01*
X122433123Y-79124226D01*
X122119314Y-78809868D01*
X122431453Y-78498274D01*
X122689206Y-77877537D01*
X122689792Y-77205412D01*
X122433123Y-76584226D01*
X122368591Y-76519581D01*
X122450439Y-76466913D01*
X122639269Y-76190552D01*
X122705701Y-75862500D01*
X122705701Y-74137500D01*
X122648035Y-73831032D01*
X122466913Y-73549561D01*
X122190552Y-73360731D01*
X121862500Y-73294299D01*
X121170961Y-73294299D01*
X120438331Y-72561669D01*
X120007821Y-72274012D01*
X119500000Y-72173000D01*
X117103694Y-72173000D01*
X116721760Y-71917800D01*
X116080000Y-71790146D01*
X115438240Y-71917800D01*
X114894182Y-72281328D01*
X114810000Y-72407315D01*
X114725818Y-72281328D01*
X114181760Y-71917800D01*
X113540000Y-71790146D01*
X112898240Y-71917800D01*
X112447265Y-72219132D01*
X112261813Y-72033679D01*
X111994610Y-71923000D01*
X111554750Y-71923000D01*
X111373000Y-72104750D01*
X110627000Y-72104750D01*
X110445250Y-71923000D01*
X110005390Y-71923000D01*
X109738187Y-72033679D01*
X109533679Y-72238188D01*
X109423000Y-72505391D01*
X106371271Y-72505391D01*
X108549662Y-70327000D01*
X120210338Y-70327000D01*
X132326562Y-82443224D01*
X132124893Y-82644893D01*
X131783042Y-83156508D01*
X131663000Y-83760000D01*
X131663000Y-101298589D01*
X131638331Y-101261669D01*
X131638328Y-101261667D01*
X124758331Y-94381669D01*
X124327821Y-94094012D01*
X123820000Y-93993000D01*
X122176282Y-93993000D01*
X122431453Y-93738274D01*
X122689206Y-93117537D01*
X122689792Y-92445412D01*
X122433123Y-91824226D01*
X122119314Y-91509868D01*
X122431453Y-91198274D01*
X122689206Y-90577537D01*
X122689792Y-89905412D01*
X122433123Y-89284226D01*
X122119314Y-88969868D01*
X122431453Y-88658274D01*
X122689206Y-88037537D01*
X122689792Y-87365412D01*
X122433123Y-86744226D01*
X122119314Y-86429868D01*
X122431453Y-86118274D01*
X122689206Y-85497537D01*
X122689792Y-84825412D01*
X122433123Y-84204226D01*
X121958274Y-83728547D01*
X121337537Y-83470794D01*
X121323280Y-83470782D01*
X121000000Y-83147502D01*
X120677283Y-83470218D01*
X120665412Y-83470208D01*
X120044226Y-83726877D01*
X119568547Y-84201726D01*
X119310794Y-84822463D01*
X119310208Y-85494588D01*
X119566877Y-86115774D01*
X119880686Y-86430132D01*
X119568547Y-86741726D01*
X119310794Y-87362463D01*
X119310208Y-88034588D01*
X119566877Y-88655774D01*
X119823654Y-88913000D01*
X119260000Y-88913000D01*
X118752179Y-89014012D01*
X118321669Y-89301669D01*
X118321667Y-89301672D01*
X116191608Y-91431731D01*
X116209854Y-91340000D01*
X116082200Y-90698240D01*
X115718672Y-90154182D01*
X115592685Y-90070000D01*
X115718672Y-89985818D01*
X116082200Y-89441760D01*
X116209854Y-88800000D01*
X116082200Y-88158240D01*
X115718672Y-87614182D01*
X115174614Y-87250654D01*
X114532854Y-87123000D01*
X114467146Y-87123000D01*
X113825386Y-87250654D01*
X113281328Y-87614182D01*
X112917800Y-88158240D01*
X112790146Y-88800000D01*
X112917800Y-89441760D01*
X113281328Y-89985818D01*
X113407315Y-90070000D01*
X113281328Y-90154182D01*
X112917800Y-90698240D01*
X112790146Y-91340000D01*
X112917800Y-91981760D01*
X113281328Y-92525818D01*
X113322009Y-92553000D01*
X108677991Y-92553000D01*
X108718672Y-92525818D01*
X109082200Y-91981760D01*
X109209854Y-91340000D01*
X109082200Y-90698240D01*
X108718672Y-90154182D01*
X108592685Y-90070000D01*
X108718672Y-89985818D01*
X109082200Y-89441760D01*
X109209854Y-88800000D01*
X109082200Y-88158240D01*
X108718672Y-87614182D01*
X108592685Y-87530000D01*
X108718672Y-87445818D01*
X109082200Y-86901760D01*
X109209854Y-86260000D01*
X109082200Y-85618240D01*
X108718672Y-85074182D01*
X108592685Y-84990000D01*
X108718672Y-84905818D01*
X109082200Y-84361760D01*
X109209854Y-83720000D01*
X109082200Y-83078240D01*
X108772353Y-82614520D01*
X119379369Y-82614520D01*
X119500636Y-83235126D01*
X119504829Y-83245251D01*
X119753581Y-83338918D01*
X120472498Y-82620000D01*
X121527502Y-82620000D01*
X122246419Y-83338918D01*
X122495171Y-83245251D01*
X122620631Y-82625480D01*
X122499364Y-82004874D01*
X122495171Y-81994749D01*
X122246419Y-81901082D01*
X121527502Y-82620000D01*
X120472498Y-82620000D01*
X119753581Y-81901082D01*
X119504829Y-81994749D01*
X119379369Y-82614520D01*
X108772353Y-82614520D01*
X108718672Y-82534182D01*
X108174614Y-82170654D01*
X107532854Y-82043000D01*
X107467146Y-82043000D01*
X106825386Y-82170654D01*
X106281328Y-82534182D01*
X105917800Y-83078240D01*
X105790146Y-83720000D01*
X105917800Y-84361760D01*
X106281328Y-84905818D01*
X106407315Y-84990000D01*
X106281328Y-85074182D01*
X105917800Y-85618240D01*
X105790146Y-86260000D01*
X105917800Y-86901760D01*
X106281328Y-87445818D01*
X106407315Y-87530000D01*
X106281328Y-87614182D01*
X105917800Y-88158240D01*
X105790146Y-88800000D01*
X105917800Y-89441760D01*
X106281328Y-89985818D01*
X106407315Y-90070000D01*
X106281328Y-90154182D01*
X105917800Y-90698240D01*
X105790146Y-91340000D01*
X105917800Y-91981760D01*
X106281328Y-92525818D01*
X106407315Y-92610000D01*
X106281328Y-92694182D01*
X105917800Y-93238240D01*
X105790146Y-93880000D01*
X105917800Y-94521760D01*
X106281328Y-95065818D01*
X106407315Y-95150000D01*
X106281328Y-95234182D01*
X105917800Y-95778240D01*
X105790146Y-96420000D01*
X105917800Y-97061760D01*
X106281328Y-97605818D01*
X106512420Y-97760229D01*
X106381351Y-97848408D01*
X106044962Y-98351895D01*
X106155532Y-98587000D01*
X107127000Y-98587000D01*
X107127000Y-98567000D01*
X107873000Y-98567000D01*
X107873000Y-98587000D01*
X108844468Y-98587000D01*
X108955038Y-98351895D01*
X108618649Y-97848408D01*
X108487580Y-97760229D01*
X108507378Y-97747000D01*
X113492622Y-97747000D01*
X113512420Y-97760229D01*
X113381351Y-97848408D01*
X113044962Y-98351895D01*
X113155532Y-98587000D01*
X114127000Y-98587000D01*
X114127000Y-98567000D01*
X114873000Y-98567000D01*
X114873000Y-98587000D01*
X115844468Y-98587000D01*
X115955038Y-98351895D01*
X115618649Y-97848408D01*
X115487580Y-97760229D01*
X115507378Y-97747000D01*
X116080000Y-97747000D01*
X116587821Y-97645988D01*
X117018331Y-97358331D01*
X119310721Y-95065940D01*
X119310208Y-95654588D01*
X119566877Y-96275774D01*
X119880686Y-96590132D01*
X119568547Y-96901726D01*
X119310794Y-97522463D01*
X119310208Y-98194588D01*
X119566877Y-98815774D01*
X119880686Y-99130132D01*
X119568547Y-99441726D01*
X119310794Y-100062463D01*
X119310208Y-100734588D01*
X119566877Y-101355774D01*
X119880686Y-101670132D01*
X119568547Y-101981726D01*
X119310794Y-102602463D01*
X119310208Y-103274588D01*
X119566877Y-103895774D01*
X119880686Y-104210132D01*
X119568547Y-104521726D01*
X119310794Y-105142463D01*
X119310208Y-105814588D01*
X119566877Y-106435774D01*
X119880686Y-106750132D01*
X119568547Y-107061726D01*
X119310794Y-107682463D01*
X119310208Y-108354588D01*
X119566877Y-108975774D01*
X119880686Y-109290132D01*
X119568547Y-109601726D01*
X119310794Y-110222463D01*
X119310526Y-110529704D01*
X119213000Y-111020000D01*
X119213000Y-122013460D01*
X118994610Y-121923000D01*
X118554750Y-121923000D01*
X118373000Y-122104750D01*
X118373000Y-123127000D01*
X118393000Y-123127000D01*
X118393000Y-123873000D01*
X118373000Y-123873000D01*
X118373000Y-124895250D01*
X118554750Y-125077000D01*
X118994610Y-125077000D01*
X119261813Y-124966321D01*
X119447265Y-124780868D01*
X119898240Y-125082200D01*
X120540000Y-125209854D01*
X121181760Y-125082200D01*
X121725818Y-124718672D01*
X121810000Y-124592685D01*
X121894182Y-124718672D01*
X122438240Y-125082200D01*
X123080000Y-125209854D01*
X123721760Y-125082200D01*
X124265818Y-124718672D01*
X124350000Y-124592685D01*
X124434182Y-124718672D01*
X124978240Y-125082200D01*
X125620000Y-125209854D01*
X126261760Y-125082200D01*
X126805818Y-124718672D01*
X126890000Y-124592685D01*
X126974182Y-124718672D01*
X127518240Y-125082200D01*
X128160000Y-125209854D01*
X128801760Y-125082200D01*
X129345818Y-124718672D01*
X129430000Y-124592685D01*
X129514182Y-124718672D01*
X130058240Y-125082200D01*
X130700000Y-125209854D01*
X131341760Y-125082200D01*
X131885818Y-124718672D01*
X131970000Y-124592685D01*
X132054182Y-124718672D01*
X132598240Y-125082200D01*
X133240000Y-125209854D01*
X133881760Y-125082200D01*
X134425818Y-124718672D01*
X134510000Y-124592685D01*
X134594182Y-124718672D01*
X135138240Y-125082200D01*
X135780000Y-125209854D01*
X136421760Y-125082200D01*
X136965818Y-124718672D01*
X137329346Y-124174614D01*
X137448951Y-123573319D01*
X137465988Y-123547821D01*
X137567000Y-123040000D01*
X137567000Y-111622545D01*
X137671453Y-111518274D01*
X137929206Y-110897537D01*
X137929792Y-110225412D01*
X137673123Y-109604226D01*
X137416346Y-109347000D01*
X138470338Y-109347000D01*
X138673000Y-109549661D01*
X138673000Y-124950338D01*
X134950338Y-128673000D01*
X117549662Y-128673000D01*
X115827000Y-126950338D01*
X115827000Y-124054750D01*
X116423000Y-124054750D01*
X116423000Y-124494609D01*
X116533679Y-124761812D01*
X116738187Y-124966321D01*
X117005390Y-125077000D01*
X117445250Y-125077000D01*
X117627000Y-124895250D01*
X117627000Y-123873000D01*
X116604750Y-123873000D01*
X116423000Y-124054750D01*
X115827000Y-124054750D01*
X115827000Y-122505391D01*
X116423000Y-122505391D01*
X116423000Y-122945250D01*
X116604750Y-123127000D01*
X117627000Y-123127000D01*
X117627000Y-122104750D01*
X117445250Y-121923000D01*
X117005390Y-121923000D01*
X116738187Y-122033679D01*
X116533679Y-122238188D01*
X116423000Y-122505391D01*
X115827000Y-122505391D01*
X115827000Y-103025800D01*
X115937939Y-102954413D01*
X116126769Y-102678052D01*
X116193201Y-102350000D01*
X116193201Y-100650000D01*
X116135535Y-100343532D01*
X115954413Y-100062061D01*
X115728258Y-99907536D01*
X115955038Y-99568105D01*
X115844468Y-99333000D01*
X114873000Y-99333000D01*
X114873000Y-99353000D01*
X114127000Y-99353000D01*
X114127000Y-99333000D01*
X113155532Y-99333000D01*
X113044962Y-99568105D01*
X113273202Y-99909721D01*
X113062061Y-100045587D01*
X112873231Y-100321948D01*
X112806799Y-100650000D01*
X112806799Y-102350000D01*
X112864465Y-102656468D01*
X113045587Y-102937939D01*
X113173000Y-103024997D01*
X113173000Y-127500000D01*
X113274012Y-128007821D01*
X113561669Y-128438331D01*
X116061669Y-130938331D01*
X116492179Y-131225988D01*
X117000000Y-131327000D01*
X135500000Y-131327000D01*
X136007821Y-131225988D01*
X136438331Y-130938331D01*
X140938331Y-126438331D01*
X141225988Y-126007821D01*
X141327000Y-125500000D01*
X141327000Y-109000000D01*
X141225988Y-108492179D01*
X140938331Y-108061669D01*
X140938328Y-108061667D01*
X139958331Y-107081669D01*
X139527821Y-106794012D01*
X139020000Y-106693000D01*
X137416282Y-106693000D01*
X137671453Y-106438274D01*
X137929206Y-105817537D01*
X137929792Y-105145412D01*
X137673123Y-104524226D01*
X137359314Y-104209868D01*
X137671453Y-103898274D01*
X137929206Y-103277537D01*
X137929792Y-102605412D01*
X137673123Y-101984226D01*
X137416346Y-101727000D01*
X138850338Y-101727000D01*
X143173000Y-106049662D01*
X143173000Y-122000000D01*
X143274012Y-122507821D01*
X143561669Y-122938331D01*
X151253000Y-130629661D01*
X151253000Y-132322009D01*
X151225818Y-132281328D01*
X150681760Y-131917800D01*
X150040000Y-131790146D01*
X149398240Y-131917800D01*
X148947265Y-132219132D01*
X148761813Y-132033679D01*
X148494610Y-131923000D01*
X148054750Y-131923000D01*
X147873000Y-132104750D01*
X147873000Y-133127000D01*
X147893000Y-133127000D01*
X147893000Y-133873000D01*
X147873000Y-133873000D01*
X147873000Y-134895250D01*
X148054750Y-135077000D01*
X148494610Y-135077000D01*
X148761813Y-134966321D01*
X148947265Y-134780868D01*
X149398240Y-135082200D01*
X150040000Y-135209854D01*
X150681760Y-135082200D01*
X151225818Y-134718672D01*
X151310000Y-134592685D01*
X151394182Y-134718672D01*
X151938240Y-135082200D01*
X152580000Y-135209854D01*
X153221760Y-135082200D01*
X153765818Y-134718672D01*
X154129346Y-134174614D01*
X154257000Y-133532854D01*
X154257000Y-133467146D01*
X154129346Y-132825386D01*
X153907000Y-132492622D01*
X153907000Y-130783661D01*
X155593000Y-132469661D01*
X155593000Y-132492622D01*
X155370654Y-132825386D01*
X155243000Y-133467146D01*
X155243000Y-133532854D01*
X155370654Y-134174614D01*
X155734182Y-134718672D01*
X156278240Y-135082200D01*
X156920000Y-135209854D01*
X157561760Y-135082200D01*
X158105818Y-134718672D01*
X158190000Y-134592685D01*
X158274182Y-134718672D01*
X158818240Y-135082200D01*
X159460000Y-135209854D01*
X160101760Y-135082200D01*
X160552735Y-134780868D01*
X160738187Y-134966321D01*
X161005390Y-135077000D01*
X161445250Y-135077000D01*
X161627000Y-134895250D01*
X161627000Y-133873000D01*
X162373000Y-133873000D01*
X162373000Y-134895250D01*
X162554750Y-135077000D01*
X162994610Y-135077000D01*
X163261813Y-134966321D01*
X163466321Y-134761812D01*
X163577000Y-134494609D01*
X163577000Y-134054750D01*
X163395250Y-133873000D01*
X162373000Y-133873000D01*
X161627000Y-133873000D01*
X161607000Y-133873000D01*
X161607000Y-133127000D01*
X161627000Y-133127000D01*
X161627000Y-132104750D01*
X162373000Y-132104750D01*
X162373000Y-133127000D01*
X163395250Y-133127000D01*
X163577000Y-132945250D01*
X163577000Y-132505391D01*
X163466321Y-132238188D01*
X163261813Y-132033679D01*
X162994610Y-131923000D01*
X162554750Y-131923000D01*
X162373000Y-132104750D01*
X161627000Y-132104750D01*
X161445250Y-131923000D01*
X161005390Y-131923000D01*
X160738187Y-132033679D01*
X160552735Y-132219132D01*
X160101760Y-131917800D01*
X159460000Y-131790146D01*
X158818240Y-131917800D01*
X158274182Y-132281328D01*
X158247000Y-132322009D01*
X158247000Y-131920000D01*
X158145988Y-131412179D01*
X157858331Y-130981669D01*
X157858328Y-130981667D01*
X147827000Y-120950338D01*
X147827000Y-105000005D01*
X147827001Y-105000000D01*
X147725988Y-104492179D01*
X147438331Y-104061669D01*
X140298331Y-96921669D01*
X139887259Y-96647000D01*
X142770338Y-96647000D01*
X148673000Y-102549661D01*
X148673000Y-106000000D01*
X148774012Y-106507821D01*
X149061669Y-106938331D01*
X152036440Y-109913101D01*
X151605711Y-109912725D01*
X151022211Y-110153823D01*
X150575392Y-110599863D01*
X150333276Y-111182941D01*
X150332725Y-111814289D01*
X150343000Y-111839156D01*
X150343000Y-115420000D01*
X150463042Y-116023492D01*
X150804893Y-116535107D01*
X153423000Y-119153215D01*
X153423000Y-119749109D01*
X153373231Y-119821948D01*
X153306799Y-120150000D01*
X153306799Y-121850000D01*
X153364465Y-122156468D01*
X153545587Y-122437939D01*
X153821948Y-122626769D01*
X154150000Y-122693201D01*
X155850000Y-122693201D01*
X156156468Y-122635535D01*
X156437939Y-122454413D01*
X156626769Y-122178052D01*
X156693201Y-121850000D01*
X156693201Y-120150000D01*
X156635535Y-119843532D01*
X156577000Y-119752566D01*
X156577000Y-119109542D01*
X156582200Y-119101760D01*
X156709854Y-118460000D01*
X156582200Y-117818240D01*
X156218672Y-117274182D01*
X155674614Y-116910654D01*
X155632490Y-116902275D01*
X153497000Y-114766786D01*
X153497000Y-112781635D01*
X153559863Y-112844608D01*
X154142941Y-113086724D01*
X154774289Y-113087275D01*
X155357789Y-112846177D01*
X155596994Y-112607389D01*
X155623679Y-112671812D01*
X155828187Y-112876321D01*
X156095390Y-112987000D01*
X156445250Y-112987000D01*
X156627000Y-112805250D01*
X156627000Y-111873000D01*
X157373000Y-111873000D01*
X157373000Y-112805250D01*
X157554750Y-112987000D01*
X157904610Y-112987000D01*
X158171813Y-112876321D01*
X158376321Y-112671812D01*
X158487000Y-112404609D01*
X158487000Y-112054750D01*
X158305250Y-111873000D01*
X157373000Y-111873000D01*
X156627000Y-111873000D01*
X156607000Y-111873000D01*
X156607000Y-111127000D01*
X156627000Y-111127000D01*
X156627000Y-110194750D01*
X157373000Y-110194750D01*
X157373000Y-111127000D01*
X158305250Y-111127000D01*
X158487000Y-110945250D01*
X158487000Y-110595391D01*
X158376321Y-110328188D01*
X158171813Y-110123679D01*
X157904610Y-110013000D01*
X157554750Y-110013000D01*
X157373000Y-110194750D01*
X156627000Y-110194750D01*
X156445250Y-110013000D01*
X156095390Y-110013000D01*
X155828187Y-110123679D01*
X155738034Y-110213832D01*
X155685988Y-109952179D01*
X155398331Y-109521669D01*
X155398328Y-109521667D01*
X151327000Y-105450338D01*
X151327000Y-102000005D01*
X151327001Y-102000000D01*
X151229244Y-101508547D01*
X151225988Y-101492179D01*
X150938331Y-101061669D01*
X150938328Y-101061667D01*
X144258331Y-94381669D01*
X143827821Y-94094012D01*
X143320000Y-93993000D01*
X137416282Y-93993000D01*
X137671453Y-93738274D01*
X137929206Y-93117537D01*
X137929792Y-92445412D01*
X137673123Y-91824226D01*
X137359314Y-91509868D01*
X137671453Y-91198274D01*
X137929206Y-90577537D01*
X137929792Y-89905412D01*
X137673123Y-89284226D01*
X137416346Y-89027000D01*
X139300000Y-89027000D01*
X139807821Y-88925988D01*
X140238331Y-88638331D01*
X141438331Y-87438331D01*
X141725988Y-87007821D01*
X141827000Y-86500000D01*
X141827000Y-83549662D01*
X144049661Y-81327000D01*
X154765954Y-81327000D01*
X154557956Y-81534636D01*
X154298296Y-82159966D01*
X154297705Y-82837063D01*
X154556273Y-83462846D01*
X154583855Y-83490476D01*
X154537061Y-83520587D01*
X154348231Y-83796948D01*
X154281799Y-84125000D01*
X154281799Y-84480525D01*
X154274012Y-84492179D01*
X154173000Y-85000000D01*
X154274012Y-85507821D01*
X154281799Y-85519475D01*
X154281799Y-85875000D01*
X154339465Y-86181468D01*
X154520587Y-86462939D01*
X154796948Y-86651769D01*
X155125000Y-86718201D01*
X156875000Y-86718201D01*
X157181468Y-86660535D01*
X157311285Y-86577000D01*
X158500000Y-86577000D01*
X159103492Y-86456958D01*
X159615107Y-86115107D01*
X161115107Y-84615108D01*
X161456958Y-84103492D01*
X161489072Y-83942044D01*
X161577000Y-83500000D01*
X161577000Y-76000000D01*
X161456958Y-75396508D01*
X161243469Y-75077000D01*
X161115108Y-74884893D01*
X160115107Y-73884893D01*
X159603492Y-73543042D01*
X159000000Y-73423000D01*
X136847759Y-73423000D01*
X136577537Y-73310794D01*
X135905412Y-73310208D01*
X135284226Y-73566877D01*
X134808547Y-74041726D01*
X134550794Y-74662463D01*
X134550208Y-75334588D01*
X134806877Y-75955774D01*
X135281726Y-76431453D01*
X135902463Y-76689206D01*
X135916720Y-76689218D01*
X136240000Y-77012498D01*
X136254142Y-76998356D01*
X136781644Y-77525858D01*
X136767502Y-77540000D01*
X137486419Y-78258918D01*
X137735171Y-78165251D01*
X137860631Y-77545480D01*
X137739364Y-76924874D01*
X137735171Y-76914749D01*
X137486421Y-76821083D01*
X137647958Y-76659546D01*
X137565412Y-76577000D01*
X154616563Y-76577000D01*
X154583029Y-76610534D01*
X154744250Y-76771755D01*
X154494236Y-76867052D01*
X154366636Y-77491463D01*
X154487702Y-78117174D01*
X154494236Y-78132948D01*
X154744253Y-78228246D01*
X155472498Y-77500000D01*
X155458356Y-77485858D01*
X155985858Y-76958356D01*
X156000000Y-76972498D01*
X156014142Y-76958356D01*
X156541644Y-77485858D01*
X156527502Y-77500000D01*
X157255747Y-78228246D01*
X157505764Y-78132948D01*
X157633364Y-77508537D01*
X157512298Y-76882826D01*
X157505764Y-76867052D01*
X157255750Y-76771755D01*
X157416971Y-76610534D01*
X157383437Y-76577000D01*
X158346786Y-76577000D01*
X158423000Y-76653215D01*
X158423000Y-82846785D01*
X157846786Y-83423000D01*
X157459635Y-83423000D01*
X157701704Y-82840034D01*
X157702295Y-82162937D01*
X157443727Y-81537154D01*
X157156992Y-81249919D01*
X157442044Y-80965364D01*
X157701704Y-80340034D01*
X157702295Y-79662937D01*
X157443727Y-79037154D01*
X156965364Y-78557956D01*
X156340034Y-78298296D01*
X156270734Y-78298236D01*
X156000000Y-78027502D01*
X155729738Y-78297763D01*
X155662937Y-78297705D01*
X155037154Y-78556273D01*
X154920223Y-78673000D01*
X143500005Y-78673000D01*
X143500000Y-78672999D01*
X143053512Y-78761812D01*
X142992179Y-78774012D01*
X142561669Y-79061669D01*
X142561667Y-79061672D01*
X139561669Y-82061669D01*
X139274012Y-82492179D01*
X139173000Y-83000000D01*
X139173000Y-85950338D01*
X138750338Y-86373000D01*
X137416282Y-86373000D01*
X137671453Y-86118274D01*
X137929206Y-85497537D01*
X137929792Y-84825412D01*
X137673123Y-84204226D01*
X137359314Y-83889868D01*
X137671453Y-83578274D01*
X137929206Y-82957537D01*
X137929792Y-82285412D01*
X137673123Y-81664226D01*
X137359314Y-81349868D01*
X137671453Y-81038274D01*
X137929206Y-80417537D01*
X137929792Y-79745412D01*
X137673123Y-79124226D01*
X137198274Y-78648547D01*
X136577537Y-78390794D01*
X136563280Y-78390782D01*
X136240000Y-78067502D01*
X135917283Y-78390218D01*
X135905412Y-78390208D01*
X135284226Y-78646877D01*
X134808547Y-79121726D01*
X134550794Y-79742463D01*
X134550208Y-80414588D01*
X134806877Y-81035774D01*
X134814090Y-81043000D01*
X134679662Y-81043000D01*
X131171182Y-77534520D01*
X134619369Y-77534520D01*
X134740636Y-78155126D01*
X134744829Y-78165251D01*
X134993581Y-78258918D01*
X135712498Y-77540000D01*
X134993581Y-76821082D01*
X134744829Y-76914749D01*
X134619369Y-77534520D01*
X131171182Y-77534520D01*
X121698331Y-68061669D01*
X121267821Y-67774012D01*
X120760000Y-67673000D01*
X108000005Y-67673000D01*
X108000000Y-67672999D01*
X107492179Y-67774012D01*
X107061669Y-68061669D01*
X102061669Y-73061669D01*
X101774012Y-73492179D01*
X101673000Y-74000000D01*
X91902000Y-74000000D01*
X91902000Y-65402000D01*
X165098000Y-65402000D01*
X165098000Y-138598000D01*
M02*
