<?xml version="1.0" standalone="no"?>
<!DOCTYPE svg PUBLIC "-//W3C//DTD SVG 1.1//EN"
"http://www.w3.org/Graphics/SVG/1.1/DTD/svg11.dtd">
<svg width="6082.8" height="6082.8" viewBox="0 0 6082.8 6082.8" version="1.1"
xmlns="http://www.w3.org/2000/svg"
xmlns:xlink="http://www.w3.org/1999/xlink">
<circle cx="4885.5" cy="3789.43" r="31.4961" style=""/>
<circle cx="5085.5" cy="3789.43" r="31.4961" style=""/>
<circle cx="5285.5" cy="3789.43" r="31.4961" style=""/>
<circle cx="5249.28" cy="2687.07" r="31.4961" style=""/>
<circle cx="5049.28" cy="2687.07" r="31.4961" style=""/>
<circle cx="5006.76" cy="2372.11" r="31.4961" style=""/>
<circle cx="5206.76" cy="2372.11" r="31.4961" style=""/>
<circle cx="5249.28" cy="2057.15" r="31.4961" style=""/>
<circle cx="5049.28" cy="2057.15" r="31.4961" style=""/>
<circle cx="4458.72" cy="1899.67" r="31.4961" style=""/>
<circle cx="4773.69" cy="1745.34" r="31.4961" style=""/>
<circle cx="4773.69" cy="1545.34" r="31.4961" style=""/>
<circle cx="4458.72" cy="1099.67" r="31.4961" style=""/>
<circle cx="2214.63" cy="4734.32" r="39.3701" style=""/>
<circle cx="2414.63" cy="4734.32" r="39.3701" style=""/>
<circle cx="2614.63" cy="4734.32" r="39.3701" style=""/>
<circle cx="2814.63" cy="4734.32" r="39.3701" style=""/>
<circle cx="3014.63" cy="4734.32" r="39.3701" style=""/>
<circle cx="3214.63" cy="4734.32" r="39.3701" style=""/>
<circle cx="3414.63" cy="4734.32" r="39.3701" style=""/>
<circle cx="3614.63" cy="4734.32" r="39.3701" style=""/>
<circle cx="4537.46" cy="5521.72" r="39.3701" style=""/>
<circle cx="4737.46" cy="5521.72" r="39.3701" style=""/>
<circle cx="4937.46" cy="5521.72" r="39.3701" style=""/>
<circle cx="5279.2" cy="5521.72" r="39.3701" style=""/>
<circle cx="5479.2" cy="5521.72" r="39.3701" style=""/>
<circle cx="5679.2" cy="5521.72" r="39.3701" style=""/>
<circle cx="5128.02" cy="4537.46" r="39.3701" style=""/>
<circle cx="5128.02" cy="4337.46" r="39.3701" style=""/>
<circle cx="5206.76" cy="1702.82" r="39.3701" style=""/>
<circle cx="5206.76" cy="1505.97" r="39.3701" style=""/>
<circle cx="5206.76" cy="1309.12" r="39.3701" style=""/>
<circle cx="5206.76" cy="1112.27" r="39.3701" style=""/>
<circle cx="2063.45" cy="797.307" r="39.3701" style=""/>
<circle cx="1863.45" cy="797.307" r="39.3701" style=""/>
<circle cx="1663.45" cy="797.307" r="39.3701" style=""/>
<circle cx="2063.45" cy="1112.27" r="39.3701" style=""/>
<circle cx="1863.45" cy="1112.27" r="39.3701" style=""/>
<circle cx="1663.45" cy="1112.27" r="39.3701" style=""/>
<circle cx="1387.86" cy="1602.03" r="39.3701" style=""/>
<circle cx="1387.86" cy="1802.03" r="39.3701" style=""/>
<circle cx="1387.86" cy="2002.03" r="39.3701" style=""/>
<circle cx="1387.86" cy="2202.03" r="39.3701" style=""/>
<circle cx="1387.86" cy="2402.03" r="39.3701" style=""/>
<circle cx="1387.86" cy="2602.03" r="39.3701" style=""/>
<circle cx="1387.86" cy="2802.03" r="39.3701" style=""/>
<circle cx="1387.86" cy="3002.03" r="39.3701" style=""/>
<circle cx="1939.04" cy="3002.03" r="39.3701" style=""/>
<circle cx="1939.04" cy="2802.03" r="39.3701" style=""/>
<circle cx="1939.04" cy="2602.03" r="39.3701" style=""/>
<circle cx="1939.04" cy="2402.03" r="39.3701" style=""/>
<circle cx="1939.04" cy="2202.03" r="39.3701" style=""/>
<circle cx="1939.04" cy="2002.03" r="39.3701" style=""/>
<circle cx="2450.85" cy="3715.42" r="45.2756" style=""/>
<circle cx="2450.85" cy="3515.42" r="45.2756" style=""/>
<circle cx="2450.85" cy="3315.42" r="45.2756" style=""/>
<circle cx="2450.85" cy="3115.42" r="45.2756" style=""/>
<circle cx="2450.85" cy="2915.42" r="45.2756" style=""/>
<circle cx="2450.85" cy="2715.42" r="45.2756" style=""/>
<circle cx="2450.85" cy="2515.42" r="45.2756" style=""/>
<circle cx="2450.85" cy="2315.42" r="45.2756" style=""/>
<circle cx="2450.85" cy="2115.42" r="45.2756" style=""/>
<circle cx="2450.85" cy="1915.42" r="45.2756" style=""/>
<circle cx="2450.85" cy="1715.42" r="45.2756" style=""/>
<circle cx="2450.85" cy="1515.42" r="45.2756" style=""/>
<circle cx="2450.85" cy="1315.42" r="45.2756" style=""/>
<circle cx="2450.85" cy="1115.42" r="45.2756" style=""/>
<circle cx="2450.85" cy="915.417" r="45.2756" style=""/>
<circle cx="3650.85" cy="915.417" r="45.2756" style=""/>
<circle cx="3650.85" cy="1115.42" r="45.2756" style=""/>
<circle cx="3650.85" cy="1315.42" r="45.2756" style=""/>
<circle cx="3650.85" cy="1515.42" r="45.2756" style=""/>
<circle cx="3650.85" cy="1715.42" r="45.2756" style=""/>
<circle cx="3650.85" cy="1915.42" r="45.2756" style=""/>
<circle cx="3650.85" cy="2115.42" r="45.2756" style=""/>
<circle cx="3650.85" cy="2315.42" r="45.2756" style=""/>
<circle cx="3650.85" cy="2515.42" r="45.2756" style=""/>
<circle cx="3650.85" cy="2715.42" r="45.2756" style=""/>
<circle cx="3650.85" cy="2915.42" r="45.2756" style=""/>
<circle cx="3650.85" cy="3115.42" r="45.2756" style=""/>
<circle cx="3650.85" cy="3315.42" r="45.2756" style=""/>
<circle cx="3650.85" cy="3515.42" r="45.2756" style=""/>
<circle cx="3650.85" cy="3715.42" r="45.2756" style=""/>
</svg>
