<?xml version="1.0" standalone="no"?>
<!DOCTYPE svg PUBLIC "-//W3C//DTD SVG 1.1//EN"
"http://www.w3.org/Graphics/SVG/1.1/DTD/svg11.dtd">
<svg width="4425" height="4858" viewBox="0 0 4425 4858" version="1.1"
xmlns="http://www.w3.org/2000/svg"
xmlns:xlink="http://www.w3.org/1999/xlink">
<g fill-rule="evenodd"><path d="M 1061.97,252.937 L 1061.97,117.121 L 1197.79,117.121 L 1197.79,252.937 L 1061.97,252.937 z " style="fill-opacity:1.000000;fill:rgb(103,198,105);stroke:rgb(0,0,0);stroke-width:2"/></g>
<g fill-rule="evenodd"><path d="M 1197.79,385.018 L 1196.31,399.135 L 1191.92,412.638 L 1184.82,424.934 L 1175.32,435.483 L 1163.84,443.829 L 1150.87,449.602 L 1136.98,452.554 L 1122.79,452.554 L 1108.9,449.602 L 1095.93,443.829 L 1084.44,435.483 L 1074.94,424.934 L 1067.85,412.638 L 1063.46,399.135 L 1061.97,385.018 L 1063.46,370.901 L 1067.85,357.397 L 1074.94,345.102 L 1084.44,334.553 L 1095.93,326.207 L 1108.9,320.433 L 1122.79,317.482 L 1136.98,317.482 L 1150.87,320.433 L 1163.84,326.207 L 1175.32,334.553 L 1184.82,345.102 L 1191.92,357.397 L 1196.31,370.901 L 1197.79,385.018 z " style="fill-opacity:1.000000;fill:rgb(115,81,255);stroke:rgb(0,0,0);stroke-width:2"/></g>
<g fill-rule="evenodd"><path d="M 1197.79,585.007 L 1196.31,599.124 L 1191.92,612.627 L 1184.82,624.923 L 1175.32,635.472 L 1163.84,643.818 L 1150.87,649.591 L 1136.98,652.543 L 1122.79,652.543 L 1108.9,649.591 L 1095.93,643.818 L 1084.44,635.472 L 1074.94,624.923 L 1067.85,612.627 L 1063.46,599.124 L 1061.97,585.007 L 1063.46,570.89 L 1067.85,557.386 L 1074.94,545.091 L 1084.44,534.542 L 1095.93,526.196 L 1108.9,520.423 L 1122.79,517.471 L 1136.98,517.471 L 1150.87,520.423 L 1163.84,526.196 L 1175.32,534.542 L 1184.82,545.091 L 1191.92,557.386 L 1196.31,570.89 L 1197.79,585.007 z " style="fill-opacity:1.000000;fill:rgb(74,236,41);stroke:rgb(0,0,0);stroke-width:2"/></g>
<g fill-rule="evenodd"><path d="M 1197.79,784.996 L 1196.31,799.113 L 1191.92,812.617 L 1184.82,824.912 L 1175.32,835.461 L 1163.84,843.807 L 1150.87,849.58 L 1136.98,852.532 L 1122.79,852.532 L 1108.9,849.58 L 1095.93,843.807 L 1084.44,835.461 L 1074.94,824.912 L 1067.85,812.617 L 1063.46,799.113 L 1061.97,784.996 L 1063.46,770.879 L 1067.85,757.376 L 1074.94,745.08 L 1084.44,734.531 L 1095.93,726.185 L 1108.9,720.412 L 1122.79,717.46 L 1136.98,717.46 L 1150.87,720.412 L 1163.84,726.185 L 1175.32,734.531 L 1184.82,745.08 L 1191.92,757.376 L 1196.31,770.879 L 1197.79,784.996 z " style="fill-opacity:1.000000;fill:rgb(205,186,171);stroke:rgb(0,0,0);stroke-width:2"/></g>
<g fill-rule="evenodd"><path d="M 1197.79,984.985 L 1196.31,999.102 L 1191.92,1012.61 L 1184.82,1024.9 L 1175.32,1035.45 L 1163.84,1043.8 L 1150.87,1049.57 L 1136.98,1052.52 L 1122.79,1052.52 L 1108.9,1049.57 L 1095.93,1043.8 L 1084.44,1035.45 L 1074.94,1024.9 L 1067.85,1012.61 L 1063.46,999.102 L 1061.97,984.985 L 1063.46,970.868 L 1067.85,957.365 L 1074.94,945.069 L 1084.44,934.52 L 1095.93,926.174 L 1108.9,920.401 L 1122.79,917.449 L 1136.98,917.449 L 1150.87,920.401 L 1163.84,926.174 L 1175.32,934.52 L 1184.82,945.069 L 1191.92,957.365 L 1196.31,970.868 L 1197.79,984.985 z " style="fill-opacity:1.000000;fill:rgb(242,251,227);stroke:rgb(0,0,0);stroke-width:2"/></g>
<g fill-rule="evenodd"><path d="M 1197.79,1184.97 L 1196.31,1199.09 L 1191.92,1212.59 L 1184.82,1224.89 L 1175.32,1235.44 L 1163.84,1243.78 L 1150.87,1249.56 L 1136.98,1252.51 L 1122.79,1252.51 L 1108.9,1249.56 L 1095.93,1243.78 L 1084.44,1235.44 L 1074.94,1224.89 L 1067.85,1212.59 L 1063.46,1199.09 L 1061.97,1184.97 L 1063.46,1170.86 L 1067.85,1157.35 L 1074.94,1145.06 L 1084.44,1134.51 L 1095.93,1126.16 L 1108.9,1120.39 L 1122.79,1117.44 L 1136.98,1117.44 L 1150.87,1120.39 L 1163.84,1126.16 L 1175.32,1134.51 L 1184.82,1145.06 L 1191.92,1157.35 L 1196.31,1170.86 L 1197.79,1184.97 z " style="fill-opacity:1.000000;fill:rgb(70,124,194);stroke:rgb(0,0,0);stroke-width:2"/></g>
<g fill-rule="evenodd"><path d="M 1197.79,1384.96 L 1196.31,1399.08 L 1191.92,1412.58 L 1184.82,1424.88 L 1175.32,1435.43 L 1163.84,1443.77 L 1150.87,1449.55 L 1136.98,1452.5 L 1122.79,1452.5 L 1108.9,1449.55 L 1095.93,1443.77 L 1084.44,1435.43 L 1074.94,1424.88 L 1067.85,1412.58 L 1063.46,1399.08 L 1061.97,1384.96 L 1063.46,1370.85 L 1067.85,1357.34 L 1074.94,1345.05 L 1084.44,1334.5 L 1095.93,1326.15 L 1108.9,1320.38 L 1122.79,1317.43 L 1136.98,1317.43 L 1150.87,1320.38 L 1163.84,1326.15 L 1175.32,1334.5 L 1184.82,1345.05 L 1191.92,1357.34 L 1196.31,1370.85 L 1197.79,1384.96 z " style="fill-opacity:1.000000;fill:rgb(84,248,27);stroke:rgb(0,0,0);stroke-width:2"/></g>
<g fill-rule="evenodd"><path d="M 1197.79,1584.95 L 1196.31,1599.07 L 1191.92,1612.57 L 1184.82,1624.87 L 1175.32,1635.42 L 1163.84,1643.76 L 1150.87,1649.54 L 1136.98,1652.49 L 1122.79,1652.49 L 1108.9,1649.54 L 1095.93,1643.76 L 1084.44,1635.42 L 1074.94,1624.87 L 1067.85,1612.57 L 1063.46,1599.07 L 1061.97,1584.95 L 1063.46,1570.83 L 1067.85,1557.33 L 1074.94,1545.04 L 1084.44,1534.49 L 1095.93,1526.14 L 1108.9,1520.37 L 1122.79,1517.42 L 1136.98,1517.42 L 1150.87,1520.37 L 1163.84,1526.14 L 1175.32,1534.49 L 1184.82,1545.04 L 1191.92,1557.33 L 1196.31,1570.83 L 1197.79,1584.95 z " style="fill-opacity:1.000000;fill:rgb(232,231,141);stroke:rgb(0,0,0);stroke-width:2"/></g>
<g fill-rule="evenodd"><path d="M 1197.79,1784.94 L 1196.31,1799.06 L 1191.92,1812.56 L 1184.82,1824.86 L 1175.32,1835.41 L 1163.84,1843.75 L 1150.87,1849.53 L 1136.98,1852.48 L 1122.79,1852.48 L 1108.9,1849.53 L 1095.93,1843.75 L 1084.44,1835.41 L 1074.94,1824.86 L 1067.85,1812.56 L 1063.46,1799.06 L 1061.97,1784.94 L 1063.46,1770.82 L 1067.85,1757.32 L 1074.94,1745.03 L 1084.44,1734.48 L 1095.93,1726.13 L 1108.9,1720.36 L 1122.79,1717.4 L 1136.98,1717.4 L 1150.87,1720.36 L 1163.84,1726.13 L 1175.32,1734.48 L 1184.82,1745.03 L 1191.92,1757.32 L 1196.31,1770.82 L 1197.79,1784.94 z " style="fill-opacity:1.000000;fill:rgb(118,90,46);stroke:rgb(0,0,0);stroke-width:2"/></g>
<g fill-rule="evenodd"><path d="M 1197.79,1984.93 L 1196.31,1999.05 L 1191.92,2012.55 L 1184.82,2024.85 L 1175.32,2035.4 L 1163.84,2043.74 L 1150.87,2049.51 L 1136.98,2052.47 L 1122.79,2052.47 L 1108.9,2049.51 L 1095.93,2043.74 L 1084.44,2035.4 L 1074.94,2024.85 L 1067.85,2012.55 L 1063.46,1999.05 L 1061.97,1984.93 L 1063.46,1970.81 L 1067.85,1957.31 L 1074.94,1945.01 L 1084.44,1934.47 L 1095.93,1926.12 L 1108.9,1920.35 L 1122.79,1917.39 L 1136.98,1917.39 L 1150.87,1920.35 L 1163.84,1926.12 L 1175.32,1934.47 L 1184.82,1945.01 L 1191.92,1957.31 L 1196.31,1970.81 L 1197.79,1984.93 z " style="fill-opacity:1.000000;fill:rgb(99,51,159);stroke:rgb(0,0,0);stroke-width:2"/></g>
<g fill-rule="evenodd"><path d="M 1197.79,2184.92 L 1196.31,2199.04 L 1191.92,2212.54 L 1184.82,2224.84 L 1175.32,2235.38 L 1163.84,2243.73 L 1150.87,2249.5 L 1136.98,2252.46 L 1122.79,2252.46 L 1108.9,2249.5 L 1095.93,2243.73 L 1084.44,2235.38 L 1074.94,2224.84 L 1067.85,2212.54 L 1063.46,2199.04 L 1061.97,2184.92 L 1063.46,2170.8 L 1067.85,2157.3 L 1074.94,2145 L 1084.44,2134.45 L 1095.93,2126.11 L 1108.9,2120.33 L 1122.79,2117.38 L 1136.98,2117.38 L 1150.87,2120.33 L 1163.84,2126.11 L 1175.32,2134.45 L 1184.82,2145 L 1191.92,2157.3 L 1196.31,2170.8 L 1197.79,2184.92 z " style="fill-opacity:1.000000;fill:rgb(201,154,102);stroke:rgb(0,0,0);stroke-width:2"/></g>
<g fill-rule="evenodd"><path d="M 1197.79,2384.91 L 1196.31,2399.03 L 1191.92,2412.53 L 1184.82,2424.82 L 1175.32,2435.37 L 1163.84,2443.72 L 1150.87,2449.49 L 1136.98,2452.44 L 1122.79,2452.44 L 1108.9,2449.49 L 1095.93,2443.72 L 1084.44,2435.37 L 1074.94,2424.82 L 1067.85,2412.53 L 1063.46,2399.03 L 1061.97,2384.91 L 1063.46,2370.79 L 1067.85,2357.29 L 1074.94,2344.99 L 1084.44,2334.44 L 1095.93,2326.1 L 1108.9,2320.32 L 1122.79,2317.37 L 1136.98,2317.37 L 1150.87,2320.32 L 1163.84,2326.1 L 1175.32,2334.44 L 1184.82,2344.99 L 1191.92,2357.29 L 1196.31,2370.79 L 1197.79,2384.91 z " style="fill-opacity:1.000000;fill:rgb(50,13,183);stroke:rgb(0,0,0);stroke-width:2"/></g>
<g fill-rule="evenodd"><path d="M 1197.79,2584.9 L 1196.31,2599.01 L 1191.92,2612.52 L 1184.82,2624.81 L 1175.32,2635.36 L 1163.84,2643.71 L 1150.87,2649.48 L 1136.98,2652.43 L 1122.79,2652.43 L 1108.9,2649.48 L 1095.93,2643.71 L 1084.44,2635.36 L 1074.94,2624.81 L 1067.85,2612.52 L 1063.46,2599.01 L 1061.97,2584.9 L 1063.46,2570.78 L 1067.85,2557.28 L 1074.94,2544.98 L 1084.44,2534.43 L 1095.93,2526.09 L 1108.9,2520.31 L 1122.79,2517.36 L 1136.98,2517.36 L 1150.87,2520.31 L 1163.84,2526.09 L 1175.32,2534.43 L 1184.82,2544.98 L 1191.92,2557.28 L 1196.31,2570.78 L 1197.79,2584.9 z " style="fill-opacity:1.000000;fill:rgb(49,88,163);stroke:rgb(0,0,0);stroke-width:2"/></g>
<g fill-rule="evenodd"><path d="M 1197.79,2784.89 L 1196.31,2799 L 1191.92,2812.51 L 1184.82,2824.8 L 1175.32,2835.35 L 1163.84,2843.7 L 1150.87,2849.47 L 1136.98,2852.42 L 1122.79,2852.42 L 1108.9,2849.47 L 1095.93,2843.7 L 1084.44,2835.35 L 1074.94,2824.8 L 1067.85,2812.51 L 1063.46,2799 L 1061.97,2784.89 L 1063.46,2770.77 L 1067.85,2757.27 L 1074.94,2744.97 L 1084.44,2734.42 L 1095.93,2726.08 L 1108.9,2720.3 L 1122.79,2717.35 L 1136.98,2717.35 L 1150.87,2720.3 L 1163.84,2726.08 L 1175.32,2734.42 L 1184.82,2744.97 L 1191.92,2757.27 L 1196.31,2770.77 L 1197.79,2784.89 z " style="fill-opacity:1.000000;fill:rgb(90,37,93);stroke:rgb(0,0,0);stroke-width:2"/></g>
<g fill-rule="evenodd"><path d="M 1197.79,2984.88 L 1196.31,2998.99 L 1191.92,3012.5 L 1184.82,3024.79 L 1175.32,3035.34 L 1163.84,3043.69 L 1150.87,3049.46 L 1136.98,3052.41 L 1122.79,3052.41 L 1108.9,3049.46 L 1095.93,3043.69 L 1084.44,3035.34 L 1074.94,3024.79 L 1067.85,3012.5 L 1063.46,2998.99 L 1061.97,2984.88 L 1063.46,2970.76 L 1067.85,2957.26 L 1074.94,2944.96 L 1084.44,2934.41 L 1095.93,2926.06 L 1108.9,2920.29 L 1122.79,2917.34 L 1136.98,2917.34 L 1150.87,2920.29 L 1163.84,2926.06 L 1175.32,2934.41 L 1184.82,2944.96 L 1191.92,2957.26 L 1196.31,2970.76 L 1197.79,2984.88 z " style="fill-opacity:1.000000;fill:rgb(5,23,88);stroke:rgb(0,0,0);stroke-width:2"/></g>
<g fill-rule="evenodd"><path d="M 2397.73,2984.88 L 2396.24,2998.99 L 2391.85,3012.5 L 2384.76,3024.79 L 2375.26,3035.34 L 2363.77,3043.69 L 2350.8,3049.46 L 2336.92,3052.41 L 2322.72,3052.41 L 2308.83,3049.46 L 2295.86,3043.69 L 2284.38,3035.34 L 2274.88,3024.79 L 2267.78,3012.5 L 2263.39,2998.99 L 2261.91,2984.88 L 2263.39,2970.76 L 2267.78,2957.26 L 2274.88,2944.96 L 2284.38,2934.41 L 2295.86,2926.06 L 2308.83,2920.29 L 2322.72,2917.34 L 2336.92,2917.34 L 2350.8,2920.29 L 2363.77,2926.06 L 2375.26,2934.41 L 2384.76,2944.96 L 2391.85,2957.26 L 2396.24,2970.76 L 2397.73,2984.88 z " style="fill-opacity:1.000000;fill:rgb(233,94,212);stroke:rgb(0,0,0);stroke-width:2"/></g>
<g fill-rule="evenodd"><path d="M 2397.73,2784.89 L 2396.24,2799 L 2391.85,2812.51 L 2384.76,2824.8 L 2375.26,2835.35 L 2363.77,2843.7 L 2350.8,2849.47 L 2336.92,2852.42 L 2322.72,2852.42 L 2308.83,2849.47 L 2295.86,2843.7 L 2284.38,2835.35 L 2274.88,2824.8 L 2267.78,2812.51 L 2263.39,2799 L 2261.91,2784.89 L 2263.39,2770.77 L 2267.78,2757.27 L 2274.88,2744.97 L 2284.38,2734.42 L 2295.86,2726.08 L 2308.83,2720.3 L 2322.72,2717.35 L 2336.92,2717.35 L 2350.8,2720.3 L 2363.77,2726.08 L 2375.26,2734.42 L 2384.76,2744.97 L 2391.85,2757.27 L 2396.24,2770.77 L 2397.73,2784.89 z " style="fill-opacity:1.000000;fill:rgb(171,178,205);stroke:rgb(0,0,0);stroke-width:2"/></g>
<g fill-rule="evenodd"><path d="M 2397.73,2584.9 L 2396.24,2599.01 L 2391.85,2612.52 L 2384.76,2624.81 L 2375.26,2635.36 L 2363.77,2643.71 L 2350.8,2649.48 L 2336.92,2652.43 L 2322.72,2652.43 L 2308.83,2649.48 L 2295.86,2643.71 L 2284.38,2635.36 L 2274.88,2624.81 L 2267.78,2612.52 L 2263.39,2599.01 L 2261.91,2584.9 L 2263.39,2570.78 L 2267.78,2557.28 L 2274.88,2544.98 L 2284.38,2534.43 L 2295.86,2526.09 L 2308.83,2520.31 L 2322.72,2517.36 L 2336.92,2517.36 L 2350.8,2520.31 L 2363.77,2526.09 L 2375.26,2534.43 L 2384.76,2544.98 L 2391.85,2557.28 L 2396.24,2570.78 L 2397.73,2584.9 z " style="fill-opacity:1.000000;fill:rgb(198,155,180);stroke:rgb(0,0,0);stroke-width:2"/></g>
<g fill-rule="evenodd"><path d="M 2397.73,2384.91 L 2396.24,2399.03 L 2391.85,2412.53 L 2384.76,2424.82 L 2375.26,2435.37 L 2363.77,2443.72 L 2350.8,2449.49 L 2336.92,2452.44 L 2322.72,2452.44 L 2308.83,2449.49 L 2295.86,2443.72 L 2284.38,2435.37 L 2274.88,2424.82 L 2267.78,2412.53 L 2263.39,2399.03 L 2261.91,2384.91 L 2263.39,2370.79 L 2267.78,2357.29 L 2274.88,2344.99 L 2284.38,2334.44 L 2295.86,2326.1 L 2308.83,2320.32 L 2322.72,2317.37 L 2336.92,2317.37 L 2350.8,2320.32 L 2363.77,2326.1 L 2375.26,2334.44 L 2384.76,2344.99 L 2391.85,2357.29 L 2396.24,2370.79 L 2397.73,2384.91 z " style="fill-opacity:1.000000;fill:rgb(84,17,14);stroke:rgb(0,0,0);stroke-width:2"/></g>
<g fill-rule="evenodd"><path d="M 2397.73,2184.92 L 2396.24,2199.04 L 2391.85,2212.54 L 2384.76,2224.84 L 2375.26,2235.38 L 2363.77,2243.73 L 2350.8,2249.5 L 2336.92,2252.46 L 2322.72,2252.46 L 2308.83,2249.5 L 2295.86,2243.73 L 2284.38,2235.38 L 2274.88,2224.84 L 2267.78,2212.54 L 2263.39,2199.04 L 2261.91,2184.92 L 2263.39,2170.8 L 2267.78,2157.3 L 2274.88,2145 L 2284.38,2134.45 L 2295.86,2126.11 L 2308.83,2120.33 L 2322.72,2117.38 L 2336.92,2117.38 L 2350.8,2120.33 L 2363.77,2126.11 L 2375.26,2134.45 L 2384.76,2145 L 2391.85,2157.3 L 2396.24,2170.8 L 2397.73,2184.92 z " style="fill-opacity:1.000000;fill:rgb(130,116,65);stroke:rgb(0,0,0);stroke-width:2"/></g>
<g fill-rule="evenodd"><path d="M 2397.73,1984.93 L 2396.24,1999.05 L 2391.85,2012.55 L 2384.76,2024.85 L 2375.26,2035.4 L 2363.77,2043.74 L 2350.8,2049.51 L 2336.92,2052.47 L 2322.72,2052.47 L 2308.83,2049.51 L 2295.86,2043.74 L 2284.38,2035.4 L 2274.88,2024.85 L 2267.78,2012.55 L 2263.39,1999.05 L 2261.91,1984.93 L 2263.39,1970.81 L 2267.78,1957.31 L 2274.88,1945.01 L 2284.38,1934.47 L 2295.86,1926.12 L 2308.83,1920.35 L 2322.72,1917.39 L 2336.92,1917.39 L 2350.8,1920.35 L 2363.77,1926.12 L 2375.26,1934.47 L 2384.76,1945.01 L 2391.85,1957.31 L 2396.24,1970.81 L 2397.73,1984.93 z " style="fill-opacity:1.000000;fill:rgb(33,61,220);stroke:rgb(0,0,0);stroke-width:2"/></g>
<g fill-rule="evenodd"><path d="M 2397.73,1784.94 L 2396.24,1799.06 L 2391.85,1812.56 L 2384.76,1824.86 L 2375.26,1835.41 L 2363.77,1843.75 L 2350.8,1849.53 L 2336.92,1852.48 L 2322.72,1852.48 L 2308.83,1849.53 L 2295.86,1843.75 L 2284.38,1835.41 L 2274.88,1824.86 L 2267.78,1812.56 L 2263.39,1799.06 L 2261.91,1784.94 L 2263.39,1770.82 L 2267.78,1757.32 L 2274.88,1745.03 L 2284.38,1734.48 L 2295.86,1726.13 L 2308.83,1720.36 L 2322.72,1717.4 L 2336.92,1717.4 L 2350.8,1720.36 L 2363.77,1726.13 L 2375.26,1734.48 L 2384.76,1745.03 L 2391.85,1757.32 L 2396.24,1770.82 L 2397.73,1784.94 z " style="fill-opacity:1.000000;fill:rgb(135,112,233);stroke:rgb(0,0,0);stroke-width:2"/></g>
<g fill-rule="evenodd"><path d="M 2397.73,1584.95 L 2396.24,1599.07 L 2391.85,1612.57 L 2384.76,1624.87 L 2375.26,1635.42 L 2363.77,1643.76 L 2350.8,1649.54 L 2336.92,1652.49 L 2322.72,1652.49 L 2308.83,1649.54 L 2295.86,1643.76 L 2284.38,1635.42 L 2274.88,1624.87 L 2267.78,1612.57 L 2263.39,1599.07 L 2261.91,1584.95 L 2263.39,1570.83 L 2267.78,1557.33 L 2274.88,1545.04 L 2284.38,1534.49 L 2295.86,1526.14 L 2308.83,1520.37 L 2322.72,1517.42 L 2336.92,1517.42 L 2350.8,1520.37 L 2363.77,1526.14 L 2375.26,1534.49 L 2384.76,1545.04 L 2391.85,1557.33 L 2396.24,1570.83 L 2397.73,1584.95 z " style="fill-opacity:1.000000;fill:rgb(62,161,65);stroke:rgb(0,0,0);stroke-width:2"/></g>
<g fill-rule="evenodd"><path d="M 2397.73,1384.96 L 2396.24,1399.08 L 2391.85,1412.58 L 2384.76,1424.88 L 2375.26,1435.43 L 2363.77,1443.77 L 2350.8,1449.55 L 2336.92,1452.5 L 2322.72,1452.5 L 2308.83,1449.55 L 2295.86,1443.77 L 2284.38,1435.43 L 2274.88,1424.88 L 2267.78,1412.58 L 2263.39,1399.08 L 2261.91,1384.96 L 2263.39,1370.85 L 2267.78,1357.34 L 2274.88,1345.05 L 2284.38,1334.5 L 2295.86,1326.15 L 2308.83,1320.38 L 2322.72,1317.43 L 2336.92,1317.43 L 2350.8,1320.38 L 2363.77,1326.15 L 2375.26,1334.5 L 2384.76,1345.05 L 2391.85,1357.34 L 2396.24,1370.85 L 2397.73,1384.96 z " style="fill-opacity:1.000000;fill:rgb(225,252,103);stroke:rgb(0,0,0);stroke-width:2"/></g>
<g fill-rule="evenodd"><path d="M 2397.73,1184.97 L 2396.24,1199.09 L 2391.85,1212.59 L 2384.76,1224.89 L 2375.26,1235.44 L 2363.77,1243.78 L 2350.8,1249.56 L 2336.92,1252.51 L 2322.72,1252.51 L 2308.83,1249.56 L 2295.86,1243.78 L 2284.38,1235.44 L 2274.88,1224.89 L 2267.78,1212.59 L 2263.39,1199.09 L 2261.91,1184.97 L 2263.39,1170.86 L 2267.78,1157.35 L 2274.88,1145.06 L 2284.38,1134.51 L 2295.86,1126.16 L 2308.83,1120.39 L 2322.72,1117.44 L 2336.92,1117.44 L 2350.8,1120.39 L 2363.77,1126.16 L 2375.26,1134.51 L 2384.76,1145.06 L 2391.85,1157.35 L 2396.24,1170.86 L 2397.73,1184.97 z " style="fill-opacity:1.000000;fill:rgb(62,1,126);stroke:rgb(0,0,0);stroke-width:2"/></g>
<g fill-rule="evenodd"><path d="M 2397.73,984.985 L 2396.24,999.102 L 2391.85,1012.61 L 2384.76,1024.9 L 2375.26,1035.45 L 2363.77,1043.8 L 2350.8,1049.57 L 2336.92,1052.52 L 2322.72,1052.52 L 2308.83,1049.57 L 2295.86,1043.8 L 2284.38,1035.45 L 2274.88,1024.9 L 2267.78,1012.61 L 2263.39,999.102 L 2261.91,984.985 L 2263.39,970.868 L 2267.78,957.365 L 2274.88,945.069 L 2284.38,934.52 L 2295.86,926.174 L 2308.83,920.401 L 2322.72,917.449 L 2336.92,917.449 L 2350.8,920.401 L 2363.77,926.174 L 2375.26,934.52 L 2384.76,945.069 L 2391.85,957.365 L 2396.24,970.868 L 2397.73,984.985 z " style="fill-opacity:1.000000;fill:rgb(151,234,220);stroke:rgb(0,0,0);stroke-width:2"/></g>
<g fill-rule="evenodd"><path d="M 2397.73,784.996 L 2396.24,799.113 L 2391.85,812.617 L 2384.76,824.912 L 2375.26,835.461 L 2363.77,843.807 L 2350.8,849.58 L 2336.92,852.532 L 2322.72,852.532 L 2308.83,849.58 L 2295.86,843.807 L 2284.38,835.461 L 2274.88,824.912 L 2267.78,812.617 L 2263.39,799.113 L 2261.91,784.996 L 2263.39,770.879 L 2267.78,757.376 L 2274.88,745.08 L 2284.38,734.531 L 2295.86,726.185 L 2308.83,720.412 L 2322.72,717.46 L 2336.92,717.46 L 2350.8,720.412 L 2363.77,726.185 L 2375.26,734.531 L 2384.76,745.08 L 2391.85,757.376 L 2396.24,770.879 L 2397.73,784.996 z " style="fill-opacity:1.000000;fill:rgb(107,150,143);stroke:rgb(0,0,0);stroke-width:2"/></g>
<g fill-rule="evenodd"><path d="M 2397.73,585.007 L 2396.24,599.124 L 2391.85,612.627 L 2384.76,624.923 L 2375.26,635.472 L 2363.77,643.818 L 2350.8,649.591 L 2336.92,652.543 L 2322.72,652.543 L 2308.83,649.591 L 2295.86,643.818 L 2284.38,635.472 L 2274.88,624.923 L 2267.78,612.627 L 2263.39,599.124 L 2261.91,585.007 L 2263.39,570.89 L 2267.78,557.386 L 2274.88,545.091 L 2284.38,534.542 L 2295.86,526.196 L 2308.83,520.423 L 2322.72,517.471 L 2336.92,517.471 L 2350.8,520.423 L 2363.77,526.196 L 2375.26,534.542 L 2384.76,545.091 L 2391.85,557.386 L 2396.24,570.89 L 2397.73,585.007 z " style="fill-opacity:1.000000;fill:rgb(56,92,42);stroke:rgb(0,0,0);stroke-width:2"/></g>
<g fill-rule="evenodd"><path d="M 2397.73,385.018 L 2396.24,399.135 L 2391.85,412.638 L 2384.76,424.934 L 2375.26,435.483 L 2363.77,443.829 L 2350.8,449.602 L 2336.92,452.554 L 2322.72,452.554 L 2308.83,449.602 L 2295.86,443.829 L 2284.38,435.483 L 2274.88,424.934 L 2267.78,412.638 L 2263.39,399.135 L 2261.91,385.018 L 2263.39,370.901 L 2267.78,357.397 L 2274.88,345.102 L 2284.38,334.553 L 2295.86,326.207 L 2308.83,320.433 L 2322.72,317.482 L 2336.92,317.482 L 2350.8,320.433 L 2363.77,326.207 L 2375.26,334.553 L 2384.76,345.102 L 2391.85,357.397 L 2396.24,370.901 L 2397.73,385.018 z " style="fill-opacity:1.000000;fill:rgb(236,176,59);stroke:rgb(0,0,0);stroke-width:2"/></g>
<g fill-rule="evenodd"><path d="M 2397.73,185.029 L 2396.24,199.146 L 2391.85,212.649 L 2384.76,224.945 L 2375.26,235.494 L 2363.77,243.84 L 2350.8,249.613 L 2336.92,252.565 L 2322.72,252.565 L 2308.83,249.613 L 2295.86,243.84 L 2284.38,235.494 L 2274.88,224.945 L 2267.78,212.649 L 2263.39,199.146 L 2261.91,185.029 L 2263.39,170.912 L 2267.78,157.408 L 2274.88,145.113 L 2284.38,134.564 L 2295.86,126.218 L 2308.83,120.444 L 2322.72,117.493 L 2336.92,117.493 L 2350.8,120.444 L 2363.77,126.218 L 2375.26,134.564 L 2384.76,145.113 L 2391.85,157.408 L 2396.24,170.912 L 2397.73,185.029 z " style="fill-opacity:1.000000;fill:rgb(251,50,175);stroke:rgb(0,0,0);stroke-width:2"/></g>
<g fill-rule="evenodd"><path d="M 3824.22,3058.89 L 3822.92,3071.33 L 3819.05,3083.22 L 3812.79,3094.06 L 3804.42,3103.36 L 3794.3,3110.71 L 3782.88,3115.8 L 3770.64,3118.4 L 3758.13,3118.4 L 3745.89,3115.8 L 3734.47,3110.71 L 3724.35,3103.36 L 3715.98,3094.06 L 3709.72,3083.22 L 3705.85,3071.33 L 3704.55,3058.89 L 3705.85,3046.45 L 3709.72,3034.55 L 3715.98,3023.72 L 3724.35,3014.42 L 3734.47,3007.07 L 3745.89,3001.98 L 3758.13,2999.38 L 3770.64,2999.38 L 3782.88,3001.98 L 3794.3,3007.07 L 3804.42,3014.42 L 3812.79,3023.72 L 3819.05,3034.55 L 3822.92,3046.45 L 3824.22,3058.89 z " style="fill-opacity:1.000000;fill:rgb(60,84,236);stroke:rgb(0,0,0);stroke-width:2"/></g>
<g fill-rule="evenodd"><path d="M 3624.23,3058.89 L 3622.93,3071.33 L 3619.06,3083.22 L 3612.81,3094.06 L 3604.44,3103.36 L 3594.31,3110.71 L 3582.89,3115.8 L 3570.65,3118.4 L 3558.14,3118.4 L 3545.9,3115.8 L 3534.48,3110.71 L 3524.36,3103.36 L 3515.99,3094.06 L 3509.73,3083.22 L 3505.87,3071.33 L 3504.56,3058.89 L 3505.87,3046.45 L 3509.73,3034.55 L 3515.99,3023.72 L 3524.36,3014.42 L 3534.48,3007.07 L 3545.9,3001.98 L 3558.14,2999.38 L 3570.65,2999.38 L 3582.89,3001.98 L 3594.31,3007.07 L 3604.44,3014.42 L 3612.81,3023.72 L 3619.06,3034.55 L 3622.93,3046.45 L 3624.23,3058.89 z " style="fill-opacity:1.000000;fill:rgb(24,219,92);stroke:rgb(0,0,0);stroke-width:2"/></g>
<g fill-rule="evenodd"><path d="M 3904.54,3118.73 L 3904.54,2999.05 L 4024.21,2999.05 L 4024.21,3118.73 L 3904.54,3118.73 z " style="fill-opacity:1.000000;fill:rgb(2,26,254);stroke:rgb(0,0,0);stroke-width:2"/></g>
<g fill-rule="evenodd"><path d="M 275.6,0.000999945 L 409.449,0.000999945 L 409.449,133.85 L 275.6,133.85 L 275.6,0.000999945 z " style="fill-opacity:1.000000;fill:rgb(67,251,250);stroke:rgb(0,0,0);stroke-width:2"/></g>
<g fill-rule="evenodd"><path d="M 542.513,0.000999945 L 555.985,1.37292 L 568.904,5.4247 L 580.743,11.9963 L 591.019,20.8179 L 599.308,31.5253 L 605.27,43.6826 L 608.666,56.7919 L 609.352,70.3132 L 607.3,83.6984 L 602.598,96.3977 L 595.435,107.889 L 586.105,117.705 L 574.992,125.44 L 562.546,130.78 L 549.283,133.506 L 542.513,133.85 L 529.042,132.478 L 516.123,128.426 L 504.284,121.854 L 494.008,113.033 L 485.719,102.325 L 479.757,90.1681 L 476.361,77.0588 L 475.675,63.5375 L 477.727,50.1523 L 482.429,37.4529 L 489.592,25.9616 L 498.922,16.1461 L 510.035,8.41054 L 522.481,3.07083 L 535.744,0.344981 L 542.513,0.000999945 z " style="fill-opacity:1.000000;fill:rgb(170,58,251);stroke:rgb(0,0,0);stroke-width:2"/></g>
<g fill-rule="evenodd"><path d="M 742.502,0.000999945 L 755.974,1.37292 L 768.893,5.4247 L 780.732,11.9963 L 791.008,20.8179 L 799.297,31.5253 L 805.259,43.6826 L 808.655,56.7919 L 809.341,70.3132 L 807.289,83.6984 L 802.587,96.3977 L 795.424,107.889 L 786.094,117.705 L 774.981,125.44 L 762.535,130.78 L 749.272,133.506 L 742.502,133.85 L 729.031,132.478 L 716.112,128.426 L 704.273,121.854 L 693.997,113.033 L 685.708,102.325 L 679.746,90.1681 L 676.35,77.0588 L 675.664,63.5375 L 677.716,50.1523 L 682.418,37.4529 L 689.581,25.9616 L 698.911,16.1461 L 710.024,8.41054 L 722.47,3.07083 L 735.733,0.344981 L 742.502,0.000999945 z " style="fill-opacity:1.000000;fill:rgb(41,209,230);stroke:rgb(0,0,0);stroke-width:2"/></g>
<g fill-rule="evenodd"><path d="M 275.6,448.794 L 275.6,314.946 L 409.449,314.946 L 409.449,448.794 L 275.6,448.794 z " style="fill-opacity:1.000000;fill:rgb(5,60,124);stroke:rgb(0,0,0);stroke-width:2"/></g>
<g fill-rule="evenodd"><path d="M 542.513,448.794 L 529.042,447.423 L 516.123,443.371 L 504.284,436.799 L 494.008,427.978 L 485.719,417.27 L 479.757,405.113 L 476.361,392.004 L 475.675,378.482 L 477.727,365.097 L 482.429,352.398 L 489.592,340.906 L 498.922,331.091 L 510.035,323.355 L 522.481,318.016 L 535.744,315.29 L 542.513,314.946 L 555.985,316.318 L 568.904,320.369 L 580.743,326.941 L 591.019,335.763 L 599.308,346.47 L 605.27,358.627 L 608.666,371.737 L 609.352,385.258 L 607.3,398.643 L 602.598,411.342 L 595.435,422.834 L 586.105,432.649 L 574.992,440.385 L 562.546,445.725 L 549.283,448.45 L 542.513,448.794 z " style="fill-opacity:1.000000;fill:rgb(148,117,216);stroke:rgb(0,0,0);stroke-width:2"/></g>
<g fill-rule="evenodd"><path d="M 742.502,448.794 L 729.031,447.423 L 716.112,443.371 L 704.273,436.799 L 693.997,427.978 L 685.708,417.27 L 679.746,405.113 L 676.35,392.004 L 675.664,378.482 L 677.716,365.097 L 682.418,352.398 L 689.581,340.906 L 698.911,331.091 L 710.024,323.355 L 722.47,318.016 L 735.733,315.29 L 742.502,314.946 L 755.974,316.318 L 768.893,320.369 L 780.732,326.941 L 791.008,335.763 L 799.297,346.47 L 805.259,358.627 L 808.655,371.737 L 809.341,385.258 L 807.289,398.643 L 802.587,411.342 L 795.424,422.834 L 786.094,432.649 L 774.981,440.385 L 762.535,445.725 L 749.272,448.45 L 742.502,448.794 z " style="fill-opacity:1.000000;fill:rgb(190,97,137);stroke:rgb(0,0,0);stroke-width:2"/></g>
<g fill-rule="evenodd"><path d="M 4424.98,4724.15 L 4424.98,4858 L 4291.13,4858 L 4291.13,4724.15 L 4424.98,4724.15 z " style="fill-opacity:1.000000;fill:rgb(249,92,187);stroke:rgb(0,0,0);stroke-width:2"/></g>
<g fill-rule="evenodd"><path d="M 4158.06,4858 L 4144.59,4856.63 L 4131.67,4852.58 L 4119.83,4846.01 L 4109.56,4837.18 L 4101.27,4826.48 L 4095.31,4814.32 L 4091.91,4801.21 L 4091.23,4787.69 L 4093.28,4774.3 L 4097.98,4761.6 L 4105.14,4750.11 L 4114.47,4740.3 L 4125.59,4732.56 L 4138.03,4727.22 L 4151.29,4724.5 L 4158.06,4724.15 L 4171.53,4725.52 L 4184.45,4729.58 L 4196.29,4736.15 L 4206.57,4744.97 L 4214.86,4755.68 L 4220.82,4767.83 L 4224.22,4780.94 L 4224.9,4794.46 L 4222.85,4807.85 L 4218.15,4820.55 L 4210.98,4832.04 L 4201.66,4841.86 L 4190.54,4849.59 L 4178.1,4854.93 L 4164.83,4857.66 L 4158.06,4858 z " style="fill-opacity:1.000000;fill:rgb(168,153,15);stroke:rgb(0,0,0);stroke-width:2"/></g>
<g fill-rule="evenodd"><path d="M 3958.07,4858 L 3944.6,4856.63 L 3931.68,4852.58 L 3919.84,4846.01 L 3909.57,4837.18 L 3901.28,4826.48 L 3895.32,4814.32 L 3891.92,4801.21 L 3891.24,4787.69 L 3893.29,4774.3 L 3897.99,4761.6 L 3905.15,4750.11 L 3914.48,4740.3 L 3925.6,4732.56 L 3938.04,4727.22 L 3951.3,4724.5 L 3958.07,4724.15 L 3971.55,4725.52 L 3984.46,4729.58 L 3996.3,4736.15 L 4006.58,4744.97 L 4014.87,4755.68 L 4020.83,4767.83 L 4024.23,4780.94 L 4024.91,4794.46 L 4022.86,4807.85 L 4018.16,4820.55 L 4011,4832.04 L 4001.67,4841.86 L 3990.55,4849.59 L 3978.11,4854.93 L 3964.84,4857.66 L 3958.07,4858 z " style="fill-opacity:1.000000;fill:rgb(149,177,235);stroke:rgb(0,0,0);stroke-width:2"/></g>
<g fill-rule="evenodd"><path d="M 3283.31,4858 L 3149.46,4858 L 3149.46,4724.15 L 3283.31,4724.15 L 3283.31,4858 z " style="fill-opacity:1.000000;fill:rgb(241,179,5);stroke:rgb(0,0,0);stroke-width:2"/></g>
<g fill-rule="evenodd"><path d="M 3416.37,4858 L 3402.9,4856.63 L 3389.98,4852.58 L 3378.14,4846.01 L 3367.87,4837.18 L 3359.58,4826.48 L 3353.62,4814.32 L 3350.22,4801.21 L 3349.53,4787.69 L 3351.59,4774.3 L 3356.29,4761.6 L 3363.45,4750.11 L 3372.78,4740.3 L 3383.89,4732.56 L 3396.34,4727.22 L 3409.6,4724.5 L 3416.37,4724.15 L 3429.84,4725.52 L 3442.76,4729.58 L 3454.6,4736.15 L 3464.88,4744.97 L 3473.17,4755.68 L 3479.13,4767.83 L 3482.52,4780.94 L 3483.21,4794.46 L 3481.16,4807.85 L 3476.46,4820.55 L 3469.29,4832.04 L 3459.96,4841.86 L 3448.85,4849.59 L 3436.4,4854.93 L 3423.14,4857.66 L 3416.37,4858 z " style="fill-opacity:1.000000;fill:rgb(239,247,0);stroke:rgb(0,0,0);stroke-width:2"/></g>
<g fill-rule="evenodd"><path d="M 3616.36,4858 L 3602.89,4856.63 L 3589.97,4852.58 L 3578.13,4846.01 L 3567.86,4837.18 L 3559.57,4826.48 L 3553.6,4814.32 L 3550.21,4801.21 L 3549.52,4787.69 L 3551.57,4774.3 L 3556.28,4761.6 L 3563.44,4750.11 L 3572.77,4740.3 L 3583.88,4732.56 L 3596.33,4727.22 L 3609.59,4724.5 L 3616.36,4724.15 L 3629.83,4725.52 L 3642.75,4729.58 L 3654.59,4736.15 L 3664.87,4744.97 L 3673.16,4755.68 L 3679.12,4767.83 L 3682.51,4780.94 L 3683.2,4794.46 L 3681.15,4807.85 L 3676.45,4820.55 L 3669.28,4832.04 L 3659.95,4841.86 L 3648.84,4849.59 L 3636.39,4854.93 L 3623.13,4857.66 L 3616.36,4858 z " style="fill-opacity:1.000000;fill:rgb(233,161,58);stroke:rgb(0,0,0);stroke-width:2"/></g>
<g fill-rule="evenodd"><path d="M 0.0251442,2204.6 L 133.874,2204.6 L 133.874,2338.45 L 0.0251442,2338.45 L 0.0251442,2204.6 z " style="fill-opacity:1.000000;fill:rgb(229,202,11);stroke:rgb(0,0,0);stroke-width:2"/></g>
<g fill-rule="evenodd"><path d="M 66.9495,2138.46 L 53.4782,2137.09 L 40.5589,2133.04 L 28.7196,2126.47 L 18.4441,2117.65 L 10.1546,2106.94 L 4.19292,2094.78 L 0.797102,2081.67 L 0.111139,2068.15 L 2.16303,2054.77 L 6.86477,2042.07 L 14.0284,2030.58 L 23.3579,2020.76 L 34.4713,2013.02 L 46.9166,2007.69 L 60.1799,2004.96 L 66.9495,2004.62 L 80.4207,2005.99 L 93.34,2010.04 L 105.179,2016.61 L 115.455,2025.43 L 123.744,2036.14 L 129.706,2048.3 L 133.102,2061.41 L 133.788,2074.93 L 131.736,2088.31 L 127.034,2101.01 L 119.871,2112.5 L 110.541,2122.32 L 99.4277,2130.05 L 86.9824,2135.39 L 73.7191,2138.12 L 66.9495,2138.46 z " style="fill-opacity:1.000000;fill:rgb(203,208,72);stroke:rgb(0,0,0);stroke-width:2"/></g>
<g fill-rule="evenodd"><path d="M 66.9495,1938.47 L 53.4782,1937.1 L 40.5589,1933.05 L 28.7196,1926.48 L 18.4441,1917.66 L 10.1546,1906.95 L 4.19292,1894.79 L 0.797102,1881.68 L 0.111139,1868.16 L 2.16303,1854.78 L 6.86477,1842.08 L 14.0284,1830.59 L 23.3579,1820.77 L 34.4713,1813.04 L 46.9166,1807.7 L 60.1799,1804.97 L 66.9495,1804.63 L 80.4207,1806 L 93.34,1810.05 L 105.179,1816.62 L 115.455,1825.44 L 123.744,1836.15 L 129.706,1848.31 L 133.102,1861.42 L 133.788,1874.94 L 131.736,1888.32 L 127.034,1901.02 L 119.871,1912.51 L 110.541,1922.33 L 99.4277,1930.07 L 86.9824,1935.41 L 73.7191,1938.13 L 66.9495,1938.47 z " style="fill-opacity:1.000000;fill:rgb(71,100,189);stroke:rgb(0,0,0);stroke-width:2"/></g>
<g fill-rule="evenodd"><path d="M 66.9495,1738.49 L 53.4782,1737.11 L 40.5589,1733.06 L 28.7196,1726.49 L 18.4441,1717.67 L 10.1546,1706.96 L 4.19292,1694.8 L 0.797102,1681.69 L 0.111139,1668.17 L 2.16303,1654.79 L 6.86477,1642.09 L 14.0284,1630.6 L 23.3579,1620.78 L 34.4713,1613.05 L 46.9166,1607.71 L 60.1799,1604.98 L 66.9495,1604.64 L 80.4207,1606.01 L 93.34,1610.06 L 105.179,1616.63 L 115.455,1625.45 L 123.744,1636.16 L 129.706,1648.32 L 133.102,1661.43 L 133.788,1674.95 L 131.736,1688.33 L 127.034,1701.03 L 119.871,1712.53 L 110.541,1722.34 L 99.4277,1730.08 L 86.9824,1735.42 L 73.7191,1738.14 L 66.9495,1738.49 z " style="fill-opacity:1.000000;fill:rgb(31,35,30);stroke:rgb(0,0,0);stroke-width:2"/></g>
<g fill-rule="evenodd"><path d="M 66.9495,1538.5 L 53.4782,1537.12 L 40.5589,1533.07 L 28.7196,1526.5 L 18.4441,1517.68 L 10.1546,1506.97 L 4.19292,1494.82 L 0.797102,1481.71 L 0.111139,1468.18 L 2.16303,1454.8 L 6.86477,1442.1 L 14.0284,1430.61 L 23.3579,1420.79 L 34.4713,1413.06 L 46.9166,1407.72 L 60.1799,1404.99 L 66.9495,1404.65 L 80.4207,1406.02 L 93.34,1410.07 L 105.179,1416.64 L 115.455,1425.46 L 123.744,1436.17 L 129.706,1448.33 L 133.102,1461.44 L 133.788,1474.96 L 131.736,1488.35 L 127.034,1501.04 L 119.871,1512.54 L 110.541,1522.35 L 99.4277,1530.09 L 86.9824,1535.43 L 73.7191,1538.15 L 66.9495,1538.5 z " style="fill-opacity:1.000000;fill:rgb(168,28,123);stroke:rgb(0,0,0);stroke-width:2"/></g>
<g fill-rule="evenodd"><path d="M 66.9495,1338.51 L 53.4782,1337.14 L 40.5589,1333.08 L 28.7196,1326.51 L 18.4441,1317.69 L 10.1546,1306.98 L 4.19292,1294.83 L 0.797102,1281.72 L 0.111139,1268.2 L 2.16303,1254.81 L 6.86477,1242.11 L 14.0284,1230.62 L 23.3579,1220.8 L 34.4713,1213.07 L 46.9166,1207.73 L 60.1799,1205 L 66.9495,1204.66 L 80.4207,1206.03 L 93.34,1210.08 L 105.179,1216.65 L 115.455,1225.48 L 123.744,1236.18 L 129.706,1248.34 L 133.102,1261.45 L 133.788,1274.97 L 131.736,1288.36 L 127.034,1301.06 L 119.871,1312.55 L 110.541,1322.36 L 99.4277,1330.1 L 86.9824,1335.44 L 73.7191,1338.16 L 66.9495,1338.51 z " style="fill-opacity:1.000000;fill:rgb(100,197,20);stroke:rgb(0,0,0);stroke-width:2"/></g>
<g fill-rule="evenodd"><path d="M 66.9495,1138.52 L 53.4782,1137.15 L 40.5589,1133.09 L 28.7196,1126.52 L 18.4441,1117.7 L 10.1546,1106.99 L 4.19292,1094.84 L 0.797102,1081.73 L 0.111139,1068.21 L 2.16303,1054.82 L 6.86477,1042.12 L 14.0284,1030.63 L 23.3579,1020.82 L 34.4713,1013.08 L 46.9166,1007.74 L 60.1799,1005.01 L 66.9495,1004.67 L 80.4207,1006.04 L 93.34,1010.09 L 105.179,1016.67 L 115.455,1025.49 L 123.744,1036.19 L 129.706,1048.35 L 133.102,1061.46 L 133.788,1074.98 L 131.736,1088.37 L 127.034,1101.07 L 119.871,1112.56 L 110.541,1122.37 L 99.4277,1130.11 L 86.9824,1135.45 L 73.7191,1138.17 L 66.9495,1138.52 z " style="fill-opacity:1.000000;fill:rgb(115,90,197);stroke:rgb(0,0,0);stroke-width:2"/></g>
<g fill-rule="evenodd"><path d="M 66.9495,938.53 L 53.4782,937.158 L 40.5589,933.106 L 28.7196,926.534 L 18.4441,917.713 L 10.1546,907.005 L 4.19292,894.848 L 0.797102,881.739 L 0.111139,868.217 L 2.16303,854.832 L 6.86477,842.133 L 14.0284,830.642 L 23.3579,820.826 L 34.4713,813.09 L 46.9166,807.751 L 60.1799,805.025 L 66.9495,804.681 L 80.4207,806.053 L 93.34,810.105 L 105.179,816.676 L 115.455,825.498 L 123.744,836.205 L 129.706,848.363 L 133.102,861.472 L 133.788,874.993 L 131.736,888.378 L 127.034,901.078 L 119.871,912.569 L 110.541,922.384 L 99.4277,930.12 L 86.9824,935.46 L 73.7191,938.186 L 66.9495,938.53 z " style="fill-opacity:1.000000;fill:rgb(94,75,121);stroke:rgb(0,0,0);stroke-width:2"/></g>
<g fill-rule="evenodd"><path d="M 551.177,2338.45 L 551.177,2204.6 L 685.026,2204.6 L 685.026,2338.45 L 551.177,2338.45 z " style="fill-opacity:1.000000;fill:rgb(99,59,112);stroke:rgb(0,0,0);stroke-width:2"/></g>
<g fill-rule="evenodd"><path d="M 618.101,2138.46 L 604.63,2137.09 L 591.711,2133.04 L 579.871,2126.47 L 569.596,2117.65 L 561.306,2106.94 L 555.345,2094.78 L 551.949,2081.67 L 551.263,2068.15 L 553.315,2054.77 L 558.017,2042.07 L 565.18,2030.58 L 574.51,2020.76 L 585.623,2013.02 L 598.068,2007.69 L 611.332,2004.96 L 618.101,2004.62 L 631.573,2005.99 L 644.492,2010.04 L 656.331,2016.61 L 666.607,2025.43 L 674.896,2036.14 L 680.858,2048.3 L 684.254,2061.41 L 684.94,2074.93 L 682.888,2088.31 L 678.186,2101.01 L 671.022,2112.5 L 661.693,2122.32 L 650.58,2130.05 L 638.134,2135.39 L 624.871,2138.12 L 618.101,2138.46 z " style="fill-opacity:1.000000;fill:rgb(100,36,17);stroke:rgb(0,0,0);stroke-width:2"/></g>
<g fill-rule="evenodd"><path d="M 618.101,1938.47 L 604.63,1937.1 L 591.711,1933.05 L 579.871,1926.48 L 569.596,1917.66 L 561.306,1906.95 L 555.345,1894.79 L 551.949,1881.68 L 551.263,1868.16 L 553.315,1854.78 L 558.017,1842.08 L 565.18,1830.59 L 574.51,1820.77 L 585.623,1813.04 L 598.068,1807.7 L 611.332,1804.97 L 618.101,1804.63 L 631.573,1806 L 644.492,1810.05 L 656.331,1816.62 L 666.607,1825.44 L 674.896,1836.15 L 680.858,1848.31 L 684.254,1861.42 L 684.94,1874.94 L 682.888,1888.32 L 678.186,1901.02 L 671.022,1912.51 L 661.693,1922.33 L 650.58,1930.07 L 638.134,1935.41 L 624.871,1938.13 L 618.101,1938.47 z " style="fill-opacity:1.000000;fill:rgb(158,9,220);stroke:rgb(0,0,0);stroke-width:2"/></g>
<g fill-rule="evenodd"><path d="M 618.101,1738.49 L 604.63,1737.11 L 591.711,1733.06 L 579.871,1726.49 L 569.596,1717.67 L 561.306,1706.96 L 555.345,1694.8 L 551.949,1681.69 L 551.263,1668.17 L 553.315,1654.79 L 558.017,1642.09 L 565.18,1630.6 L 574.51,1620.78 L 585.623,1613.05 L 598.068,1607.71 L 611.332,1604.98 L 618.101,1604.64 L 631.573,1606.01 L 644.492,1610.06 L 656.331,1616.63 L 666.607,1625.45 L 674.896,1636.16 L 680.858,1648.32 L 684.254,1661.43 L 684.94,1674.95 L 682.888,1688.33 L 678.186,1701.03 L 671.022,1712.53 L 661.693,1722.34 L 650.58,1730.08 L 638.134,1735.42 L 624.871,1738.14 L 618.101,1738.49 z " style="fill-opacity:1.000000;fill:rgb(170,212,172);stroke:rgb(0,0,0);stroke-width:2"/></g>
<g fill-rule="evenodd"><path d="M 618.101,1538.5 L 604.63,1537.12 L 591.711,1533.07 L 579.871,1526.5 L 569.596,1517.68 L 561.306,1506.97 L 555.345,1494.82 L 551.949,1481.71 L 551.263,1468.18 L 553.315,1454.8 L 558.017,1442.1 L 565.18,1430.61 L 574.51,1420.79 L 585.623,1413.06 L 598.068,1407.72 L 611.332,1404.99 L 618.101,1404.65 L 631.573,1406.02 L 644.492,1410.07 L 656.331,1416.64 L 666.607,1425.46 L 674.896,1436.17 L 680.858,1448.33 L 684.254,1461.44 L 684.94,1474.96 L 682.888,1488.35 L 678.186,1501.04 L 671.022,1512.54 L 661.693,1522.35 L 650.58,1530.09 L 638.134,1535.43 L 624.871,1538.15 L 618.101,1538.5 z " style="fill-opacity:1.000000;fill:rgb(242,27,16);stroke:rgb(0,0,0);stroke-width:2"/></g>
<g fill-rule="evenodd"><path d="M 618.101,1338.51 L 604.63,1337.14 L 591.711,1333.08 L 579.871,1326.51 L 569.596,1317.69 L 561.306,1306.98 L 555.345,1294.83 L 551.949,1281.72 L 551.263,1268.2 L 553.315,1254.81 L 558.017,1242.11 L 565.18,1230.62 L 574.51,1220.8 L 585.623,1213.07 L 598.068,1207.73 L 611.332,1205 L 618.101,1204.66 L 631.573,1206.03 L 644.492,1210.08 L 656.331,1216.65 L 666.607,1225.48 L 674.896,1236.18 L 680.858,1248.34 L 684.254,1261.45 L 684.94,1274.97 L 682.888,1288.36 L 678.186,1301.06 L 671.022,1312.55 L 661.693,1322.36 L 650.58,1330.1 L 638.134,1335.44 L 624.871,1338.16 L 618.101,1338.51 z " style="fill-opacity:1.000000;fill:rgb(175,59,51);stroke:rgb(0,0,0);stroke-width:2"/></g>
<g fill-rule="evenodd"><path d="M 3739.98,3873.8 L 3739.98,3739.95 L 3873.83,3739.95 L 3873.83,3873.8 L 3739.98,3873.8 z " style="fill-opacity:1.000000;fill:rgb(205,227,80);stroke:rgb(0,0,0);stroke-width:2"/></g>
<g fill-rule="evenodd"><path d="M 3806.9,3673.81 L 3793.43,3672.44 L 3780.51,3668.39 L 3768.67,3661.82 L 3758.4,3653 L 3750.11,3642.29 L 3744.15,3630.13 L 3740.75,3617.02 L 3740.06,3603.5 L 3742.12,3590.12 L 3746.82,3577.42 L 3753.98,3565.93 L 3763.31,3556.11 L 3774.42,3548.37 L 3786.87,3543.04 L 3800.13,3540.31 L 3806.9,3539.97 L 3820.37,3541.34 L 3833.29,3545.39 L 3845.13,3551.96 L 3855.41,3560.78 L 3863.7,3571.49 L 3869.66,3583.65 L 3873.06,3596.76 L 3873.74,3610.28 L 3871.69,3623.66 L 3866.99,3636.36 L 3859.82,3647.85 L 3850.49,3657.67 L 3839.38,3665.4 L 3826.94,3670.74 L 3813.67,3673.47 L 3806.9,3673.81 z " style="fill-opacity:1.000000;fill:rgb(72,71,21);stroke:rgb(0,0,0);stroke-width:2"/></g>
<g fill-rule="evenodd"><path d="M 3816.75,1041.28 L 3816.75,903.496 L 3954.53,903.496 L 3954.53,1041.28 L 3816.75,1041.28 z " style="fill-opacity:1.000000;fill:rgb(92,187,111);stroke:rgb(0,0,0);stroke-width:2"/></g>
<g fill-rule="evenodd"><path d="M 3954.53,775.549 L 3953.02,789.872 L 3948.57,803.569 L 3941.37,816.042 L 3931.74,826.746 L 3920.08,835.211 L 3906.93,841.069 L 3892.84,844.063 L 3878.44,844.063 L 3864.35,841.069 L 3851.19,835.211 L 3839.54,826.746 L 3829.9,816.042 L 3822.7,803.569 L 3818.25,789.872 L 3816.75,775.549 L 3818.25,761.225 L 3822.7,747.528 L 3829.9,735.055 L 3839.54,724.351 L 3851.19,715.886 L 3864.35,710.028 L 3878.44,707.034 L 3892.84,707.034 L 3906.93,710.028 L 3920.08,715.886 L 3931.74,724.351 L 3941.37,735.055 L 3948.57,747.528 L 3953.02,761.225 L 3954.53,775.549 z " style="fill-opacity:1.000000;fill:rgb(34,25,186);stroke:rgb(0,0,0);stroke-width:2"/></g>
<g fill-rule="evenodd"><path d="M 3954.53,578.709 L 3953.02,593.033 L 3948.57,606.73 L 3941.37,619.203 L 3931.74,629.907 L 3920.08,638.372 L 3906.93,644.23 L 3892.84,647.224 L 3878.44,647.224 L 3864.35,644.23 L 3851.19,638.372 L 3839.54,629.907 L 3829.9,619.203 L 3822.7,606.73 L 3818.25,593.033 L 3816.75,578.709 L 3818.25,564.386 L 3822.7,550.689 L 3829.9,538.216 L 3839.54,527.512 L 3851.19,519.047 L 3864.35,513.189 L 3878.44,510.195 L 3892.84,510.195 L 3906.93,513.189 L 3920.08,519.047 L 3931.74,527.512 L 3941.37,538.216 L 3948.57,550.689 L 3953.02,564.386 L 3954.53,578.709 z " style="fill-opacity:1.000000;fill:rgb(155,125,245);stroke:rgb(0,0,0);stroke-width:2"/></g>
<g fill-rule="evenodd"><path d="M 3954.53,381.87 L 3953.02,396.193 L 3948.57,409.891 L 3941.37,422.364 L 3931.74,433.067 L 3920.08,441.533 L 3906.93,447.391 L 3892.84,450.384 L 3878.44,450.384 L 3864.35,447.391 L 3851.19,441.533 L 3839.54,433.067 L 3829.9,422.364 L 3822.7,409.891 L 3818.25,396.193 L 3816.75,381.87 L 3818.25,367.547 L 3822.7,353.85 L 3829.9,341.376 L 3839.54,330.673 L 3851.19,322.207 L 3864.35,316.35 L 3878.44,313.356 L 3892.84,313.356 L 3906.93,316.35 L 3920.08,322.207 L 3931.74,330.673 L 3941.37,341.376 L 3948.57,353.85 L 3953.02,367.547 L 3954.53,381.87 z " style="fill-opacity:1.000000;fill:rgb(11,225,26);stroke:rgb(0,0,0);stroke-width:2"/></g>
<g fill-rule="evenodd"><path d="M 826.752,4070.64 L 826.752,3936.79 L 960.601,3936.79 L 960.601,4070.64 L 826.752,4070.64 z " style="fill-opacity:1.000000;fill:rgb(28,127,35);stroke:rgb(0,0,0);stroke-width:2"/></g>
<g fill-rule="evenodd"><path d="M 1093.67,4070.64 L 1080.19,4069.27 L 1067.27,4065.22 L 1055.44,4058.65 L 1045.16,4049.83 L 1036.87,4039.12 L 1030.91,4026.96 L 1027.51,4013.85 L 1026.83,4000.33 L 1028.88,3986.94 L 1033.58,3974.25 L 1040.74,3962.75 L 1050.07,3952.94 L 1061.19,3945.2 L 1073.63,3939.86 L 1086.9,3937.14 L 1093.67,3936.79 L 1107.14,3938.17 L 1120.06,3942.22 L 1131.9,3948.79 L 1142.17,3957.61 L 1150.46,3968.32 L 1156.42,3980.48 L 1159.82,3993.58 L 1160.5,4007.11 L 1158.45,4020.49 L 1153.75,4033.19 L 1146.59,4044.68 L 1137.26,4054.5 L 1126.14,4062.23 L 1113.7,4067.57 L 1100.43,4070.3 L 1093.67,4070.64 z " style="fill-opacity:1.000000;fill:rgb(248,41,248);stroke:rgb(0,0,0);stroke-width:2"/></g>
<g fill-rule="evenodd"><path d="M 1293.65,4070.64 L 1280.18,4069.27 L 1267.26,4065.22 L 1255.42,4058.65 L 1245.15,4049.83 L 1236.86,4039.12 L 1230.9,4026.96 L 1227.5,4013.85 L 1226.82,4000.33 L 1228.87,3986.94 L 1233.57,3974.25 L 1240.73,3962.75 L 1250.06,3952.94 L 1261.18,3945.2 L 1273.62,3939.86 L 1286.88,3937.14 L 1293.65,3936.79 L 1307.13,3938.17 L 1320.04,3942.22 L 1331.88,3948.79 L 1342.16,3957.61 L 1350.45,3968.32 L 1356.41,3980.48 L 1359.81,3993.58 L 1360.49,4007.11 L 1358.44,4020.49 L 1353.74,4033.19 L 1346.58,4044.68 L 1337.25,4054.5 L 1326.13,4062.23 L 1313.69,4067.57 L 1300.42,4070.3 L 1293.65,4070.64 z " style="fill-opacity:1.000000;fill:rgb(164,27,19);stroke:rgb(0,0,0);stroke-width:2"/></g>
<g fill-rule="evenodd"><path d="M 1493.64,4070.64 L 1480.17,4069.27 L 1467.25,4065.22 L 1455.41,4058.65 L 1445.14,4049.83 L 1436.85,4039.12 L 1430.89,4026.96 L 1427.49,4013.85 L 1426.81,4000.33 L 1428.86,3986.94 L 1433.56,3974.25 L 1440.72,3962.75 L 1450.05,3952.94 L 1461.17,3945.2 L 1473.61,3939.86 L 1486.87,3937.14 L 1493.64,3936.79 L 1507.11,3938.17 L 1520.03,3942.22 L 1531.87,3948.79 L 1542.15,3957.61 L 1550.44,3968.32 L 1556.4,3980.48 L 1559.8,3993.58 L 1560.48,4007.11 L 1558.43,4020.49 L 1553.73,4033.19 L 1546.56,4044.68 L 1537.23,4054.5 L 1526.12,4062.23 L 1513.68,4067.57 L 1500.41,4070.3 L 1493.64,4070.64 z " style="fill-opacity:1.000000;fill:rgb(181,202,78);stroke:rgb(0,0,0);stroke-width:2"/></g>
<g fill-rule="evenodd"><path d="M 1693.63,4070.64 L 1680.16,4069.27 L 1667.24,4065.22 L 1655.4,4058.65 L 1645.13,4049.83 L 1636.84,4039.12 L 1630.88,4026.96 L 1627.48,4013.85 L 1626.79,4000.33 L 1628.85,3986.94 L 1633.55,3974.25 L 1640.71,3962.75 L 1650.04,3952.94 L 1661.15,3945.2 L 1673.6,3939.86 L 1686.86,3937.14 L 1693.63,3936.79 L 1707.1,3938.17 L 1720.02,3942.22 L 1731.86,3948.79 L 1742.14,3957.61 L 1750.43,3968.32 L 1756.39,3980.48 L 1759.78,3993.58 L 1760.47,4007.11 L 1758.42,4020.49 L 1753.72,4033.19 L 1746.55,4044.68 L 1737.22,4054.5 L 1726.11,4062.23 L 1713.67,4067.57 L 1700.4,4070.3 L 1693.63,4070.64 z " style="fill-opacity:1.000000;fill:rgb(232,152,50);stroke:rgb(0,0,0);stroke-width:2"/></g>
<g fill-rule="evenodd"><path d="M 1893.62,4070.64 L 1880.15,4069.27 L 1867.23,4065.22 L 1855.39,4058.65 L 1845.12,4049.83 L 1836.83,4039.12 L 1830.86,4026.96 L 1827.47,4013.85 L 1826.78,4000.33 L 1828.84,3986.94 L 1833.54,3974.25 L 1840.7,3962.75 L 1850.03,3952.94 L 1861.14,3945.2 L 1873.59,3939.86 L 1886.85,3937.14 L 1893.62,3936.79 L 1907.09,3938.17 L 1920.01,3942.22 L 1931.85,3948.79 L 1942.13,3957.61 L 1950.42,3968.32 L 1956.38,3980.48 L 1959.77,3993.58 L 1960.46,4007.11 L 1958.41,4020.49 L 1953.71,4033.19 L 1946.54,4044.68 L 1937.21,4054.5 L 1926.1,4062.23 L 1913.65,4067.57 L 1900.39,4070.3 L 1893.62,4070.64 z " style="fill-opacity:1.000000;fill:rgb(56,224,121);stroke:rgb(0,0,0);stroke-width:2"/></g>
<g fill-rule="evenodd"><path d="M 2093.61,4070.64 L 2080.14,4069.27 L 2067.22,4065.22 L 2055.38,4058.65 L 2045.11,4049.83 L 2036.82,4039.12 L 2030.85,4026.96 L 2027.46,4013.85 L 2026.77,4000.33 L 2028.82,3986.94 L 2033.53,3974.25 L 2040.69,3962.75 L 2050.02,3952.94 L 2061.13,3945.2 L 2073.58,3939.86 L 2086.84,3937.14 L 2093.61,3936.79 L 2107.08,3938.17 L 2120,3942.22 L 2131.84,3948.79 L 2142.12,3957.61 L 2150.41,3968.32 L 2156.37,3980.48 L 2159.76,3993.58 L 2160.45,4007.11 L 2158.4,4020.49 L 2153.7,4033.19 L 2146.53,4044.68 L 2137.2,4054.5 L 2126.09,4062.23 L 2113.64,4067.57 L 2100.38,4070.3 L 2093.61,4070.64 z " style="fill-opacity:1.000000;fill:rgb(77,61,52);stroke:rgb(0,0,0);stroke-width:2"/></g>
<g fill-rule="evenodd"><path d="M 2293.6,4070.64 L 2280.13,4069.27 L 2267.21,4065.22 L 2255.37,4058.65 L 2245.09,4049.83 L 2236.8,4039.12 L 2230.84,4026.96 L 2227.45,4013.85 L 2226.76,4000.33 L 2228.81,3986.94 L 2233.51,3974.25 L 2240.68,3962.75 L 2250.01,3952.94 L 2261.12,3945.2 L 2273.57,3939.86 L 2286.83,3937.14 L 2293.6,3936.79 L 2307.07,3938.17 L 2319.99,3942.22 L 2331.83,3948.79 L 2342.1,3957.61 L 2350.39,3968.32 L 2356.36,3980.48 L 2359.75,3993.58 L 2360.44,4007.11 L 2358.39,4020.49 L 2353.68,4033.19 L 2346.52,4044.68 L 2337.19,4054.5 L 2326.08,4062.23 L 2313.63,4067.57 L 2300.37,4070.3 L 2293.6,4070.64 z " style="fill-opacity:1.000000;fill:rgb(188,95,78);stroke:rgb(0,0,0);stroke-width:2"/></g>
</svg>
