<?xml version="1.0" standalone="no"?>
<!DOCTYPE svg PUBLIC "-//W3C//DTD SVG 1.1//EN"
"http://www.w3.org/Graphics/SVG/1.1/DTD/svg11.dtd">
<svg width="5921" height="5921" viewBox="0 0 5921 5921" version="1.1"
xmlns="http://www.w3.org/2000/svg"
xmlns:xlink="http://www.w3.org/1999/xlink">
<g fill-rule="evenodd"><path d="M 2294.19,902.518 L 2294.19,766.7 L 2294.34,765.162 L 2294.79,763.686 L 2295.52,762.325 L 2296.5,761.133 L 2297.69,760.153 L 2299.05,759.425 L 2300.53,758.977 L 2302.06,758.827 L 2437.88,758.827 L 2439.42,758.977 L 2440.89,759.425 L 2442.26,760.153 L 2443.45,761.133 L 2444.43,762.325 L 2445.16,763.686 L 2445.6,765.162 L 2445.76,766.7 L 2445.76,902.518 L 2445.6,904.054 L 2445.16,905.53 L 2444.43,906.892 L 2443.45,908.084 L 2442.26,909.064 L 2440.89,909.792 L 2439.42,910.24 L 2437.88,910.392 L 2302.06,910.392 L 2300.53,910.24 L 2299.05,909.792 L 2297.69,909.064 L 2296.5,908.084 L 2295.52,906.892 L 2294.79,905.53 L 2294.34,904.054 L 2294.19,902.518 z " style="fill-opacity:1.000000;fill:rgb(103,198,105);stroke:rgb(0,0,0);stroke-width:2"/></g>
<g fill-rule="evenodd"><path d="M 2445.71,1035.42 L 2444.23,1049.54 L 2444.1,1050.35 L 2443.89,1051.15 L 2439.5,1064.65 L 2438.83,1066.16 L 2431.73,1078.45 L 2431.28,1079.14 L 2430.76,1079.78 L 2421.26,1090.33 L 2420.04,1091.43 L 2408.56,1099.78 L 2407.86,1100.23 L 2407.13,1100.6 L 2394.16,1106.38 L 2392.59,1106.89 L 2378.71,1109.84 L 2377.89,1109.97 L 2377.07,1110.01 L 2362.88,1110.01 L 2362.05,1109.97 L 2361.24,1109.84 L 2347.35,1106.89 L 2345.78,1106.38 L 2332.82,1100.6 L 2332.08,1100.23 L 2331.39,1099.78 L 2319.9,1091.43 L 2318.68,1090.33 L 2309.18,1079.78 L 2308.66,1079.14 L 2308.21,1078.45 L 2301.12,1066.16 L 2300.45,1064.65 L 2296.06,1051.15 L 2295.85,1050.35 L 2295.72,1049.54 L 2294.23,1035.42 L 2294.19,1034.6 L 2294.23,1033.78 L 2295.72,1019.66 L 2295.85,1018.85 L 2296.06,1018.05 L 2300.45,1004.55 L 2301.12,1003.04 L 2308.21,990.746 L 2308.66,990.055 L 2309.18,989.415 L 2318.68,978.865 L 2319.9,977.765 L 2331.39,969.419 L 2332.08,968.969 L 2332.82,968.595 L 2345.78,962.822 L 2347.35,962.314 L 2361.24,959.362 L 2362.05,959.232 L 2362.88,959.19 L 2377.07,959.19 L 2377.89,959.232 L 2378.71,959.362 L 2392.59,962.314 L 2394.16,962.822 L 2407.13,968.595 L 2407.86,968.969 L 2408.56,969.419 L 2420.04,977.765 L 2421.26,978.865 L 2430.76,989.415 L 2431.28,990.055 L 2431.73,990.746 L 2438.83,1003.04 L 2439.5,1004.55 L 2443.89,1018.05 L 2444.1,1018.85 L 2444.23,1019.66 L 2445.71,1033.78 L 2445.76,1034.6 L 2445.71,1035.42 z " style="fill-opacity:1.000000;fill:rgb(115,81,255);stroke:rgb(0,0,0);stroke-width:2"/></g>
<g fill-rule="evenodd"><path d="M 2445.71,1235.41 L 2444.23,1249.53 L 2444.1,1250.35 L 2443.89,1251.14 L 2439.5,1264.64 L 2438.83,1266.15 L 2431.73,1278.44 L 2431.28,1279.14 L 2430.76,1279.78 L 2421.26,1290.33 L 2420.04,1291.43 L 2408.56,1299.77 L 2407.86,1300.22 L 2407.13,1300.59 L 2394.16,1306.37 L 2392.59,1306.88 L 2378.71,1309.83 L 2377.89,1309.96 L 2377.07,1310 L 2362.88,1310 L 2362.05,1309.96 L 2361.24,1309.83 L 2347.35,1306.88 L 2345.78,1306.37 L 2332.82,1300.59 L 2332.08,1300.22 L 2331.39,1299.77 L 2319.9,1291.43 L 2318.68,1290.33 L 2309.18,1279.78 L 2308.66,1279.14 L 2308.21,1278.44 L 2301.12,1266.15 L 2300.45,1264.64 L 2296.06,1251.14 L 2295.85,1250.35 L 2295.72,1249.53 L 2294.23,1235.41 L 2294.19,1234.59 L 2294.23,1233.77 L 2295.72,1219.65 L 2295.85,1218.84 L 2296.06,1218.04 L 2300.45,1204.54 L 2301.12,1203.03 L 2308.21,1190.74 L 2308.66,1190.05 L 2309.18,1189.41 L 2318.68,1178.86 L 2319.9,1177.76 L 2331.39,1169.41 L 2332.08,1168.96 L 2332.82,1168.59 L 2345.78,1162.81 L 2347.35,1162.3 L 2361.24,1159.35 L 2362.05,1159.22 L 2362.88,1159.18 L 2377.07,1159.18 L 2377.89,1159.22 L 2378.71,1159.35 L 2392.59,1162.3 L 2394.16,1162.81 L 2407.13,1168.59 L 2407.86,1168.96 L 2408.56,1169.41 L 2420.04,1177.76 L 2421.26,1178.86 L 2430.76,1189.41 L 2431.28,1190.05 L 2431.73,1190.74 L 2438.83,1203.03 L 2439.5,1204.54 L 2443.89,1218.04 L 2444.1,1218.84 L 2444.23,1219.65 L 2445.71,1233.77 L 2445.76,1234.59 L 2445.71,1235.41 z " style="fill-opacity:1.000000;fill:rgb(74,236,41);stroke:rgb(0,0,0);stroke-width:2"/></g>
<g fill-rule="evenodd"><path d="M 2445.71,1435.4 L 2444.23,1449.52 L 2444.1,1450.34 L 2443.89,1451.13 L 2439.5,1464.64 L 2438.83,1466.14 L 2431.73,1478.44 L 2431.28,1479.13 L 2430.76,1479.77 L 2421.26,1490.32 L 2420.04,1491.42 L 2408.56,1499.76 L 2407.86,1500.21 L 2407.13,1500.59 L 2394.16,1506.36 L 2392.59,1506.87 L 2378.71,1509.82 L 2377.89,1509.95 L 2377.07,1509.99 L 2362.88,1509.99 L 2362.05,1509.95 L 2361.24,1509.82 L 2347.35,1506.87 L 2345.78,1506.36 L 2332.82,1500.59 L 2332.08,1500.21 L 2331.39,1499.76 L 2319.9,1491.42 L 2318.68,1490.32 L 2309.18,1479.77 L 2308.66,1479.13 L 2308.21,1478.44 L 2301.12,1466.14 L 2300.45,1464.64 L 2296.06,1451.13 L 2295.85,1450.34 L 2295.72,1449.52 L 2294.23,1435.4 L 2294.19,1434.58 L 2294.23,1433.76 L 2295.72,1419.64 L 2295.85,1418.83 L 2296.06,1418.03 L 2300.45,1404.53 L 2301.12,1403.02 L 2308.21,1390.73 L 2308.66,1390.04 L 2309.18,1389.4 L 2318.68,1378.85 L 2319.9,1377.75 L 2331.39,1369.4 L 2332.08,1368.95 L 2332.82,1368.58 L 2345.78,1362.8 L 2347.35,1362.3 L 2361.24,1359.34 L 2362.05,1359.21 L 2362.88,1359.17 L 2377.07,1359.17 L 2377.89,1359.21 L 2378.71,1359.34 L 2392.59,1362.3 L 2394.16,1362.8 L 2407.13,1368.58 L 2407.86,1368.95 L 2408.56,1369.4 L 2420.04,1377.75 L 2421.26,1378.85 L 2430.76,1389.4 L 2431.28,1390.04 L 2431.73,1390.73 L 2438.83,1403.02 L 2439.5,1404.53 L 2443.89,1418.03 L 2444.1,1418.83 L 2444.23,1419.64 L 2445.71,1433.76 L 2445.76,1434.58 L 2445.71,1435.4 z " style="fill-opacity:1.000000;fill:rgb(205,186,171);stroke:rgb(0,0,0);stroke-width:2"/></g>
<g fill-rule="evenodd"><path d="M 2445.71,1635.4 L 2444.23,1649.51 L 2444.1,1650.33 L 2443.89,1651.12 L 2439.5,1664.63 L 2438.83,1666.13 L 2431.73,1678.43 L 2431.28,1679.12 L 2430.76,1679.76 L 2421.26,1690.31 L 2420.04,1691.41 L 2408.56,1699.75 L 2407.86,1700.2 L 2407.13,1700.58 L 2394.16,1706.35 L 2392.59,1706.86 L 2378.71,1709.81 L 2377.89,1709.94 L 2377.07,1709.98 L 2362.88,1709.98 L 2362.05,1709.94 L 2361.24,1709.81 L 2347.35,1706.86 L 2345.78,1706.35 L 2332.82,1700.58 L 2332.08,1700.2 L 2331.39,1699.75 L 2319.9,1691.41 L 2318.68,1690.31 L 2309.18,1679.76 L 2308.66,1679.12 L 2308.21,1678.43 L 2301.12,1666.13 L 2300.45,1664.63 L 2296.06,1651.12 L 2295.85,1650.33 L 2295.72,1649.51 L 2294.23,1635.4 L 2294.19,1634.57 L 2294.23,1633.75 L 2295.72,1619.63 L 2295.85,1618.82 L 2296.06,1618.02 L 2300.45,1604.52 L 2301.12,1603.02 L 2308.21,1590.72 L 2308.66,1590.03 L 2309.18,1589.39 L 2318.68,1578.84 L 2319.9,1577.74 L 2331.39,1569.39 L 2332.08,1568.94 L 2332.82,1568.57 L 2345.78,1562.8 L 2347.35,1562.29 L 2361.24,1559.34 L 2362.05,1559.21 L 2362.88,1559.16 L 2377.07,1559.16 L 2377.89,1559.21 L 2378.71,1559.34 L 2392.59,1562.29 L 2394.16,1562.8 L 2407.13,1568.57 L 2407.86,1568.94 L 2408.56,1569.39 L 2420.04,1577.74 L 2421.26,1578.84 L 2430.76,1589.39 L 2431.28,1590.03 L 2431.73,1590.72 L 2438.83,1603.02 L 2439.5,1604.52 L 2443.89,1618.02 L 2444.1,1618.82 L 2444.23,1619.63 L 2445.71,1633.75 L 2445.76,1634.57 L 2445.71,1635.4 z " style="fill-opacity:1.000000;fill:rgb(242,251,227);stroke:rgb(0,0,0);stroke-width:2"/></g>
<g fill-rule="evenodd"><path d="M 2445.71,1835.39 L 2444.23,1849.5 L 2444.1,1850.32 L 2443.89,1851.11 L 2439.5,1864.62 L 2438.83,1866.12 L 2431.73,1878.42 L 2431.28,1879.11 L 2430.76,1879.75 L 2421.26,1890.3 L 2420.04,1891.4 L 2408.56,1899.74 L 2407.86,1900.19 L 2407.13,1900.57 L 2394.16,1906.34 L 2392.59,1906.85 L 2378.71,1909.8 L 2377.89,1909.93 L 2377.07,1909.98 L 2362.88,1909.98 L 2362.05,1909.93 L 2361.24,1909.8 L 2347.35,1906.85 L 2345.78,1906.34 L 2332.82,1900.57 L 2332.08,1900.19 L 2331.39,1899.74 L 2319.9,1891.4 L 2318.68,1890.3 L 2309.18,1879.75 L 2308.66,1879.11 L 2308.21,1878.42 L 2301.12,1866.12 L 2300.45,1864.62 L 2296.06,1851.11 L 2295.85,1850.32 L 2295.72,1849.5 L 2294.23,1835.39 L 2294.19,1834.57 L 2294.23,1833.74 L 2295.72,1819.62 L 2295.85,1818.81 L 2296.06,1818.01 L 2300.45,1804.51 L 2301.12,1803.01 L 2308.21,1790.71 L 2308.66,1790.02 L 2309.18,1789.38 L 2318.68,1778.83 L 2319.9,1777.73 L 2331.39,1769.38 L 2332.08,1768.93 L 2332.82,1768.56 L 2345.78,1762.79 L 2347.35,1762.28 L 2361.24,1759.33 L 2362.05,1759.2 L 2362.88,1759.15 L 2377.07,1759.15 L 2377.89,1759.2 L 2378.71,1759.33 L 2392.59,1762.28 L 2394.16,1762.79 L 2407.13,1768.56 L 2407.86,1768.93 L 2408.56,1769.38 L 2420.04,1777.73 L 2421.26,1778.83 L 2430.76,1789.38 L 2431.28,1790.02 L 2431.73,1790.71 L 2438.83,1803.01 L 2439.5,1804.51 L 2443.89,1818.01 L 2444.1,1818.81 L 2444.23,1819.62 L 2445.71,1833.74 L 2445.76,1834.57 L 2445.71,1835.39 z " style="fill-opacity:1.000000;fill:rgb(70,124,194);stroke:rgb(0,0,0);stroke-width:2"/></g>
<g fill-rule="evenodd"><path d="M 2445.71,2035.38 L 2444.23,2049.5 L 2444.1,2050.31 L 2443.89,2051.11 L 2439.5,2064.61 L 2438.83,2066.11 L 2431.73,2078.41 L 2431.28,2079.1 L 2430.76,2079.74 L 2421.26,2090.29 L 2420.04,2091.39 L 2408.56,2099.74 L 2407.86,2100.19 L 2407.13,2100.56 L 2394.16,2106.33 L 2392.59,2106.84 L 2378.71,2109.79 L 2377.89,2109.92 L 2377.07,2109.97 L 2362.88,2109.97 L 2362.05,2109.92 L 2361.24,2109.79 L 2347.35,2106.84 L 2345.78,2106.33 L 2332.82,2100.56 L 2332.08,2100.19 L 2331.39,2099.74 L 2319.9,2091.39 L 2318.68,2090.29 L 2309.18,2079.74 L 2308.66,2079.1 L 2308.21,2078.41 L 2301.12,2066.11 L 2300.45,2064.61 L 2296.06,2051.11 L 2295.85,2050.31 L 2295.72,2049.5 L 2294.23,2035.38 L 2294.19,2034.56 L 2294.23,2033.73 L 2295.72,2019.62 L 2295.85,2018.8 L 2296.06,2018.01 L 2300.45,2004.5 L 2301.12,2003 L 2308.21,1990.7 L 2308.66,1990.01 L 2309.18,1989.37 L 2318.68,1978.82 L 2319.9,1977.72 L 2331.39,1969.38 L 2332.08,1968.93 L 2332.82,1968.55 L 2345.78,1962.78 L 2347.35,1962.27 L 2361.24,1959.32 L 2362.05,1959.19 L 2362.88,1959.15 L 2377.07,1959.15 L 2377.89,1959.19 L 2378.71,1959.32 L 2392.59,1962.27 L 2394.16,1962.78 L 2407.13,1968.55 L 2407.86,1968.93 L 2408.56,1969.38 L 2420.04,1977.72 L 2421.26,1978.82 L 2430.76,1989.37 L 2431.28,1990.01 L 2431.73,1990.7 L 2438.83,2003 L 2439.5,2004.5 L 2443.89,2018.01 L 2444.1,2018.8 L 2444.23,2019.62 L 2445.71,2033.73 L 2445.76,2034.56 L 2445.71,2035.38 z " style="fill-opacity:1.000000;fill:rgb(84,248,27);stroke:rgb(0,0,0);stroke-width:2"/></g>
<g fill-rule="evenodd"><path d="M 2445.71,2235.37 L 2444.23,2249.49 L 2444.1,2250.3 L 2443.89,2251.1 L 2439.5,2264.6 L 2438.83,2266.1 L 2431.73,2278.4 L 2431.28,2279.09 L 2430.76,2279.73 L 2421.26,2290.28 L 2420.04,2291.38 L 2408.56,2299.73 L 2407.86,2300.18 L 2407.13,2300.55 L 2394.16,2306.32 L 2392.59,2306.83 L 2378.71,2309.78 L 2377.89,2309.91 L 2377.07,2309.96 L 2362.88,2309.96 L 2362.05,2309.91 L 2361.24,2309.78 L 2347.35,2306.83 L 2345.78,2306.32 L 2332.82,2300.55 L 2332.08,2300.18 L 2331.39,2299.73 L 2319.9,2291.38 L 2318.68,2290.28 L 2309.18,2279.73 L 2308.66,2279.09 L 2308.21,2278.4 L 2301.12,2266.1 L 2300.45,2264.6 L 2296.06,2251.1 L 2295.85,2250.3 L 2295.72,2249.49 L 2294.23,2235.37 L 2294.19,2234.55 L 2294.23,2233.72 L 2295.72,2219.61 L 2295.85,2218.79 L 2296.06,2218 L 2300.45,2204.49 L 2301.12,2202.99 L 2308.21,2190.69 L 2308.66,2190 L 2309.18,2189.36 L 2318.68,2178.81 L 2319.9,2177.71 L 2331.39,2169.37 L 2332.08,2168.92 L 2332.82,2168.54 L 2345.78,2162.77 L 2347.35,2162.26 L 2361.24,2159.31 L 2362.05,2159.18 L 2362.88,2159.14 L 2377.07,2159.14 L 2377.89,2159.18 L 2378.71,2159.31 L 2392.59,2162.26 L 2394.16,2162.77 L 2407.13,2168.54 L 2407.86,2168.92 L 2408.56,2169.37 L 2420.04,2177.71 L 2421.26,2178.81 L 2430.76,2189.36 L 2431.28,2190 L 2431.73,2190.69 L 2438.83,2202.99 L 2439.5,2204.49 L 2443.89,2218 L 2444.1,2218.79 L 2444.23,2219.61 L 2445.71,2233.72 L 2445.76,2234.55 L 2445.71,2235.37 z " style="fill-opacity:1.000000;fill:rgb(232,231,141);stroke:rgb(0,0,0);stroke-width:2"/></g>
<g fill-rule="evenodd"><path d="M 2445.71,2435.36 L 2444.23,2449.48 L 2444.1,2450.29 L 2443.89,2451.09 L 2439.5,2464.59 L 2438.83,2466.1 L 2431.73,2478.39 L 2431.28,2479.08 L 2430.76,2479.72 L 2421.26,2490.27 L 2420.04,2491.37 L 2408.56,2499.72 L 2407.86,2500.17 L 2407.13,2500.54 L 2394.16,2506.32 L 2392.59,2506.82 L 2378.71,2509.78 L 2377.89,2509.91 L 2377.07,2509.95 L 2362.88,2509.95 L 2362.05,2509.91 L 2361.24,2509.78 L 2347.35,2506.82 L 2345.78,2506.32 L 2332.82,2500.54 L 2332.08,2500.17 L 2331.39,2499.72 L 2319.9,2491.37 L 2318.68,2490.27 L 2309.18,2479.72 L 2308.66,2479.08 L 2308.21,2478.39 L 2301.12,2466.1 L 2300.45,2464.59 L 2296.06,2451.09 L 2295.85,2450.29 L 2295.72,2449.48 L 2294.23,2435.36 L 2294.19,2434.54 L 2294.23,2433.72 L 2295.72,2419.6 L 2295.85,2418.78 L 2296.06,2417.99 L 2300.45,2404.48 L 2301.12,2402.98 L 2308.21,2390.69 L 2308.66,2389.99 L 2309.18,2389.35 L 2318.68,2378.8 L 2319.9,2377.7 L 2331.39,2369.36 L 2332.08,2368.91 L 2332.82,2368.53 L 2345.78,2362.76 L 2347.35,2362.25 L 2361.24,2359.3 L 2362.05,2359.17 L 2362.88,2359.13 L 2377.07,2359.13 L 2377.89,2359.17 L 2378.71,2359.3 L 2392.59,2362.25 L 2394.16,2362.76 L 2407.13,2368.53 L 2407.86,2368.91 L 2408.56,2369.36 L 2420.04,2377.7 L 2421.26,2378.8 L 2430.76,2389.35 L 2431.28,2389.99 L 2431.73,2390.69 L 2438.83,2402.98 L 2439.5,2404.48 L 2443.89,2417.99 L 2444.1,2418.78 L 2444.23,2419.6 L 2445.71,2433.72 L 2445.76,2434.54 L 2445.71,2435.36 z " style="fill-opacity:1.000000;fill:rgb(118,90,46);stroke:rgb(0,0,0);stroke-width:2"/></g>
<g fill-rule="evenodd"><path d="M 2445.71,2635.35 L 2444.23,2649.47 L 2444.1,2650.28 L 2443.89,2651.08 L 2439.5,2664.58 L 2438.83,2666.09 L 2431.73,2678.38 L 2431.28,2679.07 L 2430.76,2679.71 L 2421.26,2690.26 L 2420.04,2691.36 L 2408.56,2699.71 L 2407.86,2700.16 L 2407.13,2700.53 L 2394.16,2706.31 L 2392.59,2706.82 L 2378.71,2709.77 L 2377.89,2709.9 L 2377.07,2709.94 L 2362.88,2709.94 L 2362.05,2709.9 L 2361.24,2709.77 L 2347.35,2706.82 L 2345.78,2706.31 L 2332.82,2700.53 L 2332.08,2700.16 L 2331.39,2699.71 L 2319.9,2691.36 L 2318.68,2690.26 L 2309.18,2679.71 L 2308.66,2679.07 L 2308.21,2678.38 L 2301.12,2666.09 L 2300.45,2664.58 L 2296.06,2651.08 L 2295.85,2650.28 L 2295.72,2649.47 L 2294.23,2635.35 L 2294.19,2634.53 L 2294.23,2633.71 L 2295.72,2619.59 L 2295.85,2618.78 L 2296.06,2617.98 L 2300.45,2604.48 L 2301.12,2602.97 L 2308.21,2590.68 L 2308.66,2589.98 L 2309.18,2589.34 L 2318.68,2578.79 L 2319.9,2577.69 L 2331.39,2569.35 L 2332.08,2568.9 L 2332.82,2568.53 L 2345.78,2562.75 L 2347.35,2562.24 L 2361.24,2559.29 L 2362.05,2559.16 L 2362.88,2559.12 L 2377.07,2559.12 L 2377.89,2559.16 L 2378.71,2559.29 L 2392.59,2562.24 L 2394.16,2562.75 L 2407.13,2568.53 L 2407.86,2568.9 L 2408.56,2569.35 L 2420.04,2577.69 L 2421.26,2578.79 L 2430.76,2589.34 L 2431.28,2589.98 L 2431.73,2590.68 L 2438.83,2602.97 L 2439.5,2604.48 L 2443.89,2617.98 L 2444.1,2618.78 L 2444.23,2619.59 L 2445.71,2633.71 L 2445.76,2634.53 L 2445.71,2635.35 z " style="fill-opacity:1.000000;fill:rgb(99,51,159);stroke:rgb(0,0,0);stroke-width:2"/></g>
<g fill-rule="evenodd"><path d="M 2445.71,2835.34 L 2444.23,2849.46 L 2444.1,2850.27 L 2443.89,2851.07 L 2439.5,2864.57 L 2438.83,2866.08 L 2431.73,2878.37 L 2431.28,2879.07 L 2430.76,2879.71 L 2421.26,2890.26 L 2420.04,2891.36 L 2408.56,2899.7 L 2407.86,2900.15 L 2407.13,2900.52 L 2394.16,2906.3 L 2392.59,2906.81 L 2378.71,2909.76 L 2377.89,2909.89 L 2377.07,2909.93 L 2362.88,2909.93 L 2362.05,2909.89 L 2361.24,2909.76 L 2347.35,2906.81 L 2345.78,2906.3 L 2332.82,2900.52 L 2332.08,2900.15 L 2331.39,2899.7 L 2319.9,2891.36 L 2318.68,2890.26 L 2309.18,2879.71 L 2308.66,2879.07 L 2308.21,2878.37 L 2301.12,2866.08 L 2300.45,2864.57 L 2296.06,2851.07 L 2295.85,2850.27 L 2295.72,2849.46 L 2294.23,2835.34 L 2294.19,2834.52 L 2294.23,2833.7 L 2295.72,2819.58 L 2295.85,2818.77 L 2296.06,2817.97 L 2300.45,2804.47 L 2301.12,2802.96 L 2308.21,2790.67 L 2308.66,2789.98 L 2309.18,2789.34 L 2318.68,2778.79 L 2319.9,2777.69 L 2331.39,2769.34 L 2332.08,2768.89 L 2332.82,2768.52 L 2345.78,2762.74 L 2347.35,2762.23 L 2361.24,2759.28 L 2362.05,2759.15 L 2362.88,2759.11 L 2377.07,2759.11 L 2377.89,2759.15 L 2378.71,2759.28 L 2392.59,2762.23 L 2394.16,2762.74 L 2407.13,2768.52 L 2407.86,2768.89 L 2408.56,2769.34 L 2420.04,2777.69 L 2421.26,2778.79 L 2430.76,2789.34 L 2431.28,2789.98 L 2431.73,2790.67 L 2438.83,2802.96 L 2439.5,2804.47 L 2443.89,2817.97 L 2444.1,2818.77 L 2444.23,2819.58 L 2445.71,2833.7 L 2445.76,2834.52 L 2445.71,2835.34 z " style="fill-opacity:1.000000;fill:rgb(201,154,102);stroke:rgb(0,0,0);stroke-width:2"/></g>
<g fill-rule="evenodd"><path d="M 2445.71,3035.33 L 2444.23,3049.45 L 2444.1,3050.27 L 2443.89,3051.06 L 2439.5,3064.57 L 2438.83,3066.07 L 2431.73,3078.36 L 2431.28,3079.06 L 2430.76,3079.7 L 2421.26,3090.25 L 2420.04,3091.35 L 2408.56,3099.69 L 2407.86,3100.14 L 2407.13,3100.52 L 2394.16,3106.29 L 2392.59,3106.8 L 2378.71,3109.75 L 2377.89,3109.88 L 2377.07,3109.92 L 2362.88,3109.92 L 2362.05,3109.88 L 2361.24,3109.75 L 2347.35,3106.8 L 2345.78,3106.29 L 2332.82,3100.52 L 2332.08,3100.14 L 2331.39,3099.69 L 2319.9,3091.35 L 2318.68,3090.25 L 2309.18,3079.7 L 2308.66,3079.06 L 2308.21,3078.36 L 2301.12,3066.07 L 2300.45,3064.57 L 2296.06,3051.06 L 2295.85,3050.27 L 2295.72,3049.45 L 2294.23,3035.33 L 2294.19,3034.51 L 2294.23,3033.69 L 2295.72,3019.57 L 2295.85,3018.76 L 2296.06,3017.96 L 2300.45,3004.46 L 2301.12,3002.95 L 2308.21,2990.66 L 2308.66,2989.97 L 2309.18,2989.33 L 2318.68,2978.78 L 2319.9,2977.68 L 2331.39,2969.33 L 2332.08,2968.88 L 2332.82,2968.51 L 2345.78,2962.73 L 2347.35,2962.23 L 2361.24,2959.27 L 2362.05,2959.14 L 2362.88,2959.1 L 2377.07,2959.1 L 2377.89,2959.14 L 2378.71,2959.27 L 2392.59,2962.23 L 2394.16,2962.73 L 2407.13,2968.51 L 2407.86,2968.88 L 2408.56,2969.33 L 2420.04,2977.68 L 2421.26,2978.78 L 2430.76,2989.33 L 2431.28,2989.97 L 2431.73,2990.66 L 2438.83,3002.95 L 2439.5,3004.46 L 2443.89,3017.96 L 2444.1,3018.76 L 2444.23,3019.57 L 2445.71,3033.69 L 2445.76,3034.51 L 2445.71,3035.33 z " style="fill-opacity:1.000000;fill:rgb(50,13,183);stroke:rgb(0,0,0);stroke-width:2"/></g>
<g fill-rule="evenodd"><path d="M 2445.71,3235.33 L 2444.23,3249.44 L 2444.1,3250.26 L 2443.89,3251.05 L 2439.5,3264.56 L 2438.83,3266.06 L 2431.73,3278.36 L 2431.28,3279.05 L 2430.76,3279.69 L 2421.26,3290.24 L 2420.04,3291.34 L 2408.56,3299.68 L 2407.86,3300.13 L 2407.13,3300.51 L 2394.16,3306.28 L 2392.59,3306.79 L 2378.71,3309.74 L 2377.89,3309.87 L 2377.07,3309.91 L 2362.88,3309.91 L 2362.05,3309.87 L 2361.24,3309.74 L 2347.35,3306.79 L 2345.78,3306.28 L 2332.82,3300.51 L 2332.08,3300.13 L 2331.39,3299.68 L 2319.9,3291.34 L 2318.68,3290.24 L 2309.18,3279.69 L 2308.66,3279.05 L 2308.21,3278.36 L 2301.12,3266.06 L 2300.45,3264.56 L 2296.06,3251.05 L 2295.85,3250.26 L 2295.72,3249.44 L 2294.23,3235.33 L 2294.19,3234.5 L 2294.23,3233.68 L 2295.72,3219.56 L 2295.85,3218.75 L 2296.06,3217.95 L 2300.45,3204.45 L 2301.12,3202.95 L 2308.21,3190.65 L 2308.66,3189.96 L 2309.18,3189.32 L 2318.68,3178.77 L 2319.9,3177.67 L 2331.39,3169.32 L 2332.08,3168.87 L 2332.82,3168.5 L 2345.78,3162.73 L 2347.35,3162.22 L 2361.24,3159.27 L 2362.05,3159.14 L 2362.88,3159.09 L 2377.07,3159.09 L 2377.89,3159.14 L 2378.71,3159.27 L 2392.59,3162.22 L 2394.16,3162.73 L 2407.13,3168.5 L 2407.86,3168.87 L 2408.56,3169.32 L 2420.04,3177.67 L 2421.26,3178.77 L 2430.76,3189.32 L 2431.28,3189.96 L 2431.73,3190.65 L 2438.83,3202.95 L 2439.5,3204.45 L 2443.89,3217.95 L 2444.1,3218.75 L 2444.23,3219.56 L 2445.71,3233.68 L 2445.76,3234.5 L 2445.71,3235.33 z " style="fill-opacity:1.000000;fill:rgb(49,88,163);stroke:rgb(0,0,0);stroke-width:2"/></g>
<g fill-rule="evenodd"><path d="M 2445.71,3435.32 L 2444.23,3449.43 L 2444.1,3450.25 L 2443.89,3451.04 L 2439.5,3464.55 L 2438.83,3466.05 L 2431.73,3478.35 L 2431.28,3479.04 L 2430.76,3479.68 L 2421.26,3490.23 L 2420.04,3491.33 L 2408.56,3499.67 L 2407.86,3500.12 L 2407.13,3500.5 L 2394.16,3506.27 L 2392.59,3506.78 L 2378.71,3509.73 L 2377.89,3509.86 L 2377.07,3509.91 L 2362.88,3509.91 L 2362.05,3509.86 L 2361.24,3509.73 L 2347.35,3506.78 L 2345.78,3506.27 L 2332.82,3500.5 L 2332.08,3500.12 L 2331.39,3499.67 L 2319.9,3491.33 L 2318.68,3490.23 L 2309.18,3479.68 L 2308.66,3479.04 L 2308.21,3478.35 L 2301.12,3466.05 L 2300.45,3464.55 L 2296.06,3451.04 L 2295.85,3450.25 L 2295.72,3449.43 L 2294.23,3435.32 L 2294.19,3434.5 L 2294.23,3433.67 L 2295.72,3419.55 L 2295.85,3418.74 L 2296.06,3417.94 L 2300.45,3404.44 L 2301.12,3402.94 L 2308.21,3390.64 L 2308.66,3389.95 L 2309.18,3389.31 L 2318.68,3378.76 L 2319.9,3377.66 L 2331.39,3369.31 L 2332.08,3368.86 L 2332.82,3368.49 L 2345.78,3362.72 L 2347.35,3362.21 L 2361.24,3359.26 L 2362.05,3359.13 L 2362.88,3359.08 L 2377.07,3359.08 L 2377.89,3359.13 L 2378.71,3359.26 L 2392.59,3362.21 L 2394.16,3362.72 L 2407.13,3368.49 L 2407.86,3368.86 L 2408.56,3369.31 L 2420.04,3377.66 L 2421.26,3378.76 L 2430.76,3389.31 L 2431.28,3389.95 L 2431.73,3390.64 L 2438.83,3402.94 L 2439.5,3404.44 L 2443.89,3417.94 L 2444.1,3418.74 L 2444.23,3419.55 L 2445.71,3433.67 L 2445.76,3434.5 L 2445.71,3435.32 z " style="fill-opacity:1.000000;fill:rgb(90,37,93);stroke:rgb(0,0,0);stroke-width:2"/></g>
<g fill-rule="evenodd"><path d="M 2445.71,3635.31 L 2444.23,3649.43 L 2444.1,3650.24 L 2443.89,3651.04 L 2439.5,3664.54 L 2438.83,3666.04 L 2431.73,3678.34 L 2431.28,3679.03 L 2430.76,3679.67 L 2421.26,3690.22 L 2420.04,3691.32 L 2408.56,3699.67 L 2407.86,3700.12 L 2407.13,3700.49 L 2394.16,3706.26 L 2392.59,3706.77 L 2378.71,3709.72 L 2377.89,3709.85 L 2377.07,3709.9 L 2362.88,3709.9 L 2362.05,3709.85 L 2361.24,3709.72 L 2347.35,3706.77 L 2345.78,3706.26 L 2332.82,3700.49 L 2332.08,3700.12 L 2331.39,3699.67 L 2319.9,3691.32 L 2318.68,3690.22 L 2309.18,3679.67 L 2308.66,3679.03 L 2308.21,3678.34 L 2301.12,3666.04 L 2300.45,3664.54 L 2296.06,3651.04 L 2295.85,3650.24 L 2295.72,3649.43 L 2294.23,3635.31 L 2294.19,3634.49 L 2294.23,3633.66 L 2295.72,3619.55 L 2295.85,3618.73 L 2296.06,3617.94 L 2300.45,3604.43 L 2301.12,3602.93 L 2308.21,3590.63 L 2308.66,3589.94 L 2309.18,3589.3 L 2318.68,3578.75 L 2319.9,3577.65 L 2331.39,3569.31 L 2332.08,3568.86 L 2332.82,3568.48 L 2345.78,3562.71 L 2347.35,3562.2 L 2361.24,3559.25 L 2362.05,3559.12 L 2362.88,3559.08 L 2377.07,3559.08 L 2377.89,3559.12 L 2378.71,3559.25 L 2392.59,3562.2 L 2394.16,3562.71 L 2407.13,3568.48 L 2407.86,3568.86 L 2408.56,3569.31 L 2420.04,3577.65 L 2421.26,3578.75 L 2430.76,3589.3 L 2431.28,3589.94 L 2431.73,3590.63 L 2438.83,3602.93 L 2439.5,3604.43 L 2443.89,3617.94 L 2444.1,3618.73 L 2444.23,3619.55 L 2445.71,3633.66 L 2445.76,3634.49 L 2445.71,3635.31 z " style="fill-opacity:1.000000;fill:rgb(5,23,88);stroke:rgb(0,0,0);stroke-width:2"/></g>
<g fill-rule="evenodd"><path d="M 3645.66,3635.31 L 3644.18,3649.43 L 3644.05,3650.24 L 3643.83,3651.04 L 3639.45,3664.54 L 3638.78,3666.04 L 3631.68,3678.34 L 3631.23,3679.03 L 3630.71,3679.67 L 3621.21,3690.22 L 3619.99,3691.32 L 3608.5,3699.67 L 3607.81,3700.12 L 3607.08,3700.49 L 3594.11,3706.26 L 3592.54,3706.77 L 3578.65,3709.72 L 3577.84,3709.85 L 3577.02,3709.9 L 3562.82,3709.9 L 3562,3709.85 L 3561.19,3709.72 L 3547.3,3706.77 L 3545.73,3706.26 L 3532.76,3700.49 L 3532.03,3700.12 L 3531.34,3699.67 L 3519.85,3691.32 L 3518.63,3690.22 L 3509.13,3679.67 L 3508.61,3679.03 L 3508.16,3678.34 L 3501.06,3666.04 L 3500.39,3664.54 L 3496.01,3651.04 L 3495.79,3650.24 L 3495.66,3649.43 L 3494.18,3635.31 L 3494.14,3634.49 L 3494.18,3633.66 L 3495.66,3619.55 L 3495.79,3618.73 L 3496.01,3617.94 L 3500.39,3604.43 L 3501.06,3602.93 L 3508.16,3590.63 L 3508.61,3589.94 L 3509.13,3589.3 L 3518.63,3578.75 L 3519.85,3577.65 L 3531.34,3569.31 L 3532.03,3568.86 L 3532.76,3568.48 L 3545.73,3562.71 L 3547.3,3562.2 L 3561.19,3559.25 L 3562,3559.12 L 3562.82,3559.08 L 3577.02,3559.08 L 3577.84,3559.12 L 3578.65,3559.25 L 3592.54,3562.2 L 3594.11,3562.71 L 3607.08,3568.48 L 3607.81,3568.86 L 3608.5,3569.31 L 3619.99,3577.65 L 3621.21,3578.75 L 3630.71,3589.3 L 3631.23,3589.94 L 3631.68,3590.63 L 3638.78,3602.93 L 3639.45,3604.43 L 3643.83,3617.94 L 3644.05,3618.73 L 3644.18,3619.55 L 3645.66,3633.66 L 3645.7,3634.49 L 3645.66,3635.31 z " style="fill-opacity:1.000000;fill:rgb(233,94,212);stroke:rgb(0,0,0);stroke-width:2"/></g>
<g fill-rule="evenodd"><path d="M 3645.66,3435.32 L 3644.18,3449.43 L 3644.05,3450.25 L 3643.83,3451.04 L 3639.45,3464.55 L 3638.78,3466.05 L 3631.68,3478.35 L 3631.23,3479.04 L 3630.71,3479.68 L 3621.21,3490.23 L 3619.99,3491.33 L 3608.5,3499.67 L 3607.81,3500.12 L 3607.08,3500.5 L 3594.11,3506.27 L 3592.54,3506.78 L 3578.65,3509.73 L 3577.84,3509.86 L 3577.02,3509.91 L 3562.82,3509.91 L 3562,3509.86 L 3561.19,3509.73 L 3547.3,3506.78 L 3545.73,3506.27 L 3532.76,3500.5 L 3532.03,3500.12 L 3531.34,3499.67 L 3519.85,3491.33 L 3518.63,3490.23 L 3509.13,3479.68 L 3508.61,3479.04 L 3508.16,3478.35 L 3501.06,3466.05 L 3500.39,3464.55 L 3496.01,3451.04 L 3495.79,3450.25 L 3495.66,3449.43 L 3494.18,3435.32 L 3494.14,3434.5 L 3494.18,3433.67 L 3495.66,3419.55 L 3495.79,3418.74 L 3496.01,3417.94 L 3500.39,3404.44 L 3501.06,3402.94 L 3508.16,3390.64 L 3508.61,3389.95 L 3509.13,3389.31 L 3518.63,3378.76 L 3519.85,3377.66 L 3531.34,3369.31 L 3532.03,3368.86 L 3532.76,3368.49 L 3545.73,3362.72 L 3547.3,3362.21 L 3561.19,3359.26 L 3562,3359.13 L 3562.82,3359.08 L 3577.02,3359.08 L 3577.84,3359.13 L 3578.65,3359.26 L 3592.54,3362.21 L 3594.11,3362.72 L 3607.08,3368.49 L 3607.81,3368.86 L 3608.5,3369.31 L 3619.99,3377.66 L 3621.21,3378.76 L 3630.71,3389.31 L 3631.23,3389.95 L 3631.68,3390.64 L 3638.78,3402.94 L 3639.45,3404.44 L 3643.83,3417.94 L 3644.05,3418.74 L 3644.18,3419.55 L 3645.66,3433.67 L 3645.7,3434.5 L 3645.66,3435.32 z " style="fill-opacity:1.000000;fill:rgb(171,178,205);stroke:rgb(0,0,0);stroke-width:2"/></g>
<g fill-rule="evenodd"><path d="M 3645.66,3235.33 L 3644.18,3249.44 L 3644.05,3250.26 L 3643.83,3251.05 L 3639.45,3264.56 L 3638.78,3266.06 L 3631.68,3278.36 L 3631.23,3279.05 L 3630.71,3279.69 L 3621.21,3290.24 L 3619.99,3291.34 L 3608.5,3299.68 L 3607.81,3300.13 L 3607.08,3300.51 L 3594.11,3306.28 L 3592.54,3306.79 L 3578.65,3309.74 L 3577.84,3309.87 L 3577.02,3309.91 L 3562.82,3309.91 L 3562,3309.87 L 3561.19,3309.74 L 3547.3,3306.79 L 3545.73,3306.28 L 3532.76,3300.51 L 3532.03,3300.13 L 3531.34,3299.68 L 3519.85,3291.34 L 3518.63,3290.24 L 3509.13,3279.69 L 3508.61,3279.05 L 3508.16,3278.36 L 3501.06,3266.06 L 3500.39,3264.56 L 3496.01,3251.05 L 3495.79,3250.26 L 3495.66,3249.44 L 3494.18,3235.33 L 3494.14,3234.5 L 3494.18,3233.68 L 3495.66,3219.56 L 3495.79,3218.75 L 3496.01,3217.95 L 3500.39,3204.45 L 3501.06,3202.95 L 3508.16,3190.65 L 3508.61,3189.96 L 3509.13,3189.32 L 3518.63,3178.77 L 3519.85,3177.67 L 3531.34,3169.32 L 3532.03,3168.87 L 3532.76,3168.5 L 3545.73,3162.73 L 3547.3,3162.22 L 3561.19,3159.27 L 3562,3159.14 L 3562.82,3159.09 L 3577.02,3159.09 L 3577.84,3159.14 L 3578.65,3159.27 L 3592.54,3162.22 L 3594.11,3162.73 L 3607.08,3168.5 L 3607.81,3168.87 L 3608.5,3169.32 L 3619.99,3177.67 L 3621.21,3178.77 L 3630.71,3189.32 L 3631.23,3189.96 L 3631.68,3190.65 L 3638.78,3202.95 L 3639.45,3204.45 L 3643.83,3217.95 L 3644.05,3218.75 L 3644.18,3219.56 L 3645.66,3233.68 L 3645.7,3234.5 L 3645.66,3235.33 z " style="fill-opacity:1.000000;fill:rgb(198,155,180);stroke:rgb(0,0,0);stroke-width:2"/></g>
<g fill-rule="evenodd"><path d="M 3645.66,3035.33 L 3644.18,3049.45 L 3644.05,3050.27 L 3643.83,3051.06 L 3639.45,3064.57 L 3638.78,3066.07 L 3631.68,3078.36 L 3631.23,3079.06 L 3630.71,3079.7 L 3621.21,3090.25 L 3619.99,3091.35 L 3608.5,3099.69 L 3607.81,3100.14 L 3607.08,3100.52 L 3594.11,3106.29 L 3592.54,3106.8 L 3578.65,3109.75 L 3577.84,3109.88 L 3577.02,3109.92 L 3562.82,3109.92 L 3562,3109.88 L 3561.19,3109.75 L 3547.3,3106.8 L 3545.73,3106.29 L 3532.76,3100.52 L 3532.03,3100.14 L 3531.34,3099.69 L 3519.85,3091.35 L 3518.63,3090.25 L 3509.13,3079.7 L 3508.61,3079.06 L 3508.16,3078.36 L 3501.06,3066.07 L 3500.39,3064.57 L 3496.01,3051.06 L 3495.79,3050.27 L 3495.66,3049.45 L 3494.18,3035.33 L 3494.14,3034.51 L 3494.18,3033.69 L 3495.66,3019.57 L 3495.79,3018.76 L 3496.01,3017.96 L 3500.39,3004.46 L 3501.06,3002.95 L 3508.16,2990.66 L 3508.61,2989.97 L 3509.13,2989.33 L 3518.63,2978.78 L 3519.85,2977.68 L 3531.34,2969.33 L 3532.03,2968.88 L 3532.76,2968.51 L 3545.73,2962.73 L 3547.3,2962.23 L 3561.19,2959.27 L 3562,2959.14 L 3562.82,2959.1 L 3577.02,2959.1 L 3577.84,2959.14 L 3578.65,2959.27 L 3592.54,2962.23 L 3594.11,2962.73 L 3607.08,2968.51 L 3607.81,2968.88 L 3608.5,2969.33 L 3619.99,2977.68 L 3621.21,2978.78 L 3630.71,2989.33 L 3631.23,2989.97 L 3631.68,2990.66 L 3638.78,3002.95 L 3639.45,3004.46 L 3643.83,3017.96 L 3644.05,3018.76 L 3644.18,3019.57 L 3645.66,3033.69 L 3645.7,3034.51 L 3645.66,3035.33 z " style="fill-opacity:1.000000;fill:rgb(84,17,14);stroke:rgb(0,0,0);stroke-width:2"/></g>
<g fill-rule="evenodd"><path d="M 3645.66,2835.34 L 3644.18,2849.46 L 3644.05,2850.27 L 3643.83,2851.07 L 3639.45,2864.57 L 3638.78,2866.08 L 3631.68,2878.37 L 3631.23,2879.07 L 3630.71,2879.71 L 3621.21,2890.26 L 3619.99,2891.36 L 3608.5,2899.7 L 3607.81,2900.15 L 3607.08,2900.52 L 3594.11,2906.3 L 3592.54,2906.81 L 3578.65,2909.76 L 3577.84,2909.89 L 3577.02,2909.93 L 3562.82,2909.93 L 3562,2909.89 L 3561.19,2909.76 L 3547.3,2906.81 L 3545.73,2906.3 L 3532.76,2900.52 L 3532.03,2900.15 L 3531.34,2899.7 L 3519.85,2891.36 L 3518.63,2890.26 L 3509.13,2879.71 L 3508.61,2879.07 L 3508.16,2878.37 L 3501.06,2866.08 L 3500.39,2864.57 L 3496.01,2851.07 L 3495.79,2850.27 L 3495.66,2849.46 L 3494.18,2835.34 L 3494.14,2834.52 L 3494.18,2833.7 L 3495.66,2819.58 L 3495.79,2818.77 L 3496.01,2817.97 L 3500.39,2804.47 L 3501.06,2802.96 L 3508.16,2790.67 L 3508.61,2789.98 L 3509.13,2789.34 L 3518.63,2778.79 L 3519.85,2777.69 L 3531.34,2769.34 L 3532.03,2768.89 L 3532.76,2768.52 L 3545.73,2762.74 L 3547.3,2762.23 L 3561.19,2759.28 L 3562,2759.15 L 3562.82,2759.11 L 3577.02,2759.11 L 3577.84,2759.15 L 3578.65,2759.28 L 3592.54,2762.23 L 3594.11,2762.74 L 3607.08,2768.52 L 3607.81,2768.89 L 3608.5,2769.34 L 3619.99,2777.69 L 3621.21,2778.79 L 3630.71,2789.34 L 3631.23,2789.98 L 3631.68,2790.67 L 3638.78,2802.96 L 3639.45,2804.47 L 3643.83,2817.97 L 3644.05,2818.77 L 3644.18,2819.58 L 3645.66,2833.7 L 3645.7,2834.52 L 3645.66,2835.34 z " style="fill-opacity:1.000000;fill:rgb(130,116,65);stroke:rgb(0,0,0);stroke-width:2"/></g>
<g fill-rule="evenodd"><path d="M 3645.66,2635.35 L 3644.18,2649.47 L 3644.05,2650.28 L 3643.83,2651.08 L 3639.45,2664.58 L 3638.78,2666.09 L 3631.68,2678.38 L 3631.23,2679.07 L 3630.71,2679.71 L 3621.21,2690.26 L 3619.99,2691.36 L 3608.5,2699.71 L 3607.81,2700.16 L 3607.08,2700.53 L 3594.11,2706.31 L 3592.54,2706.82 L 3578.65,2709.77 L 3577.84,2709.9 L 3577.02,2709.94 L 3562.82,2709.94 L 3562,2709.9 L 3561.19,2709.77 L 3547.3,2706.82 L 3545.73,2706.31 L 3532.76,2700.53 L 3532.03,2700.16 L 3531.34,2699.71 L 3519.85,2691.36 L 3518.63,2690.26 L 3509.13,2679.71 L 3508.61,2679.07 L 3508.16,2678.38 L 3501.06,2666.09 L 3500.39,2664.58 L 3496.01,2651.08 L 3495.79,2650.28 L 3495.66,2649.47 L 3494.18,2635.35 L 3494.14,2634.53 L 3494.18,2633.71 L 3495.66,2619.59 L 3495.79,2618.78 L 3496.01,2617.98 L 3500.39,2604.48 L 3501.06,2602.97 L 3508.16,2590.68 L 3508.61,2589.98 L 3509.13,2589.34 L 3518.63,2578.79 L 3519.85,2577.69 L 3531.34,2569.35 L 3532.03,2568.9 L 3532.76,2568.53 L 3545.73,2562.75 L 3547.3,2562.24 L 3561.19,2559.29 L 3562,2559.16 L 3562.82,2559.12 L 3577.02,2559.12 L 3577.84,2559.16 L 3578.65,2559.29 L 3592.54,2562.24 L 3594.11,2562.75 L 3607.08,2568.53 L 3607.81,2568.9 L 3608.5,2569.35 L 3619.99,2577.69 L 3621.21,2578.79 L 3630.71,2589.34 L 3631.23,2589.98 L 3631.68,2590.68 L 3638.78,2602.97 L 3639.45,2604.48 L 3643.83,2617.98 L 3644.05,2618.78 L 3644.18,2619.59 L 3645.66,2633.71 L 3645.7,2634.53 L 3645.66,2635.35 z " style="fill-opacity:1.000000;fill:rgb(33,61,220);stroke:rgb(0,0,0);stroke-width:2"/></g>
<g fill-rule="evenodd"><path d="M 3645.66,2435.36 L 3644.18,2449.48 L 3644.05,2450.29 L 3643.83,2451.09 L 3639.45,2464.59 L 3638.78,2466.1 L 3631.68,2478.39 L 3631.23,2479.08 L 3630.71,2479.72 L 3621.21,2490.27 L 3619.99,2491.37 L 3608.5,2499.72 L 3607.81,2500.17 L 3607.08,2500.54 L 3594.11,2506.32 L 3592.54,2506.82 L 3578.65,2509.78 L 3577.84,2509.91 L 3577.02,2509.95 L 3562.82,2509.95 L 3562,2509.91 L 3561.19,2509.78 L 3547.3,2506.82 L 3545.73,2506.32 L 3532.76,2500.54 L 3532.03,2500.17 L 3531.34,2499.72 L 3519.85,2491.37 L 3518.63,2490.27 L 3509.13,2479.72 L 3508.61,2479.08 L 3508.16,2478.39 L 3501.06,2466.1 L 3500.39,2464.59 L 3496.01,2451.09 L 3495.79,2450.29 L 3495.66,2449.48 L 3494.18,2435.36 L 3494.14,2434.54 L 3494.18,2433.72 L 3495.66,2419.6 L 3495.79,2418.78 L 3496.01,2417.99 L 3500.39,2404.48 L 3501.06,2402.98 L 3508.16,2390.69 L 3508.61,2389.99 L 3509.13,2389.35 L 3518.63,2378.8 L 3519.85,2377.7 L 3531.34,2369.36 L 3532.03,2368.91 L 3532.76,2368.53 L 3545.73,2362.76 L 3547.3,2362.25 L 3561.19,2359.3 L 3562,2359.17 L 3562.82,2359.13 L 3577.02,2359.13 L 3577.84,2359.17 L 3578.65,2359.3 L 3592.54,2362.25 L 3594.11,2362.76 L 3607.08,2368.53 L 3607.81,2368.91 L 3608.5,2369.36 L 3619.99,2377.7 L 3621.21,2378.8 L 3630.71,2389.35 L 3631.23,2389.99 L 3631.68,2390.69 L 3638.78,2402.98 L 3639.45,2404.48 L 3643.83,2417.99 L 3644.05,2418.78 L 3644.18,2419.6 L 3645.66,2433.72 L 3645.7,2434.54 L 3645.66,2435.36 z " style="fill-opacity:1.000000;fill:rgb(135,112,233);stroke:rgb(0,0,0);stroke-width:2"/></g>
<g fill-rule="evenodd"><path d="M 3645.66,2235.37 L 3644.18,2249.49 L 3644.05,2250.3 L 3643.83,2251.1 L 3639.45,2264.6 L 3638.78,2266.1 L 3631.68,2278.4 L 3631.23,2279.09 L 3630.71,2279.73 L 3621.21,2290.28 L 3619.99,2291.38 L 3608.5,2299.73 L 3607.81,2300.18 L 3607.08,2300.55 L 3594.11,2306.32 L 3592.54,2306.83 L 3578.65,2309.78 L 3577.84,2309.91 L 3577.02,2309.96 L 3562.82,2309.96 L 3562,2309.91 L 3561.19,2309.78 L 3547.3,2306.83 L 3545.73,2306.32 L 3532.76,2300.55 L 3532.03,2300.18 L 3531.34,2299.73 L 3519.85,2291.38 L 3518.63,2290.28 L 3509.13,2279.73 L 3508.61,2279.09 L 3508.16,2278.4 L 3501.06,2266.1 L 3500.39,2264.6 L 3496.01,2251.1 L 3495.79,2250.3 L 3495.66,2249.49 L 3494.18,2235.37 L 3494.14,2234.55 L 3494.18,2233.72 L 3495.66,2219.61 L 3495.79,2218.79 L 3496.01,2218 L 3500.39,2204.49 L 3501.06,2202.99 L 3508.16,2190.69 L 3508.61,2190 L 3509.13,2189.36 L 3518.63,2178.81 L 3519.85,2177.71 L 3531.34,2169.37 L 3532.03,2168.92 L 3532.76,2168.54 L 3545.73,2162.77 L 3547.3,2162.26 L 3561.19,2159.31 L 3562,2159.18 L 3562.82,2159.14 L 3577.02,2159.14 L 3577.84,2159.18 L 3578.65,2159.31 L 3592.54,2162.26 L 3594.11,2162.77 L 3607.08,2168.54 L 3607.81,2168.92 L 3608.5,2169.37 L 3619.99,2177.71 L 3621.21,2178.81 L 3630.71,2189.36 L 3631.23,2190 L 3631.68,2190.69 L 3638.78,2202.99 L 3639.45,2204.49 L 3643.83,2218 L 3644.05,2218.79 L 3644.18,2219.61 L 3645.66,2233.72 L 3645.7,2234.55 L 3645.66,2235.37 z " style="fill-opacity:1.000000;fill:rgb(62,161,65);stroke:rgb(0,0,0);stroke-width:2"/></g>
<g fill-rule="evenodd"><path d="M 3645.66,2035.38 L 3644.18,2049.5 L 3644.05,2050.31 L 3643.83,2051.11 L 3639.45,2064.61 L 3638.78,2066.11 L 3631.68,2078.41 L 3631.23,2079.1 L 3630.71,2079.74 L 3621.21,2090.29 L 3619.99,2091.39 L 3608.5,2099.74 L 3607.81,2100.19 L 3607.08,2100.56 L 3594.11,2106.33 L 3592.54,2106.84 L 3578.65,2109.79 L 3577.84,2109.92 L 3577.02,2109.97 L 3562.82,2109.97 L 3562,2109.92 L 3561.19,2109.79 L 3547.3,2106.84 L 3545.73,2106.33 L 3532.76,2100.56 L 3532.03,2100.19 L 3531.34,2099.74 L 3519.85,2091.39 L 3518.63,2090.29 L 3509.13,2079.74 L 3508.61,2079.1 L 3508.16,2078.41 L 3501.06,2066.11 L 3500.39,2064.61 L 3496.01,2051.11 L 3495.79,2050.31 L 3495.66,2049.5 L 3494.18,2035.38 L 3494.14,2034.56 L 3494.18,2033.73 L 3495.66,2019.62 L 3495.79,2018.8 L 3496.01,2018.01 L 3500.39,2004.5 L 3501.06,2003 L 3508.16,1990.7 L 3508.61,1990.01 L 3509.13,1989.37 L 3518.63,1978.82 L 3519.85,1977.72 L 3531.34,1969.38 L 3532.03,1968.93 L 3532.76,1968.55 L 3545.73,1962.78 L 3547.3,1962.27 L 3561.19,1959.32 L 3562,1959.19 L 3562.82,1959.15 L 3577.02,1959.15 L 3577.84,1959.19 L 3578.65,1959.32 L 3592.54,1962.27 L 3594.11,1962.78 L 3607.08,1968.55 L 3607.81,1968.93 L 3608.5,1969.38 L 3619.99,1977.72 L 3621.21,1978.82 L 3630.71,1989.37 L 3631.23,1990.01 L 3631.68,1990.7 L 3638.78,2003 L 3639.45,2004.5 L 3643.83,2018.01 L 3644.05,2018.8 L 3644.18,2019.62 L 3645.66,2033.73 L 3645.7,2034.56 L 3645.66,2035.38 z " style="fill-opacity:1.000000;fill:rgb(225,252,103);stroke:rgb(0,0,0);stroke-width:2"/></g>
<g fill-rule="evenodd"><path d="M 3645.66,1835.39 L 3644.18,1849.5 L 3644.05,1850.32 L 3643.83,1851.11 L 3639.45,1864.62 L 3638.78,1866.12 L 3631.68,1878.42 L 3631.23,1879.11 L 3630.71,1879.75 L 3621.21,1890.3 L 3619.99,1891.4 L 3608.5,1899.74 L 3607.81,1900.19 L 3607.08,1900.57 L 3594.11,1906.34 L 3592.54,1906.85 L 3578.65,1909.8 L 3577.84,1909.93 L 3577.02,1909.98 L 3562.82,1909.98 L 3562,1909.93 L 3561.19,1909.8 L 3547.3,1906.85 L 3545.73,1906.34 L 3532.76,1900.57 L 3532.03,1900.19 L 3531.34,1899.74 L 3519.85,1891.4 L 3518.63,1890.3 L 3509.13,1879.75 L 3508.61,1879.11 L 3508.16,1878.42 L 3501.06,1866.12 L 3500.39,1864.62 L 3496.01,1851.11 L 3495.79,1850.32 L 3495.66,1849.5 L 3494.18,1835.39 L 3494.14,1834.57 L 3494.18,1833.74 L 3495.66,1819.62 L 3495.79,1818.81 L 3496.01,1818.01 L 3500.39,1804.51 L 3501.06,1803.01 L 3508.16,1790.71 L 3508.61,1790.02 L 3509.13,1789.38 L 3518.63,1778.83 L 3519.85,1777.73 L 3531.34,1769.38 L 3532.03,1768.93 L 3532.76,1768.56 L 3545.73,1762.79 L 3547.3,1762.28 L 3561.19,1759.33 L 3562,1759.2 L 3562.82,1759.15 L 3577.02,1759.15 L 3577.84,1759.2 L 3578.65,1759.33 L 3592.54,1762.28 L 3594.11,1762.79 L 3607.08,1768.56 L 3607.81,1768.93 L 3608.5,1769.38 L 3619.99,1777.73 L 3621.21,1778.83 L 3630.71,1789.38 L 3631.23,1790.02 L 3631.68,1790.71 L 3638.78,1803.01 L 3639.45,1804.51 L 3643.83,1818.01 L 3644.05,1818.81 L 3644.18,1819.62 L 3645.66,1833.74 L 3645.7,1834.57 L 3645.66,1835.39 z " style="fill-opacity:1.000000;fill:rgb(62,1,126);stroke:rgb(0,0,0);stroke-width:2"/></g>
<g fill-rule="evenodd"><path d="M 3645.66,1635.4 L 3644.18,1649.51 L 3644.05,1650.33 L 3643.83,1651.12 L 3639.45,1664.63 L 3638.78,1666.13 L 3631.68,1678.43 L 3631.23,1679.12 L 3630.71,1679.76 L 3621.21,1690.31 L 3619.99,1691.41 L 3608.5,1699.75 L 3607.81,1700.2 L 3607.08,1700.58 L 3594.11,1706.35 L 3592.54,1706.86 L 3578.65,1709.81 L 3577.84,1709.94 L 3577.02,1709.98 L 3562.82,1709.98 L 3562,1709.94 L 3561.19,1709.81 L 3547.3,1706.86 L 3545.73,1706.35 L 3532.76,1700.58 L 3532.03,1700.2 L 3531.34,1699.75 L 3519.85,1691.41 L 3518.63,1690.31 L 3509.13,1679.76 L 3508.61,1679.12 L 3508.16,1678.43 L 3501.06,1666.13 L 3500.39,1664.63 L 3496.01,1651.12 L 3495.79,1650.33 L 3495.66,1649.51 L 3494.18,1635.4 L 3494.14,1634.57 L 3494.18,1633.75 L 3495.66,1619.63 L 3495.79,1618.82 L 3496.01,1618.02 L 3500.39,1604.52 L 3501.06,1603.02 L 3508.16,1590.72 L 3508.61,1590.03 L 3509.13,1589.39 L 3518.63,1578.84 L 3519.85,1577.74 L 3531.34,1569.39 L 3532.03,1568.94 L 3532.76,1568.57 L 3545.73,1562.8 L 3547.3,1562.29 L 3561.19,1559.34 L 3562,1559.21 L 3562.82,1559.16 L 3577.02,1559.16 L 3577.84,1559.21 L 3578.65,1559.34 L 3592.54,1562.29 L 3594.11,1562.8 L 3607.08,1568.57 L 3607.81,1568.94 L 3608.5,1569.39 L 3619.99,1577.74 L 3621.21,1578.84 L 3630.71,1589.39 L 3631.23,1590.03 L 3631.68,1590.72 L 3638.78,1603.02 L 3639.45,1604.52 L 3643.83,1618.02 L 3644.05,1618.82 L 3644.18,1619.63 L 3645.66,1633.75 L 3645.7,1634.57 L 3645.66,1635.4 z " style="fill-opacity:1.000000;fill:rgb(151,234,220);stroke:rgb(0,0,0);stroke-width:2"/></g>
<g fill-rule="evenodd"><path d="M 3645.66,1435.4 L 3644.18,1449.52 L 3644.05,1450.34 L 3643.83,1451.13 L 3639.45,1464.64 L 3638.78,1466.14 L 3631.68,1478.44 L 3631.23,1479.13 L 3630.71,1479.77 L 3621.21,1490.32 L 3619.99,1491.42 L 3608.5,1499.76 L 3607.81,1500.21 L 3607.08,1500.59 L 3594.11,1506.36 L 3592.54,1506.87 L 3578.65,1509.82 L 3577.84,1509.95 L 3577.02,1509.99 L 3562.82,1509.99 L 3562,1509.95 L 3561.19,1509.82 L 3547.3,1506.87 L 3545.73,1506.36 L 3532.76,1500.59 L 3532.03,1500.21 L 3531.34,1499.76 L 3519.85,1491.42 L 3518.63,1490.32 L 3509.13,1479.77 L 3508.61,1479.13 L 3508.16,1478.44 L 3501.06,1466.14 L 3500.39,1464.64 L 3496.01,1451.13 L 3495.79,1450.34 L 3495.66,1449.52 L 3494.18,1435.4 L 3494.14,1434.58 L 3494.18,1433.76 L 3495.66,1419.64 L 3495.79,1418.83 L 3496.01,1418.03 L 3500.39,1404.53 L 3501.06,1403.02 L 3508.16,1390.73 L 3508.61,1390.04 L 3509.13,1389.4 L 3518.63,1378.85 L 3519.85,1377.75 L 3531.34,1369.4 L 3532.03,1368.95 L 3532.76,1368.58 L 3545.73,1362.8 L 3547.3,1362.3 L 3561.19,1359.34 L 3562,1359.21 L 3562.82,1359.17 L 3577.02,1359.17 L 3577.84,1359.21 L 3578.65,1359.34 L 3592.54,1362.3 L 3594.11,1362.8 L 3607.08,1368.58 L 3607.81,1368.95 L 3608.5,1369.4 L 3619.99,1377.75 L 3621.21,1378.85 L 3630.71,1389.4 L 3631.23,1390.04 L 3631.68,1390.73 L 3638.78,1403.02 L 3639.45,1404.53 L 3643.83,1418.03 L 3644.05,1418.83 L 3644.18,1419.64 L 3645.66,1433.76 L 3645.7,1434.58 L 3645.66,1435.4 z " style="fill-opacity:1.000000;fill:rgb(107,150,143);stroke:rgb(0,0,0);stroke-width:2"/></g>
<g fill-rule="evenodd"><path d="M 3645.66,1235.41 L 3644.18,1249.53 L 3644.05,1250.35 L 3643.83,1251.14 L 3639.45,1264.64 L 3638.78,1266.15 L 3631.68,1278.44 L 3631.23,1279.14 L 3630.71,1279.78 L 3621.21,1290.33 L 3619.99,1291.43 L 3608.5,1299.77 L 3607.81,1300.22 L 3607.08,1300.59 L 3594.11,1306.37 L 3592.54,1306.88 L 3578.65,1309.83 L 3577.84,1309.96 L 3577.02,1310 L 3562.82,1310 L 3562,1309.96 L 3561.19,1309.83 L 3547.3,1306.88 L 3545.73,1306.37 L 3532.76,1300.59 L 3532.03,1300.22 L 3531.34,1299.77 L 3519.85,1291.43 L 3518.63,1290.33 L 3509.13,1279.78 L 3508.61,1279.14 L 3508.16,1278.44 L 3501.06,1266.15 L 3500.39,1264.64 L 3496.01,1251.14 L 3495.79,1250.35 L 3495.66,1249.53 L 3494.18,1235.41 L 3494.14,1234.59 L 3494.18,1233.77 L 3495.66,1219.65 L 3495.79,1218.84 L 3496.01,1218.04 L 3500.39,1204.54 L 3501.06,1203.03 L 3508.16,1190.74 L 3508.61,1190.05 L 3509.13,1189.41 L 3518.63,1178.86 L 3519.85,1177.76 L 3531.34,1169.41 L 3532.03,1168.96 L 3532.76,1168.59 L 3545.73,1162.81 L 3547.3,1162.3 L 3561.19,1159.35 L 3562,1159.22 L 3562.82,1159.18 L 3577.02,1159.18 L 3577.84,1159.22 L 3578.65,1159.35 L 3592.54,1162.3 L 3594.11,1162.81 L 3607.08,1168.59 L 3607.81,1168.96 L 3608.5,1169.41 L 3619.99,1177.76 L 3621.21,1178.86 L 3630.71,1189.41 L 3631.23,1190.05 L 3631.68,1190.74 L 3638.78,1203.03 L 3639.45,1204.54 L 3643.83,1218.04 L 3644.05,1218.84 L 3644.18,1219.65 L 3645.66,1233.77 L 3645.7,1234.59 L 3645.66,1235.41 z " style="fill-opacity:1.000000;fill:rgb(56,92,42);stroke:rgb(0,0,0);stroke-width:2"/></g>
<g fill-rule="evenodd"><path d="M 3645.66,1035.42 L 3644.18,1049.54 L 3644.05,1050.35 L 3643.83,1051.15 L 3639.45,1064.65 L 3638.78,1066.16 L 3631.68,1078.45 L 3631.23,1079.14 L 3630.71,1079.78 L 3621.21,1090.33 L 3619.99,1091.43 L 3608.5,1099.78 L 3607.81,1100.23 L 3607.08,1100.6 L 3594.11,1106.38 L 3592.54,1106.89 L 3578.65,1109.84 L 3577.84,1109.97 L 3577.02,1110.01 L 3562.82,1110.01 L 3562,1109.97 L 3561.19,1109.84 L 3547.3,1106.89 L 3545.73,1106.38 L 3532.76,1100.6 L 3532.03,1100.23 L 3531.34,1099.78 L 3519.85,1091.43 L 3518.63,1090.33 L 3509.13,1079.78 L 3508.61,1079.14 L 3508.16,1078.45 L 3501.06,1066.16 L 3500.39,1064.65 L 3496.01,1051.15 L 3495.79,1050.35 L 3495.66,1049.54 L 3494.18,1035.42 L 3494.14,1034.6 L 3494.18,1033.78 L 3495.66,1019.66 L 3495.79,1018.85 L 3496.01,1018.05 L 3500.39,1004.55 L 3501.06,1003.04 L 3508.16,990.746 L 3508.61,990.055 L 3509.13,989.415 L 3518.63,978.865 L 3519.85,977.765 L 3531.34,969.419 L 3532.03,968.969 L 3532.76,968.595 L 3545.73,962.822 L 3547.3,962.314 L 3561.19,959.362 L 3562,959.232 L 3562.82,959.19 L 3577.02,959.19 L 3577.84,959.232 L 3578.65,959.362 L 3592.54,962.314 L 3594.11,962.822 L 3607.08,968.595 L 3607.81,968.969 L 3608.5,969.419 L 3619.99,977.765 L 3621.21,978.865 L 3630.71,989.415 L 3631.23,990.055 L 3631.68,990.746 L 3638.78,1003.04 L 3639.45,1004.55 L 3643.83,1018.05 L 3644.05,1018.85 L 3644.18,1019.66 L 3645.66,1033.78 L 3645.7,1034.6 L 3645.66,1035.42 z " style="fill-opacity:1.000000;fill:rgb(236,176,59);stroke:rgb(0,0,0);stroke-width:2"/></g>
<g fill-rule="evenodd"><path d="M 3645.66,835.431 L 3644.18,849.549 L 3644.05,850.363 L 3643.83,851.159 L 3639.45,864.662 L 3638.78,866.166 L 3631.68,878.461 L 3631.23,879.153 L 3630.71,879.793 L 3621.21,890.343 L 3619.99,891.443 L 3608.5,899.788 L 3607.81,900.238 L 3607.08,900.612 L 3594.11,906.386 L 3592.54,906.894 L 3578.65,909.846 L 3577.84,909.976 L 3577.02,910.02 L 3562.82,910.02 L 3562,909.976 L 3561.19,909.846 L 3547.3,906.894 L 3545.73,906.386 L 3532.76,900.612 L 3532.03,900.238 L 3531.34,899.788 L 3519.85,891.443 L 3518.63,890.343 L 3509.13,879.793 L 3508.61,879.153 L 3508.16,878.461 L 3501.06,866.166 L 3500.39,864.662 L 3496.01,851.159 L 3495.79,850.363 L 3495.66,849.549 L 3494.18,835.431 L 3494.14,834.609 L 3494.18,833.785 L 3495.66,819.668 L 3495.79,818.854 L 3496.01,818.058 L 3500.39,804.555 L 3501.06,803.051 L 3508.16,790.755 L 3508.61,790.063 L 3509.13,789.423 L 3518.63,778.874 L 3519.85,777.774 L 3531.34,769.428 L 3532.03,768.978 L 3532.76,768.604 L 3545.73,762.831 L 3547.3,762.323 L 3561.19,759.371 L 3562,759.241 L 3562.82,759.199 L 3577.02,759.199 L 3577.84,759.241 L 3578.65,759.371 L 3592.54,762.323 L 3594.11,762.831 L 3607.08,768.604 L 3607.81,768.978 L 3608.5,769.428 L 3619.99,777.774 L 3621.21,778.874 L 3630.71,789.423 L 3631.23,790.063 L 3631.68,790.755 L 3638.78,803.051 L 3639.45,804.555 L 3643.83,818.058 L 3644.05,818.854 L 3644.18,819.668 L 3645.66,833.785 L 3645.7,834.609 L 3645.66,835.431 z " style="fill-opacity:1.000000;fill:rgb(251,50,175);stroke:rgb(0,0,0);stroke-width:2"/></g>
<g fill-rule="evenodd"><path d="M 5072.17,3709.32 L 5070.87,3721.76 L 5070.52,3723.37 L 5066.66,3735.27 L 5065.99,3736.77 L 5059.73,3747.61 L 5059.28,3748.3 L 5058.76,3748.94 L 5050.39,3758.23 L 5049.81,3758.82 L 5049.17,3759.34 L 5039.05,3766.69 L 5038.36,3767.14 L 5037.62,3767.51 L 5026.2,3772.6 L 5024.63,3773.11 L 5012.39,3775.71 L 5011.58,3775.84 L 5010.76,3775.88 L 4998.25,3775.88 L 4997.43,3775.84 L 4996.61,3775.71 L 4984.38,3773.11 L 4982.81,3772.6 L 4971.38,3767.51 L 4970.65,3767.14 L 4969.96,3766.69 L 4959.83,3759.34 L 4959.19,3758.82 L 4958.61,3758.23 L 4950.24,3748.94 L 4949.72,3748.3 L 4949.27,3747.61 L 4943.02,3736.77 L 4942.35,3735.27 L 4938.48,3723.37 L 4938.14,3721.76 L 4936.83,3709.32 L 4936.79,3708.5 L 4936.83,3707.68 L 4938.14,3695.24 L 4938.48,3693.63 L 4942.35,3681.73 L 4943.02,3680.22 L 4949.27,3669.39 L 4949.72,3668.7 L 4950.24,3668.06 L 4958.61,3658.76 L 4959.19,3658.18 L 4959.83,3657.66 L 4969.96,3650.31 L 4970.65,3649.86 L 4971.38,3649.48 L 4982.81,3644.4 L 4984.38,3643.89 L 4996.61,3641.29 L 4997.43,3641.16 L 4998.25,3641.11 L 5010.76,3641.11 L 5011.58,3641.16 L 5012.39,3641.29 L 5024.63,3643.89 L 5026.2,3644.4 L 5037.62,3649.48 L 5038.36,3649.86 L 5039.05,3650.31 L 5049.17,3657.66 L 5049.81,3658.18 L 5050.39,3658.76 L 5058.76,3668.06 L 5059.28,3668.7 L 5059.73,3669.39 L 5065.99,3680.22 L 5066.66,3681.73 L 5070.52,3693.63 L 5070.87,3695.24 L 5072.17,3707.68 L 5072.22,3708.5 L 5072.17,3709.32 z " style="fill-opacity:1.000000;fill:rgb(60,84,236);stroke:rgb(0,0,0);stroke-width:2"/></g>
<g fill-rule="evenodd"><path d="M 4872.18,3709.32 L 4870.87,3721.76 L 4870.53,3723.37 L 4866.67,3735.27 L 4866,3736.77 L 4859.74,3747.61 L 4859.29,3748.3 L 4858.77,3748.94 L 4850.4,3758.23 L 4849.82,3758.82 L 4849.18,3759.34 L 4839.06,3766.69 L 4838.37,3767.14 L 4837.63,3767.51 L 4826.21,3772.6 L 4824.64,3773.11 L 4812.4,3775.71 L 4811.59,3775.84 L 4810.77,3775.88 L 4798.26,3775.88 L 4797.44,3775.84 L 4796.62,3775.71 L 4784.38,3773.11 L 4782.82,3772.6 L 4771.39,3767.51 L 4770.66,3767.14 L 4769.96,3766.69 L 4759.84,3759.34 L 4759.2,3758.82 L 4758.62,3758.23 L 4750.25,3748.94 L 4749.73,3748.3 L 4749.28,3747.61 L 4743.03,3736.77 L 4742.36,3735.27 L 4738.49,3723.37 L 4738.15,3721.76 L 4736.84,3709.32 L 4736.8,3708.5 L 4736.84,3707.68 L 4738.15,3695.24 L 4738.49,3693.63 L 4742.36,3681.73 L 4743.03,3680.22 L 4749.28,3669.39 L 4749.73,3668.7 L 4750.25,3668.06 L 4758.62,3658.76 L 4759.2,3658.18 L 4759.84,3657.66 L 4769.96,3650.31 L 4770.66,3649.86 L 4771.39,3649.48 L 4782.82,3644.4 L 4784.38,3643.89 L 4796.62,3641.29 L 4797.44,3641.16 L 4798.26,3641.11 L 4810.77,3641.11 L 4811.59,3641.16 L 4812.4,3641.29 L 4824.64,3643.89 L 4826.21,3644.4 L 4837.63,3649.48 L 4838.37,3649.86 L 4839.06,3650.31 L 4849.18,3657.66 L 4849.82,3658.18 L 4850.4,3658.76 L 4858.77,3668.06 L 4859.29,3668.7 L 4859.74,3669.39 L 4866,3680.22 L 4866.67,3681.73 L 4870.53,3693.63 L 4870.87,3695.24 L 4872.18,3707.68 L 4872.23,3708.5 L 4872.18,3709.32 z " style="fill-opacity:1.000000;fill:rgb(24,219,92);stroke:rgb(0,0,0);stroke-width:2"/></g>
<g fill-rule="evenodd"><path d="M 5136.78,3768.34 L 5136.78,3648.66 L 5136.93,3647.12 L 5137.38,3645.65 L 5138.11,3644.28 L 5139.09,3643.09 L 5140.28,3642.11 L 5141.64,3641.38 L 5143.12,3640.94 L 5144.66,3640.79 L 5264.33,3640.79 L 5265.87,3640.94 L 5267.35,3641.38 L 5268.71,3642.11 L 5269.9,3643.09 L 5270.88,3644.28 L 5271.61,3645.65 L 5272.06,3647.12 L 5272.21,3648.66 L 5272.21,3768.34 L 5272.06,3769.87 L 5271.61,3771.35 L 5270.88,3772.71 L 5269.9,3773.9 L 5268.71,3774.88 L 5267.35,3775.61 L 5265.87,3776.06 L 5264.33,3776.21 L 5144.66,3776.21 L 5143.12,3776.06 L 5141.64,3775.61 L 5140.28,3774.88 L 5139.09,3773.9 L 5138.11,3772.71 L 5137.38,3771.35 L 5136.93,3769.87 L 5136.78,3768.34 z " style="fill-opacity:1.000000;fill:rgb(2,26,254);stroke:rgb(0,0,0);stroke-width:2"/></g>
<g fill-rule="evenodd"><path d="M 1507.81,783.43 L 1507.81,649.579 L 1507.96,648.042 L 1508.41,646.566 L 1509.13,645.204 L 1510.11,644.012 L 1511.31,643.032 L 1512.67,642.304 L 1514.14,641.856 L 1515.68,641.706 L 1649.53,641.706 L 1651.07,641.856 L 1652.54,642.304 L 1653.91,643.032 L 1655.1,644.012 L 1656.08,645.204 L 1656.81,646.566 L 1657.25,648.042 L 1657.41,649.579 L 1657.41,783.43 L 1657.25,784.966 L 1656.81,786.441 L 1656.08,787.803 L 1655.1,788.995 L 1653.91,789.975 L 1652.54,790.703 L 1651.07,791.151 L 1649.53,791.303 L 1515.68,791.303 L 1514.14,791.151 L 1512.67,790.703 L 1511.31,789.975 L 1510.11,788.995 L 1509.13,787.803 L 1508.41,786.441 L 1507.96,784.966 L 1507.81,783.43 z " style="fill-opacity:1.000000;fill:rgb(67,251,250);stroke:rgb(0,0,0);stroke-width:2"/></g>
<g fill-rule="evenodd"><path d="M 1781.8,791.261 L 1768.33,789.889 L 1766.77,789.569 L 1753.85,785.518 L 1752.39,784.89 L 1740.55,778.318 L 1739.24,777.408 L 1728.96,768.586 L 1727.86,767.432 L 1719.57,756.725 L 1718.73,755.371 L 1712.77,743.213 L 1712.22,741.721 L 1708.82,728.612 L 1708.58,727.036 L 1707.9,713.515 L 1707.98,711.923 L 1710.03,698.537 L 1710.42,696.997 L 1715.13,684.298 L 1715.83,682.866 L 1722.99,671.375 L 1723.97,670.115 L 1733.3,660.299 L 1734.51,659.261 L 1745.62,651.525 L 1747.01,650.751 L 1759.46,645.412 L 1760.98,644.936 L 1774.24,642.21 L 1775.43,642.06 L 1782.2,641.716 L 1783.39,641.746 L 1796.87,643.118 L 1798.43,643.438 L 1811.34,647.49 L 1812.81,648.118 L 1824.65,654.689 L 1825.96,655.599 L 1836.23,664.421 L 1837.33,665.575 L 1845.62,676.282 L 1846.46,677.636 L 1852.42,689.794 L 1852.98,691.286 L 1856.37,704.395 L 1856.61,705.971 L 1857.3,719.492 L 1857.22,721.084 L 1855.17,734.47 L 1854.77,736.01 L 1850.07,748.709 L 1849.36,750.141 L 1842.2,761.633 L 1841.23,762.893 L 1831.9,772.708 L 1830.69,773.746 L 1819.57,781.482 L 1818.18,782.256 L 1805.73,787.595 L 1804.21,788.071 L 1790.95,790.797 L 1789.77,790.947 L 1783,791.291 L 1781.8,791.261 z " style="fill-opacity:1.000000;fill:rgb(170,58,251);stroke:rgb(0,0,0);stroke-width:2"/></g>
<g fill-rule="evenodd"><path d="M 1981.79,791.261 L 1968.32,789.889 L 1966.76,789.569 L 1953.84,785.518 L 1952.38,784.89 L 1940.54,778.318 L 1939.23,777.408 L 1928.95,768.586 L 1927.86,767.432 L 1919.57,756.725 L 1918.72,755.371 L 1912.76,743.213 L 1912.21,741.721 L 1908.81,728.612 L 1908.57,727.036 L 1907.89,713.515 L 1907.97,711.923 L 1910.02,698.537 L 1910.42,696.997 L 1915.12,684.298 L 1915.82,682.866 L 1922.99,671.375 L 1923.96,670.115 L 1933.29,660.299 L 1934.5,659.261 L 1945.61,651.525 L 1947,650.751 L 1959.45,645.412 L 1960.97,644.936 L 1974.23,642.21 L 1975.42,642.06 L 1982.19,641.716 L 1983.38,641.746 L 1996.86,643.118 L 1998.42,643.438 L 2011.34,647.49 L 2012.8,648.118 L 2024.64,654.689 L 2025.95,655.599 L 2036.22,664.421 L 2037.32,665.575 L 2045.61,676.282 L 2046.45,677.636 L 2052.41,689.794 L 2052.97,691.286 L 2056.36,704.395 L 2056.6,705.971 L 2057.29,719.492 L 2057.21,721.084 L 2055.16,734.47 L 2054.76,736.01 L 2050.06,748.709 L 2049.35,750.141 L 2042.19,761.633 L 2041.22,762.893 L 2031.89,772.708 L 2030.68,773.746 L 2019.57,781.482 L 2018.17,782.256 L 2005.73,787.595 L 2004.21,788.071 L 1990.94,790.797 L 1989.76,790.947 L 1982.99,791.291 L 1981.79,791.261 z " style="fill-opacity:1.000000;fill:rgb(41,209,230);stroke:rgb(0,0,0);stroke-width:2"/></g>
<g fill-rule="evenodd"><path d="M 1507.81,1098.38 L 1507.81,964.528 L 1507.96,962.99 L 1508.41,961.514 L 1509.13,960.152 L 1510.11,958.96 L 1511.31,957.98 L 1512.67,957.252 L 1514.14,956.804 L 1515.68,956.654 L 1649.53,956.654 L 1651.07,956.804 L 1652.54,957.252 L 1653.91,957.98 L 1655.1,958.96 L 1656.08,960.152 L 1656.81,961.514 L 1657.25,962.99 L 1657.41,964.528 L 1657.41,1098.38 L 1657.25,1099.91 L 1656.81,1101.39 L 1656.08,1102.75 L 1655.1,1103.94 L 1653.91,1104.92 L 1652.54,1105.65 L 1651.07,1106.1 L 1649.53,1106.25 L 1515.68,1106.25 L 1514.14,1106.1 L 1512.67,1105.65 L 1511.31,1104.92 L 1510.11,1103.94 L 1509.13,1102.75 L 1508.41,1101.39 L 1507.96,1099.91 L 1507.81,1098.38 z " style="fill-opacity:1.000000;fill:rgb(5,60,124);stroke:rgb(0,0,0);stroke-width:2"/></g>
<g fill-rule="evenodd"><path d="M 1781.8,1106.21 L 1768.33,1104.84 L 1766.77,1104.52 L 1753.85,1100.47 L 1752.39,1099.84 L 1740.55,1093.27 L 1739.24,1092.36 L 1728.96,1083.53 L 1727.86,1082.38 L 1719.57,1071.67 L 1718.73,1070.32 L 1712.77,1058.16 L 1712.22,1056.67 L 1708.82,1043.56 L 1708.58,1041.98 L 1707.9,1028.46 L 1707.98,1026.87 L 1710.03,1013.49 L 1710.42,1011.95 L 1715.13,999.246 L 1715.83,997.814 L 1722.99,986.323 L 1723.97,985.063 L 1733.3,975.247 L 1734.51,974.209 L 1745.62,966.474 L 1747.01,965.7 L 1759.46,960.36 L 1760.98,959.884 L 1774.24,957.158 L 1775.43,957.008 L 1782.2,956.664 L 1783.39,956.694 L 1796.87,958.066 L 1798.43,958.386 L 1811.34,962.438 L 1812.81,963.066 L 1824.65,969.637 L 1825.96,970.547 L 1836.23,979.369 L 1837.33,980.523 L 1845.62,991.23 L 1846.46,992.584 L 1852.42,1004.74 L 1852.98,1006.23 L 1856.37,1019.34 L 1856.61,1020.92 L 1857.3,1034.44 L 1857.22,1036.03 L 1855.17,1049.42 L 1854.77,1050.96 L 1850.07,1063.66 L 1849.36,1065.09 L 1842.2,1076.58 L 1841.23,1077.84 L 1831.9,1087.66 L 1830.69,1088.69 L 1819.57,1096.43 L 1818.18,1097.2 L 1805.73,1102.54 L 1804.21,1103.02 L 1790.95,1105.75 L 1789.77,1105.9 L 1783,1106.24 L 1781.8,1106.21 z " style="fill-opacity:1.000000;fill:rgb(148,117,216);stroke:rgb(0,0,0);stroke-width:2"/></g>
<g fill-rule="evenodd"><path d="M 1981.79,1106.21 L 1968.32,1104.84 L 1966.76,1104.52 L 1953.84,1100.47 L 1952.38,1099.84 L 1940.54,1093.27 L 1939.23,1092.36 L 1928.95,1083.53 L 1927.86,1082.38 L 1919.57,1071.67 L 1918.72,1070.32 L 1912.76,1058.16 L 1912.21,1056.67 L 1908.81,1043.56 L 1908.57,1041.98 L 1907.89,1028.46 L 1907.97,1026.87 L 1910.02,1013.49 L 1910.42,1011.95 L 1915.12,999.246 L 1915.82,997.814 L 1922.99,986.323 L 1923.96,985.063 L 1933.29,975.247 L 1934.5,974.209 L 1945.61,966.474 L 1947,965.7 L 1959.45,960.36 L 1960.97,959.884 L 1974.23,957.158 L 1975.42,957.008 L 1982.19,956.664 L 1983.38,956.694 L 1996.86,958.066 L 1998.42,958.386 L 2011.34,962.438 L 2012.8,963.066 L 2024.64,969.637 L 2025.95,970.547 L 2036.22,979.369 L 2037.32,980.523 L 2045.61,991.23 L 2046.45,992.584 L 2052.41,1004.74 L 2052.97,1006.23 L 2056.36,1019.34 L 2056.6,1020.92 L 2057.29,1034.44 L 2057.21,1036.03 L 2055.16,1049.42 L 2054.76,1050.96 L 2050.06,1063.66 L 2049.35,1065.09 L 2042.19,1076.58 L 2041.22,1077.84 L 2031.89,1087.66 L 2030.68,1088.69 L 2019.57,1096.43 L 2018.17,1097.2 L 2005.73,1102.54 L 2004.21,1103.02 L 1990.94,1105.75 L 1989.76,1105.9 L 1982.99,1106.24 L 1981.79,1106.21 z " style="fill-opacity:1.000000;fill:rgb(190,97,137);stroke:rgb(0,0,0);stroke-width:2"/></g>
<g fill-rule="evenodd"><path d="M 5523.38,5507.63 L 5523.38,5373.78 L 5523.53,5372.24 L 5523.98,5370.77 L 5524.71,5369.41 L 5525.69,5368.21 L 5526.88,5367.23 L 5528.24,5366.51 L 5529.72,5366.06 L 5531.25,5365.91 L 5665.1,5365.91 L 5666.64,5366.06 L 5668.12,5366.51 L 5669.48,5367.23 L 5670.67,5368.21 L 5671.65,5369.41 L 5672.38,5370.77 L 5672.82,5372.24 L 5672.98,5373.78 L 5672.98,5507.63 L 5672.82,5509.17 L 5672.38,5510.64 L 5671.65,5512.01 L 5670.67,5513.2 L 5669.48,5514.18 L 5668.12,5514.91 L 5666.64,5515.35 L 5665.1,5515.51 L 5531.25,5515.51 L 5529.72,5515.35 L 5528.24,5514.91 L 5526.88,5514.18 L 5525.69,5513.2 L 5524.71,5512.01 L 5523.98,5510.64 L 5523.53,5509.17 L 5523.38,5507.63 z " style="fill-opacity:1.000000;fill:rgb(249,92,187);stroke:rgb(0,0,0);stroke-width:2"/></g>
<g fill-rule="evenodd"><path d="M 5397.39,5515.46 L 5383.92,5514.09 L 5382.36,5513.77 L 5369.44,5509.72 L 5367.97,5509.09 L 5356.13,5502.52 L 5354.83,5501.61 L 5344.55,5492.79 L 5343.45,5491.63 L 5335.16,5480.93 L 5334.32,5479.57 L 5328.36,5467.42 L 5327.81,5465.92 L 5324.41,5452.81 L 5324.17,5451.24 L 5323.48,5437.72 L 5323.56,5436.13 L 5325.62,5422.74 L 5326.01,5421.2 L 5330.72,5408.5 L 5331.42,5407.07 L 5338.58,5395.58 L 5339.56,5394.32 L 5348.89,5384.5 L 5350.1,5383.46 L 5361.21,5375.73 L 5362.6,5374.95 L 5375.05,5369.61 L 5376.57,5369.14 L 5389.83,5366.41 L 5391.02,5366.26 L 5397.79,5365.92 L 5398.98,5365.95 L 5412.45,5367.32 L 5414.01,5367.64 L 5426.93,5371.69 L 5428.4,5372.32 L 5440.24,5378.89 L 5441.55,5379.8 L 5451.82,5388.62 L 5452.92,5389.78 L 5461.21,5400.48 L 5462.05,5401.84 L 5468.01,5414 L 5468.57,5415.49 L 5471.96,5428.6 L 5472.2,5430.17 L 5472.89,5443.69 L 5472.81,5445.29 L 5470.76,5458.67 L 5470.36,5460.21 L 5465.66,5472.91 L 5464.95,5474.34 L 5457.79,5485.84 L 5456.81,5487.1 L 5447.48,5496.91 L 5446.28,5497.95 L 5435.16,5505.68 L 5433.77,5506.46 L 5421.32,5511.8 L 5419.8,5512.27 L 5406.54,5515 L 5405.35,5515.15 L 5398.58,5515.49 L 5397.39,5515.46 z " style="fill-opacity:1.000000;fill:rgb(168,153,15);stroke:rgb(0,0,0);stroke-width:2"/></g>
<g fill-rule="evenodd"><path d="M 5197.4,5515.46 L 5183.93,5514.09 L 5182.37,5513.77 L 5169.45,5509.72 L 5167.98,5509.09 L 5156.14,5502.52 L 5154.84,5501.61 L 5144.56,5492.79 L 5143.46,5491.63 L 5135.17,5480.93 L 5134.33,5479.57 L 5128.37,5467.42 L 5127.81,5465.92 L 5124.42,5452.81 L 5124.18,5451.24 L 5123.49,5437.72 L 5123.57,5436.13 L 5125.62,5422.74 L 5126.02,5421.2 L 5130.72,5408.5 L 5131.43,5407.07 L 5138.59,5395.58 L 5139.57,5394.32 L 5148.9,5384.5 L 5150.1,5383.46 L 5161.22,5375.73 L 5162.61,5374.95 L 5175.06,5369.61 L 5176.58,5369.14 L 5189.84,5366.41 L 5191.03,5366.26 L 5197.8,5365.92 L 5198.99,5365.95 L 5212.46,5367.32 L 5214.02,5367.64 L 5226.94,5371.69 L 5228.41,5372.32 L 5240.25,5378.89 L 5241.55,5379.8 L 5251.83,5388.62 L 5252.93,5389.78 L 5261.22,5400.48 L 5262.06,5401.84 L 5268.02,5414 L 5268.57,5415.49 L 5271.97,5428.6 L 5272.21,5430.17 L 5272.9,5443.69 L 5272.82,5445.29 L 5270.76,5458.67 L 5270.37,5460.21 L 5265.66,5472.91 L 5264.96,5474.34 L 5257.8,5485.84 L 5256.82,5487.1 L 5247.49,5496.91 L 5246.29,5497.95 L 5235.17,5505.68 L 5233.78,5506.46 L 5221.33,5511.8 L 5219.81,5512.27 L 5206.55,5515 L 5205.36,5515.15 L 5198.59,5515.49 L 5197.4,5515.46 z " style="fill-opacity:1.000000;fill:rgb(149,177,235);stroke:rgb(0,0,0);stroke-width:2"/></g>
<g fill-rule="evenodd"><path d="M 4381.7,5507.63 L 4381.7,5373.78 L 4381.85,5372.24 L 4382.3,5370.77 L 4383.02,5369.41 L 4384,5368.21 L 4385.2,5367.23 L 4386.56,5366.51 L 4388.03,5366.06 L 4389.57,5365.91 L 4523.42,5365.91 L 4524.96,5366.06 L 4526.43,5366.51 L 4527.8,5367.23 L 4528.99,5368.21 L 4529.97,5369.41 L 4530.7,5370.77 L 4531.14,5372.24 L 4531.3,5373.78 L 4531.3,5507.63 L 4531.14,5509.17 L 4530.7,5510.64 L 4529.97,5512.01 L 4528.99,5513.2 L 4527.8,5514.18 L 4526.43,5514.91 L 4524.96,5515.35 L 4523.42,5515.51 L 4389.57,5515.51 L 4388.03,5515.35 L 4386.56,5514.91 L 4385.2,5514.18 L 4384,5513.2 L 4383.02,5512.01 L 4382.3,5510.64 L 4381.85,5509.17 L 4381.7,5507.63 z " style="fill-opacity:1.000000;fill:rgb(241,179,5);stroke:rgb(0,0,0);stroke-width:2"/></g>
<g fill-rule="evenodd"><path d="M 4655.69,5515.46 L 4642.22,5514.09 L 4640.66,5513.77 L 4627.74,5509.72 L 4626.27,5509.09 L 4614.44,5502.52 L 4613.13,5501.61 L 4602.85,5492.79 L 4601.75,5491.63 L 4593.46,5480.93 L 4592.62,5479.57 L 4586.66,5467.42 L 4586.11,5465.92 L 4582.71,5452.81 L 4582.47,5451.24 L 4581.78,5437.72 L 4581.86,5436.13 L 4583.92,5422.74 L 4584.31,5421.2 L 4589.02,5408.5 L 4589.72,5407.07 L 4596.88,5395.58 L 4597.86,5394.32 L 4607.19,5384.5 L 4608.4,5383.46 L 4619.51,5375.73 L 4620.9,5374.95 L 4633.35,5369.61 L 4634.87,5369.14 L 4648.13,5366.41 L 4649.32,5366.26 L 4656.09,5365.92 L 4657.28,5365.95 L 4670.75,5367.32 L 4672.31,5367.64 L 4685.23,5371.69 L 4686.7,5372.32 L 4698.54,5378.89 L 4699.85,5379.8 L 4710.12,5388.62 L 4711.22,5389.78 L 4719.51,5400.48 L 4720.35,5401.84 L 4726.31,5414 L 4726.87,5415.49 L 4730.26,5428.6 L 4730.5,5430.17 L 4731.19,5443.69 L 4731.11,5445.29 L 4729.06,5458.67 L 4728.66,5460.21 L 4723.96,5472.91 L 4723.25,5474.34 L 4716.09,5485.84 L 4715.11,5487.1 L 4705.79,5496.91 L 4704.58,5497.95 L 4693.46,5505.68 L 4692.07,5506.46 L 4679.62,5511.8 L 4678.1,5512.27 L 4664.84,5515 L 4663.66,5515.15 L 4656.89,5515.49 L 4655.69,5515.46 z " style="fill-opacity:1.000000;fill:rgb(239,247,0);stroke:rgb(0,0,0);stroke-width:2"/></g>
<g fill-rule="evenodd"><path d="M 4855.68,5515.46 L 4842.21,5514.09 L 4840.65,5513.77 L 4827.73,5509.72 L 4826.27,5509.09 L 4814.43,5502.52 L 4813.12,5501.61 L 4802.84,5492.79 L 4801.75,5491.63 L 4793.46,5480.93 L 4792.61,5479.57 L 4786.65,5467.42 L 4786.1,5465.92 L 4782.7,5452.81 L 4782.46,5451.24 L 4781.78,5437.72 L 4781.86,5436.13 L 4783.91,5422.74 L 4784.31,5421.2 L 4789.01,5408.5 L 4789.71,5407.07 L 4796.88,5395.58 L 4797.85,5394.32 L 4807.18,5384.5 L 4808.39,5383.46 L 4819.5,5375.73 L 4820.89,5374.95 L 4833.34,5369.61 L 4834.86,5369.14 L 4848.12,5366.41 L 4849.31,5366.26 L 4856.08,5365.92 L 4857.27,5365.95 L 4870.75,5367.32 L 4872.31,5367.64 L 4885.23,5371.69 L 4886.69,5372.32 L 4898.53,5378.89 L 4899.84,5379.8 L 4910.11,5388.62 L 4911.21,5389.78 L 4919.5,5400.48 L 4920.34,5401.84 L 4926.3,5414 L 4926.86,5415.49 L 4930.25,5428.6 L 4930.49,5430.17 L 4931.18,5443.69 L 4931.1,5445.29 L 4929.05,5458.67 L 4928.65,5460.21 L 4923.95,5472.91 L 4923.24,5474.34 L 4916.08,5485.84 L 4915.11,5487.1 L 4905.78,5496.91 L 4904.57,5497.95 L 4893.46,5505.68 L 4892.06,5506.46 L 4879.62,5511.8 L 4878.1,5512.27 L 4864.83,5515 L 4863.65,5515.15 L 4856.88,5515.49 L 4855.68,5515.46 z " style="fill-opacity:1.000000;fill:rgb(233,161,58);stroke:rgb(0,0,0);stroke-width:2"/></g>
<g fill-rule="evenodd"><path d="M 1232.23,2988.06 L 1232.23,2854.21 L 1232.38,2852.67 L 1232.83,2851.19 L 1233.56,2849.83 L 1234.54,2848.64 L 1235.73,2847.66 L 1237.09,2846.93 L 1238.57,2846.48 L 1240.1,2846.33 L 1373.95,2846.33 L 1375.49,2846.48 L 1376.97,2846.93 L 1378.33,2847.66 L 1379.52,2848.64 L 1380.5,2849.83 L 1381.23,2851.19 L 1381.68,2852.67 L 1381.83,2854.21 L 1381.83,2988.06 L 1381.68,2989.59 L 1381.23,2991.07 L 1380.5,2992.43 L 1379.52,2993.62 L 1378.33,2994.6 L 1376.97,2995.33 L 1375.49,2995.78 L 1373.95,2995.93 L 1240.1,2995.93 L 1238.57,2995.78 L 1237.09,2995.33 L 1235.73,2994.6 L 1234.54,2993.62 L 1233.56,2992.43 L 1232.83,2991.07 L 1232.38,2989.59 L 1232.23,2988.06 z " style="fill-opacity:1.000000;fill:rgb(229,202,11);stroke:rgb(0,0,0);stroke-width:2"/></g>
<g fill-rule="evenodd"><path d="M 1306.23,2795.9 L 1292.76,2794.53 L 1291.2,2794.21 L 1278.28,2790.15 L 1276.82,2789.53 L 1264.98,2782.95 L 1263.67,2782.04 L 1253.39,2773.22 L 1252.3,2772.07 L 1244.01,2761.36 L 1243.16,2760.01 L 1237.2,2747.85 L 1236.65,2746.36 L 1233.25,2733.25 L 1233.01,2731.67 L 1232.33,2718.15 L 1232.41,2716.56 L 1234.46,2703.17 L 1234.86,2701.63 L 1239.56,2688.93 L 1240.26,2687.5 L 1247.43,2676.01 L 1248.4,2674.75 L 1257.73,2664.93 L 1258.94,2663.9 L 1270.05,2656.16 L 1271.44,2655.39 L 1283.89,2650.05 L 1285.41,2649.57 L 1298.67,2646.85 L 1299.86,2646.7 L 1306.63,2646.35 L 1307.82,2646.38 L 1321.3,2647.75 L 1322.86,2648.07 L 1335.78,2652.13 L 1337.24,2652.75 L 1349.08,2659.33 L 1350.39,2660.24 L 1360.66,2669.06 L 1361.76,2670.21 L 1370.05,2680.92 L 1370.89,2682.27 L 1376.85,2694.43 L 1377.41,2695.92 L 1380.8,2709.03 L 1381.04,2710.61 L 1381.73,2724.13 L 1381.65,2725.72 L 1379.6,2739.11 L 1379.2,2740.65 L 1374.5,2753.35 L 1373.79,2754.78 L 1366.63,2766.27 L 1365.66,2767.53 L 1356.33,2777.34 L 1355.12,2778.38 L 1344,2786.12 L 1342.61,2786.89 L 1330.17,2792.23 L 1328.65,2792.71 L 1315.38,2795.43 L 1314.2,2795.58 L 1307.43,2795.93 L 1306.23,2795.9 z " style="fill-opacity:1.000000;fill:rgb(203,208,72);stroke:rgb(0,0,0);stroke-width:2"/></g>
<g fill-rule="evenodd"><path d="M 1306.23,2595.91 L 1292.76,2594.53 L 1291.2,2594.21 L 1278.28,2590.16 L 1276.82,2589.53 L 1264.98,2582.96 L 1263.67,2582.05 L 1253.39,2573.23 L 1252.3,2572.08 L 1244.01,2561.37 L 1243.16,2560.02 L 1237.2,2547.86 L 1236.65,2546.37 L 1233.25,2533.26 L 1233.01,2531.68 L 1232.33,2518.16 L 1232.41,2516.57 L 1234.46,2503.18 L 1234.86,2501.64 L 1239.56,2488.94 L 1240.26,2487.51 L 1247.43,2476.02 L 1248.4,2474.76 L 1257.73,2464.94 L 1258.94,2463.91 L 1270.05,2456.17 L 1271.44,2455.4 L 1283.89,2450.06 L 1285.41,2449.58 L 1298.67,2446.85 L 1299.86,2446.7 L 1306.63,2446.36 L 1307.82,2446.39 L 1321.3,2447.76 L 1322.86,2448.08 L 1335.78,2452.13 L 1337.24,2452.76 L 1349.08,2459.33 L 1350.39,2460.24 L 1360.66,2469.07 L 1361.76,2470.22 L 1370.05,2480.93 L 1370.89,2482.28 L 1376.85,2494.44 L 1377.41,2495.93 L 1380.8,2509.04 L 1381.04,2510.62 L 1381.73,2524.14 L 1381.65,2525.73 L 1379.6,2539.11 L 1379.2,2540.65 L 1374.5,2553.35 L 1373.79,2554.79 L 1366.63,2566.28 L 1365.66,2567.54 L 1356.33,2577.35 L 1355.12,2578.39 L 1344,2586.13 L 1342.61,2586.9 L 1330.17,2592.24 L 1328.65,2592.72 L 1315.38,2595.44 L 1314.2,2595.59 L 1307.43,2595.94 L 1306.23,2595.91 z " style="fill-opacity:1.000000;fill:rgb(71,100,189);stroke:rgb(0,0,0);stroke-width:2"/></g>
<g fill-rule="evenodd"><path d="M 1306.23,2395.91 L 1292.76,2394.54 L 1291.2,2394.22 L 1278.28,2390.17 L 1276.82,2389.54 L 1264.98,2382.97 L 1263.67,2382.06 L 1253.39,2373.24 L 1252.3,2372.09 L 1244.01,2361.38 L 1243.16,2360.02 L 1237.2,2347.87 L 1236.65,2346.37 L 1233.25,2333.27 L 1233.01,2331.69 L 1232.33,2318.17 L 1232.41,2316.58 L 1234.46,2303.19 L 1234.86,2301.65 L 1239.56,2288.95 L 1240.26,2287.52 L 1247.43,2276.03 L 1248.4,2274.77 L 1257.73,2264.95 L 1258.94,2263.91 L 1270.05,2256.18 L 1271.44,2255.4 L 1283.89,2250.07 L 1285.41,2249.59 L 1298.67,2246.86 L 1299.86,2246.71 L 1306.63,2246.37 L 1307.82,2246.4 L 1321.3,2247.77 L 1322.86,2248.09 L 1335.78,2252.14 L 1337.24,2252.77 L 1349.08,2259.34 L 1350.39,2260.25 L 1360.66,2269.07 L 1361.76,2270.23 L 1370.05,2280.94 L 1370.89,2282.29 L 1376.85,2294.45 L 1377.41,2295.94 L 1380.8,2309.05 L 1381.04,2310.62 L 1381.73,2324.15 L 1381.65,2325.74 L 1379.6,2339.12 L 1379.2,2340.66 L 1374.5,2353.36 L 1373.79,2354.79 L 1366.63,2366.29 L 1365.66,2367.55 L 1356.33,2377.36 L 1355.12,2378.4 L 1344,2386.14 L 1342.61,2386.91 L 1330.17,2392.25 L 1328.65,2392.72 L 1315.38,2395.45 L 1314.2,2395.6 L 1307.43,2395.94 L 1306.23,2395.91 z " style="fill-opacity:1.000000;fill:rgb(31,35,30);stroke:rgb(0,0,0);stroke-width:2"/></g>
<g fill-rule="evenodd"><path d="M 1306.23,2195.92 L 1292.76,2194.55 L 1291.2,2194.23 L 1278.28,2190.18 L 1276.82,2189.55 L 1264.98,2182.98 L 1263.67,2182.07 L 1253.39,2173.25 L 1252.3,2172.09 L 1244.01,2161.39 L 1243.16,2160.03 L 1237.2,2147.88 L 1236.65,2146.38 L 1233.25,2133.27 L 1233.01,2131.7 L 1232.33,2118.18 L 1232.41,2116.59 L 1234.46,2103.2 L 1234.86,2101.66 L 1239.56,2088.96 L 1240.26,2087.53 L 1247.43,2076.04 L 1248.4,2074.78 L 1257.73,2064.96 L 1258.94,2063.92 L 1270.05,2056.19 L 1271.44,2055.41 L 1283.89,2050.07 L 1285.41,2049.6 L 1298.67,2046.87 L 1299.86,2046.72 L 1306.63,2046.38 L 1307.82,2046.41 L 1321.3,2047.78 L 1322.86,2048.1 L 1335.78,2052.15 L 1337.24,2052.78 L 1349.08,2059.35 L 1350.39,2060.26 L 1360.66,2069.08 L 1361.76,2070.24 L 1370.05,2080.94 L 1370.89,2082.3 L 1376.85,2094.46 L 1377.41,2095.95 L 1380.8,2109.06 L 1381.04,2110.63 L 1381.73,2124.15 L 1381.65,2125.75 L 1379.6,2139.13 L 1379.2,2140.67 L 1374.5,2153.37 L 1373.79,2154.8 L 1366.63,2166.29 L 1365.66,2167.55 L 1356.33,2177.37 L 1355.12,2178.41 L 1344,2186.14 L 1342.61,2186.92 L 1330.17,2192.26 L 1328.65,2192.73 L 1315.38,2195.46 L 1314.2,2195.61 L 1307.43,2195.95 L 1306.23,2195.92 z " style="fill-opacity:1.000000;fill:rgb(168,28,123);stroke:rgb(0,0,0);stroke-width:2"/></g>
<g fill-rule="evenodd"><path d="M 1306.23,1995.93 L 1292.76,1994.56 L 1291.2,1994.24 L 1278.28,1990.19 L 1276.82,1989.56 L 1264.98,1982.99 L 1263.67,1982.08 L 1253.39,1973.26 L 1252.3,1972.1 L 1244.01,1961.4 L 1243.16,1960.04 L 1237.2,1947.88 L 1236.65,1946.39 L 1233.25,1933.28 L 1233.01,1931.71 L 1232.33,1918.19 L 1232.41,1916.59 L 1234.46,1903.21 L 1234.86,1901.67 L 1239.56,1888.97 L 1240.26,1887.54 L 1247.43,1876.05 L 1248.4,1874.79 L 1257.73,1864.97 L 1258.94,1863.93 L 1270.05,1856.2 L 1271.44,1855.42 L 1283.89,1850.08 L 1285.41,1849.61 L 1298.67,1846.88 L 1299.86,1846.73 L 1306.63,1846.39 L 1307.82,1846.42 L 1321.3,1847.79 L 1322.86,1848.11 L 1335.78,1852.16 L 1337.24,1852.79 L 1349.08,1859.36 L 1350.39,1860.27 L 1360.66,1869.09 L 1361.76,1870.25 L 1370.05,1880.95 L 1370.89,1882.31 L 1376.85,1894.46 L 1377.41,1895.96 L 1380.8,1909.07 L 1381.04,1910.64 L 1381.73,1924.16 L 1381.65,1925.76 L 1379.6,1939.14 L 1379.2,1940.68 L 1374.5,1953.38 L 1373.79,1954.81 L 1366.63,1966.3 L 1365.66,1967.56 L 1356.33,1977.38 L 1355.12,1978.42 L 1344,1986.15 L 1342.61,1986.93 L 1330.17,1992.27 L 1328.65,1992.74 L 1315.38,1995.47 L 1314.2,1995.62 L 1307.43,1995.96 L 1306.23,1995.93 z " style="fill-opacity:1.000000;fill:rgb(100,197,20);stroke:rgb(0,0,0);stroke-width:2"/></g>
<g fill-rule="evenodd"><path d="M 1306.23,1795.94 L 1292.76,1794.57 L 1291.2,1794.25 L 1278.28,1790.2 L 1276.82,1789.57 L 1264.98,1783 L 1263.67,1782.09 L 1253.39,1773.27 L 1252.3,1772.11 L 1244.01,1761.4 L 1243.16,1760.05 L 1237.2,1747.89 L 1236.65,1746.4 L 1233.25,1733.29 L 1233.01,1731.72 L 1232.33,1718.19 L 1232.41,1716.6 L 1234.46,1703.22 L 1234.86,1701.68 L 1239.56,1688.98 L 1240.26,1687.55 L 1247.43,1676.05 L 1248.4,1674.79 L 1257.73,1664.98 L 1258.94,1663.94 L 1270.05,1656.21 L 1271.44,1655.43 L 1283.89,1650.09 L 1285.41,1649.62 L 1298.67,1646.89 L 1299.86,1646.74 L 1306.63,1646.4 L 1307.82,1646.43 L 1321.3,1647.8 L 1322.86,1648.12 L 1335.78,1652.17 L 1337.24,1652.8 L 1349.08,1659.37 L 1350.39,1660.28 L 1360.66,1669.1 L 1361.76,1670.25 L 1370.05,1680.96 L 1370.89,1682.32 L 1376.85,1694.47 L 1377.41,1695.97 L 1380.8,1709.07 L 1381.04,1710.65 L 1381.73,1724.17 L 1381.65,1725.76 L 1379.6,1739.15 L 1379.2,1740.69 L 1374.5,1753.39 L 1373.79,1754.82 L 1366.63,1766.31 L 1365.66,1767.57 L 1356.33,1777.39 L 1355.12,1778.43 L 1344,1786.16 L 1342.61,1786.94 L 1330.17,1792.28 L 1328.65,1792.75 L 1315.38,1795.48 L 1314.2,1795.63 L 1307.43,1795.97 L 1306.23,1795.94 z " style="fill-opacity:1.000000;fill:rgb(115,90,197);stroke:rgb(0,0,0);stroke-width:2"/></g>
<g fill-rule="evenodd"><path d="M 1306.23,1595.95 L 1292.76,1594.58 L 1291.2,1594.26 L 1278.28,1590.21 L 1276.82,1589.58 L 1264.98,1583.01 L 1263.67,1582.1 L 1253.39,1573.27 L 1252.3,1572.12 L 1244.01,1561.41 L 1243.16,1560.06 L 1237.2,1547.9 L 1236.65,1546.41 L 1233.25,1533.3 L 1233.01,1531.72 L 1232.33,1518.2 L 1232.41,1516.61 L 1234.46,1503.23 L 1234.86,1501.69 L 1239.56,1488.99 L 1240.26,1487.55 L 1247.43,1476.06 L 1248.4,1474.8 L 1257.73,1464.99 L 1258.94,1463.95 L 1270.05,1456.21 L 1271.44,1455.44 L 1283.89,1450.1 L 1285.41,1449.62 L 1298.67,1446.9 L 1299.86,1446.75 L 1306.63,1446.4 L 1307.82,1446.43 L 1321.3,1447.81 L 1322.86,1448.13 L 1335.78,1452.18 L 1337.24,1452.81 L 1349.08,1459.38 L 1350.39,1460.29 L 1360.66,1469.11 L 1361.76,1470.26 L 1370.05,1480.97 L 1370.89,1482.32 L 1376.85,1494.48 L 1377.41,1495.97 L 1380.8,1509.08 L 1381.04,1510.66 L 1381.73,1524.18 L 1381.65,1525.77 L 1379.6,1539.16 L 1379.2,1540.7 L 1374.5,1553.4 L 1373.79,1554.83 L 1366.63,1566.32 L 1365.66,1567.58 L 1356.33,1577.4 L 1355.12,1578.43 L 1344,1586.17 L 1342.61,1586.94 L 1330.17,1592.28 L 1328.65,1592.76 L 1315.38,1595.49 L 1314.2,1595.64 L 1307.43,1595.98 L 1306.23,1595.95 z " style="fill-opacity:1.000000;fill:rgb(94,75,121);stroke:rgb(0,0,0);stroke-width:2"/></g>
<g fill-rule="evenodd"><path d="M 1783.39,2988.06 L 1783.39,2854.21 L 1783.54,2852.67 L 1783.99,2851.19 L 1784.71,2849.83 L 1785.69,2848.64 L 1786.89,2847.66 L 1788.25,2846.93 L 1789.72,2846.48 L 1791.26,2846.33 L 1925.11,2846.33 L 1926.65,2846.48 L 1928.12,2846.93 L 1929.49,2847.66 L 1930.68,2848.64 L 1931.66,2849.83 L 1932.39,2851.19 L 1932.83,2852.67 L 1932.99,2854.21 L 1932.99,2988.06 L 1932.83,2989.59 L 1932.39,2991.07 L 1931.66,2992.43 L 1930.68,2993.62 L 1929.49,2994.6 L 1928.12,2995.33 L 1926.65,2995.78 L 1925.11,2995.93 L 1791.26,2995.93 L 1789.72,2995.78 L 1788.25,2995.33 L 1786.89,2994.6 L 1785.69,2993.62 L 1784.71,2992.43 L 1783.99,2991.07 L 1783.54,2989.59 L 1783.39,2988.06 z " style="fill-opacity:1.000000;fill:rgb(99,59,112);stroke:rgb(0,0,0);stroke-width:2"/></g>
<g fill-rule="evenodd"><path d="M 1857.39,2795.9 L 1843.92,2794.53 L 1842.36,2794.21 L 1829.44,2790.15 L 1827.97,2789.53 L 1816.13,2782.95 L 1814.83,2782.04 L 1804.55,2773.22 L 1803.45,2772.07 L 1795.16,2761.36 L 1794.32,2760.01 L 1788.36,2747.85 L 1787.81,2746.36 L 1784.41,2733.25 L 1784.17,2731.67 L 1783.48,2718.15 L 1783.56,2716.56 L 1785.62,2703.17 L 1786.01,2701.63 L 1790.72,2688.93 L 1791.42,2687.5 L 1798.58,2676.01 L 1799.56,2674.75 L 1808.89,2664.93 L 1810.09,2663.9 L 1821.21,2656.16 L 1822.6,2655.39 L 1835.05,2650.05 L 1836.57,2649.57 L 1849.83,2646.85 L 1851.02,2646.7 L 1857.79,2646.35 L 1858.98,2646.38 L 1872.45,2647.75 L 1874.01,2648.07 L 1886.93,2652.13 L 1888.4,2652.75 L 1900.24,2659.33 L 1901.54,2660.24 L 1911.82,2669.06 L 1912.92,2670.21 L 1921.21,2680.92 L 1922.05,2682.27 L 1928.01,2694.43 L 1928.57,2695.92 L 1931.96,2709.03 L 1932.2,2710.61 L 1932.89,2724.13 L 1932.81,2725.72 L 1930.76,2739.11 L 1930.36,2740.65 L 1925.66,2753.35 L 1924.95,2754.78 L 1917.79,2766.27 L 1916.81,2767.53 L 1907.48,2777.34 L 1906.28,2778.38 L 1895.16,2786.12 L 1893.77,2786.89 L 1881.32,2792.23 L 1879.8,2792.71 L 1866.54,2795.43 L 1865.35,2795.58 L 1858.58,2795.93 L 1857.39,2795.9 z " style="fill-opacity:1.000000;fill:rgb(100,36,17);stroke:rgb(0,0,0);stroke-width:2"/></g>
<g fill-rule="evenodd"><path d="M 1857.39,2595.91 L 1843.92,2594.53 L 1842.36,2594.21 L 1829.44,2590.16 L 1827.97,2589.53 L 1816.13,2582.96 L 1814.83,2582.05 L 1804.55,2573.23 L 1803.45,2572.08 L 1795.16,2561.37 L 1794.32,2560.02 L 1788.36,2547.86 L 1787.81,2546.37 L 1784.41,2533.26 L 1784.17,2531.68 L 1783.48,2518.16 L 1783.56,2516.57 L 1785.62,2503.18 L 1786.01,2501.64 L 1790.72,2488.94 L 1791.42,2487.51 L 1798.58,2476.02 L 1799.56,2474.76 L 1808.89,2464.94 L 1810.09,2463.91 L 1821.21,2456.17 L 1822.6,2455.4 L 1835.05,2450.06 L 1836.57,2449.58 L 1849.83,2446.85 L 1851.02,2446.7 L 1857.79,2446.36 L 1858.98,2446.39 L 1872.45,2447.76 L 1874.01,2448.08 L 1886.93,2452.13 L 1888.4,2452.76 L 1900.24,2459.33 L 1901.54,2460.24 L 1911.82,2469.07 L 1912.92,2470.22 L 1921.21,2480.93 L 1922.05,2482.28 L 1928.01,2494.44 L 1928.57,2495.93 L 1931.96,2509.04 L 1932.2,2510.62 L 1932.89,2524.14 L 1932.81,2525.73 L 1930.76,2539.11 L 1930.36,2540.65 L 1925.66,2553.35 L 1924.95,2554.79 L 1917.79,2566.28 L 1916.81,2567.54 L 1907.48,2577.35 L 1906.28,2578.39 L 1895.16,2586.13 L 1893.77,2586.9 L 1881.32,2592.24 L 1879.8,2592.72 L 1866.54,2595.44 L 1865.35,2595.59 L 1858.58,2595.94 L 1857.39,2595.91 z " style="fill-opacity:1.000000;fill:rgb(158,9,220);stroke:rgb(0,0,0);stroke-width:2"/></g>
<g fill-rule="evenodd"><path d="M 1857.39,2395.91 L 1843.92,2394.54 L 1842.36,2394.22 L 1829.44,2390.17 L 1827.97,2389.54 L 1816.13,2382.97 L 1814.83,2382.06 L 1804.55,2373.24 L 1803.45,2372.09 L 1795.16,2361.38 L 1794.32,2360.02 L 1788.36,2347.87 L 1787.81,2346.37 L 1784.41,2333.27 L 1784.17,2331.69 L 1783.48,2318.17 L 1783.56,2316.58 L 1785.62,2303.19 L 1786.01,2301.65 L 1790.72,2288.95 L 1791.42,2287.52 L 1798.58,2276.03 L 1799.56,2274.77 L 1808.89,2264.95 L 1810.09,2263.91 L 1821.21,2256.18 L 1822.6,2255.4 L 1835.05,2250.07 L 1836.57,2249.59 L 1849.83,2246.86 L 1851.02,2246.71 L 1857.79,2246.37 L 1858.98,2246.4 L 1872.45,2247.77 L 1874.01,2248.09 L 1886.93,2252.14 L 1888.4,2252.77 L 1900.24,2259.34 L 1901.54,2260.25 L 1911.82,2269.07 L 1912.92,2270.23 L 1921.21,2280.94 L 1922.05,2282.29 L 1928.01,2294.45 L 1928.57,2295.94 L 1931.96,2309.05 L 1932.2,2310.62 L 1932.89,2324.15 L 1932.81,2325.74 L 1930.76,2339.12 L 1930.36,2340.66 L 1925.66,2353.36 L 1924.95,2354.79 L 1917.79,2366.29 L 1916.81,2367.55 L 1907.48,2377.36 L 1906.28,2378.4 L 1895.16,2386.14 L 1893.77,2386.91 L 1881.32,2392.25 L 1879.8,2392.72 L 1866.54,2395.45 L 1865.35,2395.6 L 1858.58,2395.94 L 1857.39,2395.91 z " style="fill-opacity:1.000000;fill:rgb(170,212,172);stroke:rgb(0,0,0);stroke-width:2"/></g>
<g fill-rule="evenodd"><path d="M 1857.39,2195.92 L 1843.92,2194.55 L 1842.36,2194.23 L 1829.44,2190.18 L 1827.97,2189.55 L 1816.13,2182.98 L 1814.83,2182.07 L 1804.55,2173.25 L 1803.45,2172.09 L 1795.16,2161.39 L 1794.32,2160.03 L 1788.36,2147.88 L 1787.81,2146.38 L 1784.41,2133.27 L 1784.17,2131.7 L 1783.48,2118.18 L 1783.56,2116.59 L 1785.62,2103.2 L 1786.01,2101.66 L 1790.72,2088.96 L 1791.42,2087.53 L 1798.58,2076.04 L 1799.56,2074.78 L 1808.89,2064.96 L 1810.09,2063.92 L 1821.21,2056.19 L 1822.6,2055.41 L 1835.05,2050.07 L 1836.57,2049.6 L 1849.83,2046.87 L 1851.02,2046.72 L 1857.79,2046.38 L 1858.98,2046.41 L 1872.45,2047.78 L 1874.01,2048.1 L 1886.93,2052.15 L 1888.4,2052.78 L 1900.24,2059.35 L 1901.54,2060.26 L 1911.82,2069.08 L 1912.92,2070.24 L 1921.21,2080.94 L 1922.05,2082.3 L 1928.01,2094.46 L 1928.57,2095.95 L 1931.96,2109.06 L 1932.2,2110.63 L 1932.89,2124.15 L 1932.81,2125.75 L 1930.76,2139.13 L 1930.36,2140.67 L 1925.66,2153.37 L 1924.95,2154.8 L 1917.79,2166.29 L 1916.81,2167.55 L 1907.48,2177.37 L 1906.28,2178.41 L 1895.16,2186.14 L 1893.77,2186.92 L 1881.32,2192.26 L 1879.8,2192.73 L 1866.54,2195.46 L 1865.35,2195.61 L 1858.58,2195.95 L 1857.39,2195.92 z " style="fill-opacity:1.000000;fill:rgb(242,27,16);stroke:rgb(0,0,0);stroke-width:2"/></g>
<g fill-rule="evenodd"><path d="M 1857.39,1995.93 L 1843.92,1994.56 L 1842.36,1994.24 L 1829.44,1990.19 L 1827.97,1989.56 L 1816.13,1982.99 L 1814.83,1982.08 L 1804.55,1973.26 L 1803.45,1972.1 L 1795.16,1961.4 L 1794.32,1960.04 L 1788.36,1947.88 L 1787.81,1946.39 L 1784.41,1933.28 L 1784.17,1931.71 L 1783.48,1918.19 L 1783.56,1916.59 L 1785.62,1903.21 L 1786.01,1901.67 L 1790.72,1888.97 L 1791.42,1887.54 L 1798.58,1876.05 L 1799.56,1874.79 L 1808.89,1864.97 L 1810.09,1863.93 L 1821.21,1856.2 L 1822.6,1855.42 L 1835.05,1850.08 L 1836.57,1849.61 L 1849.83,1846.88 L 1851.02,1846.73 L 1857.79,1846.39 L 1858.98,1846.42 L 1872.45,1847.79 L 1874.01,1848.11 L 1886.93,1852.16 L 1888.4,1852.79 L 1900.24,1859.36 L 1901.54,1860.27 L 1911.82,1869.09 L 1912.92,1870.25 L 1921.21,1880.95 L 1922.05,1882.31 L 1928.01,1894.46 L 1928.57,1895.96 L 1931.96,1909.07 L 1932.2,1910.64 L 1932.89,1924.16 L 1932.81,1925.76 L 1930.76,1939.14 L 1930.36,1940.68 L 1925.66,1953.38 L 1924.95,1954.81 L 1917.79,1966.3 L 1916.81,1967.56 L 1907.48,1977.38 L 1906.28,1978.42 L 1895.16,1986.15 L 1893.77,1986.93 L 1881.32,1992.27 L 1879.8,1992.74 L 1866.54,1995.47 L 1865.35,1995.62 L 1858.58,1995.96 L 1857.39,1995.93 z " style="fill-opacity:1.000000;fill:rgb(175,59,51);stroke:rgb(0,0,0);stroke-width:2"/></g>
<g fill-rule="evenodd"><path d="M 4972.22,4523.42 L 4972.22,4389.57 L 4972.37,4388.04 L 4972.82,4386.56 L 4973.55,4385.2 L 4974.53,4384.01 L 4975.72,4383.03 L 4977.08,4382.3 L 4978.56,4381.85 L 4980.1,4381.7 L 5113.95,4381.7 L 5115.48,4381.85 L 5116.96,4382.3 L 5118.32,4383.03 L 5119.51,4384.01 L 5120.49,4385.2 L 5121.22,4386.56 L 5121.67,4388.04 L 5121.82,4389.57 L 5121.82,4523.42 L 5121.67,4524.96 L 5121.22,4526.44 L 5120.49,4527.8 L 5119.51,4528.99 L 5118.32,4529.97 L 5116.96,4530.7 L 5115.48,4531.15 L 5113.95,4531.3 L 4980.1,4531.3 L 4978.56,4531.15 L 4977.08,4530.7 L 4975.72,4529.97 L 4974.53,4528.99 L 4973.55,4527.8 L 4972.82,4526.44 L 4972.37,4524.96 L 4972.22,4523.42 z " style="fill-opacity:1.000000;fill:rgb(205,227,80);stroke:rgb(0,0,0);stroke-width:2"/></g>
<g fill-rule="evenodd"><path d="M 5046.22,4331.26 L 5032.75,4329.89 L 5031.19,4329.57 L 5018.27,4325.52 L 5016.81,4324.89 L 5004.97,4318.32 L 5003.66,4317.41 L 4993.39,4308.59 L 4992.29,4307.43 L 4984,4296.73 L 4983.16,4295.37 L 4977.2,4283.22 L 4976.64,4281.72 L 4973.25,4268.61 L 4973.01,4267.04 L 4972.32,4253.52 L 4972.4,4251.93 L 4974.45,4238.54 L 4974.85,4237 L 4979.55,4224.3 L 4980.26,4222.87 L 4987.42,4211.38 L 4988.39,4210.12 L 4997.72,4200.3 L 4998.93,4199.26 L 5010.04,4191.53 L 5011.44,4190.75 L 5023.88,4185.41 L 5025.4,4184.94 L 5038.67,4182.21 L 5039.85,4182.06 L 5046.62,4181.72 L 5047.82,4181.75 L 5061.29,4183.12 L 5062.85,4183.44 L 5075.77,4187.49 L 5077.23,4188.12 L 5089.07,4194.69 L 5090.38,4195.6 L 5100.66,4204.42 L 5101.75,4205.58 L 5110.04,4216.28 L 5110.89,4217.64 L 5116.85,4229.8 L 5117.4,4231.29 L 5120.8,4244.4 L 5121.04,4245.97 L 5121.72,4259.49 L 5121.64,4261.09 L 5119.59,4274.47 L 5119.19,4276.01 L 5114.49,4288.71 L 5113.79,4290.14 L 5106.62,4301.64 L 5105.65,4302.9 L 5096.32,4312.71 L 5095.11,4313.75 L 5084,4321.48 L 5082.6,4322.26 L 5070.16,4327.6 L 5068.64,4328.07 L 5055.38,4330.8 L 5054.19,4330.95 L 5047.42,4331.29 L 5046.22,4331.26 z " style="fill-opacity:1.000000;fill:rgb(72,71,21);stroke:rgb(0,0,0);stroke-width:2"/></g>
<g fill-rule="evenodd"><path d="M 5048.99,1690.87 L 5048.99,1553.08 L 5049.14,1551.55 L 5049.59,1550.07 L 5050.32,1548.71 L 5051.3,1547.52 L 5052.49,1546.54 L 5053.85,1545.81 L 5055.33,1545.36 L 5056.87,1545.21 L 5194.65,1545.21 L 5196.19,1545.36 L 5197.66,1545.81 L 5199.03,1546.54 L 5200.22,1547.52 L 5201.2,1548.71 L 5201.93,1550.07 L 5202.37,1551.55 L 5202.53,1553.08 L 5202.53,1690.87 L 5202.37,1692.41 L 5201.93,1693.88 L 5201.2,1695.24 L 5200.22,1696.44 L 5199.03,1697.42 L 5197.66,1698.14 L 5196.19,1698.59 L 5194.65,1698.74 L 5056.87,1698.74 L 5055.33,1698.59 L 5053.85,1698.14 L 5052.49,1697.42 L 5051.3,1696.44 L 5050.32,1695.24 L 5049.59,1693.88 L 5049.14,1692.41 L 5048.99,1690.87 z " style="fill-opacity:1.000000;fill:rgb(92,187,111);stroke:rgb(0,0,0);stroke-width:2"/></g>
<g fill-rule="evenodd"><path d="M 5202.48,1425.96 L 5200.98,1440.28 L 5200.63,1441.89 L 5196.18,1455.59 L 5195.89,1456.36 L 5195.51,1457.09 L 5188.31,1469.57 L 5187.34,1470.9 L 5177.71,1481.6 L 5176.48,1482.7 L 5164.83,1491.17 L 5164.14,1491.62 L 5163.41,1491.99 L 5150.25,1497.85 L 5149.48,1498.14 L 5148.68,1498.36 L 5134.59,1501.35 L 5132.96,1501.52 L 5118.56,1501.52 L 5116.92,1501.35 L 5102.83,1498.36 L 5102.04,1498.14 L 5101.27,1497.85 L 5088.11,1491.99 L 5087.37,1491.62 L 5086.68,1491.17 L 5075.03,1482.7 L 5073.81,1481.6 L 5064.17,1470.9 L 5063.2,1469.57 L 5056,1457.09 L 5055.63,1456.36 L 5055.33,1455.59 L 5050.88,1441.89 L 5050.54,1440.28 L 5049.03,1425.96 L 5048.99,1425.14 L 5049.03,1424.31 L 5050.54,1409.99 L 5050.88,1408.38 L 5055.33,1394.68 L 5055.63,1393.91 L 5056,1393.18 L 5063.2,1380.7 L 5064.17,1379.37 L 5073.81,1368.67 L 5075.03,1367.57 L 5086.68,1359.1 L 5087.37,1358.65 L 5088.11,1358.28 L 5101.27,1352.42 L 5102.04,1352.12 L 5102.83,1351.91 L 5116.92,1348.92 L 5118.56,1348.75 L 5132.96,1348.75 L 5134.59,1348.92 L 5148.68,1351.91 L 5149.48,1352.12 L 5150.25,1352.42 L 5163.41,1358.28 L 5164.14,1358.65 L 5164.83,1359.1 L 5176.48,1367.57 L 5177.71,1368.67 L 5187.34,1379.37 L 5188.31,1380.7 L 5195.51,1393.18 L 5195.89,1393.91 L 5196.18,1394.68 L 5200.63,1408.38 L 5200.98,1409.99 L 5202.48,1424.31 L 5202.53,1425.14 L 5202.48,1425.96 z " style="fill-opacity:1.000000;fill:rgb(34,25,186);stroke:rgb(0,0,0);stroke-width:2"/></g>
<g fill-rule="evenodd"><path d="M 5202.48,1229.12 L 5200.98,1243.44 L 5200.63,1245.05 L 5196.18,1258.75 L 5195.89,1259.52 L 5195.51,1260.25 L 5188.31,1272.72 L 5187.34,1274.06 L 5177.71,1284.76 L 5176.48,1285.86 L 5164.83,1294.33 L 5164.14,1294.78 L 5163.41,1295.15 L 5150.25,1301.01 L 5149.48,1301.3 L 5148.68,1301.52 L 5134.59,1304.51 L 5132.96,1304.68 L 5118.56,1304.68 L 5116.92,1304.51 L 5102.83,1301.52 L 5102.04,1301.3 L 5101.27,1301.01 L 5088.11,1295.15 L 5087.37,1294.78 L 5086.68,1294.33 L 5075.03,1285.86 L 5073.81,1284.76 L 5064.17,1274.06 L 5063.2,1272.72 L 5056,1260.25 L 5055.63,1259.52 L 5055.33,1258.75 L 5050.88,1245.05 L 5050.54,1243.44 L 5049.03,1229.12 L 5048.99,1228.29 L 5049.03,1227.47 L 5050.54,1213.15 L 5050.88,1211.54 L 5055.33,1197.84 L 5055.63,1197.07 L 5056,1196.34 L 5063.2,1183.86 L 5064.17,1182.53 L 5073.81,1171.83 L 5075.03,1170.72 L 5086.68,1162.26 L 5087.37,1161.81 L 5088.11,1161.44 L 5101.27,1155.58 L 5102.04,1155.28 L 5102.83,1155.07 L 5116.92,1152.08 L 5118.56,1151.91 L 5132.96,1151.91 L 5134.59,1152.08 L 5148.68,1155.07 L 5149.48,1155.28 L 5150.25,1155.58 L 5163.41,1161.44 L 5164.14,1161.81 L 5164.83,1162.26 L 5176.48,1170.72 L 5177.71,1171.83 L 5187.34,1182.53 L 5188.31,1183.86 L 5195.51,1196.34 L 5195.89,1197.07 L 5196.18,1197.84 L 5200.63,1211.54 L 5200.98,1213.15 L 5202.48,1227.47 L 5202.53,1228.29 L 5202.48,1229.12 z " style="fill-opacity:1.000000;fill:rgb(155,125,245);stroke:rgb(0,0,0);stroke-width:2"/></g>
<g fill-rule="evenodd"><path d="M 5202.48,1032.27 L 5200.98,1046.6 L 5200.63,1048.21 L 5196.18,1061.91 L 5195.89,1062.68 L 5195.51,1063.41 L 5188.31,1075.88 L 5187.34,1077.21 L 5177.71,1087.92 L 5176.48,1089.02 L 5164.83,1097.49 L 5164.14,1097.93 L 5163.41,1098.31 L 5150.25,1104.17 L 5149.48,1104.46 L 5148.68,1104.68 L 5134.59,1107.67 L 5132.96,1107.84 L 5118.56,1107.84 L 5116.92,1107.67 L 5102.83,1104.68 L 5102.04,1104.46 L 5101.27,1104.17 L 5088.11,1098.31 L 5087.37,1097.93 L 5086.68,1097.49 L 5075.03,1089.02 L 5073.81,1087.92 L 5064.17,1077.21 L 5063.2,1075.88 L 5056,1063.41 L 5055.63,1062.68 L 5055.33,1061.91 L 5050.88,1048.21 L 5050.54,1046.6 L 5049.03,1032.27 L 5048.99,1031.45 L 5049.03,1030.63 L 5050.54,1016.31 L 5050.88,1014.7 L 5055.33,1001 L 5055.63,1000.23 L 5056,999.494 L 5063.2,987.021 L 5064.17,985.689 L 5073.81,974.985 L 5075.03,973.883 L 5086.68,965.418 L 5087.37,964.97 L 5088.11,964.596 L 5101.27,958.738 L 5102.04,958.442 L 5102.83,958.228 L 5116.92,955.234 L 5118.56,955.064 L 5132.96,955.064 L 5134.59,955.234 L 5148.68,958.228 L 5149.48,958.442 L 5150.25,958.738 L 5163.41,964.596 L 5164.14,964.97 L 5164.83,965.418 L 5176.48,973.883 L 5177.71,974.985 L 5187.34,985.689 L 5188.31,987.021 L 5195.51,999.494 L 5195.89,1000.23 L 5196.18,1001 L 5200.63,1014.7 L 5200.98,1016.31 L 5202.48,1030.63 L 5202.53,1031.45 L 5202.48,1032.27 z " style="fill-opacity:1.000000;fill:rgb(11,225,26);stroke:rgb(0,0,0);stroke-width:2"/></g>
<g fill-rule="evenodd"><path d="M 2058.97,4720.26 L 2058.97,4586.41 L 2059.12,4584.88 L 2059.56,4583.4 L 2060.29,4582.04 L 2061.27,4580.85 L 2062.46,4579.87 L 2063.83,4579.14 L 2065.3,4578.69 L 2066.84,4578.54 L 2200.69,4578.54 L 2202.23,4578.69 L 2203.7,4579.14 L 2205.06,4579.87 L 2206.26,4580.85 L 2207.24,4582.04 L 2207.96,4583.4 L 2208.41,4584.88 L 2208.56,4586.41 L 2208.56,4720.26 L 2208.41,4721.8 L 2207.96,4723.28 L 2207.24,4724.64 L 2206.26,4725.83 L 2205.06,4726.81 L 2203.7,4727.54 L 2202.23,4727.99 L 2200.69,4728.14 L 2066.84,4728.14 L 2065.3,4727.99 L 2063.83,4727.54 L 2062.46,4726.81 L 2061.27,4725.83 L 2060.29,4724.64 L 2059.56,4723.28 L 2059.12,4721.8 L 2058.97,4720.26 z " style="fill-opacity:1.000000;fill:rgb(28,127,35);stroke:rgb(0,0,0);stroke-width:2"/></g>
<g fill-rule="evenodd"><path d="M 2332.96,4728.1 L 2319.49,4726.72 L 2317.93,4726.4 L 2305.01,4722.35 L 2303.54,4721.72 L 2291.7,4715.15 L 2290.4,4714.24 L 2280.12,4705.42 L 2279.02,4704.27 L 2270.73,4693.56 L 2269.89,4692.21 L 2263.93,4680.05 L 2263.37,4678.56 L 2259.98,4665.45 L 2259.74,4663.87 L 2259.05,4650.35 L 2259.13,4648.76 L 2261.18,4635.37 L 2261.58,4633.83 L 2266.28,4621.13 L 2266.99,4619.7 L 2274.15,4608.21 L 2275.13,4606.95 L 2284.46,4597.13 L 2285.66,4596.1 L 2296.78,4588.36 L 2298.17,4587.59 L 2310.62,4582.25 L 2312.14,4581.77 L 2325.4,4579.04 L 2326.59,4578.89 L 2333.36,4578.55 L 2334.55,4578.58 L 2348.02,4579.95 L 2349.58,4580.27 L 2362.5,4584.32 L 2363.97,4584.95 L 2375.81,4591.52 L 2377.11,4592.43 L 2387.39,4601.26 L 2388.49,4602.41 L 2396.78,4613.12 L 2397.62,4614.47 L 2403.58,4626.63 L 2404.13,4628.12 L 2407.53,4641.23 L 2407.77,4642.81 L 2408.46,4656.33 L 2408.38,4657.92 L 2406.32,4671.3 L 2405.93,4672.84 L 2401.22,4685.54 L 2400.52,4686.98 L 2393.36,4698.47 L 2392.38,4699.73 L 2383.05,4709.54 L 2381.85,4710.58 L 2370.73,4718.32 L 2369.34,4719.09 L 2356.89,4724.43 L 2355.37,4724.91 L 2342.11,4727.63 L 2340.92,4727.78 L 2334.15,4728.13 L 2332.96,4728.1 z " style="fill-opacity:1.000000;fill:rgb(248,41,248);stroke:rgb(0,0,0);stroke-width:2"/></g>
<g fill-rule="evenodd"><path d="M 2532.95,4728.1 L 2519.48,4726.72 L 2517.92,4726.4 L 2505,4722.35 L 2503.53,4721.72 L 2491.69,4715.15 L 2490.39,4714.24 L 2480.11,4705.42 L 2479.01,4704.27 L 2470.72,4693.56 L 2469.88,4692.21 L 2463.92,4680.05 L 2463.37,4678.56 L 2459.97,4665.45 L 2459.73,4663.87 L 2459.04,4650.35 L 2459.12,4648.76 L 2461.18,4635.37 L 2461.57,4633.83 L 2466.28,4621.13 L 2466.98,4619.7 L 2474.14,4608.21 L 2475.12,4606.95 L 2484.45,4597.13 L 2485.65,4596.1 L 2496.77,4588.36 L 2498.16,4587.59 L 2510.61,4582.25 L 2512.13,4581.77 L 2525.39,4579.04 L 2526.58,4578.89 L 2533.35,4578.55 L 2534.54,4578.58 L 2548.01,4579.95 L 2549.57,4580.27 L 2562.49,4584.32 L 2563.96,4584.95 L 2575.8,4591.52 L 2577.1,4592.43 L 2587.38,4601.26 L 2588.48,4602.41 L 2596.77,4613.12 L 2597.61,4614.47 L 2603.57,4626.63 L 2604.13,4628.12 L 2607.52,4641.23 L 2607.76,4642.81 L 2608.45,4656.33 L 2608.37,4657.92 L 2606.32,4671.3 L 2605.92,4672.84 L 2601.22,4685.54 L 2600.51,4686.98 L 2593.35,4698.47 L 2592.37,4699.73 L 2583.04,4709.54 L 2581.84,4710.58 L 2570.72,4718.32 L 2569.33,4719.09 L 2556.88,4724.43 L 2555.36,4724.91 L 2542.1,4727.63 L 2540.91,4727.78 L 2534.14,4728.13 L 2532.95,4728.1 z " style="fill-opacity:1.000000;fill:rgb(164,27,19);stroke:rgb(0,0,0);stroke-width:2"/></g>
<g fill-rule="evenodd"><path d="M 2732.94,4728.1 L 2719.47,4726.72 L 2717.91,4726.4 L 2704.99,4722.35 L 2703.53,4721.72 L 2691.69,4715.15 L 2690.38,4714.24 L 2680.1,4705.42 L 2679,4704.27 L 2670.71,4693.56 L 2669.87,4692.21 L 2663.91,4680.05 L 2663.36,4678.56 L 2659.96,4665.45 L 2659.72,4663.87 L 2659.04,4650.35 L 2659.12,4648.76 L 2661.17,4635.37 L 2661.57,4633.83 L 2666.27,4621.13 L 2666.97,4619.7 L 2674.13,4608.21 L 2675.11,4606.95 L 2684.44,4597.13 L 2685.65,4596.1 L 2696.76,4588.36 L 2698.15,4587.59 L 2710.6,4582.25 L 2712.12,4581.77 L 2725.38,4579.04 L 2726.57,4578.89 L 2733.34,4578.55 L 2734.53,4578.58 L 2748.01,4579.95 L 2749.57,4580.27 L 2762.48,4584.32 L 2763.95,4584.95 L 2775.79,4591.52 L 2777.1,4592.43 L 2787.37,4601.26 L 2788.47,4602.41 L 2796.76,4613.12 L 2797.6,4614.47 L 2803.56,4626.63 L 2804.12,4628.12 L 2807.51,4641.23 L 2807.75,4642.81 L 2808.44,4656.33 L 2808.36,4657.92 L 2806.31,4671.3 L 2805.91,4672.84 L 2801.21,4685.54 L 2800.5,4686.98 L 2793.34,4698.47 L 2792.37,4699.73 L 2783.04,4709.54 L 2781.83,4710.58 L 2770.71,4718.32 L 2769.32,4719.09 L 2756.87,4724.43 L 2755.36,4724.91 L 2742.09,4727.63 L 2740.91,4727.78 L 2734.14,4728.13 L 2732.94,4728.1 z " style="fill-opacity:1.000000;fill:rgb(181,202,78);stroke:rgb(0,0,0);stroke-width:2"/></g>
<g fill-rule="evenodd"><path d="M 2932.93,4728.1 L 2919.46,4726.72 L 2917.9,4726.4 L 2904.98,4722.35 L 2903.52,4721.72 L 2891.68,4715.15 L 2890.37,4714.24 L 2880.09,4705.42 L 2879,4704.27 L 2870.71,4693.56 L 2869.86,4692.21 L 2863.9,4680.05 L 2863.35,4678.56 L 2859.95,4665.45 L 2859.71,4663.87 L 2859.03,4650.35 L 2859.11,4648.76 L 2861.16,4635.37 L 2861.56,4633.83 L 2866.26,4621.13 L 2866.96,4619.7 L 2874.13,4608.21 L 2875.1,4606.95 L 2884.43,4597.13 L 2885.64,4596.1 L 2896.75,4588.36 L 2898.14,4587.59 L 2910.59,4582.25 L 2912.11,4581.77 L 2925.37,4579.04 L 2926.56,4578.89 L 2933.33,4578.55 L 2934.53,4578.58 L 2948,4579.95 L 2949.56,4580.27 L 2962.48,4584.32 L 2963.94,4584.95 L 2975.78,4591.52 L 2977.09,4592.43 L 2987.36,4601.26 L 2988.46,4602.41 L 2996.75,4613.12 L 2997.59,4614.47 L 3003.55,4626.63 L 3004.11,4628.12 L 3007.5,4641.23 L 3007.74,4642.81 L 3008.43,4656.33 L 3008.35,4657.92 L 3006.3,4671.3 L 3005.9,4672.84 L 3001.2,4685.54 L 3000.49,4686.98 L 2993.33,4698.47 L 2992.36,4699.73 L 2983.03,4709.54 L 2981.82,4710.58 L 2970.71,4718.32 L 2969.31,4719.09 L 2956.87,4724.43 L 2955.35,4724.91 L 2942.08,4727.63 L 2940.9,4727.78 L 2934.13,4728.13 L 2932.93,4728.1 z " style="fill-opacity:1.000000;fill:rgb(232,152,50);stroke:rgb(0,0,0);stroke-width:2"/></g>
<g fill-rule="evenodd"><path d="M 3132.92,4728.1 L 3119.45,4726.72 L 3117.89,4726.4 L 3104.97,4722.35 L 3103.51,4721.72 L 3091.67,4715.15 L 3090.36,4714.24 L 3080.08,4705.42 L 3078.99,4704.27 L 3070.7,4693.56 L 3069.86,4692.21 L 3063.89,4680.05 L 3063.34,4678.56 L 3059.94,4665.45 L 3059.7,4663.87 L 3059.02,4650.35 L 3059.1,4648.76 L 3061.15,4635.37 L 3061.55,4633.83 L 3066.25,4621.13 L 3066.95,4619.7 L 3074.12,4608.21 L 3075.09,4606.95 L 3084.42,4597.13 L 3085.63,4596.1 L 3096.74,4588.36 L 3098.14,4587.59 L 3110.58,4582.25 L 3112.1,4581.77 L 3125.36,4579.04 L 3126.55,4578.89 L 3133.32,4578.55 L 3134.52,4578.58 L 3147.99,4579.95 L 3149.55,4580.27 L 3162.47,4584.32 L 3163.93,4584.95 L 3175.77,4591.52 L 3177.08,4592.43 L 3187.35,4601.26 L 3188.45,4602.41 L 3196.74,4613.12 L 3197.58,4614.47 L 3203.55,4626.63 L 3204.1,4628.12 L 3207.5,4641.23 L 3207.74,4642.81 L 3208.42,4656.33 L 3208.34,4657.92 L 3206.29,4671.3 L 3205.89,4672.84 L 3201.19,4685.54 L 3200.49,4686.98 L 3193.32,4698.47 L 3192.35,4699.73 L 3183.02,4709.54 L 3181.81,4710.58 L 3170.7,4718.32 L 3169.3,4719.09 L 3156.86,4724.43 L 3155.34,4724.91 L 3142.07,4727.63 L 3140.89,4727.78 L 3134.12,4728.13 L 3132.92,4728.1 z " style="fill-opacity:1.000000;fill:rgb(56,224,121);stroke:rgb(0,0,0);stroke-width:2"/></g>
<g fill-rule="evenodd"><path d="M 3332.91,4728.1 L 3319.44,4726.72 L 3317.88,4726.4 L 3304.96,4722.35 L 3303.5,4721.72 L 3291.66,4715.15 L 3290.35,4714.24 L 3280.08,4705.42 L 3278.98,4704.27 L 3270.69,4693.56 L 3269.85,4692.21 L 3263.88,4680.05 L 3263.33,4678.56 L 3259.93,4665.45 L 3259.69,4663.87 L 3259.01,4650.35 L 3259.09,4648.76 L 3261.14,4635.37 L 3261.54,4633.83 L 3266.24,4621.13 L 3266.94,4619.7 L 3274.11,4608.21 L 3275.08,4606.95 L 3284.41,4597.13 L 3285.62,4596.1 L 3296.73,4588.36 L 3298.13,4587.59 L 3310.57,4582.25 L 3312.09,4581.77 L 3325.36,4579.04 L 3326.54,4578.89 L 3333.31,4578.55 L 3334.51,4578.58 L 3347.98,4579.95 L 3349.54,4580.27 L 3362.46,4584.32 L 3363.92,4584.95 L 3375.76,4591.52 L 3377.07,4592.43 L 3387.35,4601.26 L 3388.44,4602.41 L 3396.73,4613.12 L 3397.57,4614.47 L 3403.54,4626.63 L 3404.09,4628.12 L 3407.49,4641.23 L 3407.73,4642.81 L 3408.41,4656.33 L 3408.33,4657.92 L 3406.28,4671.3 L 3405.88,4672.84 L 3401.18,4685.54 L 3400.48,4686.98 L 3393.31,4698.47 L 3392.34,4699.73 L 3383.01,4709.54 L 3381.8,4710.58 L 3370.69,4718.32 L 3369.29,4719.09 L 3356.85,4724.43 L 3355.33,4724.91 L 3342.07,4727.63 L 3340.88,4727.78 L 3334.11,4728.13 L 3332.91,4728.1 z " style="fill-opacity:1.000000;fill:rgb(77,61,52);stroke:rgb(0,0,0);stroke-width:2"/></g>
<g fill-rule="evenodd"><path d="M 3532.9,4728.1 L 3519.43,4726.72 L 3517.87,4726.4 L 3504.95,4722.35 L 3503.49,4721.72 L 3491.65,4715.15 L 3490.34,4714.24 L 3480.07,4705.42 L 3478.97,4704.27 L 3470.68,4693.56 L 3469.84,4692.21 L 3463.88,4680.05 L 3463.32,4678.56 L 3459.93,4665.45 L 3459.69,4663.87 L 3459,4650.35 L 3459.08,4648.76 L 3461.13,4635.37 L 3461.53,4633.83 L 3466.23,4621.13 L 3466.94,4619.7 L 3474.1,4608.21 L 3475.07,4606.95 L 3484.4,4597.13 L 3485.61,4596.1 L 3496.72,4588.36 L 3498.12,4587.59 L 3510.56,4582.25 L 3512.08,4581.77 L 3525.35,4579.04 L 3526.53,4578.89 L 3533.3,4578.55 L 3534.5,4578.58 L 3547.97,4579.95 L 3549.53,4580.27 L 3562.45,4584.32 L 3563.91,4584.95 L 3575.75,4591.52 L 3577.06,4592.43 L 3587.34,4601.26 L 3588.43,4602.41 L 3596.72,4613.12 L 3597.57,4614.47 L 3603.53,4626.63 L 3604.08,4628.12 L 3607.48,4641.23 L 3607.72,4642.81 L 3608.4,4656.33 L 3608.32,4657.92 L 3606.27,4671.3 L 3605.87,4672.84 L 3601.17,4685.54 L 3600.47,4686.98 L 3593.3,4698.47 L 3592.33,4699.73 L 3583,4709.54 L 3581.79,4710.58 L 3570.68,4718.32 L 3569.29,4719.09 L 3556.84,4724.43 L 3555.32,4724.91 L 3542.06,4727.63 L 3540.87,4727.78 L 3534.1,4728.13 L 3532.9,4728.1 z " style="fill-opacity:1.000000;fill:rgb(188,95,78);stroke:rgb(0,0,0);stroke-width:2"/></g>
</svg>
