<?xml version="1.0" standalone="no"?>
<!DOCTYPE svg PUBLIC "-//W3C//DTD SVG 1.1//EN"
"http://www.w3.org/Graphics/SVG/1.1/DTD/svg11.dtd">
<svg width="5905" height="5905" viewBox="0 0 5905 5905" version="1.1"
xmlns="http://www.w3.org/2000/svg"
xmlns:xlink="http://www.w3.org/1999/xlink">
<g fill-rule="evenodd"><path d="M 2294.09,894.606 L 2294.09,758.794 L 2429.91,758.794 L 2429.91,894.606 L 2294.09,894.606 z " style="fill-opacity:1.000000;fill:rgb(103,198,105);stroke:rgb(0,0,0);stroke-width:2"/></g>
<g fill-rule="evenodd"><path d="M 2429.91,1026.68 L 2428.42,1040.8 L 2424.03,1054.3 L 2416.94,1066.6 L 2407.44,1077.15 L 2395.95,1085.49 L 2382.98,1091.27 L 2369.1,1094.22 L 2354.9,1094.22 L 2341.02,1091.27 L 2328.05,1085.49 L 2316.56,1077.15 L 2307.06,1066.6 L 2299.96,1054.3 L 2295.58,1040.8 L 2294.09,1026.68 L 2295.58,1012.57 L 2299.96,999.063 L 2307.06,986.768 L 2316.56,976.219 L 2328.05,967.874 L 2341.02,962.101 L 2354.9,959.149 L 2369.1,959.149 L 2382.98,962.101 L 2395.95,967.874 L 2407.44,976.219 L 2416.94,986.768 L 2424.03,999.063 L 2428.42,1012.57 L 2429.91,1026.68 z " style="fill-opacity:1.000000;fill:rgb(115,81,255);stroke:rgb(0,0,0);stroke-width:2"/></g>
<g fill-rule="evenodd"><path d="M 2429.91,1226.67 L 2428.42,1240.78 L 2424.03,1254.29 L 2416.94,1266.58 L 2407.44,1277.13 L 2395.95,1285.47 L 2382.98,1291.25 L 2369.1,1294.2 L 2354.9,1294.2 L 2341.02,1291.25 L 2328.05,1285.47 L 2316.56,1277.13 L 2307.06,1266.58 L 2299.96,1254.29 L 2295.58,1240.78 L 2294.09,1226.67 L 2295.58,1212.55 L 2299.96,1199.05 L 2307.06,1186.75 L 2316.56,1176.2 L 2328.05,1167.86 L 2341.02,1162.08 L 2354.9,1159.13 L 2369.1,1159.13 L 2382.98,1162.08 L 2395.95,1167.86 L 2407.44,1176.2 L 2416.94,1186.75 L 2424.03,1199.05 L 2428.42,1212.55 L 2429.91,1226.67 z " style="fill-opacity:1.000000;fill:rgb(74,236,41);stroke:rgb(0,0,0);stroke-width:2"/></g>
<g fill-rule="evenodd"><path d="M 2429.91,1426.65 L 2428.42,1440.77 L 2424.03,1454.27 L 2416.94,1466.56 L 2407.44,1477.11 L 2395.95,1485.46 L 2382.98,1491.23 L 2369.1,1494.18 L 2354.9,1494.18 L 2341.02,1491.23 L 2328.05,1485.46 L 2316.56,1477.11 L 2307.06,1466.56 L 2299.96,1454.27 L 2295.58,1440.77 L 2294.09,1426.65 L 2295.58,1412.53 L 2299.96,1399.03 L 2307.06,1386.73 L 2316.56,1376.18 L 2328.05,1367.84 L 2341.02,1362.07 L 2354.9,1359.11 L 2369.1,1359.11 L 2382.98,1362.07 L 2395.95,1367.84 L 2407.44,1376.18 L 2416.94,1386.73 L 2424.03,1399.03 L 2428.42,1412.53 L 2429.91,1426.65 z " style="fill-opacity:1.000000;fill:rgb(205,186,171);stroke:rgb(0,0,0);stroke-width:2"/></g>
<g fill-rule="evenodd"><path d="M 2429.91,1626.63 L 2428.42,1640.75 L 2424.03,1654.25 L 2416.94,1666.55 L 2407.44,1677.09 L 2395.95,1685.44 L 2382.98,1691.21 L 2369.1,1694.17 L 2354.9,1694.17 L 2341.02,1691.21 L 2328.05,1685.44 L 2316.56,1677.09 L 2307.06,1666.55 L 2299.96,1654.25 L 2295.58,1640.75 L 2294.09,1626.63 L 2295.58,1612.51 L 2299.96,1599.01 L 2307.06,1586.72 L 2316.56,1576.17 L 2328.05,1567.82 L 2341.02,1562.05 L 2354.9,1559.1 L 2369.1,1559.1 L 2382.98,1562.05 L 2395.95,1567.82 L 2407.44,1576.17 L 2416.94,1586.72 L 2424.03,1599.01 L 2428.42,1612.51 L 2429.91,1626.63 z " style="fill-opacity:1.000000;fill:rgb(242,251,227);stroke:rgb(0,0,0);stroke-width:2"/></g>
<g fill-rule="evenodd"><path d="M 2429.91,1826.61 L 2428.42,1840.73 L 2424.03,1854.23 L 2416.94,1866.53 L 2407.44,1877.08 L 2395.95,1885.42 L 2382.98,1891.2 L 2369.1,1894.15 L 2354.9,1894.15 L 2341.02,1891.2 L 2328.05,1885.42 L 2316.56,1877.08 L 2307.06,1866.53 L 2299.96,1854.23 L 2295.58,1840.73 L 2294.09,1826.61 L 2295.58,1812.5 L 2299.96,1798.99 L 2307.06,1786.7 L 2316.56,1776.15 L 2328.05,1767.8 L 2341.02,1762.03 L 2354.9,1759.08 L 2369.1,1759.08 L 2382.98,1762.03 L 2395.95,1767.8 L 2407.44,1776.15 L 2416.94,1786.7 L 2424.03,1798.99 L 2428.42,1812.5 L 2429.91,1826.61 z " style="fill-opacity:1.000000;fill:rgb(70,124,194);stroke:rgb(0,0,0);stroke-width:2"/></g>
<g fill-rule="evenodd"><path d="M 2429.91,2026.6 L 2428.42,2040.71 L 2424.03,2054.22 L 2416.94,2066.51 L 2407.44,2077.06 L 2395.95,2085.41 L 2382.98,2091.18 L 2369.1,2094.13 L 2354.9,2094.13 L 2341.02,2091.18 L 2328.05,2085.41 L 2316.56,2077.06 L 2307.06,2066.51 L 2299.96,2054.22 L 2295.58,2040.71 L 2294.09,2026.6 L 2295.58,2012.48 L 2299.96,1998.98 L 2307.06,1986.68 L 2316.56,1976.13 L 2328.05,1967.79 L 2341.02,1962.01 L 2354.9,1959.06 L 2369.1,1959.06 L 2382.98,1962.01 L 2395.95,1967.79 L 2407.44,1976.13 L 2416.94,1986.68 L 2424.03,1998.98 L 2428.42,2012.48 L 2429.91,2026.6 z " style="fill-opacity:1.000000;fill:rgb(84,248,27);stroke:rgb(0,0,0);stroke-width:2"/></g>
<g fill-rule="evenodd"><path d="M 2429.91,2226.58 L 2428.42,2240.7 L 2424.03,2254.2 L 2416.94,2266.49 L 2407.44,2277.04 L 2395.95,2285.39 L 2382.98,2291.16 L 2369.1,2294.11 L 2354.9,2294.11 L 2341.02,2291.16 L 2328.05,2285.39 L 2316.56,2277.04 L 2307.06,2266.49 L 2299.96,2254.2 L 2295.58,2240.7 L 2294.09,2226.58 L 2295.58,2212.46 L 2299.96,2198.96 L 2307.06,2186.66 L 2316.56,2176.12 L 2328.05,2167.77 L 2341.02,2162 L 2354.9,2159.04 L 2369.1,2159.04 L 2382.98,2162 L 2395.95,2167.77 L 2407.44,2176.12 L 2416.94,2186.66 L 2424.03,2198.96 L 2428.42,2212.46 L 2429.91,2226.58 z " style="fill-opacity:1.000000;fill:rgb(232,231,141);stroke:rgb(0,0,0);stroke-width:2"/></g>
<g fill-rule="evenodd"><path d="M 2429.91,2426.56 L 2428.42,2440.68 L 2424.03,2454.18 L 2416.94,2466.48 L 2407.44,2477.03 L 2395.95,2485.37 L 2382.98,2491.14 L 2369.1,2494.1 L 2354.9,2494.1 L 2341.02,2491.14 L 2328.05,2485.37 L 2316.56,2477.03 L 2307.06,2466.48 L 2299.96,2454.18 L 2295.58,2440.68 L 2294.09,2426.56 L 2295.58,2412.44 L 2299.96,2398.94 L 2307.06,2386.65 L 2316.56,2376.1 L 2328.05,2367.75 L 2341.02,2361.98 L 2354.9,2359.03 L 2369.1,2359.03 L 2382.98,2361.98 L 2395.95,2367.75 L 2407.44,2376.1 L 2416.94,2386.65 L 2424.03,2398.94 L 2428.42,2412.44 L 2429.91,2426.56 z " style="fill-opacity:1.000000;fill:rgb(118,90,46);stroke:rgb(0,0,0);stroke-width:2"/></g>
<g fill-rule="evenodd"><path d="M 2429.91,2626.54 L 2428.42,2640.66 L 2424.03,2654.16 L 2416.94,2666.46 L 2407.44,2677.01 L 2395.95,2685.35 L 2382.98,2691.13 L 2369.1,2694.08 L 2354.9,2694.08 L 2341.02,2691.13 L 2328.05,2685.35 L 2316.56,2677.01 L 2307.06,2666.46 L 2299.96,2654.16 L 2295.58,2640.66 L 2294.09,2626.54 L 2295.58,2612.43 L 2299.96,2598.92 L 2307.06,2586.63 L 2316.56,2576.08 L 2328.05,2567.74 L 2341.02,2561.96 L 2354.9,2559.01 L 2369.1,2559.01 L 2382.98,2561.96 L 2395.95,2567.74 L 2407.44,2576.08 L 2416.94,2586.63 L 2424.03,2598.92 L 2428.42,2612.43 L 2429.91,2626.54 z " style="fill-opacity:1.000000;fill:rgb(99,51,159);stroke:rgb(0,0,0);stroke-width:2"/></g>
<g fill-rule="evenodd"><path d="M 2429.91,2826.53 L 2428.42,2840.64 L 2424.03,2854.15 L 2416.94,2866.44 L 2407.44,2876.99 L 2395.95,2885.34 L 2382.98,2891.11 L 2369.1,2894.06 L 2354.9,2894.06 L 2341.02,2891.11 L 2328.05,2885.34 L 2316.56,2876.99 L 2307.06,2866.44 L 2299.96,2854.15 L 2295.58,2840.64 L 2294.09,2826.53 L 2295.58,2812.41 L 2299.96,2798.91 L 2307.06,2786.61 L 2316.56,2776.06 L 2328.05,2767.72 L 2341.02,2761.94 L 2354.9,2758.99 L 2369.1,2758.99 L 2382.98,2761.94 L 2395.95,2767.72 L 2407.44,2776.06 L 2416.94,2786.61 L 2424.03,2798.91 L 2428.42,2812.41 L 2429.91,2826.53 z " style="fill-opacity:1.000000;fill:rgb(201,154,102);stroke:rgb(0,0,0);stroke-width:2"/></g>
<g fill-rule="evenodd"><path d="M 2429.91,3026.51 L 2428.42,3040.63 L 2424.03,3054.13 L 2416.94,3066.42 L 2407.44,3076.97 L 2395.95,3085.32 L 2382.98,3091.09 L 2369.1,3094.04 L 2354.9,3094.04 L 2341.02,3091.09 L 2328.05,3085.32 L 2316.56,3076.97 L 2307.06,3066.42 L 2299.96,3054.13 L 2295.58,3040.63 L 2294.09,3026.51 L 2295.58,3012.39 L 2299.96,2998.89 L 2307.06,2986.6 L 2316.56,2976.05 L 2328.05,2967.7 L 2341.02,2961.93 L 2354.9,2958.98 L 2369.1,2958.98 L 2382.98,2961.93 L 2395.95,2967.7 L 2407.44,2976.05 L 2416.94,2986.6 L 2424.03,2998.89 L 2428.42,3012.39 L 2429.91,3026.51 z " style="fill-opacity:1.000000;fill:rgb(50,13,183);stroke:rgb(0,0,0);stroke-width:2"/></g>
<g fill-rule="evenodd"><path d="M 2429.91,3226.49 L 2428.42,3240.61 L 2424.03,3254.11 L 2416.94,3266.41 L 2407.44,3276.96 L 2395.95,3285.3 L 2382.98,3291.07 L 2369.1,3294.03 L 2354.9,3294.03 L 2341.02,3291.07 L 2328.05,3285.3 L 2316.56,3276.96 L 2307.06,3266.41 L 2299.96,3254.11 L 2295.58,3240.61 L 2294.09,3226.49 L 2295.58,3212.38 L 2299.96,3198.87 L 2307.06,3186.58 L 2316.56,3176.03 L 2328.05,3167.68 L 2341.02,3161.91 L 2354.9,3158.96 L 2369.1,3158.96 L 2382.98,3161.91 L 2395.95,3167.68 L 2407.44,3176.03 L 2416.94,3186.58 L 2424.03,3198.87 L 2428.42,3212.38 L 2429.91,3226.49 z " style="fill-opacity:1.000000;fill:rgb(49,88,163);stroke:rgb(0,0,0);stroke-width:2"/></g>
<g fill-rule="evenodd"><path d="M 2429.91,3426.47 L 2428.42,3440.59 L 2424.03,3454.09 L 2416.94,3466.39 L 2407.44,3476.94 L 2395.95,3485.28 L 2382.98,3491.06 L 2369.1,3494.01 L 2354.9,3494.01 L 2341.02,3491.06 L 2328.05,3485.28 L 2316.56,3476.94 L 2307.06,3466.39 L 2299.96,3454.09 L 2295.58,3440.59 L 2294.09,3426.47 L 2295.58,3412.36 L 2299.96,3398.86 L 2307.06,3386.56 L 2316.56,3376.01 L 2328.05,3367.67 L 2341.02,3361.89 L 2354.9,3358.94 L 2369.1,3358.94 L 2382.98,3361.89 L 2395.95,3367.67 L 2407.44,3376.01 L 2416.94,3386.56 L 2424.03,3398.86 L 2428.42,3412.36 L 2429.91,3426.47 z " style="fill-opacity:1.000000;fill:rgb(90,37,93);stroke:rgb(0,0,0);stroke-width:2"/></g>
<g fill-rule="evenodd"><path d="M 2429.91,3626.46 L 2428.42,3640.57 L 2424.03,3654.08 L 2416.94,3666.37 L 2407.44,3676.92 L 2395.95,3685.27 L 2382.98,3691.04 L 2369.1,3693.99 L 2354.9,3693.99 L 2341.02,3691.04 L 2328.05,3685.27 L 2316.56,3676.92 L 2307.06,3666.37 L 2299.96,3654.08 L 2295.58,3640.57 L 2294.09,3626.46 L 2295.58,3612.34 L 2299.96,3598.84 L 2307.06,3586.54 L 2316.56,3575.99 L 2328.05,3567.65 L 2341.02,3561.88 L 2354.9,3558.92 L 2369.1,3558.92 L 2382.98,3561.88 L 2395.95,3567.65 L 2407.44,3575.99 L 2416.94,3586.54 L 2424.03,3598.84 L 2428.42,3612.34 L 2429.91,3626.46 z " style="fill-opacity:1.000000;fill:rgb(5,23,88);stroke:rgb(0,0,0);stroke-width:2"/></g>
<g fill-rule="evenodd"><path d="M 3629.8,3626.46 L 3628.32,3640.57 L 3623.93,3654.08 L 3616.83,3666.37 L 3607.33,3676.92 L 3595.85,3685.27 L 3582.88,3691.04 L 3568.99,3693.99 L 3554.8,3693.99 L 3540.91,3691.04 L 3527.94,3685.27 L 3516.46,3676.92 L 3506.96,3666.37 L 3499.86,3654.08 L 3495.47,3640.57 L 3493.99,3626.46 L 3495.47,3612.34 L 3499.86,3598.84 L 3506.96,3586.54 L 3516.46,3575.99 L 3527.94,3567.65 L 3540.91,3561.88 L 3554.8,3558.92 L 3568.99,3558.92 L 3582.88,3561.88 L 3595.85,3567.65 L 3607.33,3575.99 L 3616.83,3586.54 L 3623.93,3598.84 L 3628.32,3612.34 L 3629.8,3626.46 z " style="fill-opacity:1.000000;fill:rgb(233,94,212);stroke:rgb(0,0,0);stroke-width:2"/></g>
<g fill-rule="evenodd"><path d="M 3629.8,3426.47 L 3628.32,3440.59 L 3623.93,3454.09 L 3616.83,3466.39 L 3607.33,3476.94 L 3595.85,3485.28 L 3582.88,3491.06 L 3568.99,3494.01 L 3554.8,3494.01 L 3540.91,3491.06 L 3527.94,3485.28 L 3516.46,3476.94 L 3506.96,3466.39 L 3499.86,3454.09 L 3495.47,3440.59 L 3493.99,3426.47 L 3495.47,3412.36 L 3499.86,3398.86 L 3506.96,3386.56 L 3516.46,3376.01 L 3527.94,3367.67 L 3540.91,3361.89 L 3554.8,3358.94 L 3568.99,3358.94 L 3582.88,3361.89 L 3595.85,3367.67 L 3607.33,3376.01 L 3616.83,3386.56 L 3623.93,3398.86 L 3628.32,3412.36 L 3629.8,3426.47 z " style="fill-opacity:1.000000;fill:rgb(171,178,205);stroke:rgb(0,0,0);stroke-width:2"/></g>
<g fill-rule="evenodd"><path d="M 3629.8,3226.49 L 3628.32,3240.61 L 3623.93,3254.11 L 3616.83,3266.41 L 3607.33,3276.96 L 3595.85,3285.3 L 3582.88,3291.07 L 3568.99,3294.03 L 3554.8,3294.03 L 3540.91,3291.07 L 3527.94,3285.3 L 3516.46,3276.96 L 3506.96,3266.41 L 3499.86,3254.11 L 3495.47,3240.61 L 3493.99,3226.49 L 3495.47,3212.38 L 3499.86,3198.87 L 3506.96,3186.58 L 3516.46,3176.03 L 3527.94,3167.68 L 3540.91,3161.91 L 3554.8,3158.96 L 3568.99,3158.96 L 3582.88,3161.91 L 3595.85,3167.68 L 3607.33,3176.03 L 3616.83,3186.58 L 3623.93,3198.87 L 3628.32,3212.38 L 3629.8,3226.49 z " style="fill-opacity:1.000000;fill:rgb(198,155,180);stroke:rgb(0,0,0);stroke-width:2"/></g>
<g fill-rule="evenodd"><path d="M 3629.8,3026.51 L 3628.32,3040.63 L 3623.93,3054.13 L 3616.83,3066.42 L 3607.33,3076.97 L 3595.85,3085.32 L 3582.88,3091.09 L 3568.99,3094.04 L 3554.8,3094.04 L 3540.91,3091.09 L 3527.94,3085.32 L 3516.46,3076.97 L 3506.96,3066.42 L 3499.86,3054.13 L 3495.47,3040.63 L 3493.99,3026.51 L 3495.47,3012.39 L 3499.86,2998.89 L 3506.96,2986.6 L 3516.46,2976.05 L 3527.94,2967.7 L 3540.91,2961.93 L 3554.8,2958.98 L 3568.99,2958.98 L 3582.88,2961.93 L 3595.85,2967.7 L 3607.33,2976.05 L 3616.83,2986.6 L 3623.93,2998.89 L 3628.32,3012.39 L 3629.8,3026.51 z " style="fill-opacity:1.000000;fill:rgb(84,17,14);stroke:rgb(0,0,0);stroke-width:2"/></g>
<g fill-rule="evenodd"><path d="M 3629.8,2826.53 L 3628.32,2840.64 L 3623.93,2854.15 L 3616.83,2866.44 L 3607.33,2876.99 L 3595.85,2885.34 L 3582.88,2891.11 L 3568.99,2894.06 L 3554.8,2894.06 L 3540.91,2891.11 L 3527.94,2885.34 L 3516.46,2876.99 L 3506.96,2866.44 L 3499.86,2854.15 L 3495.47,2840.64 L 3493.99,2826.53 L 3495.47,2812.41 L 3499.86,2798.91 L 3506.96,2786.61 L 3516.46,2776.06 L 3527.94,2767.72 L 3540.91,2761.94 L 3554.8,2758.99 L 3568.99,2758.99 L 3582.88,2761.94 L 3595.85,2767.72 L 3607.33,2776.06 L 3616.83,2786.61 L 3623.93,2798.91 L 3628.32,2812.41 L 3629.8,2826.53 z " style="fill-opacity:1.000000;fill:rgb(130,116,65);stroke:rgb(0,0,0);stroke-width:2"/></g>
<g fill-rule="evenodd"><path d="M 3629.8,2626.54 L 3628.32,2640.66 L 3623.93,2654.16 L 3616.83,2666.46 L 3607.33,2677.01 L 3595.85,2685.35 L 3582.88,2691.13 L 3568.99,2694.08 L 3554.8,2694.08 L 3540.91,2691.13 L 3527.94,2685.35 L 3516.46,2677.01 L 3506.96,2666.46 L 3499.86,2654.16 L 3495.47,2640.66 L 3493.99,2626.54 L 3495.47,2612.43 L 3499.86,2598.92 L 3506.96,2586.63 L 3516.46,2576.08 L 3527.94,2567.74 L 3540.91,2561.96 L 3554.8,2559.01 L 3568.99,2559.01 L 3582.88,2561.96 L 3595.85,2567.74 L 3607.33,2576.08 L 3616.83,2586.63 L 3623.93,2598.92 L 3628.32,2612.43 L 3629.8,2626.54 z " style="fill-opacity:1.000000;fill:rgb(33,61,220);stroke:rgb(0,0,0);stroke-width:2"/></g>
<g fill-rule="evenodd"><path d="M 3629.8,2426.56 L 3628.32,2440.68 L 3623.93,2454.18 L 3616.83,2466.48 L 3607.33,2477.03 L 3595.85,2485.37 L 3582.88,2491.14 L 3568.99,2494.1 L 3554.8,2494.1 L 3540.91,2491.14 L 3527.94,2485.37 L 3516.46,2477.03 L 3506.96,2466.48 L 3499.86,2454.18 L 3495.47,2440.68 L 3493.99,2426.56 L 3495.47,2412.44 L 3499.86,2398.94 L 3506.96,2386.65 L 3516.46,2376.1 L 3527.94,2367.75 L 3540.91,2361.98 L 3554.8,2359.03 L 3568.99,2359.03 L 3582.88,2361.98 L 3595.85,2367.75 L 3607.33,2376.1 L 3616.83,2386.65 L 3623.93,2398.94 L 3628.32,2412.44 L 3629.8,2426.56 z " style="fill-opacity:1.000000;fill:rgb(135,112,233);stroke:rgb(0,0,0);stroke-width:2"/></g>
<g fill-rule="evenodd"><path d="M 3629.8,2226.58 L 3628.32,2240.7 L 3623.93,2254.2 L 3616.83,2266.49 L 3607.33,2277.04 L 3595.85,2285.39 L 3582.88,2291.16 L 3568.99,2294.11 L 3554.8,2294.11 L 3540.91,2291.16 L 3527.94,2285.39 L 3516.46,2277.04 L 3506.96,2266.49 L 3499.86,2254.2 L 3495.47,2240.7 L 3493.99,2226.58 L 3495.47,2212.46 L 3499.86,2198.96 L 3506.96,2186.66 L 3516.46,2176.12 L 3527.94,2167.77 L 3540.91,2162 L 3554.8,2159.04 L 3568.99,2159.04 L 3582.88,2162 L 3595.85,2167.77 L 3607.33,2176.12 L 3616.83,2186.66 L 3623.93,2198.96 L 3628.32,2212.46 L 3629.8,2226.58 z " style="fill-opacity:1.000000;fill:rgb(62,161,65);stroke:rgb(0,0,0);stroke-width:2"/></g>
<g fill-rule="evenodd"><path d="M 3629.8,2026.6 L 3628.32,2040.71 L 3623.93,2054.22 L 3616.83,2066.51 L 3607.33,2077.06 L 3595.85,2085.41 L 3582.88,2091.18 L 3568.99,2094.13 L 3554.8,2094.13 L 3540.91,2091.18 L 3527.94,2085.41 L 3516.46,2077.06 L 3506.96,2066.51 L 3499.86,2054.22 L 3495.47,2040.71 L 3493.99,2026.6 L 3495.47,2012.48 L 3499.86,1998.98 L 3506.96,1986.68 L 3516.46,1976.13 L 3527.94,1967.79 L 3540.91,1962.01 L 3554.8,1959.06 L 3568.99,1959.06 L 3582.88,1962.01 L 3595.85,1967.79 L 3607.33,1976.13 L 3616.83,1986.68 L 3623.93,1998.98 L 3628.32,2012.48 L 3629.8,2026.6 z " style="fill-opacity:1.000000;fill:rgb(225,252,103);stroke:rgb(0,0,0);stroke-width:2"/></g>
<g fill-rule="evenodd"><path d="M 3629.8,1826.61 L 3628.32,1840.73 L 3623.93,1854.23 L 3616.83,1866.53 L 3607.33,1877.08 L 3595.85,1885.42 L 3582.88,1891.2 L 3568.99,1894.15 L 3554.8,1894.15 L 3540.91,1891.2 L 3527.94,1885.42 L 3516.46,1877.08 L 3506.96,1866.53 L 3499.86,1854.23 L 3495.47,1840.73 L 3493.99,1826.61 L 3495.47,1812.5 L 3499.86,1798.99 L 3506.96,1786.7 L 3516.46,1776.15 L 3527.94,1767.8 L 3540.91,1762.03 L 3554.8,1759.08 L 3568.99,1759.08 L 3582.88,1762.03 L 3595.85,1767.8 L 3607.33,1776.15 L 3616.83,1786.7 L 3623.93,1798.99 L 3628.32,1812.5 L 3629.8,1826.61 z " style="fill-opacity:1.000000;fill:rgb(62,1,126);stroke:rgb(0,0,0);stroke-width:2"/></g>
<g fill-rule="evenodd"><path d="M 3629.8,1626.63 L 3628.32,1640.75 L 3623.93,1654.25 L 3616.83,1666.55 L 3607.33,1677.09 L 3595.85,1685.44 L 3582.88,1691.21 L 3568.99,1694.17 L 3554.8,1694.17 L 3540.91,1691.21 L 3527.94,1685.44 L 3516.46,1677.09 L 3506.96,1666.55 L 3499.86,1654.25 L 3495.47,1640.75 L 3493.99,1626.63 L 3495.47,1612.51 L 3499.86,1599.01 L 3506.96,1586.72 L 3516.46,1576.17 L 3527.94,1567.82 L 3540.91,1562.05 L 3554.8,1559.1 L 3568.99,1559.1 L 3582.88,1562.05 L 3595.85,1567.82 L 3607.33,1576.17 L 3616.83,1586.72 L 3623.93,1599.01 L 3628.32,1612.51 L 3629.8,1626.63 z " style="fill-opacity:1.000000;fill:rgb(151,234,220);stroke:rgb(0,0,0);stroke-width:2"/></g>
<g fill-rule="evenodd"><path d="M 3629.8,1426.65 L 3628.32,1440.77 L 3623.93,1454.27 L 3616.83,1466.56 L 3607.33,1477.11 L 3595.85,1485.46 L 3582.88,1491.23 L 3568.99,1494.18 L 3554.8,1494.18 L 3540.91,1491.23 L 3527.94,1485.46 L 3516.46,1477.11 L 3506.96,1466.56 L 3499.86,1454.27 L 3495.47,1440.77 L 3493.99,1426.65 L 3495.47,1412.53 L 3499.86,1399.03 L 3506.96,1386.73 L 3516.46,1376.18 L 3527.94,1367.84 L 3540.91,1362.07 L 3554.8,1359.11 L 3568.99,1359.11 L 3582.88,1362.07 L 3595.85,1367.84 L 3607.33,1376.18 L 3616.83,1386.73 L 3623.93,1399.03 L 3628.32,1412.53 L 3629.8,1426.65 z " style="fill-opacity:1.000000;fill:rgb(107,150,143);stroke:rgb(0,0,0);stroke-width:2"/></g>
<g fill-rule="evenodd"><path d="M 3629.8,1226.67 L 3628.32,1240.78 L 3623.93,1254.29 L 3616.83,1266.58 L 3607.33,1277.13 L 3595.85,1285.47 L 3582.88,1291.25 L 3568.99,1294.2 L 3554.8,1294.2 L 3540.91,1291.25 L 3527.94,1285.47 L 3516.46,1277.13 L 3506.96,1266.58 L 3499.86,1254.29 L 3495.47,1240.78 L 3493.99,1226.67 L 3495.47,1212.55 L 3499.86,1199.05 L 3506.96,1186.75 L 3516.46,1176.2 L 3527.94,1167.86 L 3540.91,1162.08 L 3554.8,1159.13 L 3568.99,1159.13 L 3582.88,1162.08 L 3595.85,1167.86 L 3607.33,1176.2 L 3616.83,1186.75 L 3623.93,1199.05 L 3628.32,1212.55 L 3629.8,1226.67 z " style="fill-opacity:1.000000;fill:rgb(56,92,42);stroke:rgb(0,0,0);stroke-width:2"/></g>
<g fill-rule="evenodd"><path d="M 3629.8,1026.68 L 3628.32,1040.8 L 3623.93,1054.3 L 3616.83,1066.6 L 3607.33,1077.15 L 3595.85,1085.49 L 3582.88,1091.27 L 3568.99,1094.22 L 3554.8,1094.22 L 3540.91,1091.27 L 3527.94,1085.49 L 3516.46,1077.15 L 3506.96,1066.6 L 3499.86,1054.3 L 3495.47,1040.8 L 3493.99,1026.68 L 3495.47,1012.57 L 3499.86,999.063 L 3506.96,986.768 L 3516.46,976.219 L 3527.94,967.874 L 3540.91,962.101 L 3554.8,959.149 L 3568.99,959.149 L 3582.88,962.101 L 3595.85,967.874 L 3607.33,976.219 L 3616.83,986.768 L 3623.93,999.063 L 3628.32,1012.57 L 3629.8,1026.68 z " style="fill-opacity:1.000000;fill:rgb(236,176,59);stroke:rgb(0,0,0);stroke-width:2"/></g>
<g fill-rule="evenodd"><path d="M 3629.8,826.7 L 3628.32,840.817 L 3623.93,854.32 L 3616.83,866.615 L 3607.33,877.164 L 3595.85,885.509 L 3582.88,891.283 L 3568.99,894.234 L 3554.8,894.234 L 3540.91,891.283 L 3527.94,885.509 L 3516.46,877.164 L 3506.96,866.615 L 3499.86,854.32 L 3495.47,840.817 L 3493.99,826.7 L 3495.47,812.584 L 3499.86,799.081 L 3506.96,786.786 L 3516.46,776.237 L 3527.94,767.891 L 3540.91,762.118 L 3554.8,759.166 L 3568.99,759.166 L 3582.88,762.118 L 3595.85,767.891 L 3607.33,776.237 L 3616.83,786.786 L 3623.93,799.081 L 3628.32,812.584 L 3629.8,826.7 z " style="fill-opacity:1.000000;fill:rgb(251,50,175);stroke:rgb(0,0,0);stroke-width:2"/></g>
<g fill-rule="evenodd"><path d="M 5056.25,3700.47 L 5054.95,3712.91 L 5051.08,3724.8 L 5044.82,3735.64 L 5036.46,3744.93 L 5026.33,3752.29 L 5014.91,3757.37 L 5002.67,3759.98 L 4990.16,3759.98 L 4977.93,3757.37 L 4966.5,3752.29 L 4956.38,3744.93 L 4948.01,3735.64 L 4941.75,3724.8 L 4937.89,3712.91 L 4936.58,3700.47 L 4937.89,3688.03 L 4941.75,3676.13 L 4948.01,3665.3 L 4956.38,3656 L 4966.5,3648.65 L 4977.93,3643.56 L 4990.16,3640.96 L 5002.67,3640.96 L 5014.91,3643.56 L 5026.33,3648.65 L 5036.46,3656 L 5044.82,3665.3 L 5051.08,3676.13 L 5054.95,3688.03 L 5056.25,3700.47 z " style="fill-opacity:1.000000;fill:rgb(60,84,236);stroke:rgb(0,0,0);stroke-width:2"/></g>
<g fill-rule="evenodd"><path d="M 4856.27,3700.47 L 4854.96,3712.91 L 4851.1,3724.8 L 4844.84,3735.64 L 4836.47,3744.93 L 4826.35,3752.29 L 4814.92,3757.37 L 4802.69,3759.98 L 4790.18,3759.98 L 4777.94,3757.37 L 4766.52,3752.29 L 4756.4,3744.93 L 4748.03,3735.64 L 4741.77,3724.8 L 4737.91,3712.91 L 4736.6,3700.47 L 4737.91,3688.03 L 4741.77,3676.13 L 4748.03,3665.3 L 4756.4,3656 L 4766.52,3648.65 L 4777.94,3643.56 L 4790.18,3640.96 L 4802.69,3640.96 L 4814.92,3643.56 L 4826.35,3648.65 L 4836.47,3656 L 4844.84,3665.3 L 4851.1,3676.13 L 4854.96,3688.03 L 4856.27,3700.47 z " style="fill-opacity:1.000000;fill:rgb(24,219,92);stroke:rgb(0,0,0);stroke-width:2"/></g>
<g fill-rule="evenodd"><path d="M 5136.56,3760.3 L 5136.56,3640.63 L 5256.24,3640.63 L 5256.24,3760.3 L 5136.56,3760.3 z " style="fill-opacity:1.000000;fill:rgb(2,26,254);stroke:rgb(0,0,0);stroke-width:2"/></g>
<g fill-rule="evenodd"><path d="M 1507.74,775.523 L 1507.74,641.678 L 1641.59,641.678 L 1641.59,775.523 L 1507.74,775.523 z " style="fill-opacity:1.000000;fill:rgb(67,251,250);stroke:rgb(0,0,0);stroke-width:2"/></g>
<g fill-rule="evenodd"><path d="M 1774.65,775.523 L 1761.18,774.151 L 1748.26,770.099 L 1736.42,763.528 L 1726.14,754.707 L 1717.86,743.999 L 1711.89,731.843 L 1708.5,718.734 L 1707.81,705.213 L 1709.86,691.828 L 1714.57,679.129 L 1721.73,667.638 L 1731.06,657.823 L 1742.17,650.088 L 1754.62,644.748 L 1767.88,642.022 L 1774.65,641.678 L 1788.12,643.05 L 1801.04,647.102 L 1812.88,653.673 L 1823.15,662.495 L 1831.44,673.202 L 1837.4,685.359 L 1840.8,698.467 L 1841.48,711.988 L 1839.43,725.373 L 1834.73,738.072 L 1827.57,749.563 L 1818.24,759.378 L 1807.13,767.113 L 1794.68,772.453 L 1781.42,775.179 L 1774.65,775.523 z " style="fill-opacity:1.000000;fill:rgb(170,58,251);stroke:rgb(0,0,0);stroke-width:2"/></g>
<g fill-rule="evenodd"><path d="M 1974.63,775.523 L 1961.16,774.151 L 1948.24,770.099 L 1936.4,763.528 L 1926.13,754.707 L 1917.84,743.999 L 1911.88,731.843 L 1908.48,718.734 L 1907.79,705.213 L 1909.85,691.828 L 1914.55,679.129 L 1921.71,667.638 L 1931.04,657.823 L 1942.15,650.088 L 1954.6,644.748 L 1967.86,642.022 L 1974.63,641.678 L 1988.1,643.05 L 2001.02,647.102 L 2012.86,653.673 L 2023.13,662.495 L 2031.42,673.202 L 2037.39,685.359 L 2040.78,698.467 L 2041.47,711.988 L 2039.42,725.373 L 2034.71,738.072 L 2027.55,749.563 L 2018.22,759.378 L 2007.11,767.113 L 1994.66,772.453 L 1981.4,775.179 L 1974.63,775.523 z " style="fill-opacity:1.000000;fill:rgb(41,209,230);stroke:rgb(0,0,0);stroke-width:2"/></g>
<g fill-rule="evenodd"><path d="M 1507.74,1090.46 L 1507.74,956.613 L 1641.59,956.613 L 1641.59,1090.46 L 1507.74,1090.46 z " style="fill-opacity:1.000000;fill:rgb(5,60,124);stroke:rgb(0,0,0);stroke-width:2"/></g>
<g fill-rule="evenodd"><path d="M 1774.65,1090.46 L 1761.18,1089.09 L 1748.26,1085.03 L 1736.42,1078.46 L 1726.14,1069.64 L 1717.86,1058.93 L 1711.89,1046.78 L 1708.5,1033.67 L 1707.81,1020.15 L 1709.86,1006.76 L 1714.57,994.064 L 1721.73,982.573 L 1731.06,972.758 L 1742.17,965.022 L 1754.62,959.683 L 1767.88,956.957 L 1774.65,956.613 L 1788.12,957.985 L 1801.04,962.037 L 1812.88,968.608 L 1823.15,977.429 L 1831.44,988.136 L 1837.4,1000.29 L 1840.8,1013.4 L 1841.48,1026.92 L 1839.43,1040.31 L 1834.73,1053.01 L 1827.57,1064.5 L 1818.24,1074.31 L 1807.13,1082.05 L 1794.68,1087.39 L 1781.42,1090.11 L 1774.65,1090.46 z " style="fill-opacity:1.000000;fill:rgb(148,117,216);stroke:rgb(0,0,0);stroke-width:2"/></g>
<g fill-rule="evenodd"><path d="M 1974.63,1090.46 L 1961.16,1089.09 L 1948.24,1085.03 L 1936.4,1078.46 L 1926.13,1069.64 L 1917.84,1058.93 L 1911.88,1046.78 L 1908.48,1033.67 L 1907.79,1020.15 L 1909.85,1006.76 L 1914.55,994.064 L 1921.71,982.573 L 1931.04,972.758 L 1942.15,965.022 L 1954.6,959.683 L 1967.86,956.957 L 1974.63,956.613 L 1988.1,957.985 L 2001.02,962.037 L 2012.86,968.608 L 2023.13,977.429 L 2031.42,988.136 L 2037.39,1000.29 L 2040.78,1013.4 L 2041.47,1026.92 L 2039.42,1040.31 L 2034.71,1053.01 L 2027.55,1064.5 L 2018.22,1074.31 L 2007.11,1082.05 L 1994.66,1087.39 L 1981.4,1090.11 L 1974.63,1090.46 z " style="fill-opacity:1.000000;fill:rgb(190,97,137);stroke:rgb(0,0,0);stroke-width:2"/></g>
<g fill-rule="evenodd"><path d="M 5523.14,5499.52 L 5523.14,5365.68 L 5656.99,5365.68 L 5656.99,5499.52 L 5523.14,5499.52 z " style="fill-opacity:1.000000;fill:rgb(249,92,187);stroke:rgb(0,0,0);stroke-width:2"/></g>
<g fill-rule="evenodd"><path d="M 5390.08,5499.52 L 5376.61,5498.15 L 5363.69,5494.1 L 5351.85,5487.53 L 5341.58,5478.71 L 5333.29,5468 L 5327.33,5455.84 L 5323.93,5442.73 L 5323.25,5429.21 L 5325.3,5415.83 L 5330,5403.13 L 5337.16,5391.64 L 5346.49,5381.82 L 5357.61,5374.09 L 5370.05,5368.75 L 5383.31,5366.02 L 5390.08,5365.68 L 5403.55,5367.05 L 5416.47,5371.1 L 5428.31,5377.67 L 5438.59,5386.49 L 5446.88,5397.2 L 5452.84,5409.36 L 5456.23,5422.47 L 5456.92,5435.99 L 5454.87,5449.37 L 5450.17,5462.07 L 5443,5473.56 L 5433.67,5483.38 L 5422.56,5491.11 L 5410.11,5496.45 L 5396.85,5499.18 L 5390.08,5499.52 z " style="fill-opacity:1.000000;fill:rgb(168,153,15);stroke:rgb(0,0,0);stroke-width:2"/></g>
<g fill-rule="evenodd"><path d="M 5190.1,5499.52 L 5176.63,5498.15 L 5163.71,5494.1 L 5151.87,5487.53 L 5141.6,5478.71 L 5133.31,5468 L 5127.35,5455.84 L 5123.95,5442.73 L 5123.26,5429.21 L 5125.32,5415.83 L 5130.02,5403.13 L 5137.18,5391.64 L 5146.51,5381.82 L 5157.62,5374.09 L 5170.07,5368.75 L 5183.33,5366.02 L 5190.1,5365.68 L 5203.57,5367.05 L 5216.49,5371.1 L 5228.33,5377.67 L 5238.6,5386.49 L 5246.89,5397.2 L 5252.85,5409.36 L 5256.25,5422.47 L 5256.94,5435.99 L 5254.88,5449.37 L 5250.18,5462.07 L 5243.02,5473.56 L 5233.69,5483.38 L 5222.58,5491.11 L 5210.13,5496.45 L 5196.87,5499.18 L 5190.1,5499.52 z " style="fill-opacity:1.000000;fill:rgb(149,177,235);stroke:rgb(0,0,0);stroke-width:2"/></g>
<g fill-rule="evenodd"><path d="M 4381.51,5499.52 L 4381.51,5365.68 L 4515.35,5365.68 L 4515.35,5499.52 L 4381.51,5499.52 z " style="fill-opacity:1.000000;fill:rgb(241,179,5);stroke:rgb(0,0,0);stroke-width:2"/></g>
<g fill-rule="evenodd"><path d="M 4648.41,5499.52 L 4634.94,5498.15 L 4622.03,5494.1 L 4610.19,5487.53 L 4599.91,5478.71 L 4591.62,5468 L 4585.66,5455.84 L 4582.26,5442.73 L 4581.58,5429.21 L 4583.63,5415.83 L 4588.33,5403.13 L 4595.5,5391.64 L 4604.82,5381.82 L 4615.94,5374.09 L 4628.38,5368.75 L 4641.65,5366.02 L 4648.41,5365.68 L 4661.89,5367.05 L 4674.8,5371.1 L 4686.64,5377.67 L 4696.92,5386.49 L 4705.21,5397.2 L 4711.17,5409.36 L 4714.57,5422.47 L 4715.25,5435.99 L 4713.2,5449.37 L 4708.5,5462.07 L 4701.33,5473.56 L 4692.01,5483.38 L 4680.89,5491.11 L 4668.45,5496.45 L 4655.18,5499.18 L 4648.41,5499.52 z " style="fill-opacity:1.000000;fill:rgb(239,247,0);stroke:rgb(0,0,0);stroke-width:2"/></g>
<g fill-rule="evenodd"><path d="M 4848.4,5499.52 L 4834.93,5498.15 L 4822.01,5494.1 L 4810.17,5487.53 L 4799.89,5478.71 L 4791.6,5468 L 4785.64,5455.84 L 4782.25,5442.73 L 4781.56,5429.21 L 4783.61,5415.83 L 4788.31,5403.13 L 4795.48,5391.64 L 4804.81,5381.82 L 4815.92,5374.09 L 4828.37,5368.75 L 4841.63,5366.02 L 4848.4,5365.68 L 4861.87,5367.05 L 4874.79,5371.1 L 4886.63,5377.67 L 4896.9,5386.49 L 4905.19,5397.2 L 4911.15,5409.36 L 4914.55,5422.47 L 4915.23,5435.99 L 4913.18,5449.37 L 4908.48,5462.07 L 4901.32,5473.56 L 4891.99,5483.38 L 4880.87,5491.11 L 4868.43,5496.45 L 4855.17,5499.18 L 4848.4,5499.52 z " style="fill-opacity:1.000000;fill:rgb(233,161,58);stroke:rgb(0,0,0);stroke-width:2"/></g>
<g fill-rule="evenodd"><path d="M 1232.18,2980.06 L 1232.18,2846.21 L 1366.02,2846.21 L 1366.02,2980.06 L 1232.18,2980.06 z " style="fill-opacity:1.000000;fill:rgb(229,202,11);stroke:rgb(0,0,0);stroke-width:2"/></g>
<g fill-rule="evenodd"><path d="M 1299.1,2780.07 L 1285.63,2778.7 L 1272.71,2774.65 L 1260.87,2768.08 L 1250.6,2759.26 L 1242.31,2748.55 L 1236.34,2736.39 L 1232.95,2723.28 L 1232.26,2709.76 L 1234.31,2696.38 L 1239.02,2683.68 L 1246.18,2672.19 L 1255.51,2662.37 L 1266.62,2654.64 L 1279.07,2649.3 L 1292.33,2646.57 L 1299.1,2646.23 L 1312.57,2647.6 L 1325.49,2651.65 L 1337.33,2658.22 L 1347.6,2667.04 L 1355.89,2677.75 L 1361.85,2689.91 L 1365.25,2703.02 L 1365.94,2716.54 L 1363.88,2729.92 L 1359.18,2742.62 L 1352.02,2754.11 L 1342.69,2763.93 L 1331.58,2771.66 L 1319.13,2777 L 1305.87,2779.73 L 1299.1,2780.07 z " style="fill-opacity:1.000000;fill:rgb(203,208,72);stroke:rgb(0,0,0);stroke-width:2"/></g>
<g fill-rule="evenodd"><path d="M 1299.1,2580.09 L 1285.63,2578.72 L 1272.71,2574.67 L 1260.87,2568.1 L 1250.6,2559.27 L 1242.31,2548.57 L 1236.34,2536.41 L 1232.95,2523.3 L 1232.26,2509.78 L 1234.31,2496.4 L 1239.02,2483.7 L 1246.18,2472.21 L 1255.51,2462.39 L 1266.62,2454.66 L 1279.07,2449.32 L 1292.33,2446.59 L 1299.1,2446.25 L 1312.57,2447.62 L 1325.49,2451.67 L 1337.33,2458.24 L 1347.6,2467.06 L 1355.89,2477.77 L 1361.85,2489.93 L 1365.25,2503.03 L 1365.94,2516.56 L 1363.88,2529.94 L 1359.18,2542.64 L 1352.02,2554.13 L 1342.69,2563.95 L 1331.58,2571.68 L 1319.13,2577.02 L 1305.87,2579.75 L 1299.1,2580.09 z " style="fill-opacity:1.000000;fill:rgb(71,100,189);stroke:rgb(0,0,0);stroke-width:2"/></g>
<g fill-rule="evenodd"><path d="M 1299.1,2380.11 L 1285.63,2378.74 L 1272.71,2374.68 L 1260.87,2368.11 L 1250.6,2359.29 L 1242.31,2348.58 L 1236.34,2336.43 L 1232.95,2323.32 L 1232.26,2309.8 L 1234.31,2296.41 L 1239.02,2283.71 L 1246.18,2272.22 L 1255.51,2262.41 L 1266.62,2254.67 L 1279.07,2249.33 L 1292.33,2246.61 L 1299.1,2246.26 L 1312.57,2247.64 L 1325.49,2251.69 L 1337.33,2258.26 L 1347.6,2267.08 L 1355.89,2277.79 L 1361.85,2289.94 L 1365.25,2303.05 L 1365.94,2316.57 L 1363.88,2329.96 L 1359.18,2342.66 L 1352.02,2354.15 L 1342.69,2363.96 L 1331.58,2371.7 L 1319.13,2377.04 L 1305.87,2379.76 L 1299.1,2380.11 z " style="fill-opacity:1.000000;fill:rgb(31,35,30);stroke:rgb(0,0,0);stroke-width:2"/></g>
<g fill-rule="evenodd"><path d="M 1299.1,2180.12 L 1285.63,2178.75 L 1272.71,2174.7 L 1260.87,2168.13 L 1250.6,2159.31 L 1242.31,2148.6 L 1236.34,2136.44 L 1232.95,2123.34 L 1232.26,2109.82 L 1234.31,2096.43 L 1239.02,2083.73 L 1246.18,2072.24 L 1255.51,2062.43 L 1266.62,2054.69 L 1279.07,2049.35 L 1292.33,2046.62 L 1299.1,2046.28 L 1312.57,2047.65 L 1325.49,2051.7 L 1337.33,2058.28 L 1347.6,2067.1 L 1355.89,2077.8 L 1361.85,2089.96 L 1365.25,2103.07 L 1365.94,2116.59 L 1363.88,2129.98 L 1359.18,2142.67 L 1352.02,2154.17 L 1342.69,2163.98 L 1331.58,2171.72 L 1319.13,2177.06 L 1305.87,2179.78 L 1299.1,2180.12 z " style="fill-opacity:1.000000;fill:rgb(168,28,123);stroke:rgb(0,0,0);stroke-width:2"/></g>
<g fill-rule="evenodd"><path d="M 1299.1,1980.14 L 1285.63,1978.77 L 1272.71,1974.72 L 1260.87,1968.15 L 1250.6,1959.33 L 1242.31,1948.62 L 1236.34,1936.46 L 1232.95,1923.35 L 1232.26,1909.83 L 1234.31,1896.45 L 1239.02,1883.75 L 1246.18,1872.26 L 1255.51,1862.44 L 1266.62,1854.71 L 1279.07,1849.37 L 1292.33,1846.64 L 1299.1,1846.3 L 1312.57,1847.67 L 1325.49,1851.72 L 1337.33,1858.29 L 1347.6,1867.11 L 1355.89,1877.82 L 1361.85,1889.98 L 1365.25,1903.09 L 1365.94,1916.61 L 1363.88,1929.99 L 1359.18,1942.69 L 1352.02,1954.18 L 1342.69,1964 L 1331.58,1971.73 L 1319.13,1977.07 L 1305.87,1979.8 L 1299.1,1980.14 z " style="fill-opacity:1.000000;fill:rgb(100,197,20);stroke:rgb(0,0,0);stroke-width:2"/></g>
<g fill-rule="evenodd"><path d="M 1299.1,1780.16 L 1285.63,1778.79 L 1272.71,1774.74 L 1260.87,1768.16 L 1250.6,1759.34 L 1242.31,1748.64 L 1236.34,1736.48 L 1232.95,1723.37 L 1232.26,1709.85 L 1234.31,1696.46 L 1239.02,1683.77 L 1246.18,1672.28 L 1255.51,1662.46 L 1266.62,1654.72 L 1279.07,1649.38 L 1292.33,1646.66 L 1299.1,1646.32 L 1312.57,1647.69 L 1325.49,1651.74 L 1337.33,1658.31 L 1347.6,1667.13 L 1355.89,1677.84 L 1361.85,1690 L 1365.25,1703.1 L 1365.94,1716.63 L 1363.88,1730.01 L 1359.18,1742.71 L 1352.02,1754.2 L 1342.69,1764.02 L 1331.58,1771.75 L 1319.13,1777.09 L 1305.87,1779.82 L 1299.1,1780.16 z " style="fill-opacity:1.000000;fill:rgb(115,90,197);stroke:rgb(0,0,0);stroke-width:2"/></g>
<g fill-rule="evenodd"><path d="M 1299.1,1580.18 L 1285.63,1578.81 L 1272.71,1574.75 L 1260.87,1568.18 L 1250.6,1559.36 L 1242.31,1548.65 L 1236.34,1536.5 L 1232.95,1523.39 L 1232.26,1509.87 L 1234.31,1496.48 L 1239.02,1483.78 L 1246.18,1472.29 L 1255.51,1462.48 L 1266.62,1454.74 L 1279.07,1449.4 L 1292.33,1446.68 L 1299.1,1446.33 L 1312.57,1447.7 L 1325.49,1451.76 L 1337.33,1458.33 L 1347.6,1467.15 L 1355.89,1477.86 L 1361.85,1490.01 L 1365.25,1503.12 L 1365.94,1516.64 L 1363.88,1530.03 L 1359.18,1542.73 L 1352.02,1554.22 L 1342.69,1564.03 L 1331.58,1571.77 L 1319.13,1577.11 L 1305.87,1579.83 L 1299.1,1580.18 z " style="fill-opacity:1.000000;fill:rgb(94,75,121);stroke:rgb(0,0,0);stroke-width:2"/></g>
<g fill-rule="evenodd"><path d="M 1783.31,2980.06 L 1783.31,2846.21 L 1917.16,2846.21 L 1917.16,2980.06 L 1783.31,2980.06 z " style="fill-opacity:1.000000;fill:rgb(99,59,112);stroke:rgb(0,0,0);stroke-width:2"/></g>
<g fill-rule="evenodd"><path d="M 1850.23,2780.07 L 1836.76,2778.7 L 1823.84,2774.65 L 1812,2768.08 L 1801.73,2759.26 L 1793.44,2748.55 L 1787.48,2736.39 L 1784.08,2723.28 L 1783.4,2709.76 L 1785.45,2696.38 L 1790.15,2683.68 L 1797.31,2672.19 L 1806.64,2662.37 L 1817.76,2654.64 L 1830.2,2649.3 L 1843.46,2646.57 L 1850.23,2646.23 L 1863.7,2647.6 L 1876.62,2651.65 L 1888.46,2658.22 L 1898.74,2667.04 L 1907.03,2677.75 L 1912.99,2689.91 L 1916.38,2703.02 L 1917.07,2716.54 L 1915.02,2729.92 L 1910.32,2742.62 L 1903.15,2754.11 L 1893.82,2763.93 L 1882.71,2771.66 L 1870.27,2777 L 1857,2779.73 L 1850.23,2780.07 z " style="fill-opacity:1.000000;fill:rgb(100,36,17);stroke:rgb(0,0,0);stroke-width:2"/></g>
<g fill-rule="evenodd"><path d="M 1850.23,2580.09 L 1836.76,2578.72 L 1823.84,2574.67 L 1812,2568.1 L 1801.73,2559.27 L 1793.44,2548.57 L 1787.48,2536.41 L 1784.08,2523.3 L 1783.4,2509.78 L 1785.45,2496.4 L 1790.15,2483.7 L 1797.31,2472.21 L 1806.64,2462.39 L 1817.76,2454.66 L 1830.2,2449.32 L 1843.46,2446.59 L 1850.23,2446.25 L 1863.7,2447.62 L 1876.62,2451.67 L 1888.46,2458.24 L 1898.74,2467.06 L 1907.03,2477.77 L 1912.99,2489.93 L 1916.38,2503.03 L 1917.07,2516.56 L 1915.02,2529.94 L 1910.32,2542.64 L 1903.15,2554.13 L 1893.82,2563.95 L 1882.71,2571.68 L 1870.27,2577.02 L 1857,2579.75 L 1850.23,2580.09 z " style="fill-opacity:1.000000;fill:rgb(158,9,220);stroke:rgb(0,0,0);stroke-width:2"/></g>
<g fill-rule="evenodd"><path d="M 1850.23,2380.11 L 1836.76,2378.74 L 1823.84,2374.68 L 1812,2368.11 L 1801.73,2359.29 L 1793.44,2348.58 L 1787.48,2336.43 L 1784.08,2323.32 L 1783.4,2309.8 L 1785.45,2296.41 L 1790.15,2283.71 L 1797.31,2272.22 L 1806.64,2262.41 L 1817.76,2254.67 L 1830.2,2249.33 L 1843.46,2246.61 L 1850.23,2246.26 L 1863.7,2247.64 L 1876.62,2251.69 L 1888.46,2258.26 L 1898.74,2267.08 L 1907.03,2277.79 L 1912.99,2289.94 L 1916.38,2303.05 L 1917.07,2316.57 L 1915.02,2329.96 L 1910.32,2342.66 L 1903.15,2354.15 L 1893.82,2363.96 L 1882.71,2371.7 L 1870.27,2377.04 L 1857,2379.76 L 1850.23,2380.11 z " style="fill-opacity:1.000000;fill:rgb(170,212,172);stroke:rgb(0,0,0);stroke-width:2"/></g>
<g fill-rule="evenodd"><path d="M 1850.23,2180.12 L 1836.76,2178.75 L 1823.84,2174.7 L 1812,2168.13 L 1801.73,2159.31 L 1793.44,2148.6 L 1787.48,2136.44 L 1784.08,2123.34 L 1783.4,2109.82 L 1785.45,2096.43 L 1790.15,2083.73 L 1797.31,2072.24 L 1806.64,2062.43 L 1817.76,2054.69 L 1830.2,2049.35 L 1843.46,2046.62 L 1850.23,2046.28 L 1863.7,2047.65 L 1876.62,2051.7 L 1888.46,2058.28 L 1898.74,2067.1 L 1907.03,2077.8 L 1912.99,2089.96 L 1916.38,2103.07 L 1917.07,2116.59 L 1915.02,2129.98 L 1910.32,2142.67 L 1903.15,2154.17 L 1893.82,2163.98 L 1882.71,2171.72 L 1870.27,2177.06 L 1857,2179.78 L 1850.23,2180.12 z " style="fill-opacity:1.000000;fill:rgb(242,27,16);stroke:rgb(0,0,0);stroke-width:2"/></g>
<g fill-rule="evenodd"><path d="M 1850.23,1980.14 L 1836.76,1978.77 L 1823.84,1974.72 L 1812,1968.15 L 1801.73,1959.33 L 1793.44,1948.62 L 1787.48,1936.46 L 1784.08,1923.35 L 1783.4,1909.83 L 1785.45,1896.45 L 1790.15,1883.75 L 1797.31,1872.26 L 1806.64,1862.44 L 1817.76,1854.71 L 1830.2,1849.37 L 1843.46,1846.64 L 1850.23,1846.3 L 1863.7,1847.67 L 1876.62,1851.72 L 1888.46,1858.29 L 1898.74,1867.11 L 1907.03,1877.82 L 1912.99,1889.98 L 1916.38,1903.09 L 1917.07,1916.61 L 1915.02,1929.99 L 1910.32,1942.69 L 1903.15,1954.18 L 1893.82,1964 L 1882.71,1971.73 L 1870.27,1977.07 L 1857,1979.8 L 1850.23,1980.14 z " style="fill-opacity:1.000000;fill:rgb(175,59,51);stroke:rgb(0,0,0);stroke-width:2"/></g>
<g fill-rule="evenodd"><path d="M 4972.01,4515.36 L 4972.01,4381.51 L 5105.86,4381.51 L 5105.86,4515.36 L 4972.01,4515.36 z " style="fill-opacity:1.000000;fill:rgb(205,227,80);stroke:rgb(0,0,0);stroke-width:2"/></g>
<g fill-rule="evenodd"><path d="M 5038.93,4315.37 L 5025.46,4314 L 5012.54,4309.95 L 5000.7,4303.38 L 4990.43,4294.56 L 4982.14,4283.85 L 4976.18,4271.69 L 4972.78,4258.58 L 4972.1,4245.06 L 4974.15,4231.68 L 4978.85,4218.98 L 4986.01,4207.49 L 4995.34,4197.67 L 5006.46,4189.94 L 5018.9,4184.6 L 5032.16,4181.87 L 5038.93,4181.53 L 5052.4,4182.9 L 5065.32,4186.95 L 5077.16,4193.52 L 5087.44,4202.35 L 5095.73,4213.05 L 5101.69,4225.21 L 5105.08,4238.32 L 5105.77,4251.84 L 5103.72,4265.22 L 5099.02,4277.92 L 5091.85,4289.41 L 5082.52,4299.23 L 5071.41,4306.96 L 5058.97,4312.3 L 5045.7,4315.03 L 5038.93,4315.37 z " style="fill-opacity:1.000000;fill:rgb(72,71,21);stroke:rgb(0,0,0);stroke-width:2"/></g>
<g fill-rule="evenodd"><path d="M 5048.78,1682.92 L 5048.78,1545.14 L 5186.56,1545.14 L 5186.56,1682.92 L 5048.78,1682.92 z " style="fill-opacity:1.000000;fill:rgb(92,187,111);stroke:rgb(0,0,0);stroke-width:2"/></g>
<g fill-rule="evenodd"><path d="M 5186.56,1417.2 L 5185.05,1431.52 L 5180.6,1445.22 L 5173.4,1457.69 L 5163.76,1468.4 L 5152.11,1476.86 L 5138.95,1482.72 L 5124.87,1485.71 L 5110.47,1485.71 L 5096.38,1482.72 L 5083.22,1476.86 L 5071.57,1468.4 L 5061.93,1457.69 L 5054.73,1445.22 L 5050.28,1431.52 L 5048.78,1417.2 L 5050.28,1402.88 L 5054.73,1389.18 L 5061.93,1376.71 L 5071.57,1366.01 L 5083.22,1357.54 L 5096.38,1351.68 L 5110.47,1348.69 L 5124.87,1348.69 L 5138.95,1351.68 L 5152.11,1357.54 L 5163.76,1366.01 L 5173.4,1376.71 L 5180.6,1389.18 L 5185.05,1402.88 L 5186.56,1417.2 z " style="fill-opacity:1.000000;fill:rgb(34,25,186);stroke:rgb(0,0,0);stroke-width:2"/></g>
<g fill-rule="evenodd"><path d="M 5186.56,1220.37 L 5185.05,1234.69 L 5180.6,1248.39 L 5173.4,1260.86 L 5163.76,1271.56 L 5152.11,1280.03 L 5138.95,1285.89 L 5124.87,1288.88 L 5110.47,1288.88 L 5096.38,1285.89 L 5083.22,1280.03 L 5071.57,1271.56 L 5061.93,1260.86 L 5054.73,1248.39 L 5050.28,1234.69 L 5048.78,1220.37 L 5050.28,1206.05 L 5054.73,1192.35 L 5061.93,1179.88 L 5071.57,1169.17 L 5083.22,1160.71 L 5096.38,1154.85 L 5110.47,1151.86 L 5124.87,1151.86 L 5138.95,1154.85 L 5152.11,1160.71 L 5163.76,1169.17 L 5173.4,1179.88 L 5180.6,1192.35 L 5185.05,1206.05 L 5186.56,1220.37 z " style="fill-opacity:1.000000;fill:rgb(155,125,245);stroke:rgb(0,0,0);stroke-width:2"/></g>
<g fill-rule="evenodd"><path d="M 5186.56,1023.54 L 5185.05,1037.86 L 5180.6,1051.55 L 5173.4,1064.03 L 5163.76,1074.73 L 5152.11,1083.2 L 5138.95,1089.05 L 5124.87,1092.05 L 5110.47,1092.05 L 5096.38,1089.05 L 5083.22,1083.2 L 5071.57,1074.73 L 5061.93,1064.03 L 5054.73,1051.55 L 5050.28,1037.86 L 5048.78,1023.54 L 5050.28,1009.21 L 5054.73,995.516 L 5061.93,983.043 L 5071.57,972.34 L 5083.22,963.874 L 5096.38,958.017 L 5110.47,955.023 L 5124.87,955.023 L 5138.95,958.017 L 5152.11,963.874 L 5163.76,972.34 L 5173.4,983.043 L 5180.6,995.516 L 5185.05,1009.21 L 5186.56,1023.54 z " style="fill-opacity:1.000000;fill:rgb(11,225,26);stroke:rgb(0,0,0);stroke-width:2"/></g>
<g fill-rule="evenodd"><path d="M 2058.88,4712.19 L 2058.88,4578.35 L 2192.72,4578.35 L 2192.72,4712.19 L 2058.88,4712.19 z " style="fill-opacity:1.000000;fill:rgb(28,127,35);stroke:rgb(0,0,0);stroke-width:2"/></g>
<g fill-rule="evenodd"><path d="M 2325.78,4712.19 L 2312.31,4710.82 L 2299.39,4706.77 L 2287.55,4700.19 L 2277.28,4691.37 L 2268.99,4680.67 L 2263.03,4668.51 L 2259.63,4655.4 L 2258.95,4641.88 L 2261,4628.49 L 2265.7,4615.8 L 2272.86,4604.3 L 2282.19,4594.49 L 2293.31,4586.75 L 2305.75,4581.41 L 2319.01,4578.69 L 2325.78,4578.35 L 2339.25,4579.72 L 2352.17,4583.77 L 2364.01,4590.34 L 2374.29,4599.16 L 2382.58,4609.87 L 2388.54,4622.03 L 2391.93,4635.13 L 2392.62,4648.65 L 2390.57,4662.04 L 2385.87,4674.74 L 2378.7,4686.23 L 2369.37,4696.04 L 2358.26,4703.78 L 2345.81,4709.12 L 2332.55,4711.85 L 2325.78,4712.19 z " style="fill-opacity:1.000000;fill:rgb(248,41,248);stroke:rgb(0,0,0);stroke-width:2"/></g>
<g fill-rule="evenodd"><path d="M 2525.77,4712.19 L 2512.29,4710.82 L 2499.38,4706.77 L 2487.54,4700.19 L 2477.26,4691.37 L 2468.97,4680.67 L 2463.01,4668.51 L 2459.61,4655.4 L 2458.93,4641.88 L 2460.98,4628.49 L 2465.68,4615.8 L 2472.85,4604.3 L 2482.17,4594.49 L 2493.29,4586.75 L 2505.73,4581.41 L 2519,4578.69 L 2525.77,4578.35 L 2539.24,4579.72 L 2552.15,4583.77 L 2563.99,4590.34 L 2574.27,4599.16 L 2582.56,4609.87 L 2588.52,4622.03 L 2591.92,4635.13 L 2592.6,4648.65 L 2590.55,4662.04 L 2585.85,4674.74 L 2578.68,4686.23 L 2569.36,4696.04 L 2558.24,4703.78 L 2545.8,4709.12 L 2532.53,4711.85 L 2525.77,4712.19 z " style="fill-opacity:1.000000;fill:rgb(164,27,19);stroke:rgb(0,0,0);stroke-width:2"/></g>
<g fill-rule="evenodd"><path d="M 2725.75,4712.19 L 2712.28,4710.82 L 2699.36,4706.77 L 2687.52,4700.19 L 2677.24,4691.37 L 2668.95,4680.67 L 2662.99,4668.51 L 2659.6,4655.4 L 2658.91,4641.88 L 2660.96,4628.49 L 2665.66,4615.8 L 2672.83,4604.3 L 2682.16,4594.49 L 2693.27,4586.75 L 2705.72,4581.41 L 2718.98,4578.69 L 2725.75,4578.35 L 2739.22,4579.72 L 2752.14,4583.77 L 2763.98,4590.34 L 2774.25,4599.16 L 2782.54,4609.87 L 2788.5,4622.03 L 2791.9,4635.13 L 2792.58,4648.65 L 2790.53,4662.04 L 2785.83,4674.74 L 2778.67,4686.23 L 2769.34,4696.04 L 2758.22,4703.78 L 2745.78,4709.12 L 2732.52,4711.85 L 2725.75,4712.19 z " style="fill-opacity:1.000000;fill:rgb(181,202,78);stroke:rgb(0,0,0);stroke-width:2"/></g>
<g fill-rule="evenodd"><path d="M 2925.73,4712.19 L 2912.26,4710.82 L 2899.34,4706.77 L 2887.5,4700.19 L 2877.23,4691.37 L 2868.94,4680.67 L 2862.98,4668.51 L 2859.58,4655.4 L 2858.89,4641.88 L 2860.95,4628.49 L 2865.65,4615.8 L 2872.81,4604.3 L 2882.14,4594.49 L 2893.25,4586.75 L 2905.7,4581.41 L 2918.96,4578.69 L 2925.73,4578.35 L 2939.2,4579.72 L 2952.12,4583.77 L 2963.96,4590.34 L 2974.23,4599.16 L 2982.52,4609.87 L 2988.48,4622.03 L 2991.88,4635.13 L 2992.57,4648.65 L 2990.51,4662.04 L 2985.81,4674.74 L 2978.65,4686.23 L 2969.32,4696.04 L 2958.21,4703.78 L 2945.76,4709.12 L 2932.5,4711.85 L 2925.73,4712.19 z " style="fill-opacity:1.000000;fill:rgb(232,152,50);stroke:rgb(0,0,0);stroke-width:2"/></g>
<g fill-rule="evenodd"><path d="M 3125.71,4712.19 L 3112.24,4710.82 L 3099.32,4706.77 L 3087.48,4700.19 L 3077.21,4691.37 L 3068.92,4680.67 L 3062.96,4668.51 L 3059.56,4655.4 L 3058.88,4641.88 L 3060.93,4628.49 L 3065.63,4615.8 L 3072.79,4604.3 L 3082.12,4594.49 L 3093.24,4586.75 L 3105.68,4581.41 L 3118.94,4578.69 L 3125.71,4578.35 L 3139.18,4579.72 L 3152.1,4583.77 L 3163.94,4590.34 L 3174.22,4599.16 L 3182.51,4609.87 L 3188.47,4622.03 L 3191.86,4635.13 L 3192.55,4648.65 L 3190.5,4662.04 L 3185.8,4674.74 L 3178.63,4686.23 L 3169.3,4696.04 L 3158.19,4703.78 L 3145.75,4709.12 L 3132.48,4711.85 L 3125.71,4712.19 z " style="fill-opacity:1.000000;fill:rgb(56,224,121);stroke:rgb(0,0,0);stroke-width:2"/></g>
<g fill-rule="evenodd"><path d="M 3325.7,4712.19 L 3312.22,4710.82 L 3299.31,4706.77 L 3287.47,4700.19 L 3277.19,4691.37 L 3268.9,4680.67 L 3262.94,4668.51 L 3259.55,4655.4 L 3258.86,4641.88 L 3260.91,4628.49 L 3265.61,4615.8 L 3272.78,4604.3 L 3282.11,4594.49 L 3293.22,4586.75 L 3305.66,4581.41 L 3318.93,4578.69 L 3325.7,4578.35 L 3339.17,4579.72 L 3352.09,4583.77 L 3363.92,4590.34 L 3374.2,4599.16 L 3382.49,4609.87 L 3388.45,4622.03 L 3391.85,4635.13 L 3392.53,4648.65 L 3390.48,4662.04 L 3385.78,4674.74 L 3378.62,4686.23 L 3369.29,4696.04 L 3358.17,4703.78 L 3345.73,4709.12 L 3332.47,4711.85 L 3325.7,4712.19 z " style="fill-opacity:1.000000;fill:rgb(77,61,52);stroke:rgb(0,0,0);stroke-width:2"/></g>
<g fill-rule="evenodd"><path d="M 3525.68,4712.19 L 3512.21,4710.82 L 3499.29,4706.77 L 3487.45,4700.19 L 3477.17,4691.37 L 3468.89,4680.67 L 3462.92,4668.51 L 3459.53,4655.4 L 3458.84,4641.88 L 3460.89,4628.49 L 3465.6,4615.8 L 3472.76,4604.3 L 3482.09,4594.49 L 3493.2,4586.75 L 3505.65,4581.41 L 3518.91,4578.69 L 3525.68,4578.35 L 3539.15,4579.72 L 3552.07,4583.77 L 3563.91,4590.34 L 3574.18,4599.16 L 3582.47,4609.87 L 3588.43,4622.03 L 3591.83,4635.13 L 3592.51,4648.65 L 3590.46,4662.04 L 3585.76,4674.74 L 3578.6,4686.23 L 3569.27,4696.04 L 3558.16,4703.78 L 3545.71,4709.12 L 3532.45,4711.85 L 3525.68,4712.19 z " style="fill-opacity:1.000000;fill:rgb(188,95,78);stroke:rgb(0,0,0);stroke-width:2"/></g>
</svg>
