<?xml version="1.0" standalone="no"?>
<!DOCTYPE svg PUBLIC "-//W3C//DTD SVG 1.1//EN"
"http://www.w3.org/Graphics/SVG/1.1/DTD/svg11.dtd">
<svg width="6062" height="6062" viewBox="0 0 6062 6062" version="1.1"
xmlns="http://www.w3.org/2000/svg"
xmlns:xlink="http://www.w3.org/1999/xlink">
<g fill-rule="evenodd"><path d="M 9.09495e-13,78.7291 L 1.51175,63.3696 L 5.99102,48.6 L 13.2678,34.9903 L 23.0582,23.0602 L 34.9883,13.2698 L 48.598,5.99302 L 63.3676,1.51375 L 78.7271,0.00199967 L 5983.27,0.00199967 L 5998.63,1.51375 L 6013.4,5.99302 L 6027.01,13.2698 L 6038.94,23.0602 L 6048.73,34.9903 L 6056.01,48.6 L 6060.49,63.3696 L 6062,78.7291 L 6062,5983.27 L 6060.49,5998.63 L 6056.01,6013.4 L 6048.73,6027.01 L 6038.94,6038.94 L 6027.01,6048.73 L 6013.4,6056.01 L 5998.63,6060.49 L 5983.27,6062 L 78.7271,6062 L 63.3676,6060.49 L 48.598,6056.01 L 34.9883,6048.73 L 23.0582,6038.94 L 13.2678,6027.01 L 5.99102,6013.4 L 1.51175,5998.63 L 9.09495e-13,5983.27 L 9.09495e-13,78.7291 z " style="fill-opacity:1.000000;fill:rgb(103,198,105);stroke:rgb(0,0,0);stroke-width:2"/></g>
</svg>
