<?xml version="1.0" standalone="no"?>
<!DOCTYPE svg PUBLIC "-//W3C//DTD SVG 1.1//EN"
"http://www.w3.org/Graphics/SVG/1.1/DTD/svg11.dtd">
<svg width="5783" height="5783" viewBox="0 0 5783 5783" version="1.1"
xmlns="http://www.w3.org/2000/svg"
xmlns:xlink="http://www.w3.org/1999/xlink">
<g fill-rule="evenodd"><path d="M 0.000999919,10.0002 L 0.760939,6.1725 L 1.68486,4.44464 L 4.44464,1.68486 L 8.04835,0.192984 L 5773,0.000999919 L 5776.83,0.760939 L 5780.07,2.92876 L 5782.24,6.1725 L 5783,10.0002 L 5783,5773 L 5782.51,5776.09 L 5781.66,5778 L 5780.43,5779.69 L 5778.88,5781.09 L 5777.07,5782.14 L 5775.08,5782.78 L 5773,5783 L 10.0002,5783 L 6.1725,5782.24 L 2.92876,5780.07 L 0.760939,5776.83 L 0.000999919,5773 L 0.000999919,686.954 L 0.000999919,10.0002M 4320.52,5400.98 L 4277.59,5400.98 L 4263.28,5415.29 L 4263.28,5449.93 L 4271.99,5470.96 L 4288.1,5487.06 L 4309.13,5495.78 L 4343.77,5495.78 L 4358.08,5481.47 L 4358.08,5438.54 L 4320.52,5438.54 L 4320.52,5400.98M 4320.52,5342.25 L 4320.52,5304.69 L 4358.08,5304.69 L 4358.08,5261.76 L 4343.77,5247.45 L 4309.13,5247.45 L 4288.1,5256.17 L 4271.99,5272.27 L 4263.28,5293.31 L 4263.28,5327.94 L 4277.59,5342.25 L 4320.52,5342.25M 5558.45,5438.54 L 5558.45,5481.47 L 5572.76,5495.78 L 5607.39,5495.78 L 5628.43,5487.06 L 5644.53,5470.96 L 5653.25,5449.93 L 5653.25,5415.29 L 5638.94,5400.98 L 5596.01,5400.98 L 5596.01,5438.54 L 5558.45,5438.54M 5164.78,3699.31 L 5164.78,3742.24 L 5179.09,3756.55 L 5206.64,3756.55 L 5227.68,3747.83 L 5243.78,3731.73 L 5252.49,3710.7 L 5252.49,3683.15 L 5238.18,3668.84 L 5195.25,3668.84 L 5195.25,3699.31 L 5164.78,3699.31M 1997.87,4623.64 L 1959.08,4623.64 L 1950.63,4632.1 L 1950.63,4660.6 L 1957.82,4677.96 L 1971.11,4691.25 L 1988.48,4698.44 L 2016.97,4698.44 L 2025.43,4689.99 L 2025.43,4651.2 L 1997.87,4651.2 L 1997.87,4623.64M 1997.87,4544.91 L 1997.87,4517.35 L 2025.43,4517.35 L 2025.43,4478.57 L 2016.98,4470.11 L 1988.47,4470.11 L 1971.11,4477.3 L 1957.83,4490.59 L 1950.63,4507.95 L 1950.63,4536.46 L 1959.08,4544.91 L 1997.87,4544.91M 1446.74,1001.89 L 1407.95,1001.89 L 1399.5,1010.34 L 1399.5,1038.84 L 1406.69,1056.2 L 1419.97,1069.49 L 1437.34,1076.69 L 1465.84,1076.69 L 1474.29,1068.23 L 1474.29,1029.45 L 1446.74,1029.45 L 1446.74,1001.89M 1446.74,923.157 L 1446.74,895.601 L 1474.29,895.601 L 1474.29,856.812 L 1465.84,848.359 L 1437.34,848.359 L 1419.98,855.548 L 1406.69,868.837 L 1399.5,886.2 L 1399.5,914.703 L 1407.95,923.157 L 1446.74,923.157M 1446.74,686.954 L 1407.95,686.954 L 1399.5,695.403 L 1399.5,723.907 L 1406.69,741.269 L 1419.97,754.556 L 1437.34,761.752 L 1465.84,761.752 L 1474.29,753.298 L 1474.29,714.509 L 1446.74,714.509 L 1446.74,686.954M 1446.74,608.22 L 1446.74,580.664 L 1474.29,580.664 L 1474.29,541.875 L 1465.84,533.424 L 1437.34,533.424 L 1419.98,540.613 L 1406.69,553.902 L 1399.5,571.263 L 1399.5,599.769 L 1407.95,608.22 L 1446.74,608.22M 1553.03,714.509 L 1553.03,753.298 L 1561.48,761.752 L 1589.97,761.752 L 1607.34,754.558 L 1622.05,740.119 L 1623.78,739.195 L 1627.61,738.435 L 1629.56,738.625 L 1633.16,740.119 L 1667.02,762.742 L 1713.64,772.015 L 1760.27,762.744 L 1799.8,736.33 L 1806.56,726.546 L 1809.81,724.379 L 1813.63,723.619 L 1817.46,724.379 L 1820.7,726.546 L 1827.47,736.328 L 1867,762.742 L 1913.62,772.013 L 1960.25,762.744 L 1988.67,743.751 L 1992.27,742.259 L 2141.57,742.259 L 2143.45,742.827 L 2146.69,744.995 L 2173.77,772.077 L 2175.94,775.321 L 2176.7,779.148 L 2176.7,832.67 L 2181.44,858.178 L 2180.64,861.964 L 2178.47,865.161 L 2175.24,867.293 L 2171.45,868.043 L 1994.23,868.043 L 1990.4,867.281 L 1988.67,866.357 L 1960.25,847.367 L 1913.63,838.093 L 1867,847.365 L 1827.47,873.779 L 1820.7,883.562 L 1817.46,885.73 L 1813.63,886.49 L 1809.81,885.73 L 1806.56,883.56 L 1799.8,873.781 L 1760.27,847.367 L 1713.64,838.095 L 1667.02,847.365 L 1633.16,869.989 L 1629.56,871.483 L 1627.61,871.673 L 1623.78,870.913 L 1622.05,869.987 L 1607.34,855.55 L 1589.98,848.359 L 1561.48,848.359 L 1553.03,856.81 L 1553.03,895.601 L 1580.58,895.601 L 1580.58,1029.45 L 1553.03,1029.45 L 1553.03,1068.23 L 1561.48,1076.69 L 1589.97,1076.69 L 1607.34,1069.49 L 1622.05,1055.05 L 1623.78,1054.13 L 1627.61,1053.37 L 1629.56,1053.56 L 1633.16,1055.05 L 1667.02,1077.68 L 1713.64,1086.95 L 1760.27,1077.68 L 1799.8,1051.26 L 1806.56,1041.48 L 1809.81,1039.32 L 1813.63,1038.56 L 1817.46,1039.32 L 1820.7,1041.48 L 1827.47,1051.26 L 1867,1077.68 L 1913.62,1086.95 L 1960.25,1077.68 L 1988.67,1058.69 L 1992.27,1057.2 L 2213.49,1057.2 L 2217.09,1058.69 L 2219.85,1061.45 L 2221.35,1065.06 L 2221.34,1068.96 L 2220.77,1070.83 L 2218.6,1074.08 L 2196.77,1095.88 L 2178,1141.08 L 2177.95,1190.01 L 2196.64,1235.25 L 2231.22,1269.89 L 2276.69,1288.77 L 2279.37,1289.42 L 2282.61,1291.58 L 2289.97,1298.94 L 2293.9,1298.1 L 2308.1,1298.1 L 2312.02,1298.94 L 2319.33,1291.63 L 2322.59,1289.46 L 2325.03,1288.83 L 2370.59,1270.01 L 2405.23,1235.43 L 2424,1190.23 L 2424.04,1141.3 L 2405.35,1096.06 L 2382.05,1072.72 L 2379.88,1069.47 L 2379.13,1065.64 L 2379.89,1061.82 L 2382.06,1058.58 L 2405.23,1035.45 L 2424,990.247 L 2424.04,941.315 L 2405.35,896.075 L 2400.42,890.859 L 2398.93,887.216 L 2398.75,885.246 L 2399.56,881.392 L 2400.52,879.66 L 2403.34,876.92 L 2408.08,873.873 L 2420.66,855.456 L 2425.3,832.588 L 2425.3,698.717 L 2421.29,677.418 L 2409.18,658.604 L 2390.76,646.021 L 2367.91,641.391 L 2314.46,641.391 L 2310.63,640.629 L 2307.39,638.462 L 2250.4,581.476 L 2218.98,560.478 L 2181.92,553.106 L 1992.27,552.912 L 1988.67,551.421 L 1960.25,532.432 L 1913.63,523.159 L 1867,532.43 L 1827.47,558.844 L 1820.7,568.625 L 1817.46,570.793 L 1813.63,571.553 L 1809.81,570.793 L 1806.56,568.623 L 1799.8,558.846 L 1760.27,532.432 L 1713.64,523.159 L 1667.02,532.43 L 1633.16,555.052 L 1629.56,556.546 L 1627.61,556.736 L 1623.78,555.976 L 1622.05,555.05 L 1607.34,540.615 L 1589.98,533.424 L 1561.48,533.424 L 1553.03,541.873 L 1553.03,580.664 L 1580.58,580.664 L 1580.58,714.509 L 1553.03,714.509M 2234.25,1354.57 L 2200.35,1320.66 L 2191.98,1323.82 L 2183.59,1365.24 L 2191.83,1407.4 L 2200.35,1410.61 L 2234.25,1376.71 L 2233.09,1365.64 L 2234.25,1354.57M 2367.74,1354.57 L 2368.9,1365.64 L 2367.74,1376.71 L 2401.64,1410.61 L 2410.01,1407.46 L 2418.4,1366.04 L 2410.16,1323.87 L 2401.65,1320.67 L 2367.74,1354.57M 3434.16,954.602 L 3400.25,920.697 L 3391.88,923.849 L 3383.5,965.271 L 3391.74,1007.44 L 3400.25,1010.64 L 3434.16,976.74 L 3432.99,965.671 L 3434.16,954.602M 3534.32,824.737 L 3521.89,830.27 L 3508,833.222 L 3493.8,833.222 L 3479.92,830.27 L 3466.95,824.497 L 3455.46,816.151 L 3445.96,805.602 L 3438.87,793.307 L 3434.48,779.804 L 3432.99,765.687 L 3434.48,751.57 L 3438.87,738.068 L 3445.96,725.773 L 3455.46,715.223 L 3466.95,706.878 L 3479.92,701.105 L 3493.8,698.153 L 3508,698.153 L 3521.89,701.105 L 3534.31,706.638 L 5231.88,706.638 L 5282.25,641.525 L 3548.75,641.525 L 3527.48,632.69 L 3474.56,632.644 L 3425.65,652.852 L 3388.2,690.239 L 3367.9,739.113 L 3367.86,792.031 L 3388.07,840.939 L 3425.45,878.392 L 3474.33,898.687 L 3475.45,898.687 L 3478.48,901.726 L 3479.92,901.088 L 3493.8,898.137 L 3508,898.137 L 3521.89,901.088 L 3534.85,906.862 L 3546.34,915.207 L 3555.84,925.756 L 3562.94,938.051 L 3567.32,951.554 L 3568.81,965.671 L 3567.65,976.74 L 3601.55,1010.65 L 3609.92,1007.49 L 3618.3,966.071 L 3610.06,923.907 L 3593.73,917.541 L 3592.15,916.321 L 3590.85,914.811 L 3589.26,911.18 L 3589.21,907.214 L 3590.7,903.54 L 3597.67,896.295 L 3596.02,893.673 L 3595.45,891.797 L 3595.45,887.897 L 3596.02,886.022 L 3598.19,882.778 L 3599.7,881.536 L 3601.43,880.612 L 3605.26,879.852 L 4947.76,879.852 L 4951.58,880.612 L 4954.83,882.78 L 4956.07,884.296 L 4957.56,887.899 L 4957.66,890.885 L 4966.14,899.653 L 4967.07,901.41 L 4967.81,905.298 L 4966.98,909.17 L 4964.72,912.415 L 4963.15,913.639 L 4946.82,920.073 L 4938.27,961.905 L 4946.59,1004.88 L 4955.32,1008.21 L 4989.05,974.482 L 4987.79,962.523 L 4989.3,948.201 L 4993.75,934.504 L 5000.95,922.031 L 5010.59,911.328 L 5022.24,902.862 L 5035.39,897.005 L 5049.48,894.011 L 5063.88,894.011 L 5077.97,897.005 L 5082.92,899.209 L 5140.53,824.737 L 3534.32,824.737 z " style="fill-opacity:1.000000;fill:rgb(103,198,105);stroke:rgb(0,0,0);stroke-width:2"/></g>
<g fill-rule="evenodd"><path d="M 2368.9,1165.66 L 2367.42,1179.77 L 2363.03,1193.27 L 2355.94,1205.57 L 2346.44,1216.12 L 2334.95,1224.46 L 2321.98,1230.24 L 2308.1,1233.19 L 2293.9,1233.19 L 2280.01,1230.24 L 2267.04,1224.46 L 2255.56,1216.12 L 2246.06,1205.57 L 2238.96,1193.27 L 2234.57,1179.77 L 2233.09,1165.66 L 2234.57,1151.54 L 2238.96,1138.04 L 2246.06,1125.74 L 2255.56,1115.19 L 2267.04,1106.85 L 2280.01,1101.07 L 2293.9,1098.12 L 2308.1,1098.12 L 2321.98,1101.07 L 2334.95,1106.85 L 2346.44,1115.19 L 2355.94,1125.74 L 2363.03,1138.04 L 2367.42,1151.54 L 2368.9,1165.66 z " style="fill-opacity:1.000000;fill:rgb(115,81,255);stroke:rgb(0,0,0);stroke-width:2"/></g>
<g fill-rule="evenodd"><path d="M 2368.9,1565.62 L 2367.42,1579.74 L 2363.03,1593.24 L 2355.94,1605.54 L 2346.44,1616.09 L 2334.95,1624.43 L 2321.98,1630.21 L 2308.1,1633.16 L 2293.9,1633.16 L 2280.01,1630.21 L 2267.04,1624.43 L 2255.56,1616.09 L 2246.06,1605.54 L 2238.96,1593.24 L 2234.57,1579.74 L 2233.09,1565.62 L 2234.57,1551.51 L 2238.96,1538 L 2246.06,1525.71 L 2255.56,1515.16 L 2267.04,1506.81 L 2280.01,1501.04 L 2293.9,1498.09 L 2308.1,1498.09 L 2321.98,1501.04 L 2334.95,1506.81 L 2346.44,1515.16 L 2355.94,1525.71 L 2363.03,1538 L 2367.42,1551.51 L 2368.9,1565.62 z " style="fill-opacity:1.000000;fill:rgb(74,236,41);stroke:rgb(0,0,0);stroke-width:2"/></g>
<g fill-rule="evenodd"><path d="M 2368.9,1765.61 L 2367.42,1779.72 L 2363.03,1793.23 L 2355.94,1805.52 L 2346.44,1816.07 L 2334.95,1824.42 L 2321.98,1830.19 L 2308.1,1833.14 L 2293.9,1833.14 L 2280.01,1830.19 L 2267.04,1824.42 L 2255.56,1816.07 L 2246.06,1805.52 L 2238.96,1793.23 L 2234.57,1779.72 L 2233.09,1765.61 L 2234.57,1751.49 L 2238.96,1737.99 L 2246.06,1725.69 L 2255.56,1715.14 L 2267.04,1706.8 L 2280.01,1701.02 L 2293.9,1698.07 L 2308.1,1698.07 L 2321.98,1701.02 L 2334.95,1706.8 L 2346.44,1715.14 L 2355.94,1725.69 L 2363.03,1737.99 L 2367.42,1751.49 L 2368.9,1765.61 z " style="fill-opacity:1.000000;fill:rgb(205,186,171);stroke:rgb(0,0,0);stroke-width:2"/></g>
<g fill-rule="evenodd"><path d="M 2368.9,2565.54 L 2367.42,2579.66 L 2363.03,2593.16 L 2355.94,2605.46 L 2346.44,2616.01 L 2334.95,2624.35 L 2321.98,2630.13 L 2308.1,2633.08 L 2293.9,2633.08 L 2280.01,2630.13 L 2267.04,2624.35 L 2255.56,2616.01 L 2246.06,2605.46 L 2238.96,2593.16 L 2234.57,2579.66 L 2233.09,2565.54 L 2234.57,2551.43 L 2238.96,2537.92 L 2246.06,2525.63 L 2255.56,2515.08 L 2267.04,2506.73 L 2280.01,2500.96 L 2293.9,2498.01 L 2308.1,2498.01 L 2321.98,2500.96 L 2334.95,2506.73 L 2346.44,2515.08 L 2355.94,2525.63 L 2363.03,2537.92 L 2367.42,2551.43 L 2368.9,2565.54 z " style="fill-opacity:1.000000;fill:rgb(242,251,227);stroke:rgb(0,0,0);stroke-width:2"/></g>
<g fill-rule="evenodd"><path d="M 2368.9,2965.51 L 2367.42,2979.63 L 2363.03,2993.13 L 2355.94,3005.42 L 2346.44,3015.97 L 2334.95,3024.32 L 2321.98,3030.09 L 2308.1,3033.04 L 2293.9,3033.04 L 2280.01,3030.09 L 2267.04,3024.32 L 2255.56,3015.97 L 2246.06,3005.42 L 2238.96,2993.13 L 2234.57,2979.63 L 2233.09,2965.51 L 2234.57,2951.39 L 2238.96,2937.89 L 2246.06,2925.6 L 2255.56,2915.05 L 2267.04,2906.7 L 2280.01,2900.93 L 2293.9,2897.98 L 2308.1,2897.98 L 2321.98,2900.93 L 2334.95,2906.7 L 2346.44,2915.05 L 2355.94,2925.6 L 2363.03,2937.89 L 2367.42,2951.39 L 2368.9,2965.51 z " style="fill-opacity:1.000000;fill:rgb(70,124,194);stroke:rgb(0,0,0);stroke-width:2"/></g>
<g fill-rule="evenodd"><path d="M 3568.81,3165.49 L 3567.32,3179.61 L 3562.94,3193.11 L 3555.84,3205.41 L 3546.34,3215.96 L 3534.85,3224.3 L 3521.89,3230.08 L 3508,3233.03 L 3493.8,3233.03 L 3479.92,3230.08 L 3466.95,3224.3 L 3455.46,3215.96 L 3445.96,3205.41 L 3438.87,3193.11 L 3434.48,3179.61 L 3432.99,3165.49 L 3434.48,3151.38 L 3438.87,3137.87 L 3445.96,3125.58 L 3455.46,3115.03 L 3466.95,3106.68 L 3479.92,3100.91 L 3493.8,3097.96 L 3508,3097.96 L 3521.89,3100.91 L 3534.85,3106.68 L 3546.34,3115.03 L 3555.84,3125.58 L 3562.94,3137.87 L 3567.32,3151.38 L 3568.81,3165.49 z " style="fill-opacity:1.000000;fill:rgb(84,248,27);stroke:rgb(0,0,0);stroke-width:2"/></g>
<g fill-rule="evenodd"><path d="M 3568.81,2165.57 L 3567.32,2179.69 L 3562.94,2193.19 L 3555.84,2205.49 L 3546.34,2216.04 L 3534.85,2224.38 L 3521.89,2230.16 L 3508,2233.11 L 3493.8,2233.11 L 3479.92,2230.16 L 3466.95,2224.38 L 3455.46,2216.04 L 3445.96,2205.49 L 3438.87,2193.19 L 3434.48,2179.69 L 3432.99,2165.57 L 3434.48,2151.46 L 3438.87,2137.95 L 3445.96,2125.66 L 3455.46,2115.11 L 3466.95,2106.77 L 3479.92,2100.99 L 3493.8,2098.04 L 3508,2098.04 L 3521.89,2100.99 L 3534.85,2106.77 L 3546.34,2115.11 L 3555.84,2125.66 L 3562.94,2137.95 L 3567.32,2151.46 L 3568.81,2165.57 z " style="fill-opacity:1.000000;fill:rgb(232,231,141);stroke:rgb(0,0,0);stroke-width:2"/></g>
<g fill-rule="evenodd"><path d="M 3568.81,1965.59 L 3567.32,1979.71 L 3562.94,1993.21 L 3555.84,2005.51 L 3546.34,2016.05 L 3534.85,2024.4 L 3521.89,2030.17 L 3508,2033.13 L 3493.8,2033.13 L 3479.92,2030.17 L 3466.95,2024.4 L 3455.46,2016.05 L 3445.96,2005.51 L 3438.87,1993.21 L 3434.48,1979.71 L 3432.99,1965.59 L 3434.48,1951.47 L 3438.87,1937.97 L 3445.96,1925.68 L 3455.46,1915.13 L 3466.95,1906.78 L 3479.92,1901.01 L 3493.8,1898.06 L 3508,1898.06 L 3521.89,1901.01 L 3534.85,1906.78 L 3546.34,1915.13 L 3555.84,1925.68 L 3562.94,1937.97 L 3567.32,1951.47 L 3568.81,1965.59 z " style="fill-opacity:1.000000;fill:rgb(118,90,46);stroke:rgb(0,0,0);stroke-width:2"/></g>
<g fill-rule="evenodd"><path d="M 3568.81,1565.62 L 3567.32,1579.74 L 3562.94,1593.24 L 3555.84,1605.54 L 3546.34,1616.09 L 3534.85,1624.43 L 3521.89,1630.21 L 3508,1633.16 L 3493.8,1633.16 L 3479.92,1630.21 L 3466.95,1624.43 L 3455.46,1616.09 L 3445.96,1605.54 L 3438.87,1593.24 L 3434.48,1579.74 L 3432.99,1565.62 L 3434.48,1551.51 L 3438.87,1538 L 3445.96,1525.71 L 3455.46,1515.16 L 3466.95,1506.81 L 3479.92,1501.04 L 3493.8,1498.09 L 3508,1498.09 L 3521.89,1501.04 L 3534.85,1506.81 L 3546.34,1515.16 L 3555.84,1525.71 L 3562.94,1538 L 3567.32,1551.51 L 3568.81,1565.62 z " style="fill-opacity:1.000000;fill:rgb(99,51,159);stroke:rgb(0,0,0);stroke-width:2"/></g>
<g fill-rule="evenodd"><path d="M 3568.81,1165.66 L 3567.32,1179.77 L 3562.94,1193.27 L 3555.84,1205.57 L 3546.34,1216.12 L 3534.85,1224.46 L 3521.89,1230.24 L 3508,1233.19 L 3493.8,1233.19 L 3479.92,1230.24 L 3466.95,1224.46 L 3455.46,1216.12 L 3445.96,1205.57 L 3438.87,1193.27 L 3434.48,1179.77 L 3432.99,1165.66 L 3434.48,1151.54 L 3438.87,1138.04 L 3445.96,1125.74 L 3455.46,1115.19 L 3466.95,1106.85 L 3479.92,1101.07 L 3493.8,1098.12 L 3508,1098.12 L 3521.89,1101.07 L 3534.85,1106.85 L 3546.34,1115.19 L 3555.84,1125.74 L 3562.94,1138.04 L 3567.32,1151.54 L 3568.81,1165.66 z " style="fill-opacity:1.000000;fill:rgb(201,154,102);stroke:rgb(0,0,0);stroke-width:2"/></g>
<g fill-rule="evenodd"><path d="M 1713.64,714.509 L 1700.17,713.138 L 1687.25,709.086 L 1675.41,702.514 L 1665.14,693.693 L 1656.85,682.986 L 1650.89,670.829 L 1647.49,657.72 L 1646.81,644.199 L 1648.86,630.814 L 1653.56,618.115 L 1660.72,606.624 L 1670.05,596.809 L 1681.17,589.074 L 1693.61,583.734 L 1706.87,581.008 L 1713.64,580.664 L 1727.11,582.036 L 1740.03,586.088 L 1751.87,592.659 L 1762.15,601.481 L 1770.44,612.188 L 1776.4,624.345 L 1779.79,637.454 L 1780.48,650.975 L 1778.43,664.359 L 1773.73,677.058 L 1766.56,688.55 L 1757.23,698.365 L 1746.12,706.1 L 1733.68,711.44 L 1720.41,714.165 L 1713.64,714.509 z " style="fill-opacity:1.000000;fill:rgb(50,13,183);stroke:rgb(0,0,0);stroke-width:2"/></g>
<g fill-rule="evenodd"><path d="M 1713.64,1029.45 L 1700.17,1028.07 L 1687.25,1024.02 L 1675.41,1017.45 L 1665.14,1008.63 L 1656.85,997.923 L 1650.89,985.766 L 1647.49,972.657 L 1646.81,959.136 L 1648.86,945.751 L 1653.56,933.052 L 1660.72,921.561 L 1670.05,911.746 L 1681.17,904.01 L 1693.61,898.671 L 1706.87,895.945 L 1713.64,895.601 L 1727.11,896.973 L 1740.03,901.024 L 1751.87,907.596 L 1762.15,916.417 L 1770.44,927.124 L 1776.4,939.281 L 1779.79,952.39 L 1780.48,965.911 L 1778.43,979.296 L 1773.73,991.995 L 1766.56,1003.49 L 1757.23,1013.3 L 1746.12,1021.04 L 1733.68,1026.38 L 1720.41,1029.1 L 1713.64,1029.45 z " style="fill-opacity:1.000000;fill:rgb(49,88,163);stroke:rgb(0,0,0);stroke-width:2"/></g>
<g fill-rule="evenodd"><path d="M 5329.1,5438.54 L 5315.63,5437.17 L 5302.71,5433.12 L 5290.87,5426.54 L 5280.6,5417.72 L 5272.31,5407.02 L 5266.34,5394.86 L 5262.95,5381.75 L 5262.26,5368.23 L 5264.31,5354.84 L 5269.02,5342.14 L 5276.18,5330.65 L 5285.51,5320.84 L 5296.62,5313.1 L 5309.07,5307.76 L 5322.33,5305.04 L 5329.1,5304.69 L 5342.57,5306.07 L 5355.49,5310.12 L 5367.33,5316.69 L 5377.6,5325.51 L 5385.89,5336.22 L 5391.85,5348.37 L 5395.25,5361.48 L 5395.94,5375 L 5393.88,5388.39 L 5389.18,5401.09 L 5382.02,5412.58 L 5372.69,5422.39 L 5361.58,5430.13 L 5349.13,5435.47 L 5335.87,5438.19 L 5329.1,5438.54 z " style="fill-opacity:1.000000;fill:rgb(90,37,93);stroke:rgb(0,0,0);stroke-width:2"/></g>
<g fill-rule="evenodd"><path d="M 4587.43,5438.54 L 4573.96,5437.17 L 4561.04,5433.12 L 4549.2,5426.54 L 4538.92,5417.72 L 4530.63,5407.02 L 4524.67,5394.86 L 4521.28,5381.75 L 4520.59,5368.23 L 4522.64,5354.84 L 4527.34,5342.14 L 4534.51,5330.65 L 4543.84,5320.84 L 4554.95,5313.1 L 4567.39,5307.76 L 4580.66,5305.04 L 4587.43,5304.69 L 4600.9,5306.07 L 4613.82,5310.12 L 4625.66,5316.69 L 4635.93,5325.51 L 4644.22,5336.22 L 4650.18,5348.37 L 4653.58,5361.48 L 4654.26,5375 L 4652.21,5388.39 L 4647.51,5401.09 L 4640.35,5412.58 L 4631.02,5422.39 L 4619.9,5430.13 L 4607.46,5435.47 L 4594.2,5438.19 L 4587.43,5438.54 z " style="fill-opacity:1.000000;fill:rgb(5,23,88);stroke:rgb(0,0,0);stroke-width:2"/></g>
<g fill-rule="evenodd"><path d="M 1238.09,2119.12 L 1224.62,2117.75 L 1211.7,2113.7 L 1199.86,2107.13 L 1189.59,2098.3 L 1181.3,2087.6 L 1175.34,2075.44 L 1171.94,2062.33 L 1171.25,2048.81 L 1173.31,2035.42 L 1178.01,2022.73 L 1185.17,2011.23 L 1194.5,2001.42 L 1205.61,1993.68 L 1218.06,1988.34 L 1231.32,1985.62 L 1238.09,1985.28 L 1251.56,1986.65 L 1264.48,1990.7 L 1276.32,1997.27 L 1286.6,2006.09 L 1294.88,2016.8 L 1300.85,2028.96 L 1304.24,2042.06 L 1304.93,2055.59 L 1302.88,2068.97 L 1298.17,2081.67 L 1291.01,2093.16 L 1281.68,2102.98 L 1270.57,2110.71 L 1258.12,2116.05 L 1244.86,2118.78 L 1238.09,2119.12 z " style="fill-opacity:1.000000;fill:rgb(233,94,212);stroke:rgb(0,0,0);stroke-width:2"/></g>
<g fill-rule="evenodd"><path d="M 1238.09,1919.14 L 1224.62,1917.76 L 1211.7,1913.71 L 1199.86,1907.14 L 1189.59,1898.32 L 1181.3,1887.61 L 1175.34,1875.46 L 1171.94,1862.35 L 1171.25,1848.83 L 1173.31,1835.44 L 1178.01,1822.74 L 1185.17,1811.25 L 1194.5,1801.44 L 1205.61,1793.7 L 1218.06,1788.36 L 1231.32,1785.64 L 1238.09,1785.29 L 1251.56,1786.66 L 1264.48,1790.71 L 1276.32,1797.29 L 1286.6,1806.11 L 1294.88,1816.81 L 1300.85,1828.97 L 1304.24,1842.08 L 1304.93,1855.6 L 1302.88,1868.99 L 1298.17,1881.69 L 1291.01,1893.18 L 1281.68,1902.99 L 1270.57,1910.73 L 1258.12,1916.07 L 1244.86,1918.79 L 1238.09,1919.14 z " style="fill-opacity:1.000000;fill:rgb(171,178,205);stroke:rgb(0,0,0);stroke-width:2"/></g>
<g fill-rule="evenodd"><path d="M 1238.09,1719.15 L 1224.62,1717.78 L 1211.7,1713.73 L 1199.86,1707.16 L 1189.59,1698.34 L 1181.3,1687.63 L 1175.34,1675.47 L 1171.94,1662.36 L 1171.25,1648.84 L 1173.31,1635.46 L 1178.01,1622.76 L 1185.17,1611.27 L 1194.5,1601.45 L 1205.61,1593.72 L 1218.06,1588.38 L 1231.32,1585.65 L 1238.09,1585.31 L 1251.56,1586.68 L 1264.48,1590.73 L 1276.32,1597.3 L 1286.6,1606.12 L 1294.88,1616.83 L 1300.85,1628.99 L 1304.24,1642.1 L 1304.93,1655.62 L 1302.88,1669 L 1298.17,1681.7 L 1291.01,1693.19 L 1281.68,1703.01 L 1270.57,1710.74 L 1258.12,1716.08 L 1244.86,1718.81 L 1238.09,1719.15 z " style="fill-opacity:1.000000;fill:rgb(198,155,180);stroke:rgb(0,0,0);stroke-width:2"/></g>
<g fill-rule="evenodd"><path d="M 1238.09,1519.17 L 1224.62,1517.8 L 1211.7,1513.75 L 1199.86,1507.17 L 1189.59,1498.35 L 1181.3,1487.65 L 1175.34,1475.49 L 1171.94,1462.38 L 1171.25,1448.86 L 1173.31,1435.47 L 1178.01,1422.77 L 1185.17,1411.28 L 1194.5,1401.47 L 1205.61,1393.73 L 1218.06,1388.39 L 1231.32,1385.67 L 1238.09,1385.32 L 1251.56,1386.7 L 1264.48,1390.75 L 1276.32,1397.32 L 1286.6,1406.14 L 1294.88,1416.85 L 1300.85,1429 L 1304.24,1442.11 L 1304.93,1455.63 L 1302.88,1469.02 L 1298.17,1481.72 L 1291.01,1493.21 L 1281.68,1503.02 L 1270.57,1510.76 L 1258.12,1516.1 L 1244.86,1518.82 L 1238.09,1519.17 z " style="fill-opacity:1.000000;fill:rgb(84,17,14);stroke:rgb(0,0,0);stroke-width:2"/></g>
<g fill-rule="evenodd"><path d="M 1789.23,2119.12 L 1775.76,2117.75 L 1762.84,2113.7 L 1751,2107.13 L 1740.72,2098.3 L 1732.44,2087.6 L 1726.47,2075.44 L 1723.08,2062.33 L 1722.39,2048.81 L 1724.44,2035.42 L 1729.15,2022.73 L 1736.31,2011.23 L 1745.64,2001.42 L 1756.75,1993.68 L 1769.2,1988.34 L 1782.46,1985.62 L 1789.23,1985.28 L 1802.7,1986.65 L 1815.62,1990.7 L 1827.46,1997.27 L 1837.73,2006.09 L 1846.02,2016.8 L 1851.98,2028.96 L 1855.38,2042.06 L 1856.07,2055.59 L 1854.01,2068.97 L 1849.31,2081.67 L 1842.15,2093.16 L 1832.82,2102.98 L 1821.71,2110.71 L 1809.26,2116.05 L 1796,2118.78 L 1789.23,2119.12 z " style="fill-opacity:1.000000;fill:rgb(130,116,65);stroke:rgb(0,0,0);stroke-width:2"/></g>
<g fill-rule="evenodd"><path d="M 1789.23,1919.14 L 1775.76,1917.76 L 1762.84,1913.71 L 1751,1907.14 L 1740.72,1898.32 L 1732.44,1887.61 L 1726.47,1875.46 L 1723.08,1862.35 L 1722.39,1848.83 L 1724.44,1835.44 L 1729.15,1822.74 L 1736.31,1811.25 L 1745.64,1801.44 L 1756.75,1793.7 L 1769.2,1788.36 L 1782.46,1785.64 L 1789.23,1785.29 L 1802.7,1786.66 L 1815.62,1790.71 L 1827.46,1797.29 L 1837.73,1806.11 L 1846.02,1816.81 L 1851.98,1828.97 L 1855.38,1842.08 L 1856.07,1855.6 L 1854.01,1868.99 L 1849.31,1881.69 L 1842.15,1893.18 L 1832.82,1902.99 L 1821.71,1910.73 L 1809.26,1916.07 L 1796,1918.79 L 1789.23,1919.14 z " style="fill-opacity:1.000000;fill:rgb(33,61,220);stroke:rgb(0,0,0);stroke-width:2"/></g>
<g fill-rule="evenodd"><path d="M 5125.57,1356.19 L 5124.07,1370.51 L 5119.62,1384.21 L 5112.42,1396.68 L 5102.78,1407.39 L 5091.13,1415.85 L 5077.97,1421.71 L 5063.88,1424.7 L 5049.48,1424.7 L 5035.39,1421.71 L 5022.24,1415.85 L 5010.59,1407.39 L 5000.95,1396.68 L 4993.75,1384.21 L 4989.3,1370.51 L 4987.79,1356.19 L 4989.3,1341.87 L 4993.75,1328.17 L 5000.95,1315.7 L 5010.59,1305 L 5022.24,1296.53 L 5035.39,1290.67 L 5049.48,1287.68 L 5063.88,1287.68 L 5077.97,1290.67 L 5091.13,1296.53 L 5102.78,1305 L 5112.42,1315.7 L 5119.62,1328.17 L 5124.07,1341.87 L 5125.57,1356.19 z " style="fill-opacity:1.000000;fill:rgb(135,112,233);stroke:rgb(0,0,0);stroke-width:2"/></g>
<g fill-rule="evenodd"><path d="M 2904.1,4530.33 L 2913.24,4538.17 L 2921.53,4548.88 L 2927.49,4561.04 L 2930.88,4574.14 L 2931.57,4587.67 L 2929.52,4601.05 L 2924.82,4613.75 L 2917.65,4625.24 L 2908.32,4635.06 L 2897.21,4642.79 L 2884.76,4648.13 L 2871.5,4650.86 L 2864.73,4651.2 L 2851.26,4649.83 L 2838.34,4645.78 L 2826.5,4639.21 L 2816.23,4630.38 L 2807.94,4619.68 L 2801.98,4607.52 L 2798.58,4594.41 L 2797.9,4580.89 L 2799.95,4567.5 L 2804.65,4554.81 L 2811.81,4543.31 L 2821.14,4533.5 L 2825.37,4530.56 L 2825.37,3077.87 L 2552.39,2804.89 L 2356.25,2804.89 L 2346.44,2815.99 L 2334.95,2824.34 L 2321.98,2830.11 L 2308.1,2833.06 L 2293.9,2833.06 L 2280.01,2830.11 L 2267.04,2824.34 L 2255.56,2815.99 L 2246.06,2805.44 L 2238.96,2793.15 L 2234.57,2779.64 L 2233.09,2765.53 L 2234.57,2751.41 L 2238.96,2737.91 L 2246.06,2725.61 L 2255.56,2715.06 L 2267.04,2706.72 L 2280.01,2700.94 L 2293.9,2697.99 L 2308.1,2697.99 L 2321.98,2700.94 L 2334.95,2706.72 L 2346.44,2715.06 L 2356.25,2726.16 L 2568.69,2726.16 L 2576.37,2726.92 L 2583.75,2729.16 L 2590.56,2732.79 L 2596.53,2737.69 L 2892.57,3033.73 L 2897.46,3039.69 L 2901.1,3046.5 L 2903.34,3053.88 L 2904.1,3061.57 L 2904.1,4530.33 z " style="fill-opacity:1.000000;fill:rgb(62,161,65);stroke:rgb(0,0,0);stroke-width:2"/></g>
<g fill-rule="evenodd"><path d="M 1749.86,2919.06 L 1722.31,2919.06 L 1722.31,2785.21 L 1856.15,2785.21 L 1856.15,2919.06 L 1828.6,2919.06 L 1828.6,4882.91 L 2002.37,5056.68 L 3426.33,5056.68 L 3757.57,4725.44 L 3757.57,3458.94 L 3703.47,3404.84 L 3556.16,3404.84 L 3546.34,3415.94 L 3534.85,3424.29 L 3521.89,3430.06 L 3508,3433.01 L 3493.8,3433.01 L 3479.92,3430.06 L 3466.95,3424.29 L 3455.46,3415.94 L 3445.96,3405.39 L 3438.87,3393.1 L 3434.48,3379.59 L 3432.99,3365.48 L 3434.48,3351.36 L 3438.87,3337.86 L 3445.96,3325.56 L 3455.46,3315.01 L 3466.95,3306.67 L 3479.92,3300.9 L 3493.8,3297.94 L 3508,3297.94 L 3521.89,3300.9 L 3534.85,3306.67 L 3546.34,3315.01 L 3556.15,3326.11 L 3719.78,3326.11 L 3727.46,3326.87 L 3734.84,3329.11 L 3741.65,3332.74 L 3747.62,3337.64 L 3824.78,3414.8 L 3829.67,3420.77 L 3833.31,3427.57 L 3835.55,3434.96 L 3836.31,3442.64 L 3836.31,4741.74 L 3835.55,4749.42 L 3833.31,4756.81 L 3829.67,4763.62 L 3824.78,4769.58 L 3470.47,5123.88 L 3464.51,5128.78 L 3457.7,5132.42 L 3450.32,5134.66 L 3442.64,5135.42 L 1986.06,5135.42 L 1978.38,5134.66 L 1971,5132.42 L 1964.19,5128.78 L 1958.23,5123.88 L 1761.39,4927.05 L 1756.5,4921.08 L 1752.86,4914.28 L 1750.62,4906.89 L 1749.86,4899.21 L 1749.86,2919.06 z " style="fill-opacity:1.000000;fill:rgb(225,252,103);stroke:rgb(0,0,0);stroke-width:2"/></g>
<g fill-rule="evenodd"><path d="M 2704.12,4530.33 L 2713.25,4538.17 L 2721.54,4548.88 L 2727.5,4561.04 L 2730.9,4574.14 L 2731.58,4587.67 L 2729.53,4601.05 L 2724.83,4613.75 L 2717.67,4625.24 L 2708.34,4635.06 L 2697.23,4642.79 L 2684.78,4648.13 L 2671.52,4650.86 L 2664.75,4651.2 L 2651.28,4649.83 L 2638.36,4645.78 L 2626.52,4639.21 L 2616.24,4630.38 L 2607.95,4619.68 L 2601.99,4607.52 L 2598.6,4594.41 L 2597.91,4580.89 L 2599.96,4567.5 L 2604.67,4554.81 L 2611.83,4543.31 L 2621.16,4533.5 L 2625.38,4530.56 L 2625.38,3310.92 L 2519.32,3204.86 L 2356.25,3204.86 L 2346.44,3215.96 L 2334.95,3224.3 L 2321.98,3230.08 L 2308.1,3233.03 L 2293.9,3233.03 L 2280.01,3230.08 L 2267.04,3224.3 L 2255.56,3215.96 L 2246.06,3205.41 L 2238.96,3193.11 L 2234.57,3179.61 L 2233.09,3165.49 L 2234.57,3151.38 L 2238.96,3137.87 L 2246.06,3125.58 L 2255.56,3115.03 L 2267.04,3106.68 L 2280.01,3100.91 L 2293.9,3097.96 L 2308.1,3097.96 L 2321.98,3100.91 L 2334.95,3106.68 L 2346.44,3115.03 L 2356.25,3126.13 L 2535.62,3126.13 L 2543.3,3126.88 L 2550.69,3129.12 L 2557.49,3132.76 L 2563.46,3137.66 L 2692.58,3266.78 L 2697.48,3272.75 L 2701.12,3279.55 L 2703.36,3286.94 L 2704.12,3294.62 L 2704.12,4530.33 z " style="fill-opacity:1.000000;fill:rgb(62,1,126);stroke:rgb(0,0,0);stroke-width:2"/></g>
<g fill-rule="evenodd"><path d="M 2504.13,4530.33 L 2513.27,4538.17 L 2521.56,4548.88 L 2527.52,4561.04 L 2530.92,4574.14 L 2531.6,4587.67 L 2529.55,4601.05 L 2524.85,4613.75 L 2517.68,4625.24 L 2508.35,4635.06 L 2497.24,4642.79 L 2484.8,4648.13 L 2471.53,4650.86 L 2464.76,4651.2 L 2451.29,4649.83 L 2438.37,4645.78 L 2426.54,4639.21 L 2416.26,4630.38 L 2407.97,4619.68 L 2402.01,4607.52 L 2398.61,4594.41 L 2397.93,4580.89 L 2399.98,4567.5 L 2404.68,4554.81 L 2411.84,4543.31 L 2421.17,4533.5 L 2425.4,4530.56 L 2425.4,3404.84 L 2356.25,3404.84 L 2346.44,3415.94 L 2334.95,3424.29 L 2321.98,3430.06 L 2308.1,3433.01 L 2293.9,3433.01 L 2280.01,3430.06 L 2267.04,3424.29 L 2255.56,3415.94 L 2246.06,3405.39 L 2238.96,3393.1 L 2234.57,3379.59 L 2233.09,3365.48 L 2234.57,3351.36 L 2238.96,3337.86 L 2246.06,3325.56 L 2255.56,3315.01 L 2267.04,3306.67 L 2280.01,3300.9 L 2293.9,3297.94 L 2308.1,3297.94 L 2321.98,3300.9 L 2334.95,3306.67 L 2346.44,3315.01 L 2356.25,3326.11 L 2460.04,3326.11 L 2467.72,3326.87 L 2475.11,3329.11 L 2481.92,3332.75 L 2487.88,3337.65 L 2492.61,3342.37 L 2497.5,3348.34 L 2501.14,3355.14 L 2503.37,3362.52 L 2504.13,3370.2 L 2504.13,4530.33 z " style="fill-opacity:1.000000;fill:rgb(151,234,220);stroke:rgb(0,0,0);stroke-width:2"/></g>
<g fill-rule="evenodd"><path d="M 2304.15,3633 L 2304.15,4584.28 L 2303.29,4592.46 L 2300.74,4600.29 L 2296.63,4607.42 L 2291.12,4613.53 L 2284.46,4618.37 L 2276.94,4621.72 L 2268.89,4623.43 L 2260.66,4623.43 L 2252.62,4621.72 L 2245.1,4618.37 L 2238.44,4613.53 L 2232.93,4607.42 L 2228.82,4600.29 L 2226.27,4592.46 L 2225.41,4584.28 L 2225.41,3601.68 L 2226.17,3594 L 2228.41,3586.61 L 2232.05,3579.81 L 2234.31,3577.05 L 2233.09,3565.46 L 2234.57,3551.34 L 2238.96,3537.84 L 2246.06,3525.55 L 2255.56,3515 L 2267.04,3506.65 L 2280.01,3500.88 L 2293.9,3497.93 L 2308.1,3497.93 L 2321.98,3500.88 L 2334.95,3506.65 L 2346.44,3515 L 2355.94,3525.55 L 2363.03,3537.84 L 2367.42,3551.34 L 2368.9,3565.46 L 2367.42,3579.58 L 2363.03,3593.08 L 2355.94,3605.38 L 2346.44,3615.93 L 2334.95,3624.27 L 2321.98,3630.04 L 2308.1,3633 L 2304.15,3633 z " style="fill-opacity:1.000000;fill:rgb(107,150,143);stroke:rgb(0,0,0);stroke-width:2"/></g>
<g fill-rule="evenodd"><path d="M 1292.01,2291.55 L 1291.01,2293.14 L 1281.68,2302.96 L 1270.57,2310.69 L 1258.12,2316.03 L 1244.86,2318.76 L 1238.09,2319.1 L 1224.62,2317.73 L 1211.7,2313.68 L 1199.86,2307.11 L 1189.59,2298.29 L 1181.3,2287.58 L 1175.34,2275.42 L 1171.94,2262.31 L 1171.25,2248.79 L 1173.31,2235.41 L 1178.01,2222.71 L 1185.17,2211.22 L 1194.5,2201.4 L 1205.61,2193.67 L 1218.06,2188.33 L 1231.32,2185.6 L 1238.09,2185.26 L 1251.56,2186.63 L 1264.48,2190.68 L 1276.32,2197.25 L 1286.6,2206.08 L 1291.81,2212.81 L 1735.31,2212.81 L 1736.31,2211.22 L 1745.64,2201.4 L 1756.75,2193.67 L 1769.2,2188.33 L 1782.46,2185.6 L 1789.23,2185.26 L 1802.7,2186.63 L 1815.62,2190.68 L 1827.46,2197.25 L 1837.73,2206.08 L 1842.95,2212.81 L 1861.1,2212.81 L 2136.16,1937.75 L 2142.13,1932.86 L 2148.93,1929.22 L 2156.32,1926.98 L 2164,1926.22 L 2245.74,1926.22 L 2255.56,1915.13 L 2267.04,1906.78 L 2280.01,1901.01 L 2293.9,1898.06 L 2308.1,1898.06 L 2321.98,1901.01 L 2334.95,1906.78 L 2346.44,1915.13 L 2355.94,1925.68 L 2363.03,1937.97 L 2367.42,1951.47 L 2368.9,1965.59 L 2367.42,1979.71 L 2363.03,1993.21 L 2355.94,2005.51 L 2346.44,2016.05 L 2334.95,2024.4 L 2321.98,2030.17 L 2308.1,2033.13 L 2293.9,2033.13 L 2280.01,2030.17 L 2267.04,2024.4 L 2255.56,2016.05 L 2245.74,2004.96 L 2180.31,2004.96 L 1905.25,2280.02 L 1899.28,2284.91 L 1892.47,2288.55 L 1885.09,2290.79 L 1877.41,2291.55 L 1843.14,2291.55 L 1842.15,2293.14 L 1832.82,2302.96 L 1821.71,2310.69 L 1809.26,2316.03 L 1796,2318.76 L 1789.23,2319.1 L 1775.76,2317.73 L 1762.84,2313.68 L 1751,2307.11 L 1740.72,2298.29 L 1735.51,2291.55 L 1292.01,2291.55 z " style="fill-opacity:1.000000;fill:rgb(56,92,42);stroke:rgb(0,0,0);stroke-width:2"/></g>
<g fill-rule="evenodd"><path d="M 1292.01,2491.53 L 1291.01,2493.13 L 1281.68,2502.94 L 1270.57,2510.68 L 1258.12,2516.02 L 1244.86,2518.74 L 1238.09,2519.09 L 1224.62,2517.72 L 1211.7,2513.66 L 1199.86,2507.09 L 1189.59,2498.27 L 1181.3,2487.56 L 1175.34,2475.41 L 1171.94,2462.3 L 1171.25,2448.78 L 1173.31,2435.39 L 1178.01,2422.69 L 1185.17,2411.2 L 1194.5,2401.39 L 1205.61,2393.65 L 1218.06,2388.31 L 1231.32,2385.59 L 1238.09,2385.24 L 1251.56,2386.61 L 1264.48,2390.67 L 1276.32,2397.24 L 1286.6,2406.06 L 1291.81,2412.8 L 1735.31,2412.8 L 1736.31,2411.2 L 1745.64,2401.39 L 1756.75,2393.65 L 1769.2,2388.31 L 1782.46,2385.59 L 1789.23,2385.24 L 1802.7,2386.61 L 1815.62,2390.67 L 1827.46,2397.24 L 1837.73,2406.06 L 1842.95,2412.8 L 1897.32,2412.8 L 2172.38,2137.74 L 2178.35,2132.84 L 2185.15,2129.2 L 2192.54,2126.96 L 2200.22,2126.21 L 2245.74,2126.21 L 2255.56,2115.11 L 2267.04,2106.77 L 2280.01,2100.99 L 2293.9,2098.04 L 2308.1,2098.04 L 2321.98,2100.99 L 2334.95,2106.77 L 2346.44,2115.11 L 2355.94,2125.66 L 2363.03,2137.95 L 2367.42,2151.46 L 2368.9,2165.57 L 2367.42,2179.69 L 2363.03,2193.19 L 2355.94,2205.49 L 2346.44,2216.04 L 2334.95,2224.38 L 2321.98,2230.16 L 2308.1,2233.11 L 2293.9,2233.11 L 2280.01,2230.16 L 2267.04,2224.38 L 2255.56,2216.04 L 2245.74,2204.94 L 2216.52,2204.94 L 1941.46,2480 L 1935.5,2484.9 L 1928.69,2488.53 L 1921.31,2490.77 L 1913.63,2491.53 L 1843.14,2491.53 L 1842.15,2493.13 L 1832.82,2502.94 L 1821.71,2510.68 L 1809.26,2516.02 L 1796,2518.74 L 1789.23,2519.09 L 1775.76,2517.72 L 1762.84,2513.66 L 1751,2507.09 L 1740.72,2498.27 L 1735.51,2491.53 L 1292.01,2491.53 z " style="fill-opacity:1.000000;fill:rgb(236,176,59);stroke:rgb(0,0,0);stroke-width:2"/></g>
<g fill-rule="evenodd"><path d="M 2356.25,2404.93 L 2346.44,2416.02 L 2334.95,2424.37 L 2321.98,2430.14 L 2308.1,2433.09 L 2293.9,2433.09 L 2280.01,2430.14 L 2267.04,2424.37 L 2255.56,2416.02 L 2246.06,2405.47 L 2238.96,2393.18 L 2234.57,2379.68 L 2233.09,2365.56 L 2234.57,2351.44 L 2238.96,2337.94 L 2246.06,2325.64 L 2255.56,2315.09 L 2267.04,2306.75 L 2280.01,2300.98 L 2293.9,2298.02 L 2308.1,2298.02 L 2321.98,2300.98 L 2334.95,2306.75 L 2346.44,2315.09 L 2356.25,2326.19 L 2523.03,2326.19 L 2530.71,2326.95 L 2538.09,2329.19 L 2544.9,2332.83 L 2550.86,2337.72 L 3092.55,2879.41 L 3097.45,2885.38 L 3101.09,2892.18 L 3103.32,2899.57 L 3104.08,2907.25 L 3104.08,4530.33 L 3113.22,4538.17 L 3121.51,4548.88 L 3127.47,4561.04 L 3130.87,4574.14 L 3131.55,4587.67 L 3129.5,4601.05 L 3124.8,4613.75 L 3117.64,4625.24 L 3108.31,4635.06 L 3097.19,4642.79 L 3084.75,4648.13 L 3071.49,4650.86 L 3064.72,4651.2 L 3051.25,4649.83 L 3038.33,4645.78 L 3026.49,4639.21 L 3016.21,4630.38 L 3007.92,4619.68 L 3001.96,4607.52 L 2998.57,4594.41 L 2997.88,4580.89 L 2999.93,4567.5 L 3004.63,4554.81 L 3011.8,4543.31 L 3021.13,4533.5 L 3025.35,4530.56 L 3025.35,2923.56 L 2506.72,2404.93 L 2356.25,2404.93 z " style="fill-opacity:1.000000;fill:rgb(251,50,175);stroke:rgb(0,0,0);stroke-width:2"/></g>
<g fill-rule="evenodd"><path d="M 1967.35,608.22 L 2182.9,608.22 L 2190.58,608.976 L 2197.96,611.216 L 2204.77,614.853 L 2210.73,619.749 L 2288.76,697.781 L 2368.9,697.781 L 2368.9,833.594 L 2233.09,833.594 L 2233.09,753.454 L 2166.59,686.954 L 1967.54,686.954 L 1966.55,688.55 L 1957.22,698.365 L 1946.1,706.1 L 1933.66,711.44 L 1920.4,714.165 L 1913.63,714.509 L 1900.16,713.138 L 1887.24,709.086 L 1875.4,702.514 L 1865.12,693.693 L 1856.83,682.986 L 1850.87,670.829 L 1847.48,657.72 L 1846.79,644.199 L 1848.84,630.814 L 1853.54,618.115 L 1860.71,606.624 L 1870.04,596.809 L 1881.15,589.074 L 1893.59,583.734 L 1906.86,581.008 L 1913.63,580.664 L 1927.1,582.036 L 1940.02,586.088 L 1951.86,592.659 L 1962.13,601.481 L 1967.35,608.22 z " style="fill-opacity:1.000000;fill:rgb(60,84,236);stroke:rgb(0,0,0);stroke-width:2"/></g>
<g fill-rule="evenodd"><path d="M 1967.54,1001.89 L 1966.55,1003.49 L 1957.22,1013.3 L 1946.1,1021.04 L 1933.66,1026.38 L 1920.4,1029.1 L 1913.63,1029.45 L 1900.16,1028.07 L 1887.24,1024.02 L 1875.4,1017.45 L 1865.12,1008.63 L 1856.83,997.923 L 1850.87,985.766 L 1847.48,972.657 L 1846.79,959.136 L 1848.84,945.751 L 1853.54,933.052 L 1860.71,921.561 L 1870.04,911.746 L 1881.15,904.01 L 1893.59,898.671 L 1906.86,895.945 L 1913.63,895.601 L 1927.1,896.973 L 1940.02,901.024 L 1951.86,907.596 L 1962.13,916.417 L 1967.35,923.157 L 2248.4,923.157 L 2255.56,915.207 L 2267.04,906.862 L 2280.01,901.088 L 2293.9,898.137 L 2308.1,898.137 L 2321.98,901.088 L 2334.95,906.862 L 2346.44,915.207 L 2355.94,925.756 L 2363.03,938.051 L 2367.42,951.554 L 2368.9,965.671 L 2367.42,979.788 L 2363.03,993.291 L 2355.94,1005.59 L 2346.44,1016.14 L 2334.95,1024.48 L 2321.98,1030.25 L 2308.1,1033.21 L 2293.9,1033.21 L 2280.01,1030.25 L 2267.04,1024.48 L 2255.56,1016.14 L 2246.06,1005.59 L 2243.93,1001.89 L 1967.54,1001.89 z " style="fill-opacity:1.000000;fill:rgb(24,219,92);stroke:rgb(0,0,0);stroke-width:2"/></g>
<g fill-rule="evenodd"><path d="M 3461.53,4517.52 L 3461.53,3620.34 L 3455.46,3615.93 L 3445.96,3605.38 L 3438.87,3593.08 L 3434.48,3579.58 L 3432.99,3565.46 L 3434.48,3551.34 L 3438.87,3537.84 L 3445.96,3525.55 L 3455.46,3515 L 3466.95,3506.65 L 3479.92,3500.88 L 3493.8,3497.93 L 3508,3497.93 L 3521.89,3500.88 L 3534.85,3506.65 L 3546.34,3515 L 3555.84,3525.55 L 3562.94,3537.84 L 3567.32,3551.34 L 3568.81,3565.46 L 3567.32,3579.58 L 3562.94,3593.08 L 3555.84,3605.38 L 3546.34,3615.93 L 3540.27,3620.34 L 3540.27,4548.06 L 3539.51,4555.74 L 3537.27,4563.13 L 3533.63,4569.93 L 3530.68,4573.53 L 3531.52,4587.67 L 3529.47,4601.05 L 3524.77,4613.75 L 3517.6,4625.24 L 3508.27,4635.06 L 3497.16,4642.79 L 3484.72,4648.13 L 3471.45,4650.86 L 3464.68,4651.2 L 3451.21,4649.83 L 3438.29,4645.78 L 3426.45,4639.21 L 3416.18,4630.38 L 3407.89,4619.68 L 3401.93,4607.52 L 3398.53,4594.41 L 3397.85,4580.89 L 3399.9,4567.5 L 3404.6,4554.81 L 3411.76,4543.31 L 3421.09,4533.5 L 3432.21,4525.76 L 3444.65,4520.42 L 3457.91,4517.7 L 3461.53,4517.52 z " style="fill-opacity:1.000000;fill:rgb(2,26,254);stroke:rgb(0,0,0);stroke-width:2"/></g>
<g fill-rule="evenodd"><path d="M 4826.78,5317.66 L 4835.92,5325.51 L 4844.2,5336.22 L 4850.17,5348.37 L 4853.56,5361.48 L 4854.25,5375 L 4852.2,5388.39 L 4847.49,5401.09 L 4840.33,5412.58 L 4831,5422.39 L 4819.89,5430.13 L 4807.44,5435.47 L 4794.18,5438.19 L 4787.41,5438.54 L 4773.94,5437.17 L 4761.02,5433.12 L 4749.18,5426.54 L 4738.91,5417.72 L 4730.62,5407.02 L 4724.66,5394.86 L 4721.26,5381.75 L 4720.57,5368.23 L 4722.63,5354.84 L 4727.33,5342.14 L 4734.49,5330.65 L 4743.82,5320.84 L 4748.04,5317.9 L 4748.04,5118.65 L 4123.4,4494.01 L 4118.51,4488.05 L 4114.87,4481.24 L 4112.63,4473.86 L 4111.88,4466.18 L 4111.88,3183.38 L 3733.39,2804.89 L 3556.16,2804.89 L 3546.34,2815.99 L 3534.85,2824.34 L 3521.89,2830.11 L 3508,2833.06 L 3493.8,2833.06 L 3479.92,2830.11 L 3466.95,2824.34 L 3455.46,2815.99 L 3445.96,2805.44 L 3438.87,2793.15 L 3434.48,2779.64 L 3432.99,2765.53 L 3434.48,2751.41 L 3438.87,2737.91 L 3445.96,2725.61 L 3455.46,2715.06 L 3466.95,2706.72 L 3479.92,2700.94 L 3493.8,2697.99 L 3508,2697.99 L 3521.89,2700.94 L 3534.85,2706.72 L 3546.34,2715.06 L 3556.15,2726.16 L 3749.7,2726.16 L 3757.38,2726.92 L 3764.76,2729.16 L 3771.57,2732.79 L 3777.53,2737.69 L 4179.08,3139.23 L 4183.97,3145.2 L 4187.61,3152 L 4189.85,3159.39 L 4190.61,3167.07 L 4190.61,4449.87 L 4815.25,5074.51 L 4820.14,5080.47 L 4823.78,5087.28 L 4826.02,5094.66 L 4826.78,5102.35 L 4826.78,5317.66 z " style="fill-opacity:1.000000;fill:rgb(67,251,250);stroke:rgb(0,0,0);stroke-width:2"/></g>
<g fill-rule="evenodd"><path d="M 5168.48,5317.66 L 5177.62,5325.51 L 5185.91,5336.22 L 5191.87,5348.37 L 5195.27,5361.48 L 5195.95,5375 L 5193.9,5388.39 L 5189.2,5401.09 L 5182.04,5412.58 L 5172.71,5422.39 L 5161.59,5430.13 L 5149.15,5435.47 L 5135.89,5438.19 L 5129.12,5438.54 L 5115.64,5437.17 L 5102.73,5433.12 L 5090.89,5426.54 L 5080.61,5417.72 L 5072.32,5407.02 L 5066.36,5394.86 L 5062.97,5381.75 L 5062.28,5368.23 L 5064.33,5354.84 L 5069.03,5342.14 L 5076.2,5330.65 L 5085.53,5320.84 L 5089.75,5317.9 L 5089.75,5263.52 L 4280.87,4454.65 L 4275.98,4448.68 L 4272.34,4441.87 L 4270.1,4434.49 L 4269.34,4426.81 L 4269.34,3144.01 L 3730.24,2604.91 L 3556.16,2604.91 L 3546.34,2616.01 L 3534.85,2624.35 L 3521.89,2630.13 L 3508,2633.08 L 3493.8,2633.08 L 3479.92,2630.13 L 3466.95,2624.35 L 3455.46,2616.01 L 3445.96,2605.46 L 3438.87,2593.16 L 3434.48,2579.66 L 3432.99,2565.54 L 3434.48,2551.43 L 3438.87,2537.92 L 3445.96,2525.63 L 3455.46,2515.08 L 3466.95,2506.73 L 3479.92,2500.96 L 3493.8,2498.01 L 3508,2498.01 L 3521.89,2500.96 L 3534.85,2506.73 L 3546.34,2515.08 L 3556.15,2526.18 L 3746.55,2526.18 L 3754.23,2526.93 L 3761.61,2529.17 L 3768.42,2532.81 L 3774.39,2537.7 L 4336.55,3099.87 L 4341.44,3105.83 L 4345.08,3112.64 L 4347.32,3120.02 L 4348.08,3127.7 L 4348.08,4410.5 L 5156.95,5219.38 L 5161.85,5225.34 L 5165.48,5232.15 L 5167.72,5239.53 L 5168.48,5247.22 L 5168.48,5317.66 z " style="fill-opacity:1.000000;fill:rgb(170,58,251);stroke:rgb(0,0,0);stroke-width:2"/></g>
<g fill-rule="evenodd"><path d="M 4974.8,3594.52 L 4983.84,3604.3 L 4990.09,3615.14 L 4993.96,3627.03 L 4995.27,3639.47 L 4993.96,3651.91 L 4990.09,3663.81 L 4983.84,3674.64 L 4975.47,3683.94 L 4965.35,3691.29 L 4953.92,3696.38 L 4941.68,3698.98 L 4929.18,3698.98 L 4916.94,3696.38 L 4905.51,3691.29 L 4895.39,3683.94 L 4887.02,3674.64 L 4880.77,3663.81 L 4876.9,3651.91 L 4875.59,3639.47 L 4876.9,3627.03 L 4880.77,3615.14 L 4887.02,3604.3 L 4896.06,3594.52 L 4896.06,3573.9 L 4556.44,3234.27 L 4551.54,3228.3 L 4547.91,3221.5 L 4545.67,3214.12 L 4544.91,3206.44 L 4544.91,2907.81 L 4042.03,2404.93 L 3556.16,2404.93 L 3546.34,2416.02 L 3534.85,2424.37 L 3521.89,2430.14 L 3508,2433.09 L 3493.8,2433.09 L 3479.92,2430.14 L 3466.95,2424.37 L 3455.46,2416.02 L 3445.96,2405.47 L 3438.87,2393.18 L 3434.48,2379.68 L 3432.99,2365.56 L 3434.48,2351.44 L 3438.87,2337.94 L 3445.96,2325.64 L 3455.46,2315.09 L 3466.95,2306.75 L 3479.92,2300.98 L 3493.8,2298.02 L 3508,2298.02 L 3521.89,2300.98 L 3534.85,2306.75 L 3546.34,2315.09 L 3556.15,2326.19 L 4058.34,2326.19 L 4066.02,2326.95 L 4073.4,2329.19 L 4080.2,2332.83 L 4086.17,2337.72 L 4612.11,2863.66 L 4617.01,2869.63 L 4620.65,2876.44 L 4622.89,2883.82 L 4623.64,2891.5 L 4623.64,3190.13 L 4963.27,3529.75 L 4968.16,3535.72 L 4971.8,3542.52 L 4974.04,3549.91 L 4974.8,3557.59 L 4974.8,3594.52 z " style="fill-opacity:1.000000;fill:rgb(41,209,230);stroke:rgb(0,0,0);stroke-width:2"/></g>
<g fill-rule="evenodd"><path d="M 5000.3,1119.99 L 5000.95,1118.86 L 5010.59,1108.16 L 5022.24,1099.7 L 5035.39,1093.84 L 5049.48,1090.85 L 5063.88,1090.85 L 5077.97,1093.84 L 5091.13,1099.7 L 5102.78,1108.16 L 5112.42,1118.86 L 5119.62,1131.34 L 5124.07,1145.03 L 5125.57,1159.36 L 5124.07,1173.68 L 5119.62,1187.38 L 5112.42,1199.85 L 5102.78,1210.55 L 5091.13,1219.02 L 5077.97,1224.88 L 5063.88,1227.87 L 5049.48,1227.87 L 5035.39,1224.88 L 5022.24,1219.02 L 5010.59,1210.55 L 5000.95,1199.85 L 5000.3,1198.72 L 4088.81,1198.72 L 3875.67,1411.86 L 3875.67,1671.13 L 3874.92,1678.81 L 3872.68,1686.19 L 3869.04,1693 L 3864.14,1698.96 L 3769.66,1793.44 L 3763.7,1798.34 L 3756.89,1801.98 L 3749.5,1804.22 L 3741.83,1804.97 L 3556.16,1804.97 L 3546.34,1816.07 L 3534.85,1824.42 L 3521.89,1830.19 L 3508,1833.14 L 3493.8,1833.14 L 3479.92,1830.19 L 3466.95,1824.42 L 3455.46,1816.07 L 3445.96,1805.52 L 3438.87,1793.23 L 3434.48,1779.72 L 3432.99,1765.61 L 3434.48,1751.49 L 3438.87,1737.99 L 3445.96,1725.69 L 3455.46,1715.14 L 3466.95,1706.8 L 3479.92,1701.02 L 3493.8,1698.07 L 3508,1698.07 L 3521.89,1701.02 L 3534.85,1706.8 L 3546.34,1715.14 L 3556.15,1726.24 L 3725.52,1726.24 L 3796.94,1654.82 L 3796.94,1395.56 L 3797.7,1387.88 L 3799.94,1380.49 L 3803.57,1373.69 L 3808.47,1367.72 L 4044.67,1131.52 L 4050.64,1126.62 L 4057.44,1122.99 L 4064.83,1120.75 L 4072.51,1119.99 L 5000.3,1119.99 z " style="fill-opacity:1.000000;fill:rgb(5,60,124);stroke:rgb(0,0,0);stroke-width:2"/></g>
<g fill-rule="evenodd"><path d="M 3351.38,1306.89 L 3354.46,1306.59 L 3467.49,1306.59 L 3479.92,1301.06 L 3493.8,1298.1 L 3508,1298.1 L 3521.89,1301.06 L 3534.85,1306.83 L 3546.34,1315.18 L 3555.84,1325.72 L 3562.94,1338.02 L 3567.32,1351.52 L 3568.81,1365.64 L 3567.32,1379.76 L 3562.94,1393.26 L 3555.84,1405.55 L 3546.34,1416.1 L 3534.85,1424.45 L 3521.89,1430.22 L 3508,1433.17 L 3493.8,1433.17 L 3479.92,1430.22 L 3467.49,1424.69 L 3378.91,1424.69 L 3323.75,1479.85 L 3323.75,4553.48 L 3327.45,4561.04 L 3330.85,4574.14 L 3331.54,4587.67 L 3329.48,4601.05 L 3324.78,4613.75 L 3317.62,4625.24 L 3308.29,4635.06 L 3297.18,4642.79 L 3284.73,4648.13 L 3271.47,4650.86 L 3264.7,4651.2 L 3251.23,4649.83 L 3238.31,4645.78 L 3226.47,4639.21 L 3216.2,4630.38 L 3207.91,4619.68 L 3201.94,4607.52 L 3198.55,4594.41 L 3197.86,4580.89 L 3199.92,4567.5 L 3204.62,4554.81 L 3205.65,4553.15 L 3205.65,1455.4 L 3206.78,1443.87 L 3210.14,1432.8 L 3215.6,1422.59 L 3222.95,1413.64 L 3284.86,1351.72 L 2265.8,332.652 L 1293.76,332.652 L 923.157,703.258 L 923.157,2757.09 L 978.83,2812.77 L 1171.17,2812.77 L 1171.17,2785.21 L 1305.01,2785.21 L 1305.01,2919.06 L 1171.17,2919.06 L 1171.17,2891.5 L 962.523,2891.5 L 954.842,2890.74 L 947.457,2888.5 L 940.651,2884.86 L 934.686,2879.97 L 855.952,2801.24 L 851.056,2795.27 L 847.419,2788.46 L 845.179,2781.08 L 844.423,2773.4 L 844.423,686.954 L 845.179,679.272 L 847.419,671.887 L 851.056,665.081 L 855.952,659.116 L 1249.62,265.448 L 1255.59,260.552 L 1262.39,256.914 L 1269.78,254.674 L 1277.46,253.919 L 2282.1,253.919 L 2289.78,254.674 L 2297.16,256.914 L 2303.97,260.552 L 2309.94,265.448 L 3351.38,1306.89 z " style="fill-opacity:1.000000;fill:rgb(148,117,216);stroke:rgb(0,0,0);stroke-width:2"/></g>
<g fill-rule="evenodd"><path d="M 4993.36,4122.52 L 5004.34,4125.96 L 5016.18,4132.53 L 5026.45,4141.35 L 5034.74,4152.06 L 5040.7,4164.22 L 5044.1,4177.33 L 5044.78,4190.85 L 5042.73,4204.23 L 5038.03,4216.93 L 5037,4218.59 L 5037,4320.52 L 5044.87,4320.52 L 5044.87,4454.37 L 4911.03,4454.37 L 4911.03,4320.52 L 4918.9,4320.52 L 4918.9,4218.26 L 4915.83,4212 L 4693.69,3989.86 L 4686.35,3980.91 L 4680.89,3970.71 L 4677.53,3959.63 L 4676.4,3948.11 L 4676.4,3646.97 L 4675.61,3639.47 L 4676.92,3627.03 L 4680.78,3615.14 L 4687.04,3604.3 L 4695.41,3595.01 L 4705.53,3587.65 L 4716.96,3582.56 L 4729.19,3579.96 L 4741.7,3579.96 L 4753.94,3582.56 L 4765.37,3587.65 L 4775.49,3595.01 L 4783.86,3604.3 L 4790.11,3615.14 L 4793.98,3627.03 L 4795.28,3639.47 L 4794.5,3646.97 L 4794.5,3923.65 L 4993.36,4122.52 z " style="fill-opacity:1.000000;fill:rgb(190,97,137);stroke:rgb(0,0,0);stroke-width:2"/></g>
</svg>
